<?xml version="1.0" encoding="utf-8"?>
<!-- Generator: Adobe Illustrator 17.0.0, SVG Export Plug-In . SVG Version: 6.00 Build 0)  -->
<!DOCTYPE svg PUBLIC "-//W3C//DTD SVG 1.1//EN" "http://www.w3.org/Graphics/SVG/1.1/DTD/svg11.dtd">
<svg version="1.1" id="Layer_1" xmlns="http://www.w3.org/2000/svg" xmlns:xlink="http://www.w3.org/1999/xlink" x="0px" y="0px"
	 width="50px" height="50px" viewBox="0 0 50 50" enable-background="new 0 0 50 50" xml:space="preserve">
<g>
	<g>
		<path fill="#FFFFFF" d="M48.116,12.984c-0.379-0.164-0.794-0.255-1.234-0.255c-0.306,0-0.601,0.046-0.882,0.129l-1.958-3.512
			c-0.526,0.208-1.028,0.478-1.492,0.81l2.014,3.614c-0.495,0.552-0.799,1.278-0.799,2.077c0,1.719,1.398,3.118,3.116,3.118
			c1.72,0,3.118-1.399,3.118-3.118c0-0.66-0.208-1.272-0.559-1.777 M46.882,17.847c-1.104,0-2.001-0.898-2.001-2.001
			s0.898-2.001,2.001-2.001s2.001,0.898,2.001,2.001C48.884,16.949,47.986,17.847,46.882,17.847z"/>
		<path fill="#FFFFFF" d="M40.992,9.916c0.193,0.038,0.391,0.059,0.594,0.059c0.287,0,0.564-0.042,0.828-0.115l2.157,3.87
			c0.476-0.31,0.972-0.586,1.486-0.821l-2.192-3.932c0.519-0.557,0.838-1.301,0.838-2.12c0-1.719-1.399-3.117-3.118-3.117
			s-3.116,1.398-3.116,3.117c0,0.906,0.39,1.72,1.008,2.29l-7.008,14.619c-0.279-0.082-0.573-0.128-0.879-0.128
			c-0.294,0-0.578,0.043-0.847,0.12l-6.286-11.619c0.426-0.533,0.682-1.207,0.682-1.941c0-1.719-1.398-3.118-3.117-3.118
			s-3.118,1.399-3.118,3.118c0,0.325,0.051,0.639,0.144,0.935L7.205,18.51c-0.554-0.504-1.287-0.814-2.093-0.814
			c-1.719,0-3.117,1.399-3.117,3.118c0,1.719,1.399,3.117,3.117,3.117c1.719,0,3.118-1.398,3.118-3.117
			c0-0.3-0.045-0.589-0.124-0.865l11.879-7.4c0.547,0.475,1.259,0.765,2.039,0.765c0.366,0,0.716-0.067,1.042-0.183l6.232,11.52
			c-0.51,0.555-0.823,1.292-0.823,2.103c0,1.72,1.399,3.118,3.117,3.118c1.719,0,3.118-1.399,3.118-3.118
			c0-0.795-0.302-1.521-0.795-2.073L40.992,9.916z M41.586,4.855c1.104,0,2.001,0.898,2.001,2.001c0,1.104-0.898,2.001-2.001,2.001
			c-1.103,0-2.001-0.898-2.001-2.001S40.484,4.855,41.586,4.855z M5.112,22.815c-1.103,0-2.001-0.898-2.001-2.001
			c0-1.104,0.898-2.001,2.001-2.001c1.104,0,2.002,0.898,2.002,2.001C7.113,21.917,6.215,22.815,5.112,22.815z M22.022,12.199
			c-1.104,0-2.001-0.898-2.001-2.001c0-1.104,0.898-2.002,2.001-2.002s2.001,0.898,2.001,2.002
			C24.024,11.301,23.125,12.199,22.022,12.199z M31.59,28.757c-1.103,0-2.001-0.898-2.001-2.002c0-1.103,0.898-2.001,2.001-2.001
			c1.104,0,2.002,0.898,2.002,2.001C33.592,27.858,32.694,28.757,31.59,28.757z"/>
		<path fill="#FFFFFF" d="M48.377,44.249l-10.69-12.272c2.978-3.385,3.074-8.546,0.033-12.037c-3.312-3.802-9.101-4.201-12.902-0.89
			c-3.802,3.312-4.201,9.101-0.889,12.902c3.041,3.491,8.166,4.104,11.927,1.618l10.69,12.273c0.44,0.505,1.207,0.558,1.714,0.118
			C48.766,45.521,48.817,44.755,48.377,44.249z M35.237,31.011c-2.793,2.433-7.044,2.14-9.477-0.652
			c-2.433-2.793-2.14-7.044,0.652-9.476c2.793-2.433,7.044-2.14,9.476,0.653C38.322,24.328,38.029,28.579,35.237,31.011z"/>
	</g>
</g>
</svg>
