<?xml version="1.0" encoding="utf-8"?>
<!-- Generator: Adobe Illustrator 17.0.0, SVG Export Plug-In . SVG Version: 6.00 Build 0)  -->
<!DOCTYPE svg PUBLIC "-//W3C//DTD SVG 1.1//EN" "http://www.w3.org/Graphics/SVG/1.1/DTD/svg11.dtd">
<svg version="1.1" id="Layer_1" xmlns="http://www.w3.org/2000/svg" xmlns:xlink="http://www.w3.org/1999/xlink" x="0px" y="0px"
	 width="800px" height="540px" viewBox="814 562 800 540" enable-background="new 814 562 800 540" xml:space="preserve">
<path fill-rule="evenodd" clip-rule="evenodd" fill="#E1EFFB" d="M1270.812,580.496c17.143,1.806,10.46,6.046,25.923,10.251
	c15.463,4.205,30.853,1.577,34.623,15.508c3.77,13.931-5.605,32.856-0.743,48.364c4.862,15.508-1.065,29.176-3.844,33.645
	c-2.779,4.469-31.921,12.091-76.702,9.988c-44.781-2.103-62.404,5.782-87.286,5.52s-43.434-11.566-55.758-17.085
	c-12.323-5.52-23.277-5.257-24.256-16.034c-0.98-10.777,4.73-29.439,3.709-39.69c-1.021-10.251-1.908-28.977-5.749-34.234
	c-3.841-5.257,1.149-15.707,28.398-14.656c27.249,1.052,100.195,0.263,115.442-0.525
	C1239.816,580.759,1252.849,578.605,1270.812,580.496z"/>
<g>
	<g>
		<g>
			<path fill="#FFFFFF" d="M1214.153,696.817c-9.389,0-19.426-0.364-29.523-1.167c-7.856,20.764-31.891,90.719,0.852,90.719
				c14.614,0,22.252,0,26.112,0c1.153,0,1.974,0,2.539,0c3.86,0,11.498,0,26.112,0c32.645,0,8.851-69.533,0.923-90.528
				C1231.918,696.511,1222.763,696.817,1214.153,696.817z"/>
			<path fill="#EEEBE5" d="M1241.575,695.841c-4.981,0.362-9.927,0.608-14.782,0.768v89.761c3.724,0,8.28,0,13.861,0
				C1273.297,786.369,1249.502,716.836,1241.575,695.841z"/>
			<path fill="#BAB7B1" d="M1323.103,646.278c-10.421-33.472-62.669-74.36-108.789-74.36l-0.16,0.002l-0.13-0.002
				c-46.15,0-98.397,40.888-108.82,74.358c-3.885,12.479-1.554,22.286,6.928,29.146c16.785,13.576,55.877,22.008,102.021,22.008
				s85.237-8.431,102.022-22.007C1324.658,668.564,1326.989,658.757,1323.103,646.278z M1126.046,655.128
				c0.36,2.825,1.602,4.603,4.12,4.903c6.284,0.754,4.885,10.579-1,8.905c-9.991-2.645-11.079-13.642-7.525-22.698
				c4.441-11.311,13.442-20.257,23.138-26.377C1136.079,627.55,1124.387,641.756,1126.046,655.128z"/>
			<path fill="#EEEBE5" d="M1323.103,645.453c-10.422-31.165-62.669-69.234-108.789-69.234l-0.16,0.002l-0.13-0.002
				c-46.15,0-98.397,38.069-108.82,69.232c-3.885,11.619-1.554,20.75,6.928,27.137c16.785,12.64,55.877,20.491,102.021,20.491
				c46.144,0,85.236-7.851,102.021-20.491C1324.658,666.202,1326.989,657.071,1323.103,645.453z M1126.046,653.693
				c0.36,2.63,1.602,4.286,4.12,4.565c6.284,0.702,4.885,9.85-1,8.291c-9.991-2.463-11.079-12.702-7.525-21.132
				c4.441-10.531,13.442-18.861,23.138-24.559C1136.079,628.015,1124.387,641.243,1126.046,653.693z"/>
		</g>
		<path fill="#EEEBE5" d="M1270.584,682.256c1.172,0.329,2.42,0.499,3.5,1.016c2.895,1.387,4.79,0.979,5.088-2.566
			c0.151-1.783,1.208-2.213,2.771-2.646c6.916-1.911,8.862-4.58,9.078-11.813c0.015-0.51,0.48-1.006,1.2-2.423
			c1.102,3.743,1.78,7.653,6.161,5.119c2.34,2.174-1.591,3.273-0.336,5.064c6.521-4.398,8.064-7.561,4.901-15.297
			c2.536,1.893,3.986,6.195,3.075,9.217c-2.708,8.994-8.623,14.514-17.939,15.951c-2.808,0.434-5.562,0.949-8.335,1.55
			C1276.219,686.194,1272.847,685.597,1270.584,682.256z"/>
		<path fill="#E3E0D4" d="M1254.096,592.103c2.097,3.477,5.496,3.667,9.04,3.709c3.924,0.046,7.636,0.692,9.446,4.903
			c-1.467,0.816-2.761-0.024-4.108-0.411c-6.36-2.617-11.988-0.434-17.466,2.665c-2.077,1.738-3.186,4.208-4.79,6.299
			c-1.718,2.24-4.218,3.911-6.802,2.257c-2.245-1.438-0.911-3.997-0.154-6.131c1.429-4.021,3.796-7.146,8.359-8.672
			c-3.114-4.494-6.858-5.64-11.713-4.563c-2.355,0.523-4.46,2.147-7.041,1.659c-0.227-0.177-0.454-0.354-0.681-0.532
			c0.153-2.134,1.363-3.037,3.388-3.697c5.734-1.872,11.254-1.246,16.703,0.879C1250.178,591.209,1251.956,592.261,1254.096,592.103
			z"/>
		<path fill="#C4BFA7" d="M1200.574,603.783c-3.484-2.364-7.406-0.71-11.094-1.215c-0.374-0.447-0.824-0.817-1.234-1.227
			c-0.276-0.307-0.63-0.638-0.641-1.009c-0.212-7.731,10.869-18.408,18.589-17.952c1.188-0.28-0.539,2.856,1.659,1.409
			c1.013,0.072,2.047,0.58,3.014,0.254c2.301-0.774,3.676-5.066,6.544-2.835c3.693,2.874,8.695,4.011,10.852,9.176
			c1.709,4.09,1.083,6.914-1.792,9.748c-1.747,2.691-4.643,3.86-7.259,5.363c-0.836,0.48-2.24,1.004-2.872,0.633
			c-3.751-2.198-7.303-0.584-10.916,0.216C1203.371,606.317,1202.242,604.538,1200.574,603.783z"/>
		<g>
			<path fill="#FFFFFF" d="M1164.209,766.09c-2.507,0-5.187-0.097-7.883-0.312c-2.098,5.544-8.515,24.224,0.227,24.224
				c3.902,0,5.941,0,6.973,0c0.308,0,0.527,0,0.678,0c1.031,0,3.07,0,6.973,0c8.717,0,2.364-18.566,0.247-24.174
				C1168.954,766.009,1166.51,766.09,1164.209,766.09z"/>
			<path fill="#EEEBE5" d="M1171.532,765.829c-1.33,0.097-2.651,0.163-3.948,0.204v23.968c0.994,0,2.212,0,3.702,0
				C1180.002,790.003,1173.649,771.435,1171.532,765.829z"/>
			<path fill="#BAB7B1" d="M1193.303,753.537c-2.783-8.323-16.735-18.487-29.049-18.487h-0.043h-0.034
				c-12.323,0-26.275,10.165-29.057,18.487c-1.037,3.102-0.415,5.541,1.85,7.247c4.482,3.374,14.92,5.471,27.243,5.471
				s22.76-2.097,27.243-5.471C1193.717,759.076,1194.34,756.639,1193.303,753.537z M1140.684,755.737
				c0.096,0.702,0.427,1.145,1.1,1.22c1.678,0.189,1.304,2.63-0.268,2.215c-2.667-0.657-2.959-3.392-2.008-5.643
				c1.186-2.813,3.59-5.036,6.178-6.557C1143.363,748.88,1140.239,752.413,1140.684,755.737z"/>
			<path fill="#EEEBE5" d="M1193.303,752.374c-2.783-8.323-16.735-18.487-29.049-18.487h-0.043h-0.034
				c-12.323,0-26.275,10.165-29.057,18.487c-1.037,3.102-0.415,5.541,1.85,7.247c4.482,3.374,14.92,5.471,27.243,5.471
				s22.76-2.097,27.243-5.471C1193.717,757.915,1194.34,755.476,1193.303,752.374z M1140.684,754.575
				c0.096,0.702,0.427,1.145,1.1,1.22c1.678,0.189,1.304,2.63-0.268,2.215c-2.667-0.657-2.959-3.392-2.008-5.643
				c1.186-2.813,3.59-5.036,6.178-6.557C1143.363,747.718,1140.239,751.25,1140.684,754.575z"/>
		</g>
		<path fill="#E6E4D9" d="M1186.826,757.086c-0.489,0.526-1.137,0.347-1.705,0.311c-2.146-0.136-3.902,0.744-5.54,1.986
			c-0.117,0.101-0.216,0.221-0.324,0.333l0,0c-1.505,0.447-3.108,0.177-4.611,0.635c-0.216-0.106-0.435-0.211-0.652-0.317
			c-0.077-0.085-0.11-0.175-0.098-0.271c0.012-0.097,0.03-0.146,0.05-0.146c0.254-0.347,0.62-0.595,0.852-0.966
			c0.629-1.004,0.491-1.347-0.642-1.569c-1.548-0.304-1.753-0.97-0.713-2.31c1.179-0.913,2.584-0.789,3.754-0.333
			c1.732,0.676,3.449,0.723,5.227,0.644c0.602,0.142,1.095,0.506,1.626,0.796c0.48,0.396,1.07,0.371,1.639,0.463
			C1186.152,756.421,1186.823,756.27,1186.826,757.086z"/>
		<path fill="#EAE7DE" d="M1159.948,757.25c-0.106,0.002-0.211,0.005-0.317,0.006c-0.955,0.792-1.951,0.793-2.983,0.157
			c-1.387-0.855-1.415-1.149-0.311-2.221c0.216-0.211,0.252-0.596,0.556-0.815c-1.024-0.057-1.629-0.758-2.094-1.486
			c-0.517-0.81-0.868-1.661-1.632-2.366c-0.781-0.72,0.236-1.451,0.53-2.161v0.002c0.113-0.106,0.224-0.215,0.329-0.33h-0.002
			c0.609-0.875,1.245-1.745,2.007-2.479c0.374-0.36,0.861-0.877,1.557-0.583c-0.039,1.139-0.502,2.14-1.324,2.86
			c-0.863,0.756-0.832,2.212,0.251,2.721c0.436,0.206,0.923,0.32,1.347,0.574c0.371,0.223,0.693,0.535,1.215,0.628
			c0.393-0.275-0.237-0.982,0.391-1.172c0.58-0.175,0.937,0.209,1.249,0.58c0.765,0.908,1.905,1.112,2.892,1.606
			c-0.242,0.792-0.937,0.951-1.57,0.879c-1.544-0.177-1.776,0.619-1.581,1.859c0.058,0.372,0.133,0.764-0.177,1.082l0,0
			C1160.082,756.767,1160.14,757.072,1159.948,757.25z"/>
		<path fill="#EBE8E0" d="M1167.169,743.596c0.193-0.266,0.424-0.311,0.69-0.11c0.261,0.197,0.515,0.477,0.861,0.412
			c1.22-0.224,1.88,0.807,2.816,1.213c0.189,0.082,0.426,0.197,0.326,0.469c-0.411,1.117,0.139,1.128,1.026,1.018
			c0.899-0.112,1.507-0.154,2.166-1.14c0.71-1.064,1.333-2.273,2.27-3.233c0.309-0.318,1.236-1.028,0.085-1.671
			c-0.347-0.194,0.042-0.457,0.212-0.623c0.399-0.387,0.918-0.264,1.4-0.287c0.036,0.058,0.072,0.115,0.109,0.173
			c-0.003,0.069-0.007,0.136-0.009,0.204c-0.043,0.13-0.101,0.254-0.168,0.375c-0.029,0.063-0.061,0.124-0.089,0.187
			c-0.144,0.33-0.178,0.688-0.263,1.034c-0.439,1.973-1.986,3.358-2.736,5.166c-0.061,0.148-0.197,0.304-0.347,0.333
			c-2.074,0.411-2.936,2.33-4.392,3.511c-1.098,0.17-1.702-0.556-2.315-1.268c-0.616-0.944-1.586-0.994-2.579-1.1
			c-0.873-0.093-1.927-0.06-2.019-1.368c1.296,0.366,2.567,0.762,3.96,0.677c0.87-0.052,1.565-0.266,2.217-1.04
			c-1.188-0.629-2.296-1.349-2.892-2.596C1167.383,743.826,1167.308,743.68,1167.169,743.596L1167.169,743.596z"/>
		<path fill="#EEEBE5" d="M1179.278,762.201c0.312,0.088,0.645,0.133,0.934,0.272c0.772,0.371,1.279,0.261,1.359-0.685
			c0.041-0.477,0.323-0.592,0.74-0.707c1.847-0.51,2.366-1.222,2.424-3.154c0.005-0.136,0.129-0.269,0.32-0.647
			c0.295,1,0.475,2.044,1.645,1.368c0.625,0.58-0.424,0.874-0.089,1.352c1.741-1.174,2.154-2.019,1.309-4.084
			c0.677,0.505,1.064,1.654,0.822,2.461c-0.723,2.401-2.303,3.875-4.79,4.259c-0.75,0.115-1.486,0.254-2.225,0.414
			C1180.783,763.253,1179.883,763.094,1179.278,762.201z"/>
		<path fill="#E1DED1" d="M1181.33,750.569c-0.486,1.596-0.105,1.877,2.119,1.39c-0.168,0.601,0.496,1.03,0.055,1.718
			c-0.403,0.629-0.556,1.448-1.512,1.498c-1.508,0.113-2.469-0.979-3.621-1.647l0,0c-0.194-0.177-0.122-0.487-0.333-0.654
			c-0.109-0.11-0.218-0.223-0.328-0.333c-0.208-0.139-0.396-0.295-0.443-0.562c0.031-0.166,0.103-0.312,0.215-0.438
			C1178.679,750.871,1179.894,750.283,1181.33,750.569z"/>
		<path fill="#E3E0D4" d="M1174.876,738.129c0.561,0.928,1.467,0.979,2.413,0.991c1.047,0.012,2.04,0.185,2.523,1.309
			c-0.391,0.218-0.736-0.006-1.097-0.11c-1.697-0.7-3.201-0.115-4.664,0.712c-0.554,0.465-0.85,1.124-1.279,1.683
			c-0.458,0.597-1.127,1.045-1.816,0.602c-0.599-0.384-0.244-1.067-0.041-1.638c0.381-1.074,1.013-1.908,2.231-2.315
			c-0.831-1.2-1.831-1.507-3.128-1.218c-0.629,0.139-1.191,0.574-1.88,0.443c-0.061-0.046-0.121-0.094-0.182-0.142
			c0.04-0.57,0.364-0.81,0.904-0.988c1.532-0.499,3.005-0.333,4.46,0.235C1173.829,737.89,1174.304,738.171,1174.876,738.129z"/>
		<path fill="#EAE7DE" d="M1175.669,752.797c-0.218,0.002-0.436,0.003-0.654,0.005c-0.024-0.063-0.048-0.125-0.072-0.189
			c0.122-0.369,0.484-0.444,0.764-0.623c0.115-0.081,0.233-0.153,0.353-0.226c0.122-0.079,0.251-0.142,0.386-0.196
			c0.141-0.051,0.284-0.084,0.432-0.108c0.226-0.036,0.451-0.051,0.678-0.057c0.828-0.091,1.699,0.187,2.476-0.314
			c2.467-1.45,3.345-1.152,4.631,1.563c0.048,0.175,0.012,0.331-0.106,0.469c-1.581,1.181-3.249,0.455-4.534-0.283
			c-1.483-0.852-2.665-0.885-4.033-0.103C1175.897,752.788,1175.775,752.779,1175.669,752.797z"/>
		<path fill="#DAD6C6" d="M1151.721,763.959c-1.164-0.206-1.889-1.1-2.941-1.495c-0.399-0.149-0.32-0.628-0.494-0.94
			c-0.266-0.477-0.466-1.013-1.285-0.812c-0.168,0.042-0.451-0.009-0.551-0.117c-1-1.079-2.53-1.055-3.842-1.481
			c-0.269-0.225-0.654,0.054-0.93-0.154c-0.109-0.079-0.22-0.157-0.333-0.23c-0.756-0.446-1.663-0.326-2.494-0.492
			c-0.623-0.021-1.078-0.148-1.366-0.774c-0.283-0.614-1.028-0.987-1.366-1.614c-0.324-0.862,0.1-1.577,0.613-2.272
			c0.309-0.257,0.215-0.575,0.193-0.886c-0.081-1.179,0.227-2.201,1.438-2.888c0.985-0.559,1.478-1.59,2.476-2.154
			c0.293-0.166,0.515-0.472,0.894-0.443c1.209,0.094,2.749-1.511,3.956-1.4c-0.626,0.626-1.012,2.222-1.792,2.237
			c-0.688,0.014-0.559,1.614-1.185,2.171c1.164,0.697,0.834-0.396,1.064,0.966c0.005,1.196,0.62,2.035,1.859,2.617
			c0.384-0.522,0.599-1.114,0.892-1.666c0.329-0.62,0.734-0.527,1.145-0.127c0.637,0.62,0.399,2.104-0.438,2.551
			c-1.043,0.558-1.267,1.438-1.419,2.411c-0.134,0.858-0.235,0.868-1.136,0.466c-0.036-0.017,0.063-0.106-0.052-0.087
			c0.209,0.387-0.605,0.832-0.082,1.09c0.46,0.227,1.177,0.224,1.423-0.399c0.381-0.97,1.093-1,1.891-0.642
			c0.7,0.314,1.364,0.717,1.765,1.371c0.036,0.125,0.027,0.249-0.033,0.369c-0.224,0.281-0.308,0.529,0.014,0.822
			c0.515,0.469,0.235,0.758-0.4,0.934c0.542,0.142,0.983-0.187,1.464-0.181c0.539,0.006,1.03,0.359,0.704,0.713
			c-0.923,1.002,0.465,0.841,0.638,1.264c0.149,0.39,0.054,0.762-0.134,1.128C1151.823,763.864,1151.771,763.911,1151.721,763.959z"
			/>
		<path fill="#CFCBB7" d="M1157.162,764.765c-0.11-0.108-0.221-0.215-0.333-0.323c-0.793-0.199-1.134-0.666-1.081-1.52
			c0.076-1.229-0.432-2.5-1.028-3.35c-0.743-1.058-0.48-1.508,0.23-2.14c0.816-0.728,1.675-0.681,2.535-0.06
			c0.318,0.23,0.436,0.637,0.734,0.873c0.592,0.472,1.169,1.018,2.044,0.759c0.554-0.163,1.263,0.052,0.791-1.117
			c-0.309-0.767-0.026-2.049,1.524-1.783c0.363,0.063,0.735-0.197,1.125-0.166c0.153,0.018,0.299,0.06,0.439,0.121
			c0.486,0.341,0.963,0.7,1.5,0.961c0.118,0.105,0.189,0.235,0.208,0.391c-0.021,0.153-0.076,0.293-0.161,0.423
			c-0.24,0.316-0.566,0.513-0.93,0.652c-0.559,0.212-0.666,0.669-0.316,1.03c0.943,0.968,1.39,2.286,2.37,3.213
			c0.139,0.057,0.275,0.118,0.414,0.173c0.226,0.062,0.456,0.097,0.689,0.11c0.82,0.197,1.907-0.434,2.404,0.765
			c-0.218,0-0.444-0.039-0.652,0.006c-1.518,0.33-2.868,0.122-4.356-0.523c-1.236-0.537-2.84-0.604-4.208,0.196
			C1159.842,764.041,1158.395,764.078,1157.162,764.765z"/>
		<path fill="#C4BFA7" d="M1184.792,755.596c-0.93-0.63-1.979-0.19-2.962-0.324c-0.1-0.12-0.22-0.218-0.33-0.328
			c-0.073-0.082-0.169-0.17-0.172-0.269c-0.057-2.064,2.902-4.915,4.964-4.794c0.317-0.075-0.144,0.762,0.443,0.376
			c0.271,0.019,0.547,0.156,0.805,0.067c0.614-0.206,0.982-1.352,1.747-0.758c0.986,0.767,2.32,1.071,2.898,2.451
			c0.457,1.093,0.29,1.845-0.478,2.603c-0.466,0.719-1.241,1.031-1.938,1.431c-0.223,0.129-0.597,0.268-0.767,0.169
			c-1.001-0.587-1.95-0.156-2.916,0.058C1185.538,756.273,1185.237,755.797,1184.792,755.596z"/>
		<path fill="#E4E2D6" d="M1184.731,743.133c1.306,1.129,2.796,2.054,3.829,3.488c0.72,0.998,1.383,2.027,1.891,3.15
			c-1.363,0.153-2.552-0.731-3.975-0.586c-0.686,0.07-1.012-0.987-0.851-1.713c0.202-0.916-0.542-1.236-0.903-1.796
			c-0.168-0.26-0.366-0.309-0.609,0.027c-0.271,0.375-0.463,2.657-0.173,3.053c0.714,0.976,0.224,2.289-0.955,2.574
			c-0.911,0.221-1-0.419-1.069-1.038c-0.06-0.539,0.079-1.097-0.133-1.626c-0.082-0.204-0.178-0.4-0.338-0.623
			c-0.673,1.248-2.159,1.052-3.118,1.804c-0.146,0.067-0.296,0.073-0.448,0.029v0.002c-0.822-1.804,0.735-2.872,1.498-4.199
			c-0.836-0.264-0.871,0.57-1.486,0.65c0.005-0.801-0.424-1.569,0.426-2.308c0.343-0.297,0.626-1.11,0.46-1.464
			c-0.444-0.94-0.063-0.877,0.604-0.695c0.181,0.05,0.348,0.073,0.342-0.166c-0.029-1.191,0.942-0.659,1.443-0.762
			c0.724-0.149,1.122,0.287,1.018,1.076c-0.024,0.178,0.073,0.374,0.268,0.269C1183.553,741.68,1183.916,743.002,1184.731,743.133z"
			/>
		<path fill="#E4E2D6" d="M1172.666,754.213c1.306,1.129,2.796,2.054,3.829,3.488c0.72,0.998,1.383,2.027,1.891,3.15
			c-1.363,0.153-2.552-0.731-3.975-0.586c-0.686,0.07-1.012-0.987-0.85-1.713c0.202-0.916-0.542-1.236-0.903-1.796
			c-0.168-0.26-0.366-0.309-0.609,0.027c-0.271,0.375-0.463,2.657-0.173,3.053c0.714,0.976,0.224,2.289-0.955,2.575
			c-0.911,0.221-1-0.419-1.069-1.038c-0.06-0.539,0.079-1.097-0.133-1.626c-0.082-0.204-0.178-0.4-0.338-0.623
			c-0.673,1.248-2.159,1.052-3.118,1.804c-0.146,0.067-0.296,0.073-0.448,0.029v0.002c-0.822-1.804,0.735-2.872,1.498-4.199
			c-0.836-0.264-0.871,0.57-1.486,0.65c0.005-0.801-0.424-1.569,0.426-2.308c0.343-0.297,0.626-1.11,0.46-1.464
			c-0.444-0.94-0.063-0.877,0.604-0.695c0.181,0.05,0.348,0.073,0.342-0.166c-0.029-1.191,0.942-0.659,1.443-0.762
			c0.725-0.149,1.122,0.287,1.018,1.076c-0.024,0.178,0.073,0.374,0.268,0.269C1171.49,752.761,1171.852,754.083,1172.666,754.213z"
			/>
		<path fill="#E4E2D6" d="M1154.959,755.07c1.306,1.129,2.796,2.054,3.829,3.488c0.72,0.998,1.383,2.027,1.891,3.15
			c-1.363,0.153-2.552-0.731-3.975-0.586c-0.686,0.07-1.012-0.987-0.85-1.713c0.202-0.916-0.542-1.236-0.903-1.796
			c-0.168-0.26-0.366-0.309-0.609,0.027c-0.271,0.375-0.463,2.657-0.173,3.053c0.714,0.976,0.224,2.289-0.955,2.574
			c-0.911,0.221-1-0.419-1.069-1.038c-0.06-0.539,0.079-1.097-0.133-1.626c-0.082-0.204-0.178-0.4-0.338-0.623
			c-0.673,1.248-2.159,1.052-3.118,1.804c-0.146,0.067-0.296,0.073-0.448,0.029v0.002c-0.822-1.804,0.735-2.872,1.498-4.199
			c-0.836-0.264-0.871,0.57-1.486,0.65c0.005-0.801-0.424-1.569,0.426-2.308c0.343-0.297,0.626-1.11,0.46-1.464
			c-0.444-0.94-0.063-0.877,0.604-0.695c0.181,0.05,0.348,0.073,0.342-0.166c-0.029-1.191,0.942-0.659,1.443-0.762
			c0.724-0.149,1.122,0.287,1.018,1.076c-0.024,0.178,0.073,0.374,0.268,0.269C1153.784,753.616,1154.145,754.94,1154.959,755.07z"
			/>
		<path fill="#DEDBCC" d="M1156.144,755.183c-0.513-0.211-0.808-0.664-0.81-1.146c-0.003-1.145-0.367-1.955-1.713-2.092
			c1.352-1.141,2.759-1.024,4.208-0.642c-0.166-1.091-0.166-1.091-1.167-2.121c-0.249-0.045-0.393,0.122-0.538,0.28
			c-0.906,0.98-0.94,1.026-1.955,0.26c-0.51-0.386-0.767-0.314-1.236,0.052c-0.342,0.266-0.783,0.145-0.456-0.484
			c0.039-0.075,0.072-0.203,0.036-0.26c-0.525-0.82-0.481-1.088,0.336-1.393c0.304-0.113,0.713-0.097,0.792-0.457
			c0.118-0.535,0.281-0.466,0.604-0.165c0.469,0.438,1.012,0.317,1.529,0.103c0.237-0.098,0.556-0.218,0.453-0.574
			c-0.432-1.478,0.64-2.42,1.236-3.531c0.108-0.002,0.216-0.005,0.324-0.007c0.112-0.108,0.224-0.216,0.335-0.324
			c0.832-0.201,1.558-0.661,2.44-0.804c0.901-0.146,1.582-0.033,2.212,0.582c0.115,0.112,0.22,0.254,0.357,0.32
			c0.29,0.139,0.852-0.228,0.856,0.424c0.003,0.492-0.355,0.896-0.759,0.971c-1.768,0.324-1.562,1.929-2.375,3.138
			c1.047,0.096,1.626-0.085,1.959-0.856c0.261-0.605,0.58-1.182,1.229-1.474c0.122,0.101,0.214,0.227,0.272,0.375
			c-0.05,2.442-1.819,3.769-4.156,3.108c-0.318-0.089-0.664-0.236-0.913,0.041c-0.341,0.376,0.07,0.563,0.292,0.768
			c0.396,0.367,0.26,0.753,0.132,1.193c-0.704,2.403-0.642,2.499,1.671,3.122c0.157,0.042,0.285,0.154,0.398,0.275
			c-0.925,0.641-1.973,0.204-2.956,0.33c-0.221-0.203-0.441-0.203-0.662,0.002c-0.109,0.002-0.218,0.003-0.326,0.005
			c-0.106,0.113-0.227,0.212-0.33,0.328l0,0c-0.324,0.317-0.942-0.042-1.165,0.503
			C1156.246,755.08,1156.195,755.131,1156.144,755.183z"/>
		<path fill="#D3D0BD" d="M1150.733,740.442c1.541-0.848,3.309-0.561,4.933-0.988c0.582,1.759,1.412,2.221,2.965,1.647
			c0.48-0.057,0.906,0.103,1.315,0.326c0.224,0.215,0.822,0.057,0.657,0.657c-0.665-0.161-1.253,0.704-1.632,0.49
			c-1.53-0.863-0.468,1.105-1.197,1.01c-0.05,0.595,0.55,0.399,0.788,0.647c0.151,0.157,0.351,0.316,0.224,0.55
			c-0.063,0.117-0.244,0.216-0.384,0.237c-0.741,0.112-1.518,0.055-2.177,0.52c-0.153,0.108-0.4,0.052-0.432-0.073
			c-0.228-0.932-1.848-0.391-1.786-1.773c0.017-0.375-0.927-0.738-1.556-0.568c-0.716,0.194-1.225,0.759-1.502,1.402
			c-0.129,0.299,0.3,0.468,0.689,0.41c0.585-0.088,0.734,0.185,0.372,0.633c-0.427,0.53-0.108,0.973,0.177,1.324
			c0.451,0.559,0.7,1.205,0.478,1.819c-0.308,0.852,0.199,1.186,0.698,1.601c-0.22,0-0.439,0.002-0.657,0.002
			c-0.247-0.121-0.444-0.288-0.573-0.541c-1.002-1.961-1.608-2.137-3.492-1.014c-0.088,0.052-0.146,0.154-0.218,0.232
			c-0.327,0.002-0.654,0.012-0.982,0.003c-1.503-0.041-2.237-1.024-1.86-2.494c0.067-0.263,0.17-0.517,0.244-0.779
			c0.13-0.463,1.148-1.177-0.39-1.173c-0.443,0.002-0.318-0.625-0.189-0.97c0.125-0.333,0.252-0.846,0.744-0.685
			c0.501,0.165,1.1,0.066,1.502,0.549c0.276,0.331,0.752,0.415,1.04,0.17C1149.536,742.76,1150.88,742.106,1150.733,740.442z"/>
		<path fill="#C9C4AE" d="M1168.65,750.965c-0.629-0.702-1.381-0.161-1.737,0.134c-1.44,1.193-2.782,2.521-3.199,4.472
			c-0.781-0.202-1.704-0.256-1.368-1.503c0.072-0.268-0.137-0.556-0.402-0.652c-1.186-0.427-1.369-1.463-1.605-2.569
			c0.728-0.206,1.476-0.355,2.056-0.868c1.421,1.131,2.681,0.685,3.561-0.625c1.1-1.637,2.9-1.448,4.412-2.018
			c0.236-0.088,0.46,0.048,0.573,0.223c0.336,0.522,0.565,0.608,1.097,0.112c0.462-0.431,1.225-0.48,1.865-0.486
			c2.034-0.017,2.437,0.375,2.748,2.394c0.034,0.22,0.117,0.563-0.036,0.613c-1.75,0.574-0.701,1.689-0.546,2.636
			c0.027,0.16-0.065,0.316-0.181,0.439c-0.903,0.367-1.013,1.385-1.632,1.984c-0.112,0-0.224-0.002-0.336-0.002
			c0.946-1.267,0.124-2.327-0.408-3.418c-0.1-0.204-0.3-0.415-0.505-0.333c-0.851,0.338-0.963-0.311-1.284-0.817
			c-0.321-0.506-0.915-0.448-1.222,0.015C1169.875,751.641,1169.56,751.687,1168.65,750.965z"/>
		<path fill="#CFCBB7" d="M1188.576,755.893c-0.067-1.042-0.908-1.8-1.047-2.83c0.47-0.312,1.09,0.073,1.563-0.347
			c0.106-0.7-1.1-1.184-0.366-2.031c0.132-0.151-0.168-0.386-0.396-0.354c-1.037,0.145-2.086-0.191-3.122,0.093
			c-0.144,0.039-0.252,0.029-0.376,0.168c-0.707,0.795-0.716,0.786-1.327-0.173c-0.129-0.203-0.45-0.36-0.505-0.172
			c-0.292,0.988-0.889,0.546-1.483,0.427c-0.635-0.125-1.222,0.182-1.615,0.626c-0.583,0.656-1.261,1.177-1.925,1.737
			c-1.049,0.885-1.527,0.961-2.512,0.098c-0.158-0.139-0.254-0.348-0.379-0.526l0.005-0.005c0.366-0.387,0.873-0.424,1.348-0.508
			c1.23-0.218,2.142-0.731,2.294-2.128c0.079-0.717,0.462-1.073,1.279-1.186c1.318-0.182,2.539-1.129,3.962-0.453
			c0.259,0.324,0.027,0.736,0.191,1.082c0.865-0.093,1.718-0.136,2.586-0.022c0.892,0.117,0.891,0.073,1.351-0.951
			c0.057-0.127,0.228-0.251,0.367-0.28c0.256-0.051,0.398,0.125,0.412,0.371c0.051,0.846,0.16,1.464,1.244,0.772
			c0.499-0.32,0.58-0.19,0.434,1.004c0.04,1.137-0.031,2.25-0.732,3.216c-0.386,0.532-0.209,1.136-0.266,1.711
			C1189.229,755.452,1188.901,755.674,1188.576,755.893z"/>
		<path fill="#D7D3C2" d="M1186.131,759.156c-0.574,0.064-1.212-0.189-1.685,0.375c-0.244,0.29-0.582,0.308-0.894,0.132
			c-0.728-0.411-1.194,0.659-1.927,0.324c-0.109-0.05-0.345,0.242-0.343,0.489c0.006,0.88-0.153,1.745-0.911,2.255
			c-0.923,0.621-2.02,0.736-3.122,0.701c-0.002-0.109-0.002-0.216-0.003-0.326c-0.621-0.206-1.128-0.607-1.646-0.988
			c-0.22-0.22-0.439-0.439-0.657-0.657c0.704-0.417,0.335-1.14,0.405-1.718c0.63-0.06,0.81,0.292,0.976,0.723
			c0.124,0.321,0.448,0.532,0.776,0.448c0.469-0.12,0.224-0.498,0.19-0.801c-0.042-0.375,0.046-0.788-0.076-1.128
			c-0.328-0.906,0.367-0.783,0.874-1.033c0,0.537,0,0.951,0,1.337c0.226,0.139,0.345,0.036,0.438-0.103
			c0.203-0.304,0.395-0.614,0.607-0.944c0.553,0.312,0.702,0.747,0.748,1.245c0.734-0.408,1.209-1.102,1.811-1.656
			c0.244-0.224,0.448-0.484,0.47-0.837c0.027-0.405-0.031-0.812-0.454-0.963c-0.472-0.169-0.441,0.347-0.638,0.559
			c-0.062,0.065-0.187,0.07-0.288,0.105c-0.398-0.351-0.108-0.686,0.024-1.026c0.112-0.293,0.376-0.607,0.05-0.895
			c-0.302-0.268-0.642-0.46-0.157-0.87c0.4-0.338,1.213-0.573,1.29-0.372c0.436,1.139,1.306,0.314,1.967,0.379
			c-0.214,0.755-0.716,0.587-1.116,0.647c-0.271,0.041-0.586,0.058-0.515,0.455c0.041,0.228,0.22,0.399,0.469,0.351
			c0.753-0.148,1.339,0.328,1.999,0.518c0.482,0.141,1.182,1.23,1.157,1.753c-0.009,0.18-0.012,0.348,0.145,0.422
			c0.582,0.271,1.263-0.153,1.867,0.296c0.142,0.105,0.692-0.206,0.998-0.7c-1.122-0.237-1.754-1.248-3.098-1.325
			c1.232-1.435,2.219-2.796,4.222-2.435c0.103,0.244,0.256,0.478,0.299,0.732c0.091,0.525,0.387,0.366,0.688,0.256
			c0.326,0.527,0.868,0.988,0.376,1.728c0.659,0.039,1.194-0.263,1.706,0.072c-0.4,1.061-1.345,1.311-2.231,1.427
			c-0.74,0.098-1.141,0.372-1.507,0.998c-0.49,0.846-0.817,0.923-1.73,0.4C1187.17,759.209,1186.675,759.156,1186.131,759.156z"/>
		<path fill="#C4BFA7" d="M1160.584,741.248c-0.93-0.63-1.979-0.19-2.962-0.324c-0.1-0.12-0.22-0.218-0.33-0.328
			c-0.073-0.082-0.169-0.17-0.172-0.269c-0.057-2.064,2.902-4.915,4.964-4.794c0.317-0.075-0.144,0.762,0.443,0.376
			c0.271,0.019,0.547,0.156,0.805,0.067c0.614-0.206,0.982-1.352,1.747-0.758c0.987,0.767,2.32,1.071,2.898,2.451
			c0.457,1.093,0.29,1.845-0.478,2.603c-0.466,0.719-1.241,1.031-1.938,1.431c-0.223,0.129-0.598,0.268-0.767,0.169
			c-1.001-0.587-1.95-0.156-2.916,0.058C1161.33,741.923,1161.029,741.45,1160.584,741.248z"/>
		<g>
			<path fill="#FFFFFF" d="M1290.816,759.262c-1.517,0-3.137-0.058-4.769-0.189c-1.268,3.353-5.15,14.651,0.137,14.651
				c2.36,0,3.594,0,4.218,0c0.187,0,0.318,0,0.41,0c0.623,0,1.857,0,4.217,0c5.272,0,1.43-11.229,0.149-14.619
				C1293.685,759.212,1292.206,759.262,1290.816,759.262z"/>
			<path fill="#EEEBE5" d="M1295.245,759.104c-0.804,0.058-1.603,0.098-2.388,0.124v14.496c0.601,0,1.337,0,2.238,0
				C1300.367,773.723,1296.524,762.494,1295.245,759.104z"/>
			<path fill="#BAB7B1" d="M1308.41,751.669c-1.683-5.033-10.121-11.181-17.569-11.181h-0.026h-0.021
				c-7.453,0-15.891,6.148-17.574,11.181c-0.628,1.877-0.251,3.35,1.119,4.383c2.711,2.042,9.025,3.309,16.476,3.309
				c7.453,0,13.765-1.267,16.476-3.309C1308.661,755.019,1309.038,753.546,1308.41,751.669z M1276.587,753
				c0.058,0.424,0.259,0.692,0.665,0.736c1.014,0.113,0.789,1.59-0.161,1.339c-1.614-0.398-1.789-2.052-1.215-3.413
				c0.717-1.701,2.171-3.046,3.736-3.966C1278.207,748.853,1276.318,750.989,1276.587,753z"/>
			<path fill="#EEEBE5" d="M1308.41,750.966c-1.683-5.033-10.121-11.181-17.569-11.181h-0.026h-0.021
				c-7.453,0-15.891,6.148-17.574,11.181c-0.628,1.877-0.251,3.35,1.119,4.383c2.711,2.042,9.025,3.309,16.476,3.309
				c7.453,0,13.765-1.267,16.476-3.309C1308.661,754.316,1309.038,752.842,1308.41,750.966z M1276.587,752.296
				c0.058,0.424,0.259,0.692,0.665,0.736c1.014,0.113,0.789,1.59-0.161,1.339c-1.614-0.398-1.789-2.052-1.215-3.413
				c0.717-1.701,2.171-3.046,3.736-3.966C1278.207,748.149,1276.318,750.287,1276.587,752.296z"/>
		</g>
		<path fill="#E6E4D9" d="M1304.493,753.816c-0.296,0.318-0.688,0.209-1.031,0.189c-1.297-0.082-2.36,0.45-3.35,1.201
			c-0.07,0.062-0.132,0.133-0.196,0.202l0,0c-0.91,0.271-1.88,0.106-2.789,0.384c-0.132-0.064-0.263-0.127-0.395-0.191
			c-0.046-0.051-0.067-0.106-0.06-0.163c0.007-0.058,0.018-0.088,0.03-0.088c0.154-0.211,0.375-0.36,0.515-0.583
			c0.381-0.608,0.297-0.815-0.388-0.949c-0.935-0.184-1.061-0.587-0.431-1.397c0.713-0.551,1.562-0.478,2.27-0.202
			c1.047,0.41,2.086,0.438,3.162,0.39c0.364,0.087,0.662,0.307,0.983,0.481c0.29,0.239,0.647,0.224,0.99,0.28
			C1304.086,753.412,1304.492,753.321,1304.493,753.816z"/>
		<path fill="#EAE7DE" d="M1288.237,753.915c-0.064,0.002-0.129,0.003-0.191,0.003c-0.578,0.48-1.181,0.48-1.804,0.096
			c-0.839-0.517-0.856-0.695-0.189-1.344c0.132-0.127,0.153-0.36,0.336-0.493c-0.619-0.034-0.985-0.457-1.266-0.898
			c-0.312-0.49-0.525-1.006-0.986-1.43c-0.472-0.435,0.144-0.877,0.32-1.308v0.002c0.069-0.064,0.136-0.13,0.199-0.201h-0.002
			c0.369-0.529,0.753-1.055,1.213-1.5c0.226-0.218,0.52-0.53,0.942-0.353c-0.024,0.689-0.304,1.294-0.801,1.729
			c-0.523,0.457-0.503,1.337,0.151,1.646c0.263,0.124,0.559,0.194,0.815,0.347c0.224,0.134,0.42,0.324,0.735,0.379
			c0.237-0.166-0.144-0.593,0.236-0.709c0.35-0.106,0.566,0.127,0.755,0.351c0.463,0.549,1.152,0.673,1.749,0.971
			c-0.146,0.478-0.566,0.575-0.949,0.532c-0.934-0.108-1.074,0.374-0.956,1.125c0.036,0.226,0.081,0.462-0.106,0.654l0,0
			C1288.318,753.623,1288.354,753.807,1288.237,753.915z"/>
		<path fill="#EBE8E0" d="M1292.604,745.657c0.117-0.161,0.257-0.189,0.417-0.067c0.158,0.12,0.312,0.288,0.52,0.249
			c0.738-0.136,1.137,0.489,1.702,0.734c0.113,0.05,0.259,0.12,0.197,0.284c-0.248,0.676,0.084,0.681,0.62,0.616
			c0.544-0.067,0.911-0.093,1.309-0.69c0.429-0.644,0.807-1.375,1.373-1.956c0.187-0.193,0.747-0.621,0.052-1.01
			c-0.209-0.117,0.026-0.276,0.129-0.376c0.24-0.233,0.554-0.16,0.848-0.173c0.022,0.034,0.043,0.07,0.065,0.105
			c-0.002,0.042-0.005,0.082-0.006,0.124c-0.027,0.079-0.061,0.154-0.101,0.227c-0.018,0.038-0.038,0.075-0.054,0.112
			c-0.087,0.201-0.108,0.415-0.16,0.625c-0.266,1.193-1.201,2.031-1.654,3.125c-0.038,0.089-0.12,0.184-0.211,0.202
			c-1.254,0.248-1.776,1.409-2.655,2.123c-0.664,0.103-1.03-0.336-1.4-0.768c-0.372-0.571-0.959-0.601-1.56-0.665
			c-0.527-0.057-1.165-0.036-1.221-0.827c0.783,0.221,1.553,0.46,2.396,0.41c0.526-0.031,0.946-0.161,1.342-0.629
			c-0.719-0.381-1.388-0.816-1.749-1.57C1292.734,745.796,1292.689,745.707,1292.604,745.657L1292.604,745.657z"/>
		<path fill="#EEEBE5" d="M1299.93,756.909c0.19,0.052,0.39,0.081,0.565,0.165c0.468,0.224,0.774,0.158,0.822-0.414
			c0.024-0.288,0.194-0.357,0.446-0.427c1.117-0.309,1.431-0.74,1.466-1.908c0.003-0.082,0.077-0.163,0.194-0.391
			c0.178,0.605,0.287,1.236,0.995,0.827c0.378,0.351-0.257,0.529-0.054,0.817c1.054-0.71,1.302-1.221,0.792-2.47
			c0.41,0.307,0.644,1,0.496,1.488c-0.438,1.452-1.393,2.343-2.898,2.576c-0.453,0.07-0.898,0.154-1.347,0.251
			C1300.839,757.546,1300.294,757.449,1299.93,756.909z"/>
		<path fill="#E1DED1" d="M1301.17,749.874c-0.295,0.966-0.063,1.134,1.282,0.841c-0.101,0.363,0.3,0.623,0.033,1.038
			c-0.244,0.381-0.336,0.875-0.915,0.906c-0.911,0.069-1.493-0.592-2.191-0.995l0,0c-0.118-0.106-0.075-0.295-0.202-0.396
			c-0.065-0.067-0.132-0.134-0.197-0.202c-0.125-0.084-0.239-0.178-0.268-0.339c0.018-0.1,0.063-0.189,0.13-0.264
			C1299.566,750.056,1300.302,749.7,1301.17,749.874z"/>
		<path fill="#E3E0D4" d="M1297.267,742.35c0.339,0.562,0.887,0.592,1.46,0.599c0.633,0.007,1.233,0.112,1.526,0.792
			c-0.237,0.132-0.446-0.005-0.664-0.065c-1.026-0.423-1.935-0.07-2.821,0.431c-0.336,0.281-0.514,0.68-0.774,1.018
			c-0.278,0.362-0.681,0.632-1.098,0.364c-0.363-0.232-0.148-0.645-0.026-0.99c0.23-0.65,0.613-1.153,1.349-1.4
			c-0.503-0.726-1.107-0.91-1.892-0.736c-0.381,0.084-0.72,0.347-1.137,0.268c-0.038-0.029-0.073-0.057-0.11-0.085
			c0.024-0.345,0.22-0.49,0.547-0.597c0.927-0.302,1.817-0.202,2.698,0.142C1296.633,742.206,1296.92,742.375,1297.267,742.35z"/>
		<path fill="#EAE7DE" d="M1297.747,751.222c-0.132,0.002-0.264,0.002-0.396,0.003c-0.015-0.038-0.029-0.076-0.043-0.113
			c0.075-0.223,0.293-0.269,0.462-0.376c0.069-0.048,0.141-0.093,0.214-0.136c0.074-0.048,0.153-0.085,0.233-0.118
			c0.085-0.03,0.172-0.051,0.261-0.064c0.136-0.021,0.272-0.03,0.41-0.034c0.501-0.055,1.028,0.112,1.498-0.19
			c1.491-0.877,2.023-0.697,2.801,0.946c0.029,0.106,0.007,0.201-0.064,0.284c-0.956,0.714-1.965,0.275-2.742-0.172
			c-0.897-0.515-1.611-0.535-2.44-0.063C1297.884,751.216,1297.81,751.212,1297.747,751.222z"/>
		<path fill="#DAD6C6" d="M1283.262,757.972c-0.704-0.124-1.143-0.665-1.778-0.904c-0.24-0.089-0.193-0.379-0.299-0.568
			c-0.161-0.288-0.283-0.613-0.777-0.49c-0.101,0.026-0.273-0.005-0.333-0.07c-0.605-0.652-1.53-0.638-2.324-0.895
			c-0.163-0.136-0.396,0.033-0.562-0.093c-0.065-0.048-0.133-0.094-0.202-0.139c-0.457-0.269-1.006-0.197-1.508-0.297
			c-0.376-0.012-0.652-0.089-0.827-0.468c-0.17-0.372-0.621-0.596-0.827-0.976c-0.196-0.522,0.06-0.954,0.371-1.375
			c0.187-0.156,0.13-0.348,0.117-0.537c-0.05-0.713,0.137-1.332,0.87-1.747c0.596-0.338,0.894-0.961,1.498-1.303
			c0.177-0.1,0.312-0.285,0.539-0.268c0.731,0.057,1.663-0.915,2.392-0.848c-0.379,0.378-0.613,1.344-1.083,1.354
			c-0.415,0.009-0.338,0.976-0.716,1.313c0.704,0.422,0.505-0.239,0.642,0.584c0.003,0.723,0.375,1.232,1.124,1.582
			c0.232-0.316,0.362-0.674,0.539-1.007c0.199-0.375,0.444-0.32,0.693-0.076c0.384,0.375,0.242,1.272-0.264,1.544
			c-0.63,0.338-0.767,0.87-0.859,1.459c-0.081,0.518-0.142,0.526-0.688,0.283c-0.022-0.01,0.038-0.064-0.031-0.052
			c0.127,0.235-0.366,0.503-0.051,0.659c0.278,0.137,0.712,0.136,0.861-0.24c0.23-0.587,0.661-0.605,1.143-0.388
			c0.423,0.19,0.825,0.434,1.067,0.828c0.022,0.076,0.017,0.151-0.021,0.223c-0.134,0.17-0.187,0.32,0.009,0.496
			c0.312,0.284,0.142,0.457-0.242,0.565c0.329,0.085,0.595-0.112,0.886-0.109c0.326,0.003,0.623,0.216,0.426,0.431
			c-0.559,0.607,0.281,0.508,0.386,0.765c0.089,0.236,0.031,0.462-0.082,0.683C1283.324,757.915,1283.293,757.944,1283.262,757.972z
			"/>
		<path fill="#CFCBB7" d="M1286.553,758.461c-0.067-0.066-0.134-0.13-0.202-0.196c-0.48-0.12-0.686-0.403-0.653-0.919
			c0.046-0.743-0.261-1.512-0.621-2.027c-0.45-0.64-0.29-0.911,0.139-1.294c0.493-0.441,1.013-0.412,1.533-0.036
			c0.193,0.139,0.264,0.386,0.444,0.527c0.359,0.285,0.707,0.616,1.236,0.459c0.335-0.098,0.764,0.031,0.478-0.676
			c-0.187-0.463-0.015-1.239,0.922-1.079c0.22,0.038,0.444-0.12,0.68-0.1c0.093,0.01,0.181,0.036,0.266,0.073
			c0.295,0.206,0.582,0.423,0.907,0.582c0.072,0.063,0.113,0.142,0.125,0.236c-0.014,0.093-0.046,0.178-0.097,0.256
			c-0.145,0.19-0.342,0.311-0.562,0.393c-0.338,0.129-0.403,0.405-0.19,0.623c0.571,0.586,0.841,1.383,1.435,1.943
			c0.084,0.034,0.166,0.072,0.249,0.105c0.137,0.038,0.275,0.058,0.417,0.067c0.496,0.12,1.153-0.263,1.454,0.463
			c-0.132,0-0.269-0.024-0.395,0.003c-0.918,0.201-1.735,0.075-2.634-0.317c-0.747-0.324-1.717-0.364-2.545,0.118
			C1288.173,758.021,1287.299,758.044,1286.553,758.461z"/>
		<path fill="#C4BFA7" d="M1303.264,752.915c-0.562-0.381-1.196-0.115-1.792-0.196c-0.06-0.072-0.133-0.132-0.199-0.199
			c-0.045-0.05-0.101-0.103-0.103-0.163c-0.034-1.248,1.756-2.972,3.003-2.899c0.191-0.045-0.087,0.462,0.268,0.227
			c0.163,0.012,0.33,0.094,0.487,0.041c0.372-0.125,0.594-0.817,1.057-0.457c0.596,0.465,1.405,0.649,1.753,1.483
			c0.276,0.661,0.175,1.117-0.29,1.574c-0.283,0.435-0.75,0.623-1.172,0.867c-0.134,0.077-0.362,0.161-0.463,0.101
			c-0.605-0.355-1.179-0.094-1.764,0.034C1303.715,753.323,1303.532,753.036,1303.264,752.915z"/>
		<path fill="#E4E2D6" d="M1303.226,745.377c0.791,0.683,1.69,1.244,2.316,2.109c0.435,0.604,0.837,1.225,1.143,1.905
			c-0.825,0.093-1.544-0.443-2.404-0.354c-0.415,0.043-0.611-0.596-0.514-1.035c0.122-0.554-0.329-0.747-0.546-1.086
			c-0.101-0.157-0.221-0.187-0.369,0.017c-0.163,0.227-0.28,1.608-0.105,1.845c0.432,0.59,0.136,1.383-0.578,1.557
			c-0.551,0.134-0.604-0.252-0.645-0.628c-0.036-0.328,0.048-0.664-0.081-0.983c-0.05-0.124-0.108-0.242-0.203-0.376
			c-0.407,0.755-1.306,0.637-1.886,1.091c-0.088,0.041-0.179,0.045-0.272,0.018l0,0c-0.498-1.091,0.446-1.738,0.906-2.539
			c-0.505-0.16-0.526,0.343-0.898,0.393c0.003-0.484-0.257-0.949,0.257-1.395c0.208-0.181,0.379-0.673,0.278-0.886
			c-0.268-0.57-0.039-0.53,0.366-0.42c0.109,0.03,0.211,0.045,0.208-0.1c-0.017-0.72,0.57-0.399,0.873-0.462
			c0.438-0.089,0.678,0.173,0.616,0.652c-0.015,0.108,0.045,0.226,0.161,0.163C1302.515,744.499,1302.733,745.298,1303.226,745.377z
			"/>
		<path fill="#E4E2D6" d="M1295.931,752.078c0.791,0.683,1.69,1.244,2.316,2.109c0.435,0.604,0.837,1.225,1.143,1.905
			c-0.825,0.093-1.544-0.443-2.404-0.354c-0.415,0.043-0.611-0.596-0.514-1.035c0.122-0.554-0.329-0.747-0.546-1.086
			c-0.101-0.157-0.221-0.187-0.369,0.017c-0.163,0.227-0.28,1.608-0.105,1.845c0.432,0.59,0.136,1.383-0.578,1.557
			c-0.551,0.134-0.604-0.252-0.645-0.628c-0.036-0.328,0.048-0.664-0.081-0.983c-0.05-0.124-0.108-0.242-0.203-0.376
			c-0.407,0.755-1.306,0.637-1.886,1.091c-0.088,0.041-0.179,0.045-0.272,0.018l0,0c-0.498-1.091,0.446-1.738,0.906-2.539
			c-0.505-0.16-0.526,0.343-0.898,0.393c0.003-0.484-0.257-0.949,0.257-1.395c0.208-0.181,0.379-0.673,0.278-0.886
			c-0.268-0.57-0.039-0.53,0.366-0.42c0.109,0.03,0.211,0.045,0.208-0.1c-0.017-0.721,0.57-0.399,0.873-0.462
			c0.438-0.089,0.678,0.173,0.616,0.652c-0.014,0.108,0.045,0.226,0.161,0.163C1295.218,751.2,1295.437,752,1295.931,752.078z"/>
		<path fill="#E4E2D6" d="M1285.222,752.597c0.791,0.683,1.69,1.244,2.316,2.109c0.435,0.604,0.837,1.225,1.143,1.905
			c-0.825,0.093-1.544-0.443-2.404-0.354c-0.415,0.043-0.611-0.596-0.514-1.035c0.122-0.554-0.329-0.747-0.546-1.086
			c-0.101-0.157-0.221-0.187-0.369,0.017c-0.163,0.227-0.28,1.608-0.105,1.845c0.432,0.59,0.136,1.383-0.578,1.557
			c-0.551,0.134-0.604-0.252-0.645-0.628c-0.036-0.328,0.048-0.664-0.081-0.983c-0.05-0.124-0.108-0.242-0.203-0.376
			c-0.407,0.755-1.306,0.637-1.886,1.091c-0.088,0.041-0.179,0.045-0.272,0.018l0,0c-0.498-1.091,0.445-1.738,0.906-2.539
			c-0.505-0.16-0.526,0.343-0.898,0.393c0.003-0.484-0.257-0.949,0.257-1.395c0.208-0.181,0.379-0.673,0.278-0.886
			c-0.268-0.57-0.039-0.53,0.366-0.42c0.109,0.03,0.211,0.045,0.208-0.1c-0.017-0.721,0.57-0.399,0.873-0.462
			c0.438-0.089,0.678,0.173,0.616,0.652c-0.015,0.108,0.045,0.226,0.161,0.163C1284.509,751.716,1284.729,752.518,1285.222,752.597z
			"/>
		<path fill="#DEDBCC" d="M1285.937,752.665c-0.309-0.129-0.489-0.4-0.49-0.693c-0.002-0.693-0.223-1.182-1.035-1.266
			c0.817-0.69,1.668-0.619,2.545-0.388c-0.1-0.659-0.1-0.659-0.705-1.282c-0.151-0.027-0.237,0.075-0.326,0.169
			c-0.549,0.593-0.57,0.62-1.182,0.157c-0.308-0.233-0.463-0.19-0.747,0.031c-0.206,0.161-0.474,0.088-0.275-0.293
			c0.024-0.045,0.043-0.122,0.021-0.157c-0.317-0.496-0.292-0.657,0.203-0.843c0.184-0.069,0.431-0.058,0.48-0.276
			c0.072-0.323,0.169-0.283,0.364-0.1c0.284,0.264,0.611,0.191,0.925,0.063c0.144-0.06,0.336-0.133,0.273-0.347
			c-0.261-0.894,0.387-1.463,0.747-2.135c0.065-0.002,0.13-0.003,0.196-0.005c0.067-0.065,0.134-0.132,0.203-0.196
			c0.503-0.121,0.943-0.399,1.476-0.486c0.546-0.088,0.956-0.021,1.337,0.351c0.07,0.067,0.133,0.154,0.216,0.194
			c0.175,0.084,0.515-0.139,0.518,0.256c0.002,0.297-0.215,0.542-0.458,0.587c-1.07,0.196-0.944,1.167-1.436,1.898
			c0.633,0.058,0.983-0.051,1.185-0.518c0.158-0.366,0.351-0.716,0.743-0.891c0.075,0.062,0.129,0.137,0.165,0.227
			c-0.03,1.476-1.1,2.279-2.514,1.88c-0.193-0.054-0.402-0.144-0.553,0.024c-0.206,0.228,0.043,0.341,0.177,0.465
			c0.239,0.223,0.157,0.456,0.079,0.722c-0.426,1.454-0.388,1.511,1.01,1.889c0.096,0.026,0.172,0.093,0.24,0.166
			c-0.561,0.388-1.193,0.124-1.788,0.201c-0.133-0.122-0.268-0.122-0.4,0c-0.065,0.002-0.132,0.002-0.197,0.003
			c-0.064,0.069-0.137,0.129-0.201,0.199l0,0c-0.196,0.191-0.57-0.026-0.705,0.305
			C1285.999,752.602,1285.969,752.634,1285.937,752.665z"/>
		<path fill="#D3D0BD" d="M1282.665,743.75c0.932-0.513,2.001-0.339,2.984-0.597c0.352,1.064,0.855,1.344,1.793,0.995
			c0.29-0.034,0.547,0.063,0.795,0.197c0.134,0.13,0.496,0.034,0.398,0.398c-0.402-0.098-0.757,0.426-0.987,0.296
			c-0.925-0.523-0.283,0.668-0.724,0.611c-0.03,0.36,0.333,0.242,0.477,0.391c0.091,0.096,0.212,0.191,0.134,0.333
			c-0.039,0.07-0.146,0.132-0.232,0.144c-0.448,0.067-0.918,0.033-1.316,0.314c-0.093,0.065-0.242,0.031-0.261-0.045
			c-0.139-0.563-1.117-0.236-1.081-1.071c0.01-0.227-0.561-0.447-0.94-0.343c-0.434,0.118-0.741,0.46-0.908,0.848
			c-0.077,0.181,0.182,0.283,0.417,0.247c0.353-0.054,0.444,0.112,0.224,0.384c-0.259,0.32-0.065,0.589,0.106,0.801
			c0.273,0.338,0.423,0.729,0.288,1.1c-0.187,0.515,0.12,0.717,0.423,0.968c-0.133,0-0.266,0-0.398,0.002
			c-0.149-0.073-0.269-0.175-0.347-0.328c-0.607-1.186-0.973-1.292-2.111-0.613c-0.053,0.031-0.088,0.093-0.133,0.141
			c-0.199,0.002-0.396,0.007-0.595,0.002c-0.91-0.024-1.354-0.619-1.125-1.508c0.041-0.158,0.103-0.312,0.148-0.47
			c0.077-0.281,0.695-0.712-0.236-0.71c-0.268,0-0.193-0.378-0.113-0.586c0.076-0.202,0.153-0.511,0.45-0.414
			c0.304,0.1,0.665,0.041,0.908,0.331c0.168,0.201,0.454,0.251,0.629,0.103C1281.942,745.151,1282.753,744.756,1282.665,743.75z"/>
		<path fill="#C9C4AE" d="M1293.501,750.113c-0.381-0.424-0.836-0.097-1.05,0.081c-0.871,0.72-1.683,1.524-1.935,2.705
			c-0.472-0.122-1.031-0.156-0.827-0.908c0.043-0.161-0.084-0.336-0.244-0.395c-0.717-0.259-0.828-0.885-0.971-1.554
			c0.439-0.125,0.894-0.215,1.244-0.526c0.859,0.685,1.622,0.414,2.154-0.378c0.665-0.989,1.754-0.875,2.669-1.221
			c0.142-0.054,0.278,0.03,0.345,0.134c0.203,0.316,0.342,0.367,0.664,0.067c0.28-0.26,0.741-0.29,1.129-0.295
			c1.23-0.01,1.475,0.227,1.661,1.448c0.021,0.133,0.07,0.341-0.021,0.371c-1.058,0.347-0.423,1.022-0.329,1.594
			c0.017,0.096-0.039,0.19-0.109,0.266c-0.546,0.223-0.613,0.839-0.986,1.2c-0.067,0-0.136,0-0.203,0
			c0.573-0.767,0.075-1.407-0.247-2.066c-0.06-0.124-0.181-0.251-0.305-0.202c-0.514,0.204-0.583-0.189-0.777-0.494
			c-0.194-0.307-0.553-0.272-0.74,0.009C1294.241,750.522,1294.051,750.549,1293.501,750.113z"/>
		<path fill="#CFCBB7" d="M1305.552,753.094c-0.041-0.63-0.549-1.088-0.633-1.713c0.284-0.189,0.659,0.043,0.944-0.211
			c0.064-0.423-0.665-0.716-0.221-1.229c0.079-0.091-0.101-0.233-0.239-0.214c-0.628,0.087-1.261-0.115-1.888,0.055
			c-0.087,0.024-0.153,0.017-0.227,0.1c-0.427,0.481-0.432,0.475-0.803-0.105c-0.078-0.122-0.272-0.218-0.306-0.103
			c-0.177,0.597-0.538,0.33-0.897,0.259c-0.384-0.076-0.74,0.11-0.978,0.378c-0.352,0.398-0.762,0.713-1.164,1.05
			c-0.633,0.535-0.923,0.582-1.52,0.06c-0.096-0.084-0.154-0.211-0.228-0.318l0.003-0.003c0.221-0.233,0.527-0.257,0.815-0.308
			c0.744-0.132,1.294-0.443,1.387-1.287c0.048-0.435,0.28-0.649,0.774-0.717c0.798-0.11,1.536-0.685,2.396-0.273
			c0.157,0.196,0.017,0.446,0.117,0.654c0.523-0.057,1.04-0.082,1.563-0.014c0.539,0.07,0.538,0.045,0.817-0.575
			c0.034-0.076,0.139-0.153,0.223-0.169c0.156-0.031,0.24,0.076,0.249,0.224c0.03,0.511,0.097,0.886,0.752,0.468
			c0.302-0.193,0.351-0.115,0.263,0.607c0.024,0.688-0.019,1.361-0.443,1.944c-0.233,0.321-0.127,0.688-0.161,1.034
			C1305.948,752.828,1305.749,752.961,1305.552,753.094z"/>
		<path fill="#D7D3C2" d="M1304.074,755.067c-0.348,0.039-0.734-0.113-1.019,0.227c-0.146,0.175-0.351,0.185-0.541,0.079
			c-0.439-0.248-0.722,0.399-1.165,0.196c-0.065-0.03-0.209,0.146-0.208,0.296c0.005,0.532-0.093,1.055-0.551,1.364
			c-0.559,0.375-1.222,0.446-1.889,0.424c0-0.066-0.002-0.132-0.002-0.197c-0.376-0.124-0.683-0.366-0.995-0.597
			c-0.133-0.133-0.266-0.266-0.398-0.398c0.426-0.252,0.203-0.69,0.245-1.038c0.381-0.036,0.49,0.177,0.59,0.438
			c0.075,0.194,0.271,0.321,0.469,0.272c0.284-0.072,0.136-0.302,0.115-0.484c-0.026-0.227,0.029-0.477-0.046-0.683
			c-0.197-0.547,0.223-0.474,0.529-0.625c0,0.324,0,0.575,0,0.808c0.136,0.085,0.209,0.022,0.264-0.063
			c0.122-0.184,0.239-0.371,0.366-0.571c0.335,0.189,0.424,0.453,0.453,0.753c0.444-0.247,0.731-0.666,1.095-1.001
			c0.148-0.136,0.271-0.293,0.285-0.506c0.017-0.245-0.019-0.49-0.275-0.583c-0.285-0.101-0.268,0.209-0.386,0.338
			c-0.038,0.041-0.113,0.042-0.175,0.063c-0.24-0.212-0.065-0.414,0.014-0.621c0.067-0.177,0.227-0.367,0.03-0.541
			c-0.182-0.161-0.388-0.278-0.094-0.526c0.242-0.204,0.734-0.347,0.78-0.224c0.263,0.689,0.789,0.19,1.189,0.228
			c-0.13,0.456-0.434,0.355-0.676,0.391c-0.165,0.024-0.354,0.036-0.312,0.275c0.024,0.137,0.133,0.242,0.284,0.212
			c0.456-0.089,0.81,0.199,1.209,0.314c0.292,0.085,0.714,0.744,0.7,1.061c-0.005,0.109-0.007,0.211,0.088,0.254
			c0.352,0.165,0.764-0.093,1.13,0.18c0.085,0.063,0.419-0.124,0.604-0.423c-0.678-0.144-1.061-0.755-1.874-0.801
			c0.746-0.867,1.342-1.69,2.552-1.472c0.063,0.146,0.154,0.288,0.181,0.443c0.055,0.317,0.235,0.221,0.415,0.154
			c0.197,0.318,0.525,0.597,0.227,1.045c0.399,0.024,0.722-0.158,1.033,0.043c-0.242,0.641-0.813,0.792-1.349,0.863
			c-0.448,0.06-0.69,0.224-0.911,0.604c-0.297,0.511-0.494,0.559-1.046,0.242C1304.701,755.1,1304.402,755.067,1304.074,755.067z"/>
		<path fill="#C4BFA7" d="M1288.623,744.237c-0.562-0.381-1.196-0.115-1.792-0.196c-0.06-0.072-0.133-0.132-0.199-0.199
			c-0.045-0.05-0.101-0.103-0.103-0.163c-0.034-1.248,1.756-2.972,3.003-2.899c0.191-0.045-0.087,0.462,0.268,0.227
			c0.163,0.012,0.33,0.094,0.487,0.041c0.372-0.125,0.594-0.817,1.057-0.457c0.596,0.465,1.405,0.649,1.753,1.483
			c0.276,0.661,0.175,1.117-0.29,1.574c-0.283,0.435-0.75,0.623-1.172,0.867c-0.134,0.077-0.362,0.161-0.463,0.101
			c-0.605-0.355-1.179-0.094-1.764,0.034C1289.074,744.646,1288.892,744.358,1288.623,744.237z"/>
		<g>
			<path fill="#FFFFFF" d="M1267.241,784.055c-0.786,0-1.626-0.03-2.471-0.097c-0.657,1.738-2.669,7.592,0.072,7.592
				c1.222,0,1.862,0,2.185,0c0.097,0,0.166,0,0.212,0c0.323,0,0.963,0,2.185,0c2.732,0,0.741-5.819,0.077-7.576
				C1268.728,784.03,1267.961,784.055,1267.241,784.055z"/>
			<path fill="#EEEBE5" d="M1269.537,783.973c-0.417,0.03-0.831,0.051-1.237,0.064v7.513c0.312,0,0.693,0,1.16,0
				C1272.19,791.55,1270.2,785.73,1269.537,783.973z"/>
			<path fill="#BAB7B1" d="M1276.36,780.121c-0.873-2.608-5.246-5.794-9.104-5.794h-0.014h-0.01c-3.863,0-8.234,3.186-9.107,5.794
				c-0.326,0.973-0.13,1.737,0.58,2.272c1.405,1.058,4.676,1.716,8.537,1.716s7.133-0.657,8.537-1.716
				C1276.49,781.857,1276.684,781.093,1276.36,780.121z M1259.867,780.811c0.03,0.22,0.134,0.359,0.345,0.383
				c0.526,0.058,0.41,0.825-0.084,0.693c-0.837-0.206-0.927-1.062-0.629-1.768c0.372-0.882,1.125-1.578,1.937-2.054
				C1260.708,778.662,1259.729,779.767,1259.867,780.811z"/>
			<path fill="#EEEBE5" d="M1276.36,779.757c-0.873-2.608-5.246-5.794-9.104-5.794h-0.014h-0.01c-3.863,0-8.234,3.186-9.107,5.794
				c-0.326,0.973-0.13,1.737,0.58,2.272c1.405,1.058,4.676,1.716,8.537,1.716s7.133-0.657,8.537-1.716
				C1276.49,781.494,1276.684,780.728,1276.36,779.757z M1259.867,780.446c0.03,0.22,0.134,0.359,0.345,0.383
				c0.526,0.058,0.41,0.825-0.084,0.693c-0.837-0.206-0.927-1.062-0.629-1.768c0.372-0.882,1.125-1.578,1.937-2.054
				C1260.708,778.298,1259.729,779.405,1259.867,780.446z"/>
		</g>
		<path fill="#E6E4D9" d="M1274.329,781.234c-0.154,0.165-0.357,0.109-0.535,0.097c-0.673-0.042-1.222,0.233-1.737,0.621
			c-0.038,0.031-0.067,0.069-0.101,0.105l0,0c-0.472,0.141-0.975,0.055-1.445,0.199c-0.069-0.033-0.136-0.066-0.204-0.098
			c-0.024-0.027-0.034-0.055-0.031-0.085c0.005-0.03,0.009-0.046,0.015-0.046c0.079-0.109,0.194-0.187,0.268-0.302
			c0.197-0.316,0.154-0.423-0.202-0.491c-0.486-0.096-0.55-0.304-0.223-0.723c0.369-0.285,0.81-0.248,1.176-0.105
			c0.542,0.212,1.082,0.227,1.638,0.202c0.189,0.045,0.343,0.158,0.51,0.249c0.151,0.124,0.335,0.117,0.514,0.145
			C1274.118,781.025,1274.329,780.977,1274.329,781.234z"/>
		<path fill="#EAE7DE" d="M1265.905,781.284c-0.033,0-0.065,0.002-0.098,0.002c-0.299,0.248-0.611,0.248-0.935,0.05
			c-0.435-0.268-0.444-0.36-0.097-0.697c0.069-0.066,0.079-0.187,0.175-0.256c-0.321-0.018-0.511-0.237-0.656-0.465
			c-0.161-0.254-0.272-0.522-0.511-0.741c-0.245-0.226,0.075-0.455,0.166-0.677l0,0c0.036-0.033,0.07-0.067,0.103-0.103l0,0
			c0.191-0.275,0.39-0.547,0.629-0.777c0.117-0.113,0.271-0.275,0.489-0.182c-0.012,0.357-0.157,0.671-0.415,0.897
			c-0.271,0.236-0.261,0.693,0.079,0.853c0.136,0.064,0.29,0.1,0.422,0.179c0.117,0.07,0.216,0.168,0.381,0.197
			c0.124-0.087-0.075-0.308,0.122-0.367c0.182-0.055,0.293,0.065,0.391,0.182c0.239,0.284,0.597,0.348,0.906,0.503
			c-0.076,0.248-0.295,0.297-0.492,0.275c-0.484-0.055-0.558,0.194-0.494,0.583c0.018,0.117,0.042,0.239-0.055,0.339l0,0
			C1265.947,781.133,1265.966,781.229,1265.905,781.284z"/>
		<path fill="#EBE8E0" d="M1268.167,777.006c0.061-0.084,0.133-0.097,0.216-0.034c0.082,0.062,0.161,0.149,0.269,0.13
			c0.383-0.07,0.589,0.252,0.882,0.381c0.06,0.026,0.133,0.061,0.101,0.146c-0.129,0.35,0.043,0.353,0.321,0.318
			c0.283-0.034,0.472-0.048,0.678-0.357c0.223-0.333,0.419-0.713,0.712-1.013c0.097-0.1,0.387-0.323,0.027-0.523
			c-0.109-0.062,0.014-0.144,0.065-0.196c0.125-0.121,0.288-0.082,0.439-0.089c0.012,0.018,0.022,0.036,0.034,0.054
			c-0.002,0.021-0.003,0.043-0.003,0.064c-0.014,0.041-0.031,0.079-0.052,0.118c-0.009,0.019-0.019,0.039-0.029,0.058
			c-0.045,0.103-0.055,0.215-0.082,0.324c-0.137,0.619-0.623,1.052-0.858,1.618c-0.019,0.046-0.061,0.096-0.109,0.105
			c-0.65,0.129-0.92,0.731-1.376,1.1c-0.343,0.054-0.534-0.175-0.726-0.398c-0.193-0.296-0.498-0.312-0.808-0.345
			c-0.273-0.029-0.604-0.018-0.632-0.429c0.407,0.115,0.804,0.239,1.242,0.212c0.272-0.017,0.49-0.084,0.695-0.326
			c-0.372-0.197-0.719-0.423-0.906-0.813C1268.235,777.076,1268.212,777.032,1268.167,777.006L1268.167,777.006z"/>
		<path fill="#EEEBE5" d="M1271.963,782.837c0.099,0.027,0.202,0.042,0.293,0.085c0.242,0.117,0.4,0.082,0.426-0.215
			c0.012-0.149,0.101-0.185,0.232-0.221c0.578-0.16,0.741-0.383,0.759-0.989c0.002-0.043,0.041-0.084,0.1-0.203
			c0.093,0.314,0.149,0.641,0.515,0.429c0.196,0.182-0.133,0.273-0.029,0.424c0.546-0.367,0.676-0.632,0.411-1.28
			c0.212,0.158,0.333,0.518,0.257,0.771c-0.227,0.753-0.722,1.215-1.502,1.335c-0.235,0.036-0.465,0.079-0.698,0.13
			C1272.435,783.166,1272.153,783.117,1271.963,782.837z"/>
		<path fill="#E1DED1" d="M1272.607,779.191c-0.153,0.501-0.033,0.589,0.664,0.436c-0.052,0.189,0.156,0.323,0.018,0.538
			c-0.127,0.197-0.173,0.454-0.474,0.469c-0.472,0.036-0.774-0.307-1.136-0.515l0,0c-0.061-0.055-0.039-0.153-0.105-0.204
			c-0.034-0.034-0.069-0.07-0.103-0.105c-0.066-0.043-0.124-0.093-0.139-0.177c0.009-0.052,0.033-0.097,0.067-0.137
			C1271.775,779.285,1272.156,779.101,1272.607,779.191z"/>
		<path fill="#E3E0D4" d="M1270.584,775.292c0.175,0.292,0.46,0.307,0.756,0.311c0.329,0.005,0.64,0.058,0.791,0.411
			c-0.122,0.069-0.232-0.002-0.343-0.034c-0.532-0.22-1.002-0.036-1.462,0.223c-0.173,0.145-0.266,0.353-0.4,0.527
			c-0.144,0.187-0.352,0.327-0.57,0.189c-0.189-0.121-0.076-0.335-0.014-0.513c0.12-0.336,0.318-0.597,0.7-0.726
			c-0.26-0.376-0.574-0.472-0.98-0.383c-0.197,0.043-0.374,0.179-0.589,0.139c-0.019-0.015-0.038-0.03-0.057-0.045
			c0.014-0.18,0.113-0.254,0.284-0.309c0.48-0.157,0.942-0.105,1.397,0.073C1270.257,775.218,1270.405,775.305,1270.584,775.292z"/>
		<path fill="#EAE7DE" d="M1270.832,779.889c-0.069,0-0.137,0.002-0.204,0.002c-0.007-0.019-0.015-0.039-0.022-0.06
			c0.039-0.115,0.153-0.139,0.239-0.196c0.036-0.026,0.073-0.048,0.11-0.07c0.039-0.026,0.079-0.045,0.121-0.062
			c0.045-0.017,0.089-0.026,0.134-0.033c0.07-0.01,0.142-0.017,0.212-0.018c0.26-0.029,0.534,0.058,0.776-0.098
			c0.772-0.455,1.047-0.362,1.451,0.49c0.015,0.055,0.003,0.105-0.033,0.146c-0.496,0.371-1.019,0.142-1.421-0.088
			c-0.465-0.268-0.836-0.276-1.264-0.033C1270.904,779.886,1270.867,779.883,1270.832,779.889z"/>
		<path fill="#DAD6C6" d="M1263.327,783.388c-0.364-0.064-0.592-0.345-0.922-0.468c-0.125-0.046-0.1-0.197-0.156-0.295
			c-0.084-0.149-0.146-0.318-0.402-0.254c-0.052,0.014-0.142-0.003-0.173-0.036c-0.314-0.338-0.793-0.33-1.205-0.465
			c-0.085-0.07-0.204,0.017-0.292-0.048c-0.034-0.026-0.069-0.05-0.105-0.072c-0.237-0.139-0.522-0.101-0.781-0.154
			c-0.196-0.006-0.338-0.046-0.427-0.242c-0.088-0.193-0.323-0.309-0.427-0.506c-0.101-0.271,0.031-0.494,0.193-0.713
			c0.097-0.081,0.067-0.181,0.061-0.278c-0.026-0.369,0.072-0.69,0.45-0.906c0.309-0.175,0.463-0.498,0.776-0.676
			c0.091-0.052,0.161-0.148,0.28-0.139c0.378,0.03,0.862-0.474,1.241-0.439c-0.196,0.196-0.317,0.697-0.562,0.701
			c-0.215,0.005-0.175,0.505-0.371,0.68c0.364,0.218,0.261-0.124,0.333,0.304c0.002,0.375,0.194,0.638,0.583,0.82
			c0.12-0.163,0.189-0.348,0.28-0.522c0.103-0.194,0.23-0.166,0.359-0.04c0.199,0.194,0.125,0.659-0.137,0.8
			c-0.328,0.175-0.398,0.451-0.445,0.756c-0.042,0.269-0.074,0.272-0.355,0.146c-0.012-0.005,0.019-0.033-0.017-0.027
			c0.066,0.121-0.19,0.261-0.026,0.342c0.145,0.072,0.369,0.07,0.446-0.125c0.12-0.304,0.342-0.314,0.592-0.202
			c0.22,0.098,0.427,0.224,0.553,0.429c0.012,0.039,0.009,0.077-0.01,0.115c-0.07,0.088-0.097,0.166,0.005,0.257
			c0.161,0.146,0.073,0.237-0.125,0.293c0.17,0.045,0.308-0.058,0.459-0.057c0.169,0.002,0.323,0.112,0.221,0.223
			c-0.29,0.314,0.145,0.263,0.201,0.396c0.046,0.122,0.017,0.239-0.042,0.354C1263.359,783.357,1263.342,783.372,1263.327,783.388z"
			/>
		<path fill="#CFCBB7" d="M1265.032,783.64c-0.034-0.034-0.07-0.067-0.105-0.101c-0.248-0.063-0.355-0.209-0.339-0.477
			c0.024-0.386-0.134-0.783-0.323-1.05c-0.233-0.331-0.151-0.472,0.072-0.671c0.256-0.228,0.525-0.214,0.795-0.019
			c0.1,0.072,0.137,0.201,0.23,0.273c0.185,0.148,0.366,0.318,0.641,0.237c0.173-0.051,0.396,0.017,0.248-0.35
			c-0.097-0.24-0.007-0.642,0.478-0.559c0.113,0.019,0.23-0.062,0.352-0.052c0.048,0.006,0.094,0.018,0.137,0.038
			c0.153,0.106,0.302,0.22,0.47,0.302c0.038,0.033,0.06,0.073,0.064,0.122c-0.006,0.048-0.024,0.093-0.051,0.133
			c-0.075,0.098-0.178,0.161-0.292,0.204c-0.175,0.066-0.209,0.209-0.099,0.323c0.296,0.304,0.436,0.717,0.743,1.007
			c0.043,0.018,0.087,0.038,0.13,0.054c0.07,0.019,0.142,0.03,0.216,0.034c0.257,0.062,0.598-0.136,0.753,0.239
			c-0.069,0-0.139-0.012-0.204,0.002c-0.475,0.103-0.899,0.039-1.366-0.165c-0.387-0.169-0.891-0.19-1.32,0.061
			C1265.873,783.412,1265.418,783.424,1265.032,783.64z"/>
		<path fill="#C4BFA7" d="M1273.693,780.766c-0.292-0.197-0.62-0.06-0.928-0.101c-0.031-0.038-0.069-0.069-0.103-0.103
			c-0.022-0.026-0.052-0.054-0.054-0.085c-0.018-0.647,0.91-1.541,1.556-1.502c0.1-0.024-0.045,0.239,0.139,0.118
			c0.085,0.006,0.172,0.048,0.252,0.021c0.193-0.064,0.308-0.424,0.547-0.237c0.309,0.24,0.728,0.336,0.908,0.768
			c0.144,0.342,0.091,0.578-0.149,0.816c-0.146,0.226-0.388,0.323-0.607,0.448c-0.07,0.041-0.187,0.084-0.24,0.052
			c-0.314-0.184-0.611-0.05-0.913,0.018C1273.925,780.978,1273.832,780.829,1273.693,780.766z"/>
		<path fill="#E4E2D6" d="M1273.673,776.86c0.41,0.354,0.875,0.644,1.2,1.093c0.226,0.312,0.434,0.635,0.592,0.988
			c-0.427,0.048-0.8-0.228-1.246-0.184c-0.215,0.022-0.317-0.309-0.266-0.537c0.063-0.287-0.17-0.387-0.283-0.563
			c-0.052-0.081-0.115-0.097-0.191,0.009c-0.085,0.118-0.145,0.832-0.053,0.956c0.224,0.307,0.07,0.717-0.299,0.807
			c-0.285,0.069-0.314-0.132-0.335-0.326c-0.019-0.169,0.026-0.343-0.042-0.51c-0.026-0.064-0.055-0.125-0.106-0.196
			c-0.211,0.391-0.677,0.33-0.978,0.565c-0.046,0.021-0.093,0.022-0.141,0.009l0,0c-0.257-0.565,0.23-0.899,0.469-1.316
			c-0.261-0.082-0.273,0.178-0.465,0.203c0.002-0.251-0.133-0.491,0.133-0.723c0.108-0.093,0.196-0.348,0.144-0.459
			c-0.139-0.295-0.019-0.275,0.19-0.218c0.057,0.015,0.109,0.022,0.108-0.052c-0.009-0.374,0.295-0.206,0.453-0.239
			c0.227-0.046,0.351,0.089,0.319,0.338c-0.007,0.055,0.022,0.117,0.084,0.084C1273.304,776.405,1273.417,776.819,1273.673,776.86z"
			/>
		<path fill="#E4E2D6" d="M1269.892,780.333c0.41,0.354,0.875,0.644,1.2,1.093c0.226,0.312,0.434,0.635,0.592,0.988
			c-0.427,0.048-0.8-0.228-1.246-0.184c-0.215,0.022-0.317-0.309-0.266-0.537c0.063-0.287-0.17-0.387-0.283-0.563
			c-0.052-0.081-0.115-0.097-0.191,0.009c-0.085,0.118-0.145,0.832-0.053,0.956c0.224,0.307,0.07,0.717-0.299,0.807
			c-0.285,0.069-0.314-0.132-0.335-0.326c-0.019-0.169,0.026-0.343-0.042-0.51c-0.026-0.064-0.055-0.125-0.106-0.196
			c-0.211,0.391-0.677,0.33-0.978,0.565c-0.046,0.021-0.093,0.022-0.141,0.009l0,0c-0.257-0.565,0.23-0.899,0.469-1.316
			c-0.261-0.082-0.273,0.178-0.465,0.203c0.002-0.251-0.133-0.491,0.133-0.723c0.108-0.093,0.196-0.348,0.144-0.459
			c-0.139-0.295-0.019-0.275,0.19-0.218c0.057,0.015,0.109,0.022,0.108-0.052c-0.009-0.374,0.295-0.206,0.453-0.239
			c0.227-0.046,0.351,0.089,0.319,0.338c-0.007,0.055,0.022,0.117,0.084,0.084C1269.523,779.877,1269.636,780.292,1269.892,780.333z
			"/>
		<path fill="#E4E2D6" d="M1264.342,780.601c0.41,0.354,0.875,0.644,1.2,1.093c0.226,0.312,0.434,0.635,0.592,0.988
			c-0.427,0.048-0.8-0.228-1.246-0.184c-0.215,0.022-0.317-0.309-0.266-0.537c0.063-0.287-0.17-0.387-0.283-0.563
			c-0.052-0.081-0.115-0.097-0.191,0.009c-0.085,0.118-0.145,0.832-0.054,0.956c0.224,0.307,0.07,0.717-0.299,0.807
			c-0.285,0.069-0.314-0.132-0.335-0.326c-0.019-0.169,0.026-0.343-0.042-0.51c-0.026-0.064-0.055-0.125-0.106-0.196
			c-0.211,0.391-0.677,0.33-0.978,0.565c-0.046,0.021-0.093,0.022-0.141,0.009l0,0c-0.257-0.565,0.23-0.899,0.469-1.316
			c-0.261-0.082-0.273,0.178-0.465,0.203c0.002-0.251-0.133-0.491,0.133-0.723c0.108-0.093,0.196-0.348,0.144-0.458
			c-0.139-0.295-0.019-0.275,0.19-0.218c0.057,0.015,0.109,0.022,0.108-0.052c-0.009-0.374,0.295-0.206,0.453-0.239
			c0.227-0.046,0.351,0.089,0.32,0.338c-0.007,0.055,0.022,0.117,0.084,0.084C1263.973,780.146,1264.086,780.561,1264.342,780.601z"
			/>
		<path fill="#DEDBCC" d="M1264.714,780.637c-0.16-0.065-0.254-0.208-0.254-0.359c-0.002-0.359-0.115-0.613-0.537-0.656
			c0.424-0.357,0.865-0.321,1.318-0.202c-0.052-0.342-0.052-0.342-0.366-0.665c-0.077-0.014-0.122,0.039-0.169,0.087
			c-0.284,0.308-0.295,0.321-0.613,0.081c-0.16-0.121-0.24-0.098-0.387,0.017c-0.108,0.084-0.245,0.046-0.144-0.153
			c0.012-0.024,0.022-0.064,0.01-0.082c-0.165-0.257-0.151-0.341,0.105-0.436c0.096-0.036,0.223-0.03,0.248-0.144
			c0.038-0.168,0.088-0.146,0.19-0.052c0.146,0.137,0.317,0.1,0.48,0.033c0.075-0.031,0.175-0.069,0.142-0.179
			c-0.136-0.463,0.201-0.758,0.387-1.106c0.034,0,0.067-0.002,0.101-0.002c0.034-0.034,0.07-0.067,0.105-0.101
			c0.261-0.063,0.489-0.206,0.765-0.252c0.283-0.046,0.496-0.01,0.693,0.182c0.036,0.036,0.069,0.079,0.112,0.1
			c0.091,0.043,0.268-0.072,0.269,0.133c0.002,0.154-0.112,0.281-0.237,0.305c-0.554,0.101-0.49,0.605-0.744,0.983
			c0.329,0.03,0.51-0.027,0.614-0.269c0.082-0.19,0.182-0.371,0.386-0.462c0.039,0.031,0.067,0.072,0.085,0.118
			c-0.015,0.765-0.57,1.181-1.303,0.975c-0.1-0.029-0.208-0.075-0.287,0.012c-0.108,0.118,0.022,0.177,0.091,0.24
			c0.124,0.115,0.082,0.236,0.041,0.374c-0.221,0.753-0.202,0.783,0.523,0.979c0.05,0.014,0.089,0.048,0.124,0.087
			c-0.29,0.202-0.619,0.064-0.927,0.103c-0.069-0.063-0.139-0.064-0.208,0c-0.034,0-0.069,0.002-0.101,0.002
			c-0.033,0.036-0.072,0.065-0.103,0.103l0,0c-0.101,0.098-0.295-0.014-0.366,0.158
			C1264.745,780.605,1264.729,780.621,1264.714,780.637z"/>
		<path fill="#D3D0BD" d="M1263.018,776.017c0.482-0.266,1.037-0.177,1.546-0.309c0.182,0.551,0.443,0.697,0.93,0.515
			c0.151-0.018,0.284,0.033,0.412,0.101c0.07,0.067,0.257,0.018,0.206,0.206c-0.208-0.051-0.393,0.221-0.511,0.154
			c-0.48-0.271-0.146,0.347-0.375,0.317c-0.015,0.187,0.172,0.125,0.247,0.203c0.048,0.05,0.11,0.098,0.07,0.172
			c-0.019,0.036-0.076,0.067-0.12,0.075c-0.232,0.036-0.475,0.018-0.683,0.163c-0.048,0.034-0.125,0.017-0.136-0.022
			c-0.072-0.293-0.58-0.122-0.561-0.556c0.006-0.118-0.29-0.232-0.487-0.178c-0.224,0.062-0.384,0.237-0.47,0.439
			c-0.041,0.094,0.094,0.146,0.216,0.129c0.184-0.029,0.23,0.058,0.117,0.199c-0.134,0.166-0.034,0.305,0.055,0.415
			c0.142,0.175,0.22,0.378,0.149,0.57c-0.097,0.268,0.063,0.372,0.22,0.502c-0.069,0-0.137,0-0.206,0
			c-0.077-0.038-0.139-0.089-0.179-0.169c-0.314-0.614-0.503-0.669-1.094-0.318c-0.027,0.017-0.046,0.048-0.069,0.073
			c-0.103,0-0.204,0.005-0.308,0.002c-0.47-0.012-0.701-0.321-0.583-0.781c0.021-0.082,0.054-0.161,0.076-0.244
			c0.041-0.145,0.36-0.369-0.122-0.367c-0.139,0-0.1-0.196-0.06-0.304c0.039-0.105,0.079-0.264,0.233-0.215
			c0.157,0.052,0.345,0.021,0.47,0.172c0.087,0.103,0.236,0.13,0.326,0.054C1262.643,776.743,1263.062,776.539,1263.018,776.017z"/>
		<path fill="#C9C4AE" d="M1268.632,779.315c-0.197-0.22-0.432-0.051-0.544,0.042c-0.451,0.374-0.871,0.791-1.003,1.402
			c-0.245-0.063-0.534-0.081-0.429-0.47c0.022-0.084-0.043-0.175-0.125-0.204c-0.372-0.134-0.429-0.459-0.503-0.805
			c0.228-0.064,0.463-0.11,0.644-0.272c0.446,0.354,0.84,0.215,1.117-0.196c0.345-0.513,0.908-0.455,1.382-0.632
			c0.073-0.029,0.144,0.015,0.179,0.07c0.106,0.163,0.178,0.191,0.343,0.036c0.145-0.134,0.384-0.151,0.584-0.153
			c0.638-0.006,0.764,0.118,0.861,0.75c0.01,0.069,0.036,0.177-0.01,0.193c-0.549,0.179-0.22,0.529-0.17,0.827
			c0.007,0.05-0.021,0.098-0.057,0.137c-0.283,0.115-0.317,0.434-0.511,0.621c-0.036,0-0.07,0-0.106,0
			c0.296-0.398,0.039-0.729-0.127-1.071c-0.031-0.064-0.094-0.13-0.158-0.105c-0.266,0.106-0.302-0.097-0.402-0.257
			c-0.1-0.158-0.287-0.141-0.383,0.005C1269.017,779.525,1268.918,779.541,1268.632,779.315z"/>
		<path fill="#CFCBB7" d="M1274.877,780.86c-0.021-0.327-0.284-0.563-0.329-0.887c0.148-0.097,0.342,0.022,0.49-0.109
			c0.033-0.22-0.345-0.371-0.115-0.637c0.041-0.048-0.052-0.121-0.124-0.11c-0.324,0.045-0.654-0.06-0.979,0.029
			c-0.045,0.012-0.079,0.009-0.118,0.052c-0.221,0.249-0.224,0.247-0.415-0.054c-0.041-0.063-0.141-0.113-0.158-0.054
			c-0.091,0.309-0.28,0.17-0.465,0.134c-0.199-0.039-0.383,0.057-0.506,0.196c-0.182,0.206-0.395,0.369-0.604,0.544
			c-0.329,0.276-0.478,0.302-0.788,0.031c-0.05-0.043-0.079-0.109-0.12-0.165l0.002-0.002c0.115-0.121,0.273-0.133,0.423-0.16
			c0.386-0.069,0.671-0.228,0.719-0.666c0.024-0.226,0.145-0.336,0.4-0.372c0.414-0.057,0.796-0.354,1.242-0.142
			c0.081,0.101,0.009,0.232,0.06,0.339c0.271-0.03,0.538-0.043,0.81-0.007c0.28,0.036,0.28,0.022,0.423-0.297
			c0.018-0.039,0.072-0.079,0.115-0.088c0.081-0.017,0.124,0.039,0.129,0.117c0.017,0.264,0.051,0.459,0.39,0.242
			c0.157-0.1,0.182-0.06,0.136,0.316c0.012,0.355-0.01,0.705-0.23,1.007c-0.121,0.168-0.065,0.355-0.084,0.537
			C1275.082,780.721,1274.98,780.79,1274.877,780.86z"/>
		<path fill="#D7D3C2" d="M1274.112,781.883c-0.181,0.019-0.379-0.06-0.529,0.118c-0.076,0.091-0.182,0.096-0.28,0.04
			c-0.227-0.129-0.374,0.206-0.604,0.101c-0.034-0.015-0.108,0.076-0.108,0.153c0.002,0.276-0.048,0.547-0.285,0.707
			c-0.29,0.194-0.633,0.23-0.979,0.22c0-0.034,0-0.069-0.002-0.101c-0.196-0.064-0.354-0.19-0.515-0.309
			c-0.069-0.069-0.137-0.137-0.206-0.206c0.221-0.13,0.105-0.357,0.127-0.538c0.197-0.019,0.254,0.091,0.306,0.227
			c0.039,0.1,0.141,0.166,0.244,0.141c0.146-0.038,0.07-0.156,0.06-0.251c-0.014-0.118,0.015-0.247-0.024-0.354
			c-0.103-0.284,0.115-0.245,0.275-0.324c0,0.169,0,0.297,0,0.419c0.07,0.043,0.108,0.012,0.137-0.033
			c0.064-0.096,0.124-0.193,0.19-0.296c0.173,0.098,0.22,0.235,0.235,0.39c0.23-0.129,0.379-0.345,0.568-0.518
			c0.076-0.07,0.141-0.151,0.148-0.263c0.007-0.127-0.01-0.254-0.142-0.302c-0.148-0.052-0.139,0.109-0.201,0.175
			c-0.019,0.021-0.058,0.022-0.091,0.033c-0.124-0.11-0.034-0.215,0.007-0.321c0.036-0.091,0.118-0.19,0.015-0.281
			c-0.094-0.084-0.202-0.144-0.05-0.272c0.125-0.106,0.379-0.179,0.405-0.117c0.136,0.357,0.41,0.098,0.617,0.118
			c-0.067,0.236-0.224,0.184-0.35,0.203c-0.085,0.012-0.184,0.018-0.161,0.142c0.012,0.072,0.069,0.125,0.146,0.11
			c0.236-0.046,0.42,0.103,0.626,0.163c0.151,0.043,0.371,0.386,0.363,0.55c-0.003,0.057-0.005,0.109,0.045,0.132
			c0.182,0.085,0.396-0.048,0.586,0.093c0.045,0.033,0.216-0.064,0.312-0.22c-0.352-0.075-0.55-0.391-0.971-0.415
			c0.386-0.45,0.695-0.875,1.323-0.764c0.033,0.076,0.081,0.149,0.094,0.228c0.029,0.165,0.121,0.115,0.215,0.081
			c0.101,0.166,0.272,0.309,0.118,0.541c0.206,0.012,0.374-0.082,0.535,0.022c-0.125,0.331-0.422,0.411-0.7,0.447
			c-0.232,0.031-0.359,0.117-0.472,0.312c-0.154,0.264-0.256,0.29-0.542,0.125C1274.436,781.899,1274.283,781.883,1274.112,781.883z
			"/>
		<path fill="#C4BFA7" d="M1266.105,776.27c-0.292-0.197-0.62-0.06-0.928-0.101c-0.031-0.038-0.069-0.069-0.103-0.103
			c-0.022-0.026-0.052-0.054-0.053-0.084c-0.018-0.647,0.91-1.541,1.556-1.502c0.099-0.024-0.045,0.239,0.139,0.118
			c0.085,0.006,0.172,0.048,0.252,0.021c0.193-0.064,0.308-0.424,0.547-0.237c0.309,0.24,0.728,0.336,0.908,0.768
			c0.144,0.342,0.091,0.578-0.149,0.816c-0.146,0.226-0.388,0.323-0.607,0.448c-0.07,0.04-0.187,0.084-0.24,0.052
			c-0.314-0.184-0.611-0.05-0.913,0.018C1266.338,776.481,1266.244,776.332,1266.105,776.27z"/>
	</g>
	<ellipse fill="#EEEBE5" cx="1144.045" cy="648.49" rx="26.42" ry="27.122"/>
</g>
<g>
	<g>
		<g>
			<path fill-rule="evenodd" clip-rule="evenodd" fill="#E1EFFB" d="M1051.759,580.273c0.686-0.289,0.692,0.2,1.453,0.135
				c0.761-0.064,1.142-0.646,2.04,0.319c0.898,0.965,1.623,2.637,2.646,3.695c1.023,1.058,1.575,2.245,1.727,2.653
				c0.152,0.409-0.424,1.712-2.071,2.665s-1.814,1.99-2.68,2.588c-0.865,0.598-2.124,0.2-2.85,0.086
				c-0.726-0.114-1.086,0.179-1.715-0.616c-0.629-0.795-1.464-2.356-2.065-3.109c-0.601-0.754-1.665-2.156-2.087-2.46
				c-0.422-0.304-0.828-1.223,0.162-1.82c0.99-0.597,3.441-2.469,3.918-2.907S1051.04,580.575,1051.759,580.273z"/>
			<path fill-rule="evenodd" clip-rule="evenodd" fill="#B8D3EA" d="M1052.125,580.181c0.358-0.01,0.491,0.277,1.086,0.227
				c0.124-0.011,0.238-0.035,0.346-0.064c-0.592,0.22-1.604,0.708-2.29,1.155c-0.883,0.575-1.636,1.211-2.684,2.038
				c-1.048,0.827-1.616,0.91-1.237,0.613c0.361-0.283-0.212-0.246-0.799,0.114c1.096-0.709,3.244-2.355,3.688-2.763
				c-0.517,0.516,0.788-0.198,1.501-0.562S1052.28,580.196,1052.125,580.181L1052.125,580.181z M1053.946,580.229
				c0.007-0.002,0.014-0.004,0.021-0.006C1053.961,580.225,1053.954,580.228,1053.946,580.229L1053.946,580.229z M1046.362,584.382
				c0.031-0.019,0.064-0.04,0.098-0.061l-0.001,0C1046.426,584.343,1046.393,584.364,1046.362,584.382z"/>
			<path fill-rule="evenodd" clip-rule="evenodd" fill="#88ACCB" d="M1058.426,585.935c-0.329,0.239,0.184,0.636-0.315,1.219
				c-0.499,0.582-1.203,1.424-1.652,1.816c-0.449,0.392-0.554,0.534-0.215,0.508c0.339-0.026,0.753,0.025,1.012,0.013
				c0.259-0.012-0.394,0.374-0.753,0.635c-0.359,0.261-0.544,0.483-0.739,0.756s0.524-0.447,0.778-0.631s1.691-1.096,2.125-1.544
				c0.434-0.447,0.754-1.031,0.784-1.383c0.03-0.352-0.134-0.365-0.473-0.338c-0.339,0.026-0.618-0.123-0.324,0.28
				c0.294,0.403,0.015,0.451-0.19,0.314c-0.204-0.138-0.339-0.304-0.139-0.603c0.2-0.299,0.11-0.696,0.484-0.638
				C1059.183,586.397,1058.7,585.714,1058.426,585.935z"/>
			<path fill-rule="evenodd" clip-rule="evenodd" fill="#88ACCB" d="M1055.725,590.031c-0.329,0.239-0.525,1.107-1.168,1.574
				s-0.714,0.826-0.415,0.741c0.299-0.085,0.808-0.323,1.212-1.079s0.32-0.98,0.574-1.165
				C1056.184,589.917,1056.024,589.813,1055.725,590.031z"/>
			<path fill-rule="evenodd" clip-rule="evenodd" fill="#E1EFFB" d="M1055.718,584.914c-0.171,0.124-0.394,0.583-0.145,0.402
				C1055.822,585.136,1055.91,584.752,1055.718,584.914z"/>
			<path fill-rule="evenodd" clip-rule="evenodd" fill="#6389AA" d="M1055.704,588.529c-0.202,0.147-0.156,0.661,0.124,0.458
				C1056.107,588.784,1055.947,588.307,1055.704,588.529z"/>
			<path fill-rule="evenodd" clip-rule="evenodd" fill="#6389AA" d="M1054.573,589.357c0.326-0.284,0.669-0.577,0.977-0.82
				c-0.002,0.13-0.089,0.308-0.14,0.481c-0.078,0.262,0.134,0.268,0.315,0.159c0.181-0.109,0.59-0.566,0.906-0.749
				c-0.002,0.005-0.004,0.011-0.006,0.017c-0.395,0.472-0.901,0.892-1.463,1.282c-0.051-0.065-0.108-0.138-0.125-0.232
				C1055.005,589.322,1054.824,589.335,1054.573,589.357L1054.573,589.357z M1054.596,590.256c-0.089,0.286,0.15,0.539-0.189,0.864
				c-0.146,0.14-0.26,0.207-0.362,0.247c-0.07-0.095-0.082-0.27-0.025-0.428c0.088-0.247-0.584-0.146-0.061-0.503
				C1054.269,590.224,1054.425,590.253,1054.596,590.256z"/>
			<path fill-rule="evenodd" clip-rule="evenodd" fill="#88ACCB" d="M1051.239,591.437c-0.009,0-0.018,0.001-0.027,0.002
				c-0.193,0.026-0.135,0.96-0.579,0.616c-0.307-0.238-0.175-0.373-0.068-0.565c0.152-0.192,0.379-0.271,0.457-0.541
				c0.083-0.288,0.347-0.686,0.611-0.466s0.015,0.879-0.285,0.915C1051.303,591.403,1051.268,591.416,1051.239,591.437z"/>
			<path fill-rule="evenodd" clip-rule="evenodd" fill="#88ACCB" d="M1049.527,586.226c0.226,0.335,0.551,0.72,0.847,1.159
				c0.207,0.307,0.45,0.638,0.698,0.974c-0.971-0.76-2.375-2.405-2.134-2.558C1049.032,585.741,1049.264,585.939,1049.527,586.226z"
				/>
			<path fill-rule="evenodd" clip-rule="evenodd" fill="#88ACCB" d="M1048.328,585.787c-0.155,0.113,0.95,1.409,1.373,1.9
				s1.219,1.396,1.518,1.841s0.3,0.239-0.057-0.255c-0.356-0.494-1.813-2.106-2.086-2.478
				C1048.804,586.423,1048.546,585.629,1048.328,585.787z"/>
			<path fill-rule="evenodd" clip-rule="evenodd" fill="#E1EFFB" d="M1050.932,586.104c0.041,0.271,0.308,0.463,0.686,0.189
				c0.386-0.28,0.296-0.633,0.054-0.763c0.017,0.147-0.053,0.318-0.26,0.468C1051.217,586.139,1051.052,586.157,1050.932,586.104z"
				/>
			<path fill-rule="evenodd" clip-rule="evenodd" fill="#88ACCB" d="M1047.61,583.528c0.537-0.388,1.116-0.823,1.6-1.198
				c0.113-0.053,0.203-0.093,0.26-0.115c0.283-0.206,0.805-0.201,0.587-0.043c-0.218,0.158-0.9,0.782-1.64,1.319
				C1047.753,583.974,1047.873,583.681,1047.61,583.528z"/>
			<path fill-rule="evenodd" clip-rule="evenodd" fill="#88ACCB" d="M1052.486,580.269c0.15,0.066,0.313,0.144,0.586,0.145
				c-0.396,0.154-1.019,0.451-0.805,0.295C1052.422,580.597,1052.496,580.435,1052.486,580.269z"/>
			<path fill-rule="evenodd" clip-rule="evenodd" fill="#6389AA" d="M1051.381,590.492c-0.159,0.106-0.279,0.524,0.038,0.313
				C1051.736,590.593,1051.537,590.398,1051.381,590.492z"/>
		</g>
		<g>
			<path fill-rule="evenodd" clip-rule="evenodd" fill="#FFFFFF" d="M1045.907,585.115c0.795,0.017,1.183,0.255,2.096,0.068
				c1.104-0.225,1.554-0.654,2.406-1.285l-0.165,0.207l-0.178,0.178C1048.816,585.473,1047.514,585.683,1045.907,585.115z"/>
		</g>
		<g>
			<path fill-rule="evenodd" clip-rule="evenodd" fill="#88ACCB" d="M1051.431,592.262c1.004,0.168,2.76,0.955,3.547-0.029
				c0.657-0.822,0.931-1.551,1.964-2.137l0.22-0.11c-0.466,0.387-0.764,0.585-1.159,1.087c-0.251,0.319-0.796,1.249-1.018,1.462
				C1054.196,593.291,1052.296,592.643,1051.431,592.262z"/>
		</g>
		<g>
			<path fill-rule="evenodd" clip-rule="evenodd" fill="#FFFFFF" d="M1049.657,581.947c0.511-0.668,1.755-1.978,2.676-1.666l0,0
				l-0.149,0.014C1051.319,580.391,1050.386,581.452,1049.657,581.947z"/>
		</g>
		<g>
			<path fill-rule="evenodd" clip-rule="evenodd" fill="#6389AA" d="M1054.49,580.268c0.521,0.083,0.748,0.324,1.081,0.731
				c0.611,0.747,1.133,1.731,1.678,2.553c0.266,0.401,0.173,0.243,0.284,0.446c-0.463-0.388-1.278-1.638-1.626-2.203
				C1055.486,581.113,1055.227,580.617,1054.49,580.268z"/>
		</g>
		<g>
			<path fill-rule="evenodd" clip-rule="evenodd" fill="#ABCAE5" d="M1047.283,587.566c0.737,0.649,2.045,2.361,2.454,3.237
				c-0.304-0.346-0.574-0.721-0.862-1.082C1048.448,589.183,1047.599,588.139,1047.283,587.566z"/>
		</g>
		<g>
			<path fill-rule="evenodd" clip-rule="evenodd" fill="#FFFFFF" d="M1046.567,586.777c-0.753-0.573-1.432-1.388-0.524-2.174
				l0.223-0.166l0.289-0.139l0,0l-0.232,0.214C1045.379,585.405,1045.9,585.873,1046.567,586.777z"/>
		</g>
		<g>
			<path fill-rule="evenodd" clip-rule="evenodd" fill="#88ACCB" d="M1053.564,581.695c-0.804,0.642-1.011,1.443-2.052,2.143
				c-0.485,0.326-2.259,1.146-2.151,1.783c0.04,0.237,1.852,2.744,2.2,3.263c0.287,0.429,0.575,0.852,0.807,1.314v0
				c-0.454-0.607-0.892-1.248-1.342-1.863c-0.559-0.765-1.245-1.627-1.747-2.398c-0.375-0.576,0.13-1.007,0.593-1.32
				c1.1-0.742,1.678-0.759,2.626-1.86C1052.878,582.315,1053.042,581.979,1053.564,581.695z"/>
		</g>
		<g>
			<path fill-rule="evenodd" clip-rule="evenodd" fill="#FFFFFF" d="M1056.108,584.333c0.498,0.74,0.72,1.426,1.419,2.012
				c0.494,0.414-0.542,1.032-0.828,1.241c-0.319,0.233-0.609,0.447-0.944,0.661c0.445-0.458,0.876-0.765,1.339-1.178
				c0.177-0.158,0.511-0.378,0.263-0.594C1056.793,585.982,1056.366,585.03,1056.108,584.333z"/>
		</g>
		<g>
			<path fill-rule="evenodd" clip-rule="evenodd" fill="#FFFFFF" d="M1049.686,590.778c0.531,0.642,0.845,1.458,1.708,1.629
				l0.184,0.034v0C1050.544,592.686,1049.992,591.577,1049.686,590.778z"/>
		</g>
		<g>
			<path fill-rule="evenodd" clip-rule="evenodd" fill="#FFFFFF" d="M1057.987,584.482c0.609,0.516,1.907,2.12,1.791,2.925
				c-0.142,0.989-1.529,2.07-2.395,2.413l0,0c0.804-0.486,2.091-1.428,2.237-2.436
				C1059.735,586.588,1058.475,585.083,1057.987,584.482z"/>
		</g>
	</g>
	<g>
		<g>
			<path fill-rule="evenodd" clip-rule="evenodd" fill="#E1EFFB" d="M1061.235,602.948c0.12-0.734,0.536-0.48,0.886-1.159
				c0.35-0.679,0.059-1.311,1.354-1.559c1.295-0.248,3.096,0.025,4.536-0.279c1.44-0.305,2.738-0.142,3.165-0.054
				c0.427,0.089,1.226,1.268,1.158,3.17c-0.068,1.902,0.722,2.594,0.77,3.645c0.047,1.051-0.959,1.906-1.441,2.461
				s-0.426,1.015-1.433,1.126c-1.007,0.111-2.773-0.01-3.732,0.098c-0.958,0.109-2.711,0.266-3.193,0.462
				c-0.482,0.196-1.476,0.052-1.456-1.103s-0.265-4.226-0.383-4.864S1061.11,603.718,1061.235,602.948z"/>
			<path fill-rule="evenodd" clip-rule="evenodd" fill="#B8D3EA" d="M1061.352,602.589c0.181-0.308,0.496-0.269,0.769-0.799
				c0.057-0.111,0.097-0.221,0.13-0.327c-0.128,0.618-0.252,1.735-0.237,2.554c0.019,1.054,0.157,2.029,0.301,3.356
				c0.144,1.327-0.087,1.853-0.138,1.373c-0.048-0.456-0.321,0.049-0.328,0.738c-0.019-1.305-0.273-4-0.382-4.592
				c0.163,0.712,0.25-0.773,0.321-1.571C1061.858,602.523,1061.447,602.466,1061.352,602.589L1061.352,602.589z M1062.359,601.072
				c0.002-0.007,0.004-0.014,0.006-0.021C1062.365,601.057,1062.363,601.064,1062.359,601.072L1062.359,601.072z M1061.851,609.703
				c0-0.037,0-0.076,0-0.116l0,0.001C1061.852,609.629,1061.852,609.667,1061.851,609.703z"/>
			<path fill-rule="evenodd" clip-rule="evenodd" fill="#88ACCB" d="M1069.574,600.305c0.028,0.406,0.637,0.182,0.865,0.915
				s0.568,1.775,0.661,2.364c0.094,0.589,0.159,0.753,0.316,0.452c0.158-0.301,0.421-0.624,0.548-0.851
				c0.127-0.226,0.108,0.533,0.138,0.976c0.03,0.443,0.121,0.717,0.249,1.028c0.128,0.31-0.1-0.681-0.122-0.995
				s-0.031-2.015-0.179-2.62c-0.149-0.605-0.474-1.187-0.756-1.399s-0.38-0.08-0.538,0.221c-0.158,0.301-0.432,0.458,0.065,0.423
				c0.497-0.035,0.39,0.227,0.165,0.327s-0.437,0.126-0.585-0.202c-0.147-0.328-0.531-0.463-0.283-0.749
				S1069.532,599.955,1069.574,600.305z"/>
			<path fill-rule="evenodd" clip-rule="evenodd" fill="#88ACCB" d="M1071.61,604.769c0.028,0.406,0.659,1.032,0.714,1.826
				c0.054,0.794,0.321,1.044,0.408,0.745s0.156-0.856-0.27-1.6c-0.426-0.744-0.661-0.792-0.682-1.106
				S1071.585,604.4,1071.61,604.769z"/>
			<path fill-rule="evenodd" clip-rule="evenodd" fill="#E1EFFB" d="M1067.271,602.058c0.014,0.211,0.285,0.643,0.264,0.337
				C1067.513,602.088,1067.235,601.809,1067.271,602.058z"/>
			<path fill-rule="evenodd" clip-rule="evenodd" fill="#6389AA" d="M1070.327,603.99c0.017,0.249,0.477,0.483,0.453,0.138
				C1070.757,603.784,1070.268,603.666,1070.327,603.99z"/>
			<path fill-rule="evenodd" clip-rule="evenodd" fill="#6389AA" d="M1070.427,605.388c-0.067-0.427-0.133-0.873-0.176-1.263
				c0.109,0.07,0.214,0.239,0.333,0.374c0.181,0.205,0.298,0.028,0.302-0.183s-0.166-0.8-0.154-1.165
				c0.004,0.004,0.007,0.009,0.011,0.014c0.19,0.586,0.277,1.237,0.309,1.921c-0.082,0.008-0.174,0.018-0.263-0.018
				C1070.627,605.003,1070.542,605.164,1070.427,605.388L1070.427,605.388z M1071.201,605.845c0.195,0.227,0.536,0.159,0.632,0.618
				c0.041,0.198,0.037,0.33,0.017,0.438c-0.118,0.009-0.272-0.074-0.376-0.206c-0.162-0.206-0.434,0.417-0.459-0.215
				C1071.001,606.105,1071.108,605.989,1071.201,605.845z"/>
			<path fill-rule="evenodd" clip-rule="evenodd" fill="#88ACCB" d="M1070.419,609.317c-0.005,0.008-0.009,0.016-0.012,0.024
				c-0.081,0.177,0.742,0.624,0.214,0.817c-0.364,0.134-0.409-0.05-0.515-0.242c-0.082-0.231-0.028-0.465-0.216-0.674
				c-0.2-0.224-0.397-0.658-0.071-0.765c0.326-0.107,0.753,0.455,0.623,0.728C1070.424,609.244,1070.417,609.282,1070.419,609.317z"
				/>
			<path fill-rule="evenodd" clip-rule="evenodd" fill="#88ACCB" d="M1065.094,608c0.404-0.014,0.902-0.085,1.431-0.102
				c0.37-0.012,0.78-0.043,1.196-0.074c-1.16,0.419-3.299,0.736-3.301,0.449C1064.421,608.163,1064.711,608.071,1065.094,608z"/>
			<path fill-rule="evenodd" clip-rule="evenodd" fill="#88ACCB" d="M1064.086,608.783c0.013,0.191,1.699-0.056,2.34-0.155
				c0.641-0.098,1.831-0.291,2.366-0.309s0.361-0.127-0.247-0.088c-0.608,0.039-2.747,0.418-3.207,0.452
				C1064.877,608.718,1064.067,608.515,1064.086,608.783z"/>
			<path fill-rule="evenodd" clip-rule="evenodd" fill="#E1EFFB" d="M1065.737,606.745c0.252,0.109,0.556-0.015,0.524-0.481
				c-0.033-0.476-0.379-0.587-0.618-0.451c0.133,0.063,0.241,0.214,0.259,0.469C1065.918,606.522,1065.846,606.671,1065.737,606.745
				z"/>
			<path fill-rule="evenodd" clip-rule="evenodd" fill="#88ACCB" d="M1061.79,608.192c-0.043-0.661-0.105-1.383-0.165-1.992
				c0.015-0.123,0.029-0.222,0.04-0.281c-0.024-0.349,0.257-0.789,0.276-0.52c0.018,0.268,0.184,1.177,0.247,2.09
				C1062.244,608.307,1062.059,608.05,1061.79,608.192z"/>
			<path fill-rule="evenodd" clip-rule="evenodd" fill="#88ACCB" d="M1061.619,602.33c0.135-0.092,0.288-0.189,0.434-0.42
				c-0.079,0.418-0.159,1.103-0.177,0.839C1061.863,602.559,1061.765,602.409,1061.619,602.33z"/>
			<path fill-rule="evenodd" clip-rule="evenodd" fill="#6389AA" d="M1069.694,608.695c0.005,0.191,0.296,0.515,0.285,0.134
				S1069.697,608.513,1069.694,608.695z"/>
		</g>
		<g>
			<path fill-rule="evenodd" clip-rule="evenodd" fill="#FFFFFF" d="M1062.23,610.478c0.437-0.664,0.844-0.867,1.171-1.74
				c0.396-1.055,0.271-1.664,0.189-2.721l0.088,0.25l0.056,0.246C1064.079,608.203,1063.565,609.418,1062.23,610.478z"/>
		</g>
		<g>
			<path fill-rule="evenodd" clip-rule="evenodd" fill="#88ACCB" d="M1071.22,609.592c0.676-0.761,2.276-1.832,1.859-3.021
				c-0.348-0.994-0.82-1.613-0.767-2.799l0.023-0.245c0.08,0.601,0.09,0.958,0.306,1.559c0.137,0.382,0.636,1.337,0.698,1.64
				C1073.561,607.796,1072.002,609.062,1071.22,609.592z"/>
		</g>
		<g>
			<path fill-rule="evenodd" clip-rule="evenodd" fill="#FFFFFF" d="M1061.537,605.618c-0.294-0.788-0.744-2.538,0.009-3.152l0,0
				l-0.067,0.133C1061.102,603.383,1061.505,604.738,1061.537,605.618z"/>
		</g>
		<g>
			<path fill-rule="evenodd" clip-rule="evenodd" fill="#6389AA" d="M1062.682,600.632c0.348-0.397,0.672-0.462,1.193-0.528
				c0.957-0.121,2.069-0.041,3.054-0.066c0.48-0.012,0.298-0.017,0.529-0.004c-0.575,0.186-2.067,0.213-2.73,0.208
				C1063.927,600.236,1063.369,600.192,1062.682,600.632z"/>
		</g>
		<g>
			<path fill-rule="evenodd" clip-rule="evenodd" fill="#ABCAE5" d="M1065.038,610.613c0.941-0.28,3.087-0.479,4.046-0.36
				c-0.455,0.074-0.916,0.104-1.374,0.156C1067.027,610.485,1065.692,610.65,1065.038,610.613z"/>
		</g>
		<g>
			<path fill-rule="evenodd" clip-rule="evenodd" fill="#FFFFFF" d="M1063.99,610.801c-0.886,0.333-1.937,0.477-2.12-0.71
				l-0.022-0.278l0.036-0.319l0,0l0.058,0.31C1062.196,611.079,1062.87,610.886,1063.99,610.801z"/>
		</g>
		<g>
			<path fill-rule="evenodd" clip-rule="evenodd" fill="#88ACCB" d="M1063.399,602.173c0.117,1.022,0.686,1.623,0.726,2.877
				c0.019,0.584-0.229,2.523,0.369,2.77c0.222,0.092,3.309-0.112,3.933-0.131c0.516-0.016,1.028-0.035,1.542,0.014v0
				c-0.755,0.062-1.531,0.093-2.292,0.148c-0.945,0.068-2.039,0.19-2.959,0.207c-0.688,0.012-0.784-0.645-0.803-1.203
				c-0.045-1.326,0.248-1.825-0.182-3.213C1063.561,603.084,1063.362,602.766,1063.399,602.173z"/>
		</g>
		<g>
			<path fill-rule="evenodd" clip-rule="evenodd" fill="#FFFFFF" d="M1066.985,601.419c0.892-0.029,1.59,0.147,2.458-0.134
				c0.613-0.198,0.587,1.007,0.612,1.36c0.028,0.394,0.055,0.753,0.059,1.151c-0.152-0.62-0.182-1.149-0.287-1.76
				c-0.04-0.234-0.049-0.634-0.364-0.538C1068.746,601.714,1067.713,601.57,1066.985,601.419z"/>
		</g>
		<g>
			<path fill-rule="evenodd" clip-rule="evenodd" fill="#FFFFFF" d="M1069.036,610.283c0.826-0.11,1.684,0.058,2.287-0.582
				l0.127-0.138l0,0C1071.108,610.57,1069.876,610.449,1069.036,610.283z"/>
		</g>
		<g>
			<path fill-rule="evenodd" clip-rule="evenodd" fill="#FFFFFF" d="M1068.11,599.906c0.761-0.242,2.809-0.489,3.43,0.035
				c0.763,0.646,0.942,2.395,0.772,3.311l0,0c0.015-0.94-0.099-2.53-0.876-3.189C1070.822,599.544,1068.877,599.812,1068.11,599.906
				z"/>
		</g>
	</g>
	<g>
		<g>
			<path fill-rule="evenodd" clip-rule="evenodd" fill="#E1EFFB" d="M1076.549,570.683c0.709,0.225,0.397,0.6,1.018,1.045
				c0.621,0.444,1.289,0.248,1.347,1.565c0.058,1.317-0.473,3.06-0.38,4.529s-0.255,2.73-0.405,3.14
				c-0.149,0.41-1.432,1.029-3.304,0.687c-1.872-0.342-2.671,0.339-3.718,0.234c-1.047-0.105-1.747-1.224-2.226-1.782
				c-0.479-0.557-0.943-0.568-0.906-1.581c0.036-1.013,0.412-2.743,0.443-3.706c0.031-0.964,0.129-2.721,0.005-3.226
				c-0.124-0.505,0.162-1.468,1.302-1.281c1.141,0.187,4.22,0.35,4.868,0.325C1075.241,570.607,1075.806,570.447,1076.549,570.683z"
				/>
			<path fill-rule="evenodd" clip-rule="evenodd" fill="#B8D3EA" d="M1076.888,570.851c0.279,0.224,0.194,0.529,0.68,0.877
				c0.101,0.073,0.204,0.128,0.305,0.176c-0.593-0.216-1.68-0.5-2.493-0.604c-1.045-0.134-2.031-0.138-3.365-0.188
				c-1.334-0.049-1.82-0.354-1.339-0.335c0.459,0.018-0.002-0.325-0.683-0.431c1.294,0.17,3.997,0.309,4.599,0.286
				c-0.728,0.058,0.729,0.36,1.508,0.544C1076.88,571.361,1076.996,570.962,1076.888,570.851L1076.888,570.851z M1078.243,572.067
				c0.007,0.003,0.013,0.006,0.02,0.009C1078.257,572.074,1078.25,572.071,1078.243,572.067L1078.243,572.067z M1069.776,570.314
				c0.036,0.006,0.075,0.011,0.115,0.017l-0.001,0C1069.849,570.327,1069.812,570.321,1069.776,570.314z"/>
			<path fill-rule="evenodd" clip-rule="evenodd" fill="#88ACCB" d="M1077.957,579.316c-0.406-0.031-0.273,0.604-1.03,0.724
				c-0.758,0.12-1.839,0.305-2.435,0.312c-0.596,0.008-0.768,0.048-0.493,0.248c0.275,0.2,0.557,0.507,0.762,0.666
				c0.205,0.159-0.543,0.03-0.985-0.004s-0.727,0.015-1.053,0.097c-0.326,0.082,0.688-0.001,1.002,0.024
				c0.314,0.024,1.998,0.261,2.619,0.202c0.621-0.059,1.243-0.297,1.494-0.545c0.251-0.248,0.134-0.365-0.141-0.564
				c-0.275-0.2-0.391-0.494-0.428,0.003c-0.037,0.497-0.282,0.353-0.348,0.116c-0.066-0.237-0.061-0.451,0.285-0.549
				c0.346-0.098,0.535-0.459,0.782-0.172C1078.234,580.158,1078.31,579.325,1077.957,579.316z"/>
			<path fill-rule="evenodd" clip-rule="evenodd" fill="#88ACCB" d="M1073.246,580.685c-0.406-0.031-1.117,0.503-1.91,0.442
				c-0.793-0.061-1.079,0.167-0.796,0.296c0.283,0.129,0.824,0.278,1.622-0.036s0.879-0.539,1.193-0.515
				C1073.668,580.896,1073.615,580.713,1073.246,580.685z"/>
			<path fill-rule="evenodd" clip-rule="evenodd" fill="#E1EFFB" d="M1076.557,576.784c-0.21-0.016-0.677,0.189-0.371,0.212
				C1076.492,577.019,1076.807,576.784,1076.557,576.784z"/>
			<path fill-rule="evenodd" clip-rule="evenodd" fill="#6389AA" d="M1074.203,579.528c-0.249-0.019-0.547,0.402-0.203,0.429
				S1074.532,579.516,1074.203,579.528z"/>
			<path fill-rule="evenodd" clip-rule="evenodd" fill="#6389AA" d="M1072.805,579.425c0.432-0.005,0.883-0.006,1.276,0.008
				c-0.085,0.097-0.268,0.177-0.419,0.275c-0.229,0.149-0.071,0.291,0.137,0.325s0.816-0.048,1.175,0.016
				c-0.005,0.003-0.01,0.006-0.015,0.009c-0.607,0.104-1.264,0.095-1.945,0.028c0.004-0.083,0.008-0.175,0.055-0.258
				C1073.156,579.678,1073.01,579.571,1072.805,579.425L1072.805,579.425z M1072.24,580.125c-0.253,0.16-0.235,0.508-0.703,0.535
				c-0.202,0.012-0.332-0.011-0.435-0.046c0.008-0.118,0.113-0.258,0.258-0.342c0.227-0.131-0.35-0.49,0.279-0.423
				C1072.012,579.889,1072.111,580.011,1072.24,580.125z"/>
			<path fill-rule="evenodd" clip-rule="evenodd" fill="#88ACCB" d="M1068.918,578.848c-0.007-0.006-0.014-0.011-0.022-0.016
				c-0.164-0.105-0.725,0.643-0.84,0.094c-0.079-0.38,0.109-0.397,0.314-0.474c0.24-0.048,0.464,0.04,0.698-0.116
				c0.25-0.166,0.709-0.297,0.767,0.041c0.058,0.338-0.559,0.679-0.81,0.512C1068.989,578.864,1068.953,578.851,1068.918,578.848z"
				/>
			<path fill-rule="evenodd" clip-rule="evenodd" fill="#88ACCB" d="M1070.992,573.77c-0.045,0.401-0.047,0.905-0.106,1.431
				c-0.041,0.367-0.07,0.778-0.099,1.194c-0.247-1.208-0.25-3.371,0.033-3.331C1070.928,573.08,1070.977,573.381,1070.992,573.77z"
				/>
			<path fill-rule="evenodd" clip-rule="evenodd" fill="#88ACCB" d="M1070.363,572.659c-0.191-0.015-0.19,1.689-0.186,2.337
				c0.004,0.648,0.023,1.853-0.037,2.386s0.073,0.376,0.122-0.231c0.049-0.607-0.016-2.779,0.017-3.239
				S1070.631,572.68,1070.363,572.659z"/>
			<path fill-rule="evenodd" clip-rule="evenodd" fill="#E1EFFB" d="M1072.141,574.588c-0.145,0.233-0.066,0.553,0.4,0.588
				c0.476,0.037,0.636-0.29,0.535-0.546c-0.082,0.123-0.246,0.208-0.502,0.188C1072.335,574.799,1072.198,574.706,1072.141,574.588z
				"/>
			<path fill-rule="evenodd" clip-rule="evenodd" fill="#88ACCB" d="M1071.28,570.473c0.661,0.053,1.384,0.097,1.995,0.125
				c0.12,0.033,0.215,0.061,0.273,0.08c0.349,0.027,0.743,0.369,0.475,0.348c-0.268-0.021-1.192,0.012-2.104-0.058
				C1071.1,570.906,1071.381,570.76,1071.28,570.473z"/>
			<path fill-rule="evenodd" clip-rule="evenodd" fill="#88ACCB" d="M1077.105,571.152c0.072,0.147,0.145,0.313,0.352,0.49
				c-0.402-0.139-1.068-0.317-0.804-0.297C1076.844,571.36,1077.006,571.285,1077.105,571.152z"/>
			<path fill-rule="evenodd" clip-rule="evenodd" fill="#6389AA" d="M1069.638,578.221c-0.189-0.022-0.552,0.218-0.173,0.263
				S1069.819,578.25,1069.638,578.221z"/>
		</g>
		<g>
			<path fill-rule="evenodd" clip-rule="evenodd" fill="#FFFFFF" d="M1068.954,570.578c0.594,0.528,0.736,0.961,1.552,1.411
				c0.987,0.544,1.607,0.509,2.665,0.581l-0.26,0.051l-0.251,0.02C1070.938,572.736,1069.81,572.052,1068.954,570.578z"/>
		</g>
		<g>
			<path fill-rule="evenodd" clip-rule="evenodd" fill="#88ACCB" d="M1068.53,579.601c0.655,0.779,1.483,2.517,2.72,2.277
				c1.033-0.2,1.714-0.578,2.88-0.354l0.239,0.059c-0.606-0.008-0.962-0.049-1.587,0.077c-0.398,0.08-1.415,0.435-1.723,0.454
				C1069.968,582.177,1068.942,580.452,1068.53,579.601z"/>
		</g>
		<g>
			<path fill-rule="evenodd" clip-rule="evenodd" fill="#FFFFFF" d="M1073.864,570.595c0.822-0.177,2.619-0.369,3.118,0.465v0
				l-0.122-0.085C1076.138,570.488,1074.739,570.691,1073.864,570.595z"/>
		</g>
		<g>
			<path fill-rule="evenodd" clip-rule="evenodd" fill="#6389AA" d="M1078.632,572.449c0.343,0.401,0.36,0.732,0.349,1.257
				c-0.019,0.965-0.259,2.053-0.377,3.032c-0.057,0.477-0.026,0.297-0.073,0.524c-0.101-0.596,0.088-2.076,0.189-2.732
				C1078.843,573.738,1078.967,573.193,1078.632,572.449z"/>
		</g>
		<g>
			<path fill-rule="evenodd" clip-rule="evenodd" fill="#ABCAE5" d="M1068.414,573.337c0.141,0.972,0.027,3.123-0.229,4.056
				c-0.007-0.461,0.03-0.921,0.045-1.382C1068.253,575.323,1068.284,573.978,1068.414,573.337z"/>
		</g>
		<g>
			<path fill-rule="evenodd" clip-rule="evenodd" fill="#FFFFFF" d="M1068.38,572.272c-0.202-0.925-0.191-1.985,1.01-1.995
				l0.278,0.018l0.31,0.082v0l-0.316,0.013C1068.364,570.457,1068.458,571.151,1068.38,572.272z"/>
		</g>
		<g>
			<path fill-rule="evenodd" clip-rule="evenodd" fill="#88ACCB" d="M1077.002,572.935c-1.029-0.032-1.705,0.444-2.952,0.302
				c-0.581-0.066-2.463-0.591-2.794-0.036c-0.123,0.206-0.368,3.29-0.44,3.911c-0.059,0.513-0.114,1.022-0.237,1.524h0
				c0.047-0.756,0.129-1.528,0.185-2.289c0.07-0.945,0.107-2.046,0.224-2.958c0.088-0.682,0.752-0.683,1.307-0.621
				c1.319,0.147,1.77,0.51,3.205,0.285C1076.078,572.964,1076.421,572.814,1077.002,572.935z"/>
		</g>
		<g>
			<path fill-rule="evenodd" clip-rule="evenodd" fill="#FFFFFF" d="M1077.23,576.594c-0.101,0.887-0.376,1.552-0.223,2.452
				c0.108,0.635-1.082,0.435-1.434,0.409c-0.394-0.029-0.753-0.055-1.147-0.108c0.636-0.061,1.163-0.014,1.783-0.029
				c0.237-0.006,0.634,0.044,0.585-0.282C1076.683,578.294,1076.975,577.292,1077.23,576.594z"/>
		</g>
		<g>
			<path fill-rule="evenodd" clip-rule="evenodd" fill="#FFFFFF" d="M1068.162,577.34c-0.011,0.833-0.301,1.658,0.244,2.348
				l0.118,0.146l0,0C1067.579,579.349,1067.877,578.147,1068.162,577.34z"/>
		</g>
		<g>
			<path fill-rule="evenodd" clip-rule="evenodd" fill="#FFFFFF" d="M1078.564,577.925c0.129,0.787,0.078,2.851-0.531,3.388
				c-0.749,0.661-2.506,0.586-3.388,0.285l0,0c0.928,0.151,2.518,0.268,3.283-0.406
				C1078.531,580.661,1078.547,578.698,1078.564,577.925z"/>
		</g>
	</g>
	<g>
		<path fill-rule="evenodd" clip-rule="evenodd" fill="#FFFFFF" d="M1081.211,580.77c8.646,4.923,11.033,9.223,22.625,13.173
			c14.018,4.777,22.429,3.932,36.915,3.834l-3.492,0.724l-3.4,0.404C1110.495,601.23,1094.42,595.137,1081.211,580.77z"/>
	</g>
</g>
<path opacity="0.5" fill-rule="evenodd" clip-rule="evenodd" fill="#ABCAE5" d="M1325.017,597.489
	c2.398,1.912,4.199-0.597,5.186,3.359c3.142,12.606-3.073,29.072-1.995,43.845c-1.203-1.232-2.262-2.882-3.191-4.619v-9.645
	c1.707-2.684,2.531-10.863,2.874-15.624c0.462-6.421,2.915-10.835-1.37-10.634c-0.604,0-1.098,0.25-1.504,0.687V597.489z
	 M1320.155,594.488c1.357,0.6,5.067,3.024,6.186,3.916l-1.324,6.453c-2.46,2.647-1.677,12.18-2.596,14.763
	c-1.071,3.01-2.727,8.227,0.472,11.236c0.827,0.778,1.529,0.508,2.124-0.427v9.645c-3.265-6.106-4.931-13.293-5.685-7.211
	c-1.019,8.227-4.406,7.825-6.578,2.408c-2.172-5.418-11.385-13.845-13.527-7.825c-2.141,6.019-4.124,9.831-5.739,2.608
	c-1.615-7.223,1.834-25.482-0.822-30.097c-2.657-4.615-18.375,0.201-56.563,2.809c-38.189,2.608-63.092-1.404-77.297,0.201
	c-14.206,1.605-9.066,13.243-10.004,26.284c-0.939,13.042,5.037,29.151,0.487,38.982c-4.55,9.832,3.094,6.781,20.644,6.179
	c17.55-0.602,60.884-2.809,80.069-2.408c19.185,0.402,60.62-0.361,55.099,2.751c-5.522,3.112-30.962,4.156-47.346,6.363
	s-35.857,4.598-55.042,4.197c-19.185-0.402-15.399,6.822-30.416,7.825c-15.016,1.003-12.298-5.904-26.93-4.299
	c-14.633,1.605-5.014,4.414-1.048,8.628c3.966,4.213,19.208,6.019,48.104,2.006c28.896-4.013,61.187-1.806,83.333-1.003l0.222,0.008
	c-7.644,0.301-16.032,0.282-25.077-0.179c-43.687-2.227-60.879,6.125-85.152,5.847c-20.391-0.234-48.323-13.301-59.304-20.019
	c-6.041-3.695,12.605-9.807,3.003-12.342c-3.953-1.044-15.543,7.859-19.163,1.783c-5.782-9.706,24.72,1.116,11.329-23.452
	c-2.546-4.671-6.864-7.91-11.056-9.573c0.667-5.086,1.091-9.822,0.751-13.523c-0.127-1.385-0.252-2.917-0.381-4.546
	c10.464-7.68,25.04-16.195,28.893-17.703c6.151-2.408,8.018-4.615-9.569-9.431c-17.586-4.815-24.672-7.223-16.712-11.035
	c7.96-3.812,15.803,1.471,32.494,7.023c16.691,5.551,25.869,7.175,48.096,6.851c22.226-0.325,38.025-0.831,30.172-4.443
	c-7.853-3.612,7.642,0.602,37.43,2.007c29.787,1.404,44.708-4.214,61.73-3.411C1318.142,593.024,1321.991,596.044,1320.155,594.488z
	 M1325.562,664.604c-5.688,0-3.15,8.706-13.578,11.194c-10.428,2.487-25.296,6.219-33.595,6.965
	c-8.299,0.746-10.652,1.492-6.603,3.98c4.049,2.487,8.304,6.467,11.336,8.457c3.033,1.99-7.532,0.995-13.737,0.995
	c-6.205,0-10.117,0.995-14.565,2.488c-4.447,1.493,9.592-0.746,13.986-0.746c4.395,0,28.127,1.493,36.711,0
	c8.584-1.493,16.996-5.472,20.23-9.203c3.233-3.731,1.476-5.224-2.573-7.712c-4.049-2.487-5.977-6.468-5.964,0.498
	c0.014,6.965-3.544,5.224-4.724,1.989c-1.179-3.233-1.332-6.219,3.382-7.96c4.715-1.741,6.967-6.965,10.714-3.234
	C1330.33,676.047,1330.483,664.356,1325.562,664.604z"/>
<path fill-rule="evenodd" clip-rule="evenodd" fill="#B8D3EA" d="M1198.744,589.41c3.484,2.824,1.145,1.388,7.174,5.707
	c1.259,0.902,2.518,1.564,3.75,2.121c-7.175-2.378-20.218-5.165-29.876-5.745c-12.419-0.746-24.017,0.249-39.754,0.995
	c-15.737,0.747-21.738-2.985-16.056-3.233c5.412-0.237-0.32-4.527-8.424-5.272c15.38,0.978,47.303,0.015,54.37-0.947
	c-8.516,1.592,8.898,4.229,18.232,5.97c9.333,1.741,9.8,1.841,8.429,0.405H1198.744z M1214.173,599.119
	c0.08,0.036,0.16,0.072,0.24,0.109C1214.342,599.208,1214.265,599.177,1214.173,599.119L1214.173,599.119z M1112.974,583.784
	c0.434,0.04,0.89,0.078,1.364,0.113l-0.01,0C1113.846,583.876,1113.397,583.837,1112.974,583.784z"/>
<path fill-rule="evenodd" clip-rule="evenodd" fill="#B8D3EA" d="M1201.762,596.248c-9.298-0.202-25.476,3.98-32.929,2.736
	c-7.454-1.244-9.202-2.985-15.692-2.239c-6.489,0.746-1.31,0.497,4.325,1.99c5.635,1.492,17.983,3.234,23.68,2.985
	c5.696-0.249,14.657,2.238,25.8,1.492C1218.089,602.467,1227.266,596.803,1201.762,596.248z"/>
<path fill-rule="evenodd" clip-rule="evenodd" fill="#88ACCB" d="M1118.111,589.872c9.265,0.026,39.459-1.587,48.01-1.847
	c1.707,0.325,0.154,1.339,0.972,1.551c4.888,0,46.989,6.323,43.229,6.323s-47.037,3.329-59.821,3.329
	C1139.021,599.228,1119.829,593.754,1118.111,589.872z"/>
<path fill-rule="evenodd" clip-rule="evenodd" fill="#88ACCB" d="M1271.964,586.53c1.157,1.976,0.944,4.844,4.027,7.096
	c-5.75-1.508-14.387-5.193-10.692-5.193C1267.963,588.434,1270.718,588.492,1271.964,586.53z"/>
<path opacity="0.5" fill-rule="evenodd" clip-rule="evenodd" fill="#E1EFFB" d="M1261.543,599.515
	c10.126,3.053,40.176-6.998,49.31,0.113c9.133,7.11,1.823,22.169,4.05,45.722c2.227,23.553,6.913,7.634,9.785,33.853
	c2.872,26.22-32.075,14.111-38.098,15.304c-18.918,3.746-47.245-0.041-42.351,0.616c26.451,3.555-29.953,0.444-44.65,0
	c-14.697-0.444-25.95,11.55-33.229,2.218c-7.279-9.332-12.126,1.602-17.768-4.425c-10.901-11.645,4.673,9.255,4.07-8.077
	c-0.603-17.332-1.127-48.992-3.396-57.88c-2.269-8.888,0.679-26.557,16.774-24.779c16.096,1.778,59.183,0.445,68.189-0.888
	C1243.234,599.959,1250.932,596.316,1261.543,599.515z"/>
<path fill-rule="evenodd" clip-rule="evenodd" fill="#ABCAE5" d="M1162.833,607.26c-9.526,0.306-12.801,16.416-0.479,16.416
	C1174.675,623.677,1172.934,606.936,1162.833,607.26z"/>
<g>
	<circle fill="#7F92A0" cx="1195.584" cy="592.61" r="8.085"/>
	<circle fill="#7F92A0" cx="1239.88" cy="592.61" r="8.085"/>
</g>
<path fill-rule="evenodd" clip-rule="evenodd" fill="#E1EFFB" d="M1156.194,613.186c-1.764,4.102-0.32,9.35,6.206,9.35
	c6.667,0,8.552-5.692,6.875-9.853c-1.012,2.162-3.211,3.801-6.789,3.801C1159.128,616.484,1157.117,615.094,1156.194,613.186z"/>
<path opacity="0.5" fill-rule="evenodd" clip-rule="evenodd" fill="#88ACCB" d="M1199.298,680.592
	c-0.57,5.983,5.444,3.977,14.796,3.466c10.626-0.58,33.731-2.707,45.347-2.32c11.616,0.386,34.16-0.773,32.005,1.16
	c-2.155,1.933-16.401,2.513-26.321,4.641c-9.87,2.116-20.941,2.509-32.494,2.132c-0.5-0.386-1.198-0.644-2.903-0.736
	c-3.745-0.201-11.718-1.805-15.49-1.404c-3.772,0.401-12.212,3.209-12.571,5.215c-0.359,2.005,3.513-0.602,6.713-0.201
	c3.2,0.401,1.786,2.005-0.091,2.005c-0.99,0-2.223,0.446-3.261,1.191c-1.356-0.151-3.036-0.115-5.436,0.304
	c-4.005,0.699-5.009,1.635-4.686,2.826c-3.453-1.209,5.097-6.506,2.452-5.725c-2.718,0.802-0.177-2.006,1.004-4.412
	c1.181-2.406-5.896-6.016-5.769-8.824C1192.673,678.12,1196.003,679.267,1199.298,680.592z"/>
<path fill-rule="evenodd" clip-rule="evenodd" fill="#88ACCB" d="M1212.761,687.607c-5.687,0-15.024,6.38-26.141,6.38
	c-11.117,0-14.859,2.707-10.775,3.867s11.787,2.32,22.57-1.74c10.783-4.06,11.672-6.573,16.068-6.573
	C1218.878,689.54,1217.932,687.607,1212.761,687.607z"/>
<path fill-rule="evenodd" clip-rule="evenodd" fill="#6389AA" d="M1205.263,674.328c6.019-0.412,12.304-0.797,17.782-0.973
	c-1.085,1.128-3.54,2.143-5.537,3.332c-3.031,1.805-0.681,3.209,2.26,3.409c2.941,0.2,11.318-1.203,16.394-0.802
	c-0.062,0.036-0.13,0.073-0.202,0.11c-8.35,1.627-17.516,2.084-27.075,1.926c-0.039-0.899-0.083-1.902,0.496-2.839
	C1210.439,676.781,1208.283,675.741,1205.263,674.328L1205.263,674.328z M1198.151,682.381c-3.354,1.943-2.729,5.695-9.226,6.386
	c-2.796,0.297-4.642,0.156-6.117-0.138c-0.011-1.285,1.292-2.891,3.231-3.92c3.022-1.605-5.405-5.014,3.436-4.813
	C1194.714,680.014,1196.228,681.26,1198.151,682.381z"/>
<path fill-rule="evenodd" clip-rule="evenodd" fill="#88ACCB" d="M1150.484,671.324c-0.105-0.055-0.211-0.106-0.318-0.152
	c-2.394-1.006-9.411,7.573-11.603,1.718c-1.516-4.049,1.087-4.391,3.867-5.397c3.296-0.719,6.51,0.041,9.608-1.837
	c3.308-2.005,9.558-3.81,10.736-0.2c1.178,3.61-7.058,7.821-10.74,6.217C1151.495,671.437,1150.978,671.328,1150.484,671.324z"/>
<path fill-rule="evenodd" clip-rule="evenodd" fill="#6389AA" d="M1159.847,663.93c-2.662-0.083-7.459,2.825-2.135,2.991
	C1163.036,667.087,1162.394,664.096,1159.847,663.93z"/>
<g>
	<path fill-rule="evenodd" clip-rule="evenodd" fill="#6389AA" d="M1328.105,598.399c7.999,11.545,2.417,21.941,2.417,36.25
		c0.584,20.334,2.468,35.355,0.357,47.342c-3.072,9.684-7.777,9.848-10.05,11.853c10.139-9.069,10.446-19.897,8.262-51.448
		C1327.926,625.579,1333.887,609.944,1328.105,598.399z"/>
</g>
<g>
	<path fill-rule="evenodd" clip-rule="evenodd" fill="#6389AA" d="M1144.686,595.899c5.209,8.068,5.797,15.143,6.216,26.464
		c0.769,20.787-1.41,44.589-1.998,65.849c-0.287,10.361-0.043,6.44-0.45,11.394c-2.049-12.66-1.003-44.807-0.296-59.085
		C1149.011,623.279,1150.157,611.335,1144.686,595.899z"/>
</g>
<g>
	<path fill-rule="evenodd" clip-rule="evenodd" fill="#88ACCB" d="M1303.778,606.021c-2.585,0-6.643-1.74-6.3,2.127
		c0.342,3.867-0.866,19.141,3.796,18.947c4.662-0.193,1.765-10.44,2.431-13.727C1304.37,610.081,1306.907,605.441,1303.778,606.021z
		"/>
	<path fill-rule="evenodd" clip-rule="evenodd" fill="#88ACCB" d="M1315.795,602.364c0.696,2.407-6.223,1.203-10.79,1.404
		c-4.568,0.201-8.922,1.604-9.359-0.602c-0.436-2.206,8.977-2.808,12.704-2.206C1312.077,601.561,1315.35,600.358,1315.795,602.364z
		"/>
	<path fill-rule="evenodd" clip-rule="evenodd" fill="#ABCAE5" d="M1296.042,641.872c-6.427-0.201-3.291,1.604-8.118,1.604
		c-4.827,0-7.681,3.81-12.303,5.214c-4.622,1.404-3.641,3.409,0.391,3.208c4.032-0.2,7.126-3.409,7.036-1.404
		c-0.091,2.006-7.672,3.61-2.936,5.615c4.737,2.006,11.227,0.802,12.713-2.407C1294.311,650.496,1299.518,642.073,1296.042,641.872z
		"/>
	<path fill-rule="evenodd" clip-rule="evenodd" fill="#E1EFFB" d="M1289.156,645.883c-2.95,0-9.235,2.607-4.945,2.607
		C1288.502,648.49,1292.651,645.683,1289.156,645.883z"/>
	<path fill-rule="evenodd" clip-rule="evenodd" fill="#6389AA" d="M1259.297,677.57c-3.486,0-7.19,4.813-2.363,4.813
		C1261.761,682.383,1263.874,677.169,1259.297,677.57z"/>
	<path fill-rule="evenodd" clip-rule="evenodd" fill="#88ACCB" d="M1208.376,617.888c-0.191,4.384,0.317,9.844,0.057,15.587
		c-0.182,4.015-0.146,8.483-0.104,13.014c-4.735-12.878-7.107-36.303-3.114-36.103
		C1206.752,610.463,1207.752,613.684,1208.376,617.888z"/>
	<path fill-rule="evenodd" clip-rule="evenodd" fill="#88ACCB" d="M1198.425,606.375c-2.682,0-0.834,18.451-0.079,25.47
		c0.755,7.02,2.311,20.055,2.048,25.871c-0.263,5.816,1.427,4.011,1.459-2.607c0.031-6.618-3.199-30.083-3.24-35.097
		C1198.571,614.998,1202.179,606.375,1198.425,606.375z"/>
	<path fill-rule="evenodd" clip-rule="evenodd" fill="#CDE1F3" d="M1317.059,648.354c0.111,2.43,0.351,4.812,0.77,7.12
		c1.492,8.224,1.264,15.94,0.47,22.096c-0.421,0.058,0.126,0.09-0.886,0.09c-1.011,0-1.809-6.972-4.807-7.669
		c-2.999-0.697-7.792,2.789-11.094,3.66c-3.302,0.872-5.704,2.44-5.377,0.349c0.328-2.092-0.024-9.761-2.514-16.559
		c-0.4-1.093-0.614-2.444-0.693-3.956c1.607-3.356,6.513-11.416,3.113-11.612c-0.904-0.028-1.619-0.017-2.193,0.024
		c0.784-5.224,1.728-9.992,1.477-11.821c0.152-0.103,0.301-0.199,0.446-0.291c0.02,1.726,0.098,3.255,0.267,4.465
		c0.978,6.96,2.178,3.287,3.475-2.513c1.296-5.8,6.875,2.32,8.19,7.54c1.315,5.22,3.366,5.607,3.983-2.32
		C1312.272,629.428,1313.77,642.994,1317.059,648.354z"/>
	<path fill-rule="evenodd" clip-rule="evenodd" fill="#ECF5FD" d="M1292.022,625.129c1.775,7.357-0.666,14.714-16.59,9.459
		c-15.924-5.255-29.394-2.628-29.014-11.036c0.38-8.408,29.37,3.153,35.134,0C1287.316,620.399,1294.32,620.925,1292.022,625.129z"
		/>
	<path fill-rule="evenodd" clip-rule="evenodd" fill="#ECF5FD" d="M1281.057,618.213c-7.416,1.828-23.428-4.469-32.474-2.64
		c-9.045,1.828-20.499,2.844-26.129,1.219c-5.63-1.625-6.08,8.328-3.06,13.609c3.02,5.281,3.624,9.953,0.199,13.609
		c-3.424,3.656-6.104,2.844-7.214-2.641c-1.11-5.484-0.541-18.078-0.329-22.75c0.211-4.672,2.775-7.312,9.818-6.906
		c7.044,0.407,17.091,0.203,26.383-0.812c5.661-0.619,19.01-2.143,27.56-2.85C1292.706,606.653,1289.338,616.171,1281.057,618.213z"
		/>
</g>
<path fill="#7F92A0" d="M1217.518,636.97c4.962-0.177,6.84-3.327,7.956-5.213c0.159-0.27,0.37-0.622,0.557-0.899
	c0.396,0.36,0.92,0.995,1.271,1.415c1.545,1.87,3.881,4.695,8.445,4.695c4.858,0,6.666-3.24,7.636-4.986
	c0.285-0.518,0.72-1.296,0.896-1.423c2.728-0.122,6.892,1.764,8.09,2.417c1.579,0.865,3.7,0.492,4.727-0.846
	c1.027-1.33,0.579-3.116-1.005-3.981c-0.655-0.36-6.642-3.497-12.039-3.343c-4.292,0.122-5.9,3.01-6.861,4.734
	c-0.929,1.669-1.092,1.669-1.442,1.669c-0.846,0-1.451-0.555-2.83-2.227c-1.392-1.69-3.302-4.002-6.861-4.116
	c-4.046-0.098-5.708,2.65-6.692,4.309c-1.077,1.807-1.379,2.01-2.125,2.037c-0.017,0-0.035,0-0.048,0
	c-0.15-0.315-0.318-0.891-0.422-1.267c-0.437-1.558-1.468-5.203-6.169-5.274c-0.048,0-0.094,0-0.139,0
	c-3.753,0-5.824,2.248-7.342,3.893c-1.277,1.383-1.923,1.989-2.761,2.002c-0.376,0.071-0.824-0.357-1.877-1.867
	c-1.242-1.785-3.12-4.483-7.255-4.547c-0.061-0.003-0.128-0.003-0.189-0.003c-5.739,0-10.81,4.012-11.373,4.473
	c-1.355,1.108-1.386,2.931-0.07,4.071c1.323,1.143,3.483,1.164,4.834,0.058c1.144-0.936,4.242-2.843,6.655-2.843
	c0.022,0,0.048,0,0.07,0c0.337,0.135,1.02,1.114,1.429,1.703c1.229,1.764,3.278,4.711,7.749,4.711c0.046,0,0.089,0,0.133,0
	c4.212-0.053,6.526-2.568,8.06-4.227c0.437-0.476,0.988-1.069,1.425-1.404c0.059,0.201,0.122,0.413,0.17,0.585
	c0.485,1.719,1.605,5.692,7.007,5.692C1217.253,636.973,1217.381,636.973,1217.518,636.97z"/>
<g opacity="0.8">
	<path fill-rule="evenodd" clip-rule="evenodd" fill="#6389AA" d="M1148.454,699.606c-6.81,3.141-9.415-0.734-16.22-1.994
		c-13.382-3.852-27.696-11.151-40.929-16.389c-6.449-2.553-2.487-2.2-5.482-3.675c11.534,4.835,25.158,10.059,35.846,13.474
		C1132.685,694.542,1136.904,701.373,1148.454,699.606z"/>
</g>
</svg>
