<?xml version="1.0" encoding="utf-8"?>
<!-- Generator: Adobe Illustrator 17.0.0, SVG Export Plug-In . SVG Version: 6.00 Build 0)  -->
<!DOCTYPE svg PUBLIC "-//W3C//DTD SVG 1.1//EN" "http://www.w3.org/Graphics/SVG/1.1/DTD/svg11.dtd">
<svg version="1.1" id="Layer_1" xmlns="http://www.w3.org/2000/svg" xmlns:xlink="http://www.w3.org/1999/xlink" x="0px" y="0px"
	 width="800px" height="540px" viewBox="814 0 800 540" enable-background="new 814 0 800 540" xml:space="preserve">
<g>
	<g>
		<g>
			<path fill="#FFFFFF" d="M1214.153,134.817c-9.389,0-19.426-0.364-29.523-1.167c-7.856,20.764-31.891,90.719,0.852,90.719
				c14.614,0,22.252,0,26.112,0c1.153,0,1.974,0,2.539,0c3.86,0,11.498,0,26.112,0c32.645,0,8.851-69.533,0.923-90.528
				C1231.918,134.511,1222.763,134.817,1214.153,134.817z"/>
			<path fill="#EEEBE5" d="M1241.575,133.841c-4.981,0.362-9.927,0.608-14.782,0.768v89.761c3.724,0,8.28,0,13.861,0
				C1273.297,224.369,1249.502,154.836,1241.575,133.841z"/>
			<path fill="#BAB7B1" d="M1323.103,84.108C1312.682,50.524,1260.434,9.5,1214.314,9.5l-0.16,0.002l-0.13-0.002
				c-46.15,0-98.397,41.024-108.82,74.605c-3.885,12.521-1.554,22.36,6.928,29.243c16.785,13.621,55.877,22.081,102.021,22.081
				s85.237-8.459,102.022-22.08C1324.658,106.468,1326.989,96.628,1323.103,84.108z M1126.046,92.987
				c0.36,2.834,1.602,4.619,4.12,4.919c6.284,0.756,4.885,10.615-1,8.935c-9.991-2.654-11.079-13.688-7.525-22.773
				c4.441-11.348,13.442-20.325,23.138-26.465C1136.079,65.317,1124.387,79.571,1126.046,92.987z"/>
			<path fill="#EEEBE5" d="M1323.103,83.453c-10.422-31.165-62.669-69.234-108.789-69.234l-0.16,0.002l-0.13-0.002
				c-46.15,0-98.397,38.069-108.82,69.232c-3.885,11.619-1.554,20.75,6.928,27.137c16.785,12.64,55.877,20.491,102.021,20.491
				c46.144,0,85.236-7.851,102.021-20.491C1324.658,104.202,1326.989,95.071,1323.103,83.453z M1126.046,91.693
				c0.36,2.63,1.602,4.286,4.12,4.565c6.284,0.702,4.885,9.85-1,8.291c-9.991-2.463-11.079-12.702-7.525-21.132
				c4.441-10.531,13.442-18.861,23.138-24.559C1136.079,66.015,1124.387,79.243,1126.046,91.693z"/>
		</g>
		<path fill="#E6E4D9" d="M1298.85,101.098c-1.831,1.97-4.261,1.297-6.387,1.163c-8.036-0.508-14.614,2.784-20.749,7.436
			c-0.439,0.381-0.812,0.827-1.212,1.246v0.003c-5.635,1.675-11.642,0.661-17.269,2.38c-0.813-0.396-1.626-0.791-2.44-1.186
			c-0.29-0.318-0.412-0.654-0.367-1.01c0.045-0.364,0.109-0.549,0.184-0.549c0.949-1.3,2.32-2.225,3.19-3.614
			c2.355-3.763,1.84-5.045-2.404-5.876c-5.795-1.134-6.566-3.633-2.667-8.649c4.414-3.419,9.673-2.957,14.056-1.246
			c6.485,2.531,12.919,2.706,19.577,2.413c2.255,0.532,4.102,1.895,6.087,2.981c1.796,1.484,4.008,1.388,6.139,1.733
			C1296.324,98.606,1298.837,98.04,1298.85,101.098z"/>
		<path fill="#EAE7DE" d="M1198.188,101.71c-0.396,0.009-0.792,0.015-1.188,0.019c-3.578,2.967-7.307,2.972-11.171,0.589
			c-5.191-3.201-5.301-4.302-1.164-8.316c0.815-0.791,0.944-2.234,2.085-3.051c-3.835-0.215-6.1-2.836-7.839-5.56
			c-1.934-3.032-3.249-6.224-6.111-8.86c-2.928-2.698,0.885-5.435,1.984-8.093l-0.002,0.005c0.427-0.396,0.841-0.807,1.234-1.239
			l-0.007,0.002c2.284-3.279,4.664-6.535,7.518-9.286c1.402-1.351,3.223-3.288,5.831-2.181c-0.148,4.266-1.88,8.014-4.961,10.709
			c-3.235,2.829-3.118,8.28,0.937,10.192c1.632,0.769,3.456,1.2,5.039,2.15c1.39,0.836,2.598,2.007,4.547,2.349
			c1.474-1.03-0.891-3.676,1.466-4.385c2.17-0.653,3.507,0.783,4.678,2.17c2.864,3.4,7.134,4.166,10.827,6.02
			c-0.908,2.963-3.511,3.561-5.879,3.289c-5.779-0.662-6.655,2.315-5.918,6.964c0.221,1.393,0.501,2.859-0.662,4.055v0.003
			C1198.693,99.906,1198.914,101.048,1198.188,101.71z"/>
		<path fill="#EBE8E0" d="M1225.23,50.579c0.723-0.997,1.591-1.167,2.586-0.417c0.978,0.736,1.931,1.783,3.222,1.545
			c4.567-0.84,7.039,3.025,10.543,4.546c0.707,0.307,1.596,0.738,1.222,1.754c-1.539,4.182,0.522,4.223,3.844,3.811
			c3.368-0.417,5.644-0.575,8.107-4.273c2.655-3.987,4.994-8.51,8.501-12.112c1.16-1.191,4.63-3.848,0.32-6.257
			c-1.297-0.724,0.154-1.713,0.792-2.332c1.493-1.447,3.437-0.989,5.244-1.073c0.136,0.216,0.272,0.434,0.408,0.65
			c-0.012,0.256-0.027,0.511-0.036,0.768c-0.163,0.487-0.383,0.951-0.629,1.403c-0.108,0.236-0.23,0.462-0.333,0.698
			c-0.535,1.237-0.668,2.576-0.988,3.872c-1.649,7.386-7.441,12.574-10.245,19.347c-0.228,0.553-0.738,1.139-1.3,1.249
			c-7.768,1.538-10.999,8.724-16.447,13.148c-4.113,0.64-6.374-2.083-8.669-4.754c-2.308-3.539-5.941-3.724-9.661-4.12
			c-3.269-0.347-7.221-0.223-7.561-5.121c4.849,1.373,9.613,2.852,14.832,2.536c3.257-0.197,5.861-0.995,8.307-3.896
			c-4.45-2.358-8.596-5.056-10.828-9.723c-0.432-0.396-0.71-0.944-1.227-1.256L1225.23,50.579z"/>
		<path fill="#EEEBE5" d="M1270.584,120.256c1.172,0.329,2.42,0.499,3.5,1.016c2.895,1.387,4.79,0.979,5.088-2.566
			c0.151-1.783,1.208-2.213,2.771-2.646c6.916-1.911,8.862-4.58,9.078-11.813c0.015-0.51,0.48-1.006,1.2-2.423
			c1.102,3.743,1.78,7.653,6.161,5.119c2.34,2.174-1.591,3.273-0.336,5.064c6.521-4.398,8.064-7.561,4.901-15.297
			c2.536,1.893,3.986,6.195,3.075,9.217c-2.708,8.994-8.623,14.514-17.939,15.951c-2.808,0.434-5.562,0.949-8.335,1.55
			C1276.219,124.194,1272.847,123.597,1270.584,120.256z"/>
		<path fill="#E1DED1" d="M1278.267,76.692c-1.82,5.979-0.39,7.029,7.937,5.206c-0.626,2.252,1.859,3.859,0.206,6.433
			c-1.512,2.356-2.08,5.425-5.667,5.61c-5.649,0.426-9.244-3.664-13.563-6.166l0.002,0.002c-0.728-0.659-0.46-1.824-1.248-2.454
			c-0.408-0.417-0.816-0.832-1.225-1.249c-0.779-0.522-1.483-1.102-1.654-2.102c0.115-0.623,0.388-1.169,0.808-1.642
			C1268.335,77.822,1272.888,75.619,1278.267,76.692z"/>
		<path fill="#E3E0D4" d="M1254.096,30.103c2.097,3.477,5.496,3.667,9.04,3.709c3.924,0.046,7.636,0.692,9.446,4.903
			c-1.467,0.816-2.761-0.024-4.108-0.411c-6.36-2.617-11.988-0.434-17.466,2.665c-2.077,1.738-3.186,4.208-4.79,6.299
			c-1.718,2.24-4.218,3.911-6.802,2.257c-2.245-1.438-0.911-3.997-0.154-6.131c1.429-4.021,3.796-7.146,8.359-8.672
			c-3.114-4.494-6.858-5.64-11.713-4.563c-2.355,0.523-4.46,2.147-7.041,1.659c-0.227-0.177-0.454-0.354-0.681-0.532
			c0.153-2.134,1.363-3.037,3.388-3.697c5.734-1.872,11.254-1.246,16.703,0.879C1250.178,29.209,1251.956,30.261,1254.096,30.103z"
			/>
		<path fill="#EAE7DE" d="M1257.068,85.037c-0.817,0.006-1.635,0.012-2.452,0.019c-0.089-0.235-0.178-0.47-0.269-0.707
			c0.462-1.383,1.814-1.661,2.859-2.334c0.429-0.3,0.873-0.57,1.32-0.846c0.456-0.299,0.94-0.53,1.443-0.732
			c0.527-0.19,1.066-0.311,1.615-0.402c0.843-0.133,1.689-0.189,2.539-0.214c3.099-0.341,6.366,0.698,9.273-1.174
			c9.239-5.429,12.526-4.316,17.344,5.854c0.179,0.656,0.045,1.242-0.399,1.757c-5.922,4.424-12.169,1.702-16.978-1.059
			c-5.55-3.189-9.977-3.31-15.107-0.384C1257.924,85.003,1257.466,84.968,1257.068,85.037z"/>
		<path fill="#DAD6C6" d="M1167.381,126.832c-4.362-0.769-7.076-4.122-11.015-5.596c-1.493-0.559-1.198-2.349-1.852-3.519
			c-0.995-1.786-1.747-3.796-4.812-3.039c-0.625,0.154-1.693-0.031-2.066-0.435c-3.743-4.038-9.474-3.954-14.389-5.546
			c-1.01-0.846-2.454,0.199-3.479-0.575c-0.407-0.299-0.824-0.586-1.248-0.863c-2.83-1.666-6.227-1.221-9.339-1.84
			c-2.332-0.076-4.036-0.554-5.115-2.898c-1.059-2.3-3.851-3.696-5.115-6.046c-1.215-3.229,0.374-5.903,2.296-8.509
			c1.157-0.966,0.804-2.152,0.723-3.319c-0.304-4.414,0.852-8.246,5.381-10.818c3.69-2.095,5.536-5.955,9.273-8.067
			c1.095-0.619,1.931-1.766,3.345-1.657c4.525,0.351,10.296-5.659,14.814-5.244c-2.348,2.344-3.789,8.321-6.71,8.379
			c-2.574,0.051-2.095,6.044-4.436,8.132c4.361,2.606,3.125-1.483,3.983,3.616c0.015,4.479,2.324,7.62,6.964,9.797
			c1.436-1.95,2.243-4.17,3.343-6.241c1.234-2.322,2.749-1.979,4.289-0.475c2.382,2.324,1.495,7.878-1.639,9.555
			c-3.909,2.089-4.748,5.385-5.317,9.028c-0.502,3.211-0.877,3.253-4.256,1.747c-0.134-0.06,0.233-0.398-0.194-0.323
			c0.786,1.448-2.265,3.118-0.311,4.081c1.725,0.851,4.409,0.84,5.328-1.495c1.428-3.631,4.091-3.745,7.077-2.404
			c2.618,1.176,5.109,2.684,6.608,5.131c0.136,0.47,0.098,0.932-0.125,1.383c-0.837,1.054-1.152,1.982,0.051,3.075
			c1.931,1.756,0.882,2.836-1.498,3.5c2.031,0.529,3.682-0.697,5.486-0.677c2.02,0.022,3.859,1.342,2.639,2.669
			c-3.456,3.758,1.74,3.149,2.389,4.736c0.559,1.462,0.199,2.856-0.503,4.226C1167.76,126.481,1167.571,126.655,1167.381,126.832z"
			/>
		<path fill="#CFCBB7" d="M1187.76,129.857c-0.415-0.403-0.831-0.805-1.246-1.209c-2.972-0.744-4.247-2.499-4.047-5.692
			c0.287-4.599-1.615-9.361-3.849-12.546c-2.781-3.964-1.795-5.644,0.859-8.014c3.055-2.727,6.274-2.552,9.494-0.224
			c1.191,0.861,1.635,2.384,2.745,3.269c2.219,1.766,4.376,3.809,7.656,2.844c2.076-0.611,4.728,0.196,2.964-4.182
			c-1.157-2.869-0.096-7.671,5.71-6.677c1.361,0.233,2.751-0.74,4.213-0.623c0.571,0.064,1.119,0.223,1.644,0.455
			c1.82,1.276,3.602,2.618,5.62,3.599c0.443,0.391,0.707,0.875,0.776,1.464c-0.081,0.573-0.285,1.098-0.604,1.581
			c-0.901,1.179-2.121,1.922-3.48,2.437c-2.09,0.792-2.495,2.506-1.179,3.857c3.533,3.624,5.207,8.561,8.879,12.031
			c0.522,0.212,1.03,0.443,1.548,0.649c0.848,0.228,1.705,0.362,2.582,0.417c3.072,0.738,7.139-1.626,9.006,2.864
			c-0.815-0.002-1.661-0.148-2.44,0.021c-5.685,1.236-10.742,0.46-16.316-1.961c-4.631-2.011-10.634-2.26-15.758,0.731
			C1197.795,127.14,1192.375,127.283,1187.76,129.857z"/>
		<path fill="#C4BFA7" d="M1291.231,95.517c-3.483-2.364-7.406-0.71-11.094-1.215c-0.374-0.447-0.824-0.817-1.234-1.227
			c-0.276-0.307-0.63-0.638-0.641-1.009c-0.214-7.73,10.868-18.408,18.588-17.952c1.188-0.28-0.539,2.856,1.659,1.409
			c1.013,0.072,2.047,0.58,3.014,0.254c2.301-0.774,3.676-5.066,6.544-2.835c3.693,2.874,8.695,4.011,10.852,9.176
			c1.709,4.09,1.083,6.914-1.792,9.748c-1.747,2.691-4.643,3.86-7.259,5.363c-0.836,0.48-2.24,1.004-2.872,0.633
			c-3.751-2.198-7.303-0.584-10.916,0.216C1294.027,98.052,1292.9,96.272,1291.231,95.517z"/>
		<path fill="#E4E2D6" d="M1291.001,48.844c4.893,4.229,10.468,7.696,14.341,13.061c2.698,3.738,5.178,7.592,7.079,11.8
			c-5.105,0.573-9.558-2.737-14.885-2.191c-2.57,0.264-3.787-3.696-3.186-6.413c0.758-3.431-2.034-4.63-3.382-6.725
			c-0.626-0.973-1.373-1.16-2.285,0.103c-1.012,1.403-1.732,9.953-0.65,11.431c2.674,3.655,0.84,8.573-3.578,9.645
			c-3.415,0.828-3.742-1.565-4-3.887c-0.224-2.022,0.296-4.11-0.498-6.092c-0.306-0.764-0.666-1.499-1.263-2.336
			c-2.519,4.676-8.088,3.94-11.674,6.755c-0.547,0.251-1.107,0.276-1.681,0.108l-0.002,0.005c-3.08-6.755,2.753-10.758,5.606-15.724
			c-3.13-0.99-3.261,2.133-5.56,2.435c0.015-3.003-1.59-5.879,1.596-8.642c1.285-1.117,2.346-4.16,1.721-5.484
			c-1.659-3.521-0.237-3.288,2.264-2.605c0.677,0.185,1.303,0.275,1.282-0.619c-0.105-4.462,3.525-2.469,5.409-2.857
			c2.713-0.559,4.202,1.078,3.812,4.031c-0.088,0.666,0.275,1.4,1.002,1.006C1286.594,43.401,1287.95,48.357,1291.001,48.844z"/>
		<path fill="#E4E2D6" d="M1245.821,90.34c4.893,4.229,10.468,7.696,14.341,13.061c2.698,3.738,5.178,7.592,7.079,11.8
			c-5.107,0.573-9.558-2.737-14.885-2.191c-2.57,0.264-3.787-3.696-3.186-6.413c0.757-3.431-2.034-4.63-3.382-6.725
			c-0.626-0.973-1.373-1.16-2.285,0.103c-1.012,1.403-1.732,9.953-0.65,11.431c2.674,3.655,0.84,8.573-3.578,9.645
			c-3.415,0.828-3.742-1.565-4-3.887c-0.224-2.022,0.296-4.11-0.498-6.092c-0.306-0.764-0.666-1.499-1.263-2.336
			c-2.519,4.676-8.088,3.94-11.674,6.755c-0.547,0.251-1.107,0.276-1.681,0.108l-0.002,0.005c-3.08-6.755,2.753-10.758,5.606-15.724
			c-3.13-0.99-3.261,2.133-5.56,2.435c0.015-3.003-1.59-5.879,1.596-8.642c1.285-1.117,2.346-4.16,1.721-5.484
			c-1.659-3.521-0.237-3.288,2.264-2.605c0.677,0.185,1.303,0.275,1.282-0.619c-0.105-4.462,3.525-2.469,5.409-2.857
			c2.714-0.559,4.202,1.078,3.812,4.031c-0.088,0.666,0.275,1.4,1.002,1.006C1241.416,84.898,1242.772,89.853,1245.821,90.34z"/>
		<path fill="#E4E2D6" d="M1179.511,93.546c4.893,4.229,10.468,7.696,14.341,13.061c2.698,3.738,5.178,7.592,7.079,11.8
			c-5.105,0.573-9.558-2.737-14.885-2.191c-2.57,0.264-3.787-3.696-3.186-6.413c0.758-3.431-2.034-4.63-3.382-6.725
			c-0.626-0.973-1.373-1.16-2.284,0.103c-1.012,1.403-1.732,9.953-0.65,11.431c2.674,3.655,0.84,8.573-3.578,9.645
			c-3.415,0.828-3.742-1.565-4-3.887c-0.224-2.022,0.296-4.11-0.498-6.092c-0.307-0.764-0.666-1.499-1.263-2.336
			c-2.519,4.676-8.088,3.94-11.674,6.755c-0.547,0.251-1.107,0.276-1.681,0.108l-0.002,0.005c-3.08-6.755,2.753-10.758,5.606-15.724
			c-3.13-0.99-3.261,2.133-5.56,2.435c0.015-3.003-1.59-5.879,1.596-8.642c1.285-1.117,2.346-4.16,1.721-5.484
			c-1.659-3.521-0.237-3.288,2.264-2.605c0.677,0.185,1.303,0.275,1.282-0.619c-0.105-4.462,3.525-2.469,5.409-2.857
			c2.713-0.559,4.202,1.078,3.812,4.031c-0.088,0.666,0.275,1.4,1.003,1.006C1175.104,88.104,1176.46,93.058,1179.511,93.546z"/>
		<path fill="#DEDBCC" d="M1183.949,93.971c-1.919-0.792-3.027-2.485-3.032-4.292c-0.01-4.289-1.375-7.319-6.413-7.834
			c5.063-4.273,10.331-3.835,15.757-2.406c-0.62-4.084-0.62-4.084-4.369-7.94c-0.937-0.166-1.472,0.459-2.013,1.045
			c-3.394,3.67-3.521,3.844-7.321,0.971c-1.91-1.443-2.871-1.177-4.628,0.194c-1.28,0.998-2.932,0.546-1.706-1.816
			c0.146-0.281,0.269-0.759,0.132-0.975c-1.962-3.07-1.8-4.074,1.257-5.217c1.137-0.424,2.667-0.363,2.967-1.714
			c0.444-2.003,1.05-1.747,2.261-0.617c1.757,1.639,3.787,1.188,5.727,0.384c0.887-0.367,2.085-0.819,1.696-2.149
			c-1.62-5.536,2.392-9.061,4.627-13.222c0.405-0.007,0.808-0.017,1.213-0.026c0.419-0.405,0.837-0.81,1.257-1.215
			c3.116-0.748,5.836-2.473,9.138-3.01c3.374-0.549,5.927-0.125,8.283,2.177c0.431,0.422,0.82,0.952,1.34,1.2
			c1.086,0.518,3.192-0.859,3.207,1.587c0.012,1.84-1.333,3.361-2.84,3.638c-6.622,1.213-5.849,7.224-8.893,11.753
			c3.924,0.357,6.09-0.317,7.338-3.209c0.978-2.265,2.171-4.429,4.601-5.519c0.46,0.381,0.798,0.849,1.019,1.403
			c-0.184,9.143-6.808,14.114-15.564,11.643c-1.193-0.336-2.485-0.886-3.422,0.149c-1.278,1.412,0.264,2.111,1.09,2.876
			c1.484,1.375,0.973,2.82,0.49,4.467c-2.636,9.002-2.408,9.359,6.254,11.692c0.59,0.158,1.067,0.575,1.486,1.03
			c-3.467,2.403-7.386,0.767-11.067,1.239c-0.827-0.759-1.653-0.76-2.478,0.003c-0.408,0.006-0.815,0.01-1.222,0.015
			c-0.398,0.424-0.849,0.792-1.236,1.227l0,0c-1.215,1.186-3.523-0.156-4.368,1.888
			C1184.326,93.586,1184.138,93.779,1183.949,93.971z"/>
		<path fill="#D3D0BD" d="M1163.682,38.77c5.77-3.173,12.39-2.1,18.477-3.697c2.181,6.59,5.29,8.316,11.105,6.167
			c1.795-0.211,3.389,0.384,4.924,1.222c0.837,0.807,3.077,0.211,2.466,2.466c-2.49-0.607-4.691,2.636-6.111,1.835
			c-5.731-3.237-1.752,4.138-4.484,3.781c-0.187,2.228,2.062,1.496,2.95,2.421c0.565,0.589,1.313,1.184,0.837,2.061
			c-0.237,0.438-0.91,0.81-1.436,0.889c-2.775,0.42-5.685,0.206-8.155,1.946c-0.574,0.403-1.502,0.199-1.618-0.275
			c-0.859-3.491-6.925-1.466-6.691-6.636c0.064-1.406-3.47-2.766-5.824-2.128c-2.682,0.729-4.587,2.845-5.623,5.248
			c-0.482,1.118,1.125,1.752,2.581,1.532c2.188-0.33,2.747,0.693,1.391,2.375c-1.601,1.984-0.403,3.642,0.661,4.958
			c1.693,2.095,2.621,4.512,1.788,6.811c-1.155,3.189,0.744,4.446,2.617,5.994c-0.822,0.002-1.644,0.003-2.466,0.006
			c-0.923-0.453-1.66-1.079-2.145-2.023c-3.755-7.345-6.021-8.002-13.079-3.799c-0.329,0.196-0.549,0.574-0.819,0.868
			c-1.227,0.006-2.454,0.046-3.679,0.014c-5.631-0.149-8.379-3.832-6.965-9.339c0.252-0.985,0.64-1.935,0.913-2.916
			c0.486-1.738,4.299-4.409-1.462-4.395c-1.656,0.005-1.193-2.337-0.709-3.63c0.469-1.251,0.946-3.17,2.789-2.564
			c1.876,0.616,4.12,0.248,5.628,2.052c1.035,1.241,2.814,1.556,3.893,0.635C1159.199,47.447,1164.229,44.997,1163.682,38.77z"/>
		<path fill="#C9C4AE" d="M1230.778,78.175c-2.355-2.63-5.169-0.602-6.507,0.503c-5.393,4.465-10.419,9.442-11.982,16.752
			c-2.928-0.755-6.381-0.958-5.119-5.631c0.271-1-0.514-2.082-1.505-2.44c-4.441-1.601-5.124-5.481-6.012-9.622
			c2.723-0.776,5.532-1.33,7.702-3.255c5.325,4.238,10.039,2.564,13.336-2.342c4.117-6.127,10.864-5.421,16.524-7.556
			c0.882-0.333,1.721,0.181,2.142,0.831c1.26,1.953,2.118,2.277,4.107,0.42c1.728-1.613,4.587-1.799,6.982-1.819
			c7.619-0.064,9.129,1.403,10.292,8.963c0.127,0.824,0.435,2.109-0.133,2.296c-6.553,2.152-2.622,6.326-2.04,9.871
			c0.099,0.596-0.245,1.179-0.677,1.644c-3.379,1.375-3.794,5.187-6.112,7.434c-0.42-0.002-0.841-0.003-1.261-0.005
			c3.543-4.748,0.468-8.716-1.526-12.801c-0.374-0.767-1.124-1.553-1.891-1.248c-3.183,1.267-3.607-1.165-4.81-3.063
			c-1.201-1.895-3.424-1.681-4.576,0.055C1235.365,80.701,1234.189,80.873,1230.778,78.175z"/>
		<path fill="#CFCBB7" d="M1305.401,96.633c-0.252-3.902-3.401-6.739-3.923-10.601c1.762-1.167,4.079,0.272,5.852-1.3
			c0.396-2.621-4.117-4.436-1.372-7.607c0.49-0.565-0.625-1.447-1.484-1.327c-3.884,0.541-7.813-0.716-11.689,0.345
			c-0.537,0.146-0.949,0.105-1.409,0.625c-2.645,2.977-2.679,2.945-4.97-0.652c-0.482-0.759-1.684-1.349-1.893-0.641
			c-1.093,3.697-3.331,2.042-5.553,1.601c-2.378-0.472-4.577,0.685-6.052,2.344c-2.185,2.459-4.722,4.41-7.206,6.505
			c-3.928,3.312-5.719,3.6-9.411,0.371c-0.594-0.518-0.952-1.306-1.419-1.968l0.015-0.018c1.373-1.448,3.269-1.587,5.048-1.903
			c4.607-0.816,8.017-2.735,8.59-7.971c0.295-2.689,1.728-4.019,4.791-4.443c4.937-0.685,9.509-4.234,14.838-1.695
			c0.967,1.212,0.1,2.76,0.717,4.055c3.24-0.348,6.437-0.51,9.681-0.087c3.343,0.436,3.336,0.275,5.062-3.558
			c0.214-0.474,0.859-0.942,1.378-1.046c0.959-0.193,1.487,0.469,1.542,1.39c0.19,3.165,0.601,5.484,4.654,2.892
			c1.869-1.196,2.171-0.71,1.626,3.761c0.149,4.256-0.12,8.431-2.741,12.042c-1.445,1.991-0.781,4.256-0.997,6.408
			C1307.85,94.979,1306.626,95.807,1305.401,96.633z"/>
		<path fill="#D7D3C2" d="M1296.249,108.85c-2.152,0.24-4.54-0.709-6.314,1.405c-0.911,1.085-2.178,1.151-3.346,0.49
			c-2.723-1.538-4.47,2.469-7.215,1.215c-0.408-0.185-1.294,0.908-1.287,1.831c0.024,3.298-0.571,6.536-3.413,8.448
			c-3.46,2.327-7.566,2.757-11.693,2.624c-0.005-0.407-0.007-0.815-0.012-1.221c-2.331-0.771-4.225-2.272-6.163-3.697
			c-0.822-0.822-1.644-1.644-2.466-2.466c2.633-1.56,1.256-4.273,1.514-6.433c2.364-0.226,3.035,1.091,3.655,2.708
			c0.462,1.205,1.68,1.991,2.904,1.68c1.757-0.446,0.84-1.867,0.712-3.001c-0.158-1.406,0.175-2.952-0.287-4.226
			c-1.225-3.391,1.375-2.931,3.277-3.866c0,2.008,0,3.559,0,5.006c0.844,0.523,1.294,0.134,1.641-0.384
			c0.759-1.136,1.479-2.298,2.272-3.539c2.073,1.17,2.632,2.801,2.802,4.661c2.749-1.53,4.53-4.125,6.782-6.199
			c0.913-0.84,1.678-1.812,1.765-3.137c0.099-1.518-0.12-3.039-1.701-3.606c-1.768-0.633-1.654,1.297-2.389,2.092
			c-0.227,0.245-0.7,0.263-1.081,0.393c-1.488-1.315-0.403-2.566,0.087-3.845c0.42-1.097,1.407-2.272,0.187-3.353
			c-1.131-1.002-2.408-1.721-0.584-3.255c1.502-1.263,4.543-2.143,4.83-1.393c1.632,4.262,4.889,1.174,7.366,1.419
			c-0.801,2.825-2.681,2.2-4.178,2.421c-1.014,0.151-2.195,0.221-1.932,1.704c0.151,0.855,0.825,1.498,1.756,1.313
			c2.821-0.554,5.016,1.227,7.485,1.941c1.808,0.523,4.426,4.607,4.333,6.566c-0.031,0.674-0.045,1.301,0.544,1.577
			c2.174,1.013,4.728-0.573,6.993,1.107c0.529,0.393,2.593-0.772,3.741-2.618c-4.206-0.889-6.572-4.675-11.604-4.964
			c4.613-5.371,8.309-10.468,15.81-9.119c0.387,0.911,0.958,1.79,1.122,2.741c0.341,1.965,1.451,1.369,2.576,0.956
			c1.22,1.974,3.249,3.698,1.409,6.469c2.471,0.145,4.472-0.985,6.392,0.271c-1.502,3.971-5.038,4.908-8.352,5.347
			c-2.772,0.366-4.278,1.391-5.641,3.741c-1.838,3.17-3.059,3.458-6.48,1.498C1300.136,109.047,1298.283,108.847,1296.249,108.85z"
			/>
		<path fill="#C4BFA7" d="M1200.574,41.783c-3.484-2.364-7.406-0.71-11.094-1.215c-0.374-0.447-0.824-0.817-1.234-1.227
			c-0.276-0.307-0.63-0.638-0.641-1.009c-0.212-7.731,10.869-18.408,18.589-17.952c1.188-0.28-0.539,2.856,1.659,1.409
			c1.013,0.072,2.047,0.58,3.014,0.254c2.301-0.774,3.676-5.066,6.544-2.835c3.693,2.874,8.695,4.011,10.852,9.176
			c1.709,4.09,1.083,6.914-1.792,9.748c-1.747,2.691-4.643,3.86-7.259,5.363c-0.836,0.48-2.24,1.004-2.872,0.633
			c-3.751-2.198-7.303-0.584-10.916,0.216C1203.371,44.317,1202.242,42.538,1200.574,41.783z"/>
		<g>
			<path fill="#FFFFFF" d="M1164.209,204.09c-2.507,0-5.187-0.097-7.883-0.312c-2.098,5.544-8.515,24.224,0.227,24.224
				c3.902,0,5.941,0,6.973,0c0.308,0,0.527,0,0.678,0c1.031,0,3.07,0,6.973,0c8.717,0,2.364-18.566,0.247-24.174
				C1168.954,204.009,1166.51,204.09,1164.209,204.09z"/>
			<path fill="#EEEBE5" d="M1171.532,203.829c-1.33,0.097-2.651,0.163-3.948,0.204v23.968c0.994,0,2.212,0,3.702,0
				C1180.002,228.003,1173.649,209.435,1171.532,203.829z"/>
			<path fill="#BAB7B1" d="M1193.303,191.537c-2.783-8.323-16.735-18.487-29.049-18.487h-0.043h-0.034
				c-12.323,0-26.275,10.165-29.057,18.487c-1.037,3.102-0.415,5.541,1.85,7.247c4.482,3.374,14.92,5.471,27.243,5.471
				s22.76-2.097,27.243-5.471C1193.717,197.076,1194.34,194.639,1193.303,191.537z M1140.684,193.737
				c0.096,0.702,0.427,1.145,1.1,1.22c1.678,0.189,1.304,2.63-0.268,2.215c-2.667-0.657-2.959-3.392-2.008-5.643
				c1.186-2.813,3.59-5.036,6.178-6.557C1143.363,186.88,1140.239,190.413,1140.684,193.737z"/>
			<path fill="#EEEBE5" d="M1193.303,190.374c-2.783-8.323-16.735-18.487-29.049-18.487h-0.043h-0.034
				c-12.323,0-26.275,10.165-29.057,18.487c-1.037,3.102-0.415,5.541,1.85,7.247c4.482,3.374,14.92,5.471,27.243,5.471
				s22.76-2.097,27.243-5.471C1193.717,195.915,1194.34,193.476,1193.303,190.374z M1140.684,192.575
				c0.096,0.702,0.427,1.145,1.1,1.22c1.678,0.189,1.304,2.63-0.268,2.215c-2.667-0.657-2.959-3.392-2.008-5.643
				c1.186-2.813,3.59-5.036,6.178-6.557C1143.363,185.718,1140.239,189.25,1140.684,192.575z"/>
		</g>
		<path fill="#E6E4D9" d="M1186.826,195.086c-0.489,0.526-1.137,0.347-1.705,0.311c-2.146-0.136-3.902,0.744-5.54,1.986
			c-0.117,0.101-0.216,0.221-0.324,0.333l0,0c-1.505,0.447-3.108,0.177-4.611,0.635c-0.216-0.106-0.435-0.211-0.652-0.317
			c-0.077-0.085-0.11-0.175-0.098-0.271c0.012-0.097,0.03-0.146,0.05-0.146c0.254-0.347,0.62-0.595,0.852-0.966
			c0.629-1.004,0.491-1.347-0.642-1.569c-1.548-0.304-1.753-0.97-0.713-2.31c1.179-0.913,2.584-0.789,3.754-0.333
			c1.732,0.676,3.449,0.723,5.227,0.644c0.602,0.142,1.095,0.506,1.626,0.796c0.48,0.396,1.07,0.371,1.639,0.463
			C1186.152,194.421,1186.823,194.27,1186.826,195.086z"/>
		<path fill="#EAE7DE" d="M1159.948,195.25c-0.106,0.002-0.211,0.005-0.317,0.006c-0.955,0.792-1.951,0.793-2.983,0.157
			c-1.387-0.855-1.415-1.149-0.311-2.221c0.216-0.211,0.252-0.596,0.556-0.815c-1.024-0.057-1.629-0.758-2.094-1.486
			c-0.517-0.81-0.868-1.661-1.632-2.366c-0.781-0.72,0.236-1.451,0.53-2.161v0.002c0.113-0.106,0.224-0.215,0.329-0.33h-0.002
			c0.609-0.875,1.245-1.745,2.007-2.479c0.374-0.36,0.861-0.877,1.557-0.583c-0.039,1.139-0.502,2.14-1.324,2.86
			c-0.863,0.756-0.832,2.212,0.251,2.721c0.436,0.206,0.923,0.32,1.347,0.574c0.371,0.223,0.693,0.535,1.215,0.628
			c0.393-0.275-0.237-0.982,0.391-1.172c0.58-0.175,0.937,0.209,1.249,0.58c0.765,0.908,1.905,1.112,2.892,1.606
			c-0.242,0.792-0.937,0.951-1.57,0.879c-1.544-0.177-1.776,0.619-1.581,1.859c0.058,0.372,0.133,0.764-0.177,1.082l0,0
			C1160.082,194.767,1160.14,195.072,1159.948,195.25z"/>
		<path fill="#EBE8E0" d="M1167.169,181.596c0.193-0.266,0.424-0.311,0.69-0.11c0.261,0.197,0.515,0.477,0.861,0.412
			c1.22-0.224,1.88,0.807,2.816,1.213c0.189,0.082,0.426,0.197,0.326,0.469c-0.411,1.117,0.139,1.128,1.026,1.018
			c0.899-0.112,1.507-0.154,2.166-1.14c0.71-1.064,1.333-2.273,2.27-3.233c0.309-0.318,1.236-1.028,0.085-1.671
			c-0.347-0.194,0.042-0.457,0.212-0.623c0.399-0.387,0.918-0.264,1.4-0.287c0.036,0.058,0.072,0.115,0.109,0.173
			c-0.003,0.069-0.007,0.136-0.009,0.204c-0.043,0.13-0.101,0.254-0.168,0.375c-0.029,0.063-0.061,0.124-0.089,0.187
			c-0.144,0.33-0.178,0.688-0.263,1.034c-0.439,1.973-1.986,3.358-2.736,5.166c-0.061,0.148-0.197,0.304-0.347,0.333
			c-2.074,0.411-2.936,2.33-4.392,3.511c-1.098,0.17-1.702-0.556-2.315-1.268c-0.616-0.944-1.586-0.994-2.579-1.1
			c-0.873-0.093-1.927-0.06-2.019-1.368c1.296,0.366,2.567,0.762,3.96,0.677c0.87-0.052,1.565-0.266,2.217-1.04
			c-1.188-0.629-2.296-1.349-2.892-2.596C1167.383,181.826,1167.308,181.68,1167.169,181.596L1167.169,181.596z"/>
		<path fill="#EEEBE5" d="M1179.278,200.201c0.312,0.088,0.645,0.133,0.934,0.272c0.772,0.371,1.279,0.261,1.359-0.685
			c0.041-0.477,0.323-0.592,0.74-0.707c1.847-0.51,2.366-1.222,2.424-3.154c0.005-0.136,0.129-0.269,0.32-0.647
			c0.295,1,0.475,2.044,1.645,1.368c0.625,0.58-0.424,0.874-0.089,1.352c1.741-1.174,2.154-2.019,1.309-4.084
			c0.677,0.505,1.064,1.654,0.822,2.461c-0.723,2.401-2.303,3.875-4.79,4.259c-0.75,0.115-1.486,0.254-2.225,0.414
			C1180.783,201.253,1179.883,201.094,1179.278,200.201z"/>
		<path fill="#E1DED1" d="M1181.33,188.569c-0.486,1.596-0.105,1.877,2.119,1.39c-0.168,0.601,0.496,1.03,0.055,1.718
			c-0.403,0.629-0.556,1.448-1.512,1.498c-1.508,0.113-2.469-0.979-3.621-1.647l0,0c-0.194-0.177-0.122-0.487-0.333-0.654
			c-0.109-0.11-0.218-0.223-0.328-0.333c-0.208-0.139-0.396-0.295-0.443-0.562c0.031-0.166,0.103-0.312,0.215-0.438
			C1178.679,188.871,1179.894,188.283,1181.33,188.569z"/>
		<path fill="#E3E0D4" d="M1174.876,176.129c0.561,0.928,1.467,0.979,2.413,0.991c1.047,0.012,2.04,0.185,2.523,1.309
			c-0.391,0.218-0.736-0.006-1.097-0.11c-1.697-0.7-3.201-0.115-4.664,0.712c-0.554,0.465-0.85,1.124-1.279,1.683
			c-0.458,0.597-1.127,1.045-1.816,0.602c-0.599-0.384-0.244-1.067-0.041-1.638c0.381-1.074,1.013-1.908,2.231-2.315
			c-0.831-1.2-1.831-1.507-3.128-1.218c-0.629,0.139-1.191,0.574-1.88,0.443c-0.061-0.046-0.121-0.094-0.182-0.142
			c0.04-0.57,0.364-0.81,0.904-0.988c1.532-0.499,3.005-0.333,4.46,0.235C1173.829,175.89,1174.304,176.171,1174.876,176.129z"/>
		<path fill="#EAE7DE" d="M1175.669,190.797c-0.218,0.002-0.436,0.003-0.654,0.005c-0.024-0.063-0.048-0.125-0.072-0.189
			c0.122-0.369,0.484-0.444,0.764-0.623c0.115-0.081,0.233-0.153,0.353-0.226c0.122-0.079,0.251-0.142,0.386-0.196
			c0.141-0.051,0.284-0.084,0.432-0.108c0.226-0.036,0.451-0.051,0.678-0.057c0.828-0.091,1.699,0.187,2.476-0.314
			c2.467-1.45,3.345-1.152,4.631,1.563c0.048,0.175,0.012,0.331-0.106,0.469c-1.581,1.181-3.249,0.455-4.534-0.283
			c-1.483-0.852-2.665-0.885-4.033-0.103C1175.897,190.788,1175.775,190.779,1175.669,190.797z"/>
		<path fill="#DAD6C6" d="M1151.721,201.959c-1.164-0.206-1.889-1.1-2.941-1.495c-0.399-0.149-0.32-0.628-0.494-0.94
			c-0.266-0.477-0.466-1.013-1.285-0.812c-0.168,0.042-0.451-0.009-0.551-0.117c-1-1.079-2.53-1.055-3.842-1.481
			c-0.269-0.225-0.654,0.054-0.93-0.154c-0.109-0.079-0.22-0.157-0.333-0.23c-0.756-0.446-1.663-0.326-2.494-0.492
			c-0.623-0.021-1.078-0.148-1.366-0.774c-0.283-0.614-1.028-0.987-1.366-1.614c-0.324-0.862,0.1-1.577,0.613-2.272
			c0.309-0.257,0.215-0.575,0.193-0.886c-0.081-1.179,0.227-2.201,1.438-2.888c0.985-0.559,1.478-1.59,2.476-2.154
			c0.293-0.166,0.515-0.472,0.894-0.443c1.209,0.094,2.749-1.511,3.956-1.4c-0.626,0.626-1.012,2.222-1.792,2.237
			c-0.688,0.014-0.559,1.614-1.185,2.171c1.164,0.697,0.834-0.396,1.064,0.966c0.005,1.196,0.62,2.035,1.859,2.617
			c0.384-0.522,0.599-1.114,0.892-1.666c0.329-0.62,0.734-0.527,1.145-0.127c0.637,0.62,0.399,2.104-0.438,2.551
			c-1.043,0.558-1.267,1.438-1.419,2.411c-0.134,0.858-0.235,0.868-1.136,0.466c-0.036-0.017,0.063-0.106-0.052-0.087
			c0.209,0.387-0.605,0.832-0.082,1.09c0.46,0.227,1.177,0.224,1.423-0.399c0.381-0.97,1.093-1,1.891-0.642
			c0.7,0.314,1.364,0.717,1.765,1.371c0.036,0.125,0.027,0.249-0.033,0.369c-0.224,0.281-0.308,0.529,0.014,0.822
			c0.515,0.469,0.235,0.758-0.4,0.934c0.542,0.142,0.983-0.187,1.464-0.181c0.539,0.006,1.03,0.359,0.704,0.713
			c-0.923,1.002,0.465,0.841,0.638,1.264c0.149,0.39,0.054,0.762-0.134,1.128C1151.823,201.864,1151.771,201.911,1151.721,201.959z"
			/>
		<path fill="#CFCBB7" d="M1157.162,202.765c-0.11-0.108-0.221-0.215-0.333-0.323c-0.793-0.199-1.134-0.666-1.081-1.52
			c0.076-1.229-0.432-2.5-1.028-3.35c-0.743-1.058-0.48-1.508,0.23-2.14c0.816-0.728,1.675-0.681,2.535-0.06
			c0.318,0.23,0.436,0.637,0.734,0.873c0.592,0.472,1.169,1.018,2.044,0.759c0.554-0.163,1.263,0.052,0.791-1.117
			c-0.309-0.767-0.026-2.049,1.524-1.783c0.363,0.063,0.735-0.197,1.125-0.166c0.153,0.018,0.299,0.06,0.439,0.121
			c0.486,0.341,0.963,0.7,1.5,0.961c0.118,0.105,0.189,0.235,0.208,0.391c-0.021,0.153-0.076,0.293-0.161,0.423
			c-0.24,0.316-0.566,0.513-0.93,0.652c-0.559,0.212-0.666,0.669-0.316,1.03c0.943,0.968,1.39,2.286,2.37,3.213
			c0.139,0.057,0.275,0.118,0.414,0.173c0.226,0.062,0.456,0.097,0.689,0.11c0.82,0.197,1.907-0.434,2.404,0.765
			c-0.218,0-0.444-0.039-0.652,0.006c-1.518,0.33-2.868,0.122-4.356-0.523c-1.236-0.537-2.84-0.604-4.208,0.196
			C1159.842,202.041,1158.395,202.078,1157.162,202.765z"/>
		<path fill="#C4BFA7" d="M1184.792,193.596c-0.93-0.63-1.979-0.19-2.962-0.324c-0.1-0.12-0.22-0.218-0.33-0.328
			c-0.073-0.082-0.169-0.17-0.172-0.269c-0.057-2.064,2.902-4.915,4.964-4.794c0.317-0.075-0.144,0.762,0.443,0.376
			c0.271,0.019,0.547,0.156,0.805,0.067c0.614-0.206,0.982-1.352,1.747-0.758c0.986,0.767,2.32,1.071,2.898,2.451
			c0.457,1.093,0.29,1.845-0.478,2.603c-0.466,0.719-1.241,1.031-1.938,1.431c-0.223,0.129-0.597,0.268-0.767,0.169
			c-1.001-0.587-1.95-0.156-2.916,0.058C1185.538,194.273,1185.237,193.797,1184.792,193.596z"/>
		<path fill="#E4E2D6" d="M1184.731,181.133c1.306,1.129,2.796,2.054,3.829,3.488c0.72,0.998,1.383,2.027,1.891,3.15
			c-1.363,0.153-2.552-0.731-3.975-0.586c-0.686,0.07-1.012-0.987-0.851-1.713c0.202-0.916-0.542-1.236-0.903-1.796
			c-0.168-0.26-0.366-0.309-0.609,0.027c-0.271,0.375-0.463,2.657-0.173,3.053c0.714,0.976,0.224,2.289-0.955,2.574
			c-0.911,0.221-1-0.419-1.069-1.038c-0.06-0.539,0.079-1.097-0.133-1.626c-0.082-0.204-0.178-0.4-0.338-0.623
			c-0.673,1.248-2.159,1.052-3.118,1.804c-0.146,0.067-0.296,0.073-0.448,0.029v0.002c-0.822-1.804,0.735-2.872,1.498-4.199
			c-0.836-0.264-0.871,0.57-1.486,0.65c0.005-0.801-0.424-1.569,0.426-2.308c0.343-0.297,0.626-1.11,0.46-1.464
			c-0.444-0.94-0.063-0.877,0.604-0.695c0.181,0.05,0.348,0.073,0.342-0.166c-0.029-1.191,0.942-0.659,1.443-0.762
			c0.724-0.149,1.122,0.287,1.018,1.076c-0.024,0.178,0.073,0.374,0.268,0.269C1183.553,179.68,1183.916,181.002,1184.731,181.133z"
			/>
		<path fill="#E4E2D6" d="M1172.666,192.213c1.306,1.129,2.796,2.054,3.829,3.488c0.72,0.998,1.383,2.027,1.891,3.15
			c-1.363,0.153-2.552-0.731-3.975-0.586c-0.686,0.07-1.012-0.987-0.85-1.713c0.202-0.916-0.542-1.236-0.903-1.796
			c-0.168-0.26-0.366-0.309-0.609,0.027c-0.271,0.375-0.463,2.657-0.173,3.053c0.714,0.976,0.224,2.289-0.955,2.575
			c-0.911,0.221-1-0.419-1.069-1.038c-0.06-0.539,0.079-1.097-0.133-1.626c-0.082-0.204-0.178-0.4-0.338-0.623
			c-0.673,1.248-2.159,1.052-3.118,1.804c-0.146,0.067-0.296,0.073-0.448,0.029v0.002c-0.822-1.804,0.735-2.872,1.498-4.199
			c-0.836-0.264-0.871,0.57-1.486,0.65c0.005-0.801-0.424-1.569,0.426-2.308c0.343-0.297,0.626-1.11,0.46-1.464
			c-0.444-0.94-0.063-0.877,0.604-0.695c0.181,0.05,0.348,0.073,0.342-0.166c-0.029-1.191,0.942-0.659,1.443-0.762
			c0.725-0.149,1.122,0.287,1.018,1.076c-0.024,0.178,0.073,0.374,0.268,0.269C1171.49,190.761,1171.852,192.083,1172.666,192.213z"
			/>
		<path fill="#E4E2D6" d="M1154.959,193.07c1.306,1.129,2.796,2.054,3.829,3.488c0.72,0.998,1.383,2.027,1.891,3.15
			c-1.363,0.153-2.552-0.731-3.975-0.586c-0.686,0.07-1.012-0.987-0.85-1.713c0.202-0.916-0.542-1.236-0.903-1.796
			c-0.168-0.26-0.366-0.309-0.609,0.027c-0.271,0.375-0.463,2.657-0.173,3.053c0.714,0.976,0.224,2.289-0.955,2.574
			c-0.911,0.221-1-0.419-1.069-1.038c-0.06-0.539,0.079-1.097-0.133-1.626c-0.082-0.204-0.178-0.4-0.338-0.623
			c-0.673,1.248-2.159,1.052-3.118,1.804c-0.146,0.067-0.296,0.073-0.448,0.029v0.002c-0.822-1.804,0.735-2.872,1.498-4.199
			c-0.836-0.264-0.871,0.57-1.486,0.65c0.005-0.801-0.424-1.569,0.426-2.308c0.343-0.297,0.626-1.11,0.46-1.464
			c-0.444-0.94-0.063-0.877,0.604-0.695c0.181,0.05,0.348,0.073,0.342-0.166c-0.029-1.191,0.942-0.659,1.443-0.762
			c0.724-0.149,1.122,0.287,1.018,1.076c-0.024,0.178,0.073,0.374,0.268,0.269C1153.784,191.616,1154.145,192.94,1154.959,193.07z"
			/>
		<path fill="#DEDBCC" d="M1156.144,193.183c-0.513-0.211-0.808-0.664-0.81-1.146c-0.003-1.145-0.367-1.955-1.713-2.092
			c1.352-1.141,2.759-1.024,4.208-0.642c-0.166-1.091-0.166-1.091-1.167-2.121c-0.249-0.045-0.393,0.122-0.538,0.28
			c-0.906,0.98-0.94,1.026-1.955,0.26c-0.51-0.386-0.767-0.314-1.236,0.052c-0.342,0.266-0.783,0.145-0.456-0.484
			c0.039-0.075,0.072-0.203,0.036-0.26c-0.525-0.82-0.481-1.088,0.336-1.393c0.304-0.113,0.713-0.097,0.792-0.457
			c0.118-0.535,0.281-0.466,0.604-0.165c0.469,0.438,1.012,0.317,1.529,0.103c0.237-0.098,0.556-0.218,0.453-0.574
			c-0.432-1.478,0.64-2.42,1.236-3.531c0.108-0.002,0.216-0.005,0.324-0.007c0.112-0.108,0.224-0.216,0.335-0.324
			c0.832-0.201,1.558-0.661,2.44-0.804c0.901-0.146,1.582-0.033,2.212,0.582c0.115,0.112,0.22,0.254,0.357,0.32
			c0.29,0.139,0.852-0.228,0.856,0.424c0.003,0.492-0.355,0.896-0.759,0.971c-1.768,0.324-1.562,1.929-2.375,3.138
			c1.047,0.096,1.626-0.085,1.959-0.856c0.261-0.605,0.58-1.182,1.229-1.474c0.122,0.101,0.214,0.227,0.272,0.375
			c-0.05,2.442-1.819,3.769-4.156,3.108c-0.318-0.089-0.664-0.236-0.913,0.041c-0.341,0.376,0.07,0.563,0.292,0.768
			c0.396,0.367,0.26,0.753,0.132,1.193c-0.704,2.403-0.642,2.499,1.671,3.122c0.157,0.042,0.285,0.154,0.398,0.275
			c-0.925,0.641-1.973,0.204-2.956,0.33c-0.221-0.203-0.441-0.203-0.662,0.002c-0.109,0.002-0.218,0.003-0.326,0.005
			c-0.106,0.113-0.227,0.212-0.33,0.328l0,0c-0.324,0.317-0.942-0.042-1.165,0.503
			C1156.246,193.08,1156.195,193.131,1156.144,193.183z"/>
		<path fill="#D3D0BD" d="M1150.733,178.442c1.541-0.848,3.309-0.561,4.933-0.988c0.582,1.759,1.412,2.221,2.965,1.647
			c0.48-0.057,0.906,0.103,1.315,0.326c0.224,0.215,0.822,0.057,0.657,0.657c-0.665-0.161-1.253,0.704-1.632,0.49
			c-1.53-0.863-0.468,1.105-1.197,1.01c-0.05,0.595,0.55,0.399,0.788,0.647c0.151,0.157,0.351,0.316,0.224,0.55
			c-0.063,0.117-0.244,0.216-0.384,0.237c-0.741,0.112-1.518,0.055-2.177,0.52c-0.153,0.108-0.4,0.052-0.432-0.073
			c-0.228-0.932-1.848-0.391-1.786-1.773c0.017-0.375-0.927-0.738-1.556-0.568c-0.716,0.194-1.225,0.759-1.502,1.402
			c-0.129,0.299,0.3,0.468,0.689,0.41c0.585-0.088,0.734,0.185,0.372,0.633c-0.427,0.53-0.108,0.973,0.177,1.324
			c0.451,0.559,0.7,1.205,0.478,1.819c-0.308,0.852,0.199,1.186,0.698,1.601c-0.22,0-0.439,0.002-0.657,0.002
			c-0.247-0.121-0.444-0.288-0.573-0.541c-1.002-1.961-1.608-2.137-3.492-1.014c-0.088,0.052-0.146,0.154-0.218,0.232
			c-0.327,0.002-0.654,0.012-0.982,0.003c-1.503-0.041-2.237-1.024-1.86-2.494c0.067-0.263,0.17-0.517,0.244-0.779
			c0.13-0.463,1.148-1.177-0.39-1.173c-0.443,0.002-0.318-0.625-0.189-0.97c0.125-0.333,0.252-0.846,0.744-0.685
			c0.501,0.165,1.1,0.066,1.502,0.549c0.276,0.331,0.752,0.415,1.04,0.17C1149.536,180.76,1150.88,180.106,1150.733,178.442z"/>
		<path fill="#C9C4AE" d="M1168.65,188.965c-0.629-0.702-1.381-0.161-1.737,0.134c-1.44,1.193-2.782,2.521-3.199,4.472
			c-0.781-0.202-1.704-0.256-1.368-1.503c0.072-0.268-0.137-0.556-0.402-0.652c-1.186-0.427-1.369-1.463-1.605-2.569
			c0.728-0.206,1.476-0.355,2.056-0.868c1.421,1.131,2.681,0.685,3.561-0.625c1.1-1.637,2.9-1.448,4.412-2.018
			c0.236-0.088,0.46,0.048,0.573,0.223c0.336,0.522,0.565,0.608,1.097,0.112c0.462-0.431,1.225-0.48,1.865-0.486
			c2.034-0.017,2.437,0.375,2.748,2.394c0.034,0.22,0.117,0.563-0.036,0.613c-1.75,0.574-0.701,1.689-0.546,2.636
			c0.027,0.16-0.065,0.316-0.181,0.439c-0.903,0.367-1.013,1.385-1.632,1.984c-0.112,0-0.224-0.002-0.336-0.002
			c0.946-1.267,0.124-2.327-0.408-3.418c-0.1-0.204-0.3-0.415-0.505-0.333c-0.851,0.338-0.963-0.311-1.284-0.817
			s-0.915-0.448-1.222,0.015C1169.875,189.641,1169.56,189.687,1168.65,188.965z"/>
		<path fill="#CFCBB7" d="M1188.576,193.893c-0.067-1.042-0.908-1.8-1.047-2.83c0.47-0.312,1.09,0.073,1.563-0.347
			c0.106-0.7-1.1-1.184-0.366-2.031c0.132-0.151-0.168-0.386-0.396-0.354c-1.037,0.145-2.086-0.191-3.122,0.093
			c-0.144,0.039-0.252,0.029-0.376,0.168c-0.707,0.795-0.716,0.786-1.327-0.173c-0.129-0.203-0.45-0.36-0.505-0.172
			c-0.292,0.988-0.889,0.546-1.483,0.427c-0.635-0.125-1.222,0.182-1.615,0.626c-0.583,0.656-1.261,1.177-1.925,1.737
			c-1.049,0.885-1.527,0.961-2.512,0.098c-0.158-0.139-0.254-0.348-0.379-0.526l0.005-0.005c0.366-0.387,0.873-0.424,1.348-0.508
			c1.23-0.218,2.142-0.731,2.294-2.128c0.079-0.717,0.462-1.073,1.279-1.186c1.318-0.182,2.539-1.129,3.962-0.453
			c0.259,0.324,0.027,0.736,0.191,1.082c0.865-0.093,1.718-0.136,2.586-0.022c0.892,0.117,0.891,0.073,1.351-0.951
			c0.057-0.127,0.228-0.251,0.367-0.28c0.256-0.051,0.398,0.125,0.412,0.371c0.051,0.846,0.16,1.464,1.244,0.772
			c0.499-0.32,0.58-0.19,0.434,1.004c0.04,1.137-0.031,2.25-0.732,3.216c-0.386,0.532-0.209,1.136-0.266,1.711
			C1189.229,193.452,1188.901,193.674,1188.576,193.893z"/>
		<path fill="#D7D3C2" d="M1186.131,197.156c-0.574,0.064-1.212-0.189-1.685,0.375c-0.244,0.29-0.582,0.308-0.894,0.132
			c-0.728-0.411-1.194,0.659-1.927,0.324c-0.109-0.05-0.345,0.242-0.343,0.489c0.006,0.88-0.153,1.745-0.911,2.255
			c-0.923,0.621-2.02,0.736-3.122,0.701c-0.002-0.109-0.002-0.216-0.003-0.326c-0.621-0.206-1.128-0.607-1.646-0.988
			c-0.22-0.22-0.439-0.439-0.657-0.657c0.704-0.417,0.335-1.14,0.405-1.718c0.63-0.06,0.81,0.292,0.976,0.723
			c0.124,0.321,0.448,0.532,0.776,0.448c0.469-0.12,0.224-0.498,0.19-0.801c-0.042-0.375,0.046-0.788-0.076-1.128
			c-0.328-0.906,0.367-0.783,0.874-1.033c0,0.537,0,0.951,0,1.337c0.226,0.139,0.345,0.036,0.438-0.103
			c0.203-0.304,0.395-0.614,0.607-0.944c0.553,0.312,0.702,0.747,0.748,1.245c0.734-0.408,1.209-1.102,1.811-1.656
			c0.244-0.224,0.448-0.484,0.47-0.837c0.027-0.405-0.031-0.812-0.454-0.963c-0.472-0.169-0.441,0.347-0.638,0.559
			c-0.062,0.065-0.187,0.07-0.288,0.105c-0.398-0.351-0.108-0.686,0.024-1.026c0.112-0.293,0.376-0.607,0.05-0.895
			c-0.302-0.268-0.642-0.46-0.157-0.87c0.4-0.338,1.213-0.573,1.29-0.372c0.436,1.139,1.306,0.314,1.967,0.379
			c-0.214,0.755-0.716,0.587-1.116,0.647c-0.271,0.041-0.586,0.058-0.515,0.455c0.041,0.228,0.22,0.399,0.469,0.351
			c0.753-0.148,1.339,0.328,1.999,0.518c0.482,0.141,1.182,1.23,1.157,1.753c-0.009,0.18-0.012,0.348,0.145,0.422
			c0.582,0.271,1.263-0.153,1.867,0.296c0.142,0.105,0.692-0.206,0.998-0.7c-1.122-0.237-1.754-1.248-3.098-1.325
			c1.232-1.435,2.219-2.796,4.222-2.435c0.103,0.244,0.256,0.478,0.299,0.732c0.091,0.525,0.387,0.366,0.688,0.256
			c0.326,0.527,0.868,0.988,0.376,1.728c0.659,0.039,1.194-0.263,1.706,0.072c-0.4,1.061-1.345,1.311-2.231,1.427
			c-0.74,0.098-1.141,0.372-1.507,0.998c-0.49,0.846-0.817,0.923-1.73,0.4C1187.17,197.209,1186.675,197.156,1186.131,197.156z"/>
		<path fill="#C4BFA7" d="M1160.584,179.248c-0.93-0.63-1.979-0.19-2.962-0.324c-0.1-0.12-0.22-0.218-0.33-0.328
			c-0.073-0.082-0.169-0.17-0.172-0.269c-0.057-2.064,2.902-4.915,4.964-4.794c0.317-0.075-0.144,0.762,0.443,0.376
			c0.271,0.019,0.547,0.156,0.805,0.067c0.614-0.206,0.982-1.352,1.747-0.758c0.987,0.767,2.32,1.071,2.898,2.451
			c0.457,1.093,0.29,1.845-0.478,2.603c-0.466,0.719-1.241,1.031-1.938,1.431c-0.223,0.129-0.598,0.268-0.767,0.169
			c-1.001-0.587-1.95-0.156-2.916,0.058C1161.33,179.923,1161.029,179.45,1160.584,179.248z"/>
		<g>
			<path fill="#FFFFFF" d="M1290.816,197.262c-1.517,0-3.137-0.058-4.769-0.189c-1.268,3.353-5.15,14.651,0.137,14.651
				c2.36,0,3.594,0,4.218,0c0.187,0,0.318,0,0.41,0c0.623,0,1.857,0,4.217,0c5.272,0,1.43-11.229,0.149-14.619
				C1293.685,197.212,1292.206,197.262,1290.816,197.262z"/>
			<path fill="#EEEBE5" d="M1295.245,197.104c-0.804,0.058-1.603,0.098-2.388,0.124v14.496c0.601,0,1.337,0,2.238,0
				C1300.367,211.723,1296.524,200.494,1295.245,197.104z"/>
			<path fill="#BAB7B1" d="M1308.41,189.669c-1.683-5.033-10.121-11.181-17.569-11.181h-0.026h-0.021
				c-7.453,0-15.891,6.148-17.574,11.181c-0.628,1.877-0.251,3.35,1.119,4.383c2.711,2.042,9.025,3.309,16.476,3.309
				c7.453,0,13.765-1.267,16.476-3.309C1308.661,193.019,1309.038,191.546,1308.41,189.669z M1276.587,191
				c0.058,0.424,0.259,0.692,0.665,0.736c1.014,0.113,0.789,1.59-0.161,1.339c-1.614-0.398-1.789-2.052-1.215-3.413
				c0.717-1.701,2.171-3.046,3.736-3.966C1278.207,186.853,1276.318,188.989,1276.587,191z"/>
			<path fill="#EEEBE5" d="M1308.41,188.966c-1.683-5.033-10.121-11.181-17.569-11.181h-0.026h-0.021
				c-7.453,0-15.891,6.148-17.574,11.181c-0.628,1.877-0.251,3.35,1.119,4.383c2.711,2.042,9.025,3.309,16.476,3.309
				c7.453,0,13.765-1.267,16.476-3.309C1308.661,192.316,1309.038,190.842,1308.41,188.966z M1276.587,190.296
				c0.058,0.424,0.259,0.692,0.665,0.736c1.014,0.113,0.789,1.59-0.161,1.339c-1.614-0.398-1.789-2.052-1.215-3.413
				c0.717-1.701,2.171-3.046,3.736-3.966C1278.207,186.149,1276.318,188.287,1276.587,190.296z"/>
		</g>
		<path fill="#E6E4D9" d="M1304.493,191.816c-0.296,0.318-0.688,0.209-1.031,0.189c-1.297-0.082-2.36,0.45-3.35,1.201
			c-0.07,0.062-0.132,0.133-0.196,0.202l0,0c-0.91,0.271-1.88,0.106-2.789,0.384c-0.132-0.064-0.263-0.127-0.395-0.191
			c-0.046-0.051-0.067-0.106-0.06-0.163c0.007-0.058,0.018-0.088,0.03-0.088c0.154-0.211,0.375-0.36,0.515-0.583
			c0.381-0.608,0.297-0.815-0.388-0.949c-0.935-0.184-1.061-0.587-0.431-1.397c0.713-0.551,1.562-0.478,2.27-0.202
			c1.047,0.41,2.086,0.438,3.162,0.39c0.364,0.087,0.662,0.307,0.983,0.481c0.29,0.239,0.647,0.224,0.99,0.28
			C1304.086,191.412,1304.492,191.321,1304.493,191.816z"/>
		<path fill="#EAE7DE" d="M1288.237,191.915c-0.064,0.002-0.129,0.003-0.191,0.003c-0.578,0.48-1.181,0.48-1.804,0.096
			c-0.839-0.517-0.856-0.695-0.189-1.344c0.132-0.127,0.153-0.36,0.336-0.493c-0.619-0.034-0.985-0.457-1.266-0.898
			c-0.312-0.49-0.525-1.006-0.986-1.43c-0.472-0.435,0.144-0.877,0.32-1.308v0.002c0.069-0.064,0.136-0.13,0.199-0.201h-0.002
			c0.369-0.529,0.753-1.055,1.213-1.5c0.226-0.218,0.52-0.53,0.942-0.353c-0.024,0.689-0.304,1.294-0.801,1.729
			c-0.523,0.457-0.503,1.337,0.151,1.646c0.263,0.124,0.559,0.194,0.815,0.347c0.224,0.134,0.42,0.324,0.735,0.379
			c0.237-0.166-0.144-0.593,0.236-0.709c0.35-0.106,0.566,0.127,0.755,0.351c0.463,0.549,1.152,0.673,1.749,0.971
			c-0.146,0.478-0.566,0.575-0.949,0.532c-0.934-0.108-1.074,0.374-0.956,1.125c0.036,0.226,0.081,0.462-0.106,0.654l0,0
			C1288.318,191.623,1288.354,191.807,1288.237,191.915z"/>
		<path fill="#EBE8E0" d="M1292.604,183.657c0.117-0.161,0.257-0.189,0.417-0.067c0.158,0.12,0.312,0.288,0.52,0.249
			c0.738-0.136,1.137,0.489,1.702,0.734c0.113,0.05,0.259,0.12,0.197,0.284c-0.248,0.676,0.084,0.681,0.62,0.616
			c0.544-0.067,0.911-0.093,1.309-0.69c0.429-0.644,0.807-1.375,1.373-1.956c0.187-0.193,0.747-0.621,0.052-1.01
			c-0.209-0.117,0.026-0.276,0.129-0.376c0.24-0.233,0.554-0.16,0.848-0.173c0.022,0.034,0.043,0.07,0.065,0.105
			c-0.002,0.042-0.005,0.082-0.006,0.124c-0.027,0.079-0.061,0.154-0.101,0.227c-0.018,0.038-0.038,0.075-0.054,0.112
			c-0.087,0.201-0.108,0.415-0.16,0.625c-0.266,1.193-1.201,2.031-1.654,3.125c-0.038,0.089-0.12,0.184-0.211,0.202
			c-1.254,0.248-1.776,1.409-2.655,2.123c-0.664,0.103-1.03-0.336-1.4-0.768c-0.372-0.571-0.959-0.601-1.56-0.665
			c-0.527-0.057-1.165-0.036-1.221-0.827c0.783,0.221,1.553,0.46,2.396,0.41c0.526-0.031,0.946-0.161,1.342-0.629
			c-0.719-0.381-1.388-0.816-1.749-1.57C1292.734,183.796,1292.689,183.707,1292.604,183.657L1292.604,183.657z"/>
		<path fill="#EEEBE5" d="M1299.93,194.909c0.19,0.052,0.39,0.081,0.565,0.165c0.468,0.224,0.774,0.158,0.822-0.414
			c0.024-0.288,0.194-0.357,0.446-0.427c1.117-0.309,1.431-0.74,1.466-1.908c0.003-0.082,0.077-0.163,0.194-0.391
			c0.178,0.605,0.287,1.236,0.995,0.827c0.378,0.351-0.257,0.529-0.054,0.817c1.054-0.71,1.302-1.221,0.792-2.47
			c0.41,0.307,0.644,1,0.496,1.488c-0.438,1.452-1.393,2.343-2.898,2.576c-0.453,0.07-0.898,0.154-1.347,0.251
			C1300.839,195.546,1300.294,195.449,1299.93,194.909z"/>
		<path fill="#E1DED1" d="M1301.17,187.874c-0.295,0.966-0.063,1.134,1.282,0.841c-0.101,0.363,0.3,0.623,0.033,1.038
			c-0.244,0.381-0.336,0.875-0.915,0.906c-0.911,0.069-1.493-0.592-2.191-0.995l0,0c-0.118-0.106-0.075-0.295-0.202-0.396
			c-0.065-0.067-0.132-0.134-0.197-0.202c-0.125-0.084-0.239-0.178-0.268-0.339c0.018-0.1,0.063-0.189,0.13-0.264
			C1299.566,188.056,1300.302,187.7,1301.17,187.874z"/>
		<path fill="#E3E0D4" d="M1297.267,180.35c0.339,0.562,0.887,0.592,1.46,0.599c0.633,0.007,1.233,0.112,1.526,0.792
			c-0.237,0.132-0.446-0.005-0.664-0.065c-1.026-0.423-1.935-0.07-2.821,0.431c-0.336,0.281-0.514,0.68-0.774,1.018
			c-0.278,0.362-0.681,0.632-1.098,0.364c-0.363-0.232-0.148-0.645-0.026-0.99c0.23-0.65,0.613-1.153,1.349-1.4
			c-0.503-0.726-1.107-0.91-1.892-0.736c-0.381,0.084-0.72,0.347-1.137,0.268c-0.038-0.029-0.073-0.057-0.11-0.085
			c0.024-0.345,0.22-0.49,0.547-0.597c0.927-0.302,1.817-0.202,2.698,0.142C1296.633,180.206,1296.92,180.375,1297.267,180.35z"/>
		<path fill="#EAE7DE" d="M1297.747,189.222c-0.132,0.002-0.264,0.002-0.396,0.003c-0.015-0.038-0.029-0.076-0.043-0.113
			c0.075-0.223,0.293-0.269,0.462-0.376c0.069-0.048,0.141-0.093,0.214-0.136c0.074-0.048,0.153-0.085,0.233-0.118
			c0.085-0.03,0.172-0.051,0.261-0.064c0.136-0.021,0.272-0.03,0.41-0.034c0.501-0.055,1.028,0.112,1.498-0.19
			c1.491-0.877,2.023-0.697,2.801,0.946c0.029,0.106,0.007,0.201-0.064,0.284c-0.956,0.714-1.965,0.275-2.742-0.172
			c-0.897-0.515-1.611-0.535-2.44-0.063C1297.884,189.216,1297.81,189.212,1297.747,189.222z"/>
		<path fill="#DAD6C6" d="M1283.262,195.972c-0.704-0.124-1.143-0.665-1.778-0.904c-0.24-0.089-0.193-0.379-0.299-0.568
			c-0.161-0.288-0.283-0.613-0.777-0.49c-0.101,0.026-0.273-0.005-0.333-0.07c-0.605-0.652-1.53-0.638-2.324-0.895
			c-0.163-0.136-0.396,0.033-0.562-0.093c-0.065-0.048-0.133-0.094-0.202-0.139c-0.457-0.269-1.006-0.197-1.508-0.297
			c-0.376-0.012-0.652-0.089-0.827-0.468c-0.17-0.372-0.621-0.596-0.827-0.976c-0.196-0.522,0.06-0.954,0.371-1.375
			c0.187-0.156,0.13-0.348,0.117-0.537c-0.05-0.713,0.137-1.332,0.87-1.747c0.596-0.338,0.894-0.961,1.498-1.303
			c0.177-0.1,0.312-0.285,0.539-0.268c0.731,0.057,1.663-0.915,2.392-0.848c-0.379,0.378-0.613,1.344-1.083,1.354
			c-0.415,0.009-0.338,0.976-0.716,1.313c0.704,0.422,0.505-0.239,0.642,0.584c0.003,0.723,0.375,1.232,1.124,1.582
			c0.232-0.316,0.362-0.674,0.539-1.007c0.199-0.375,0.444-0.32,0.693-0.076c0.384,0.375,0.242,1.272-0.264,1.544
			c-0.63,0.338-0.767,0.87-0.859,1.459c-0.081,0.518-0.142,0.526-0.688,0.283c-0.022-0.01,0.038-0.064-0.031-0.052
			c0.127,0.235-0.366,0.503-0.051,0.659c0.278,0.137,0.712,0.136,0.861-0.24c0.23-0.587,0.661-0.605,1.143-0.388
			c0.423,0.19,0.825,0.434,1.067,0.828c0.022,0.076,0.017,0.151-0.021,0.223c-0.134,0.17-0.187,0.32,0.009,0.496
			c0.312,0.284,0.142,0.457-0.242,0.565c0.329,0.085,0.595-0.112,0.886-0.109c0.326,0.003,0.623,0.216,0.426,0.431
			c-0.559,0.607,0.281,0.508,0.386,0.765c0.089,0.236,0.031,0.462-0.082,0.683C1283.324,195.915,1283.293,195.944,1283.262,195.972z
			"/>
		<path fill="#CFCBB7" d="M1286.553,196.461c-0.067-0.066-0.134-0.13-0.202-0.196c-0.48-0.12-0.686-0.403-0.653-0.919
			c0.046-0.743-0.261-1.512-0.621-2.027c-0.45-0.64-0.29-0.911,0.139-1.294c0.493-0.441,1.013-0.412,1.533-0.036
			c0.193,0.139,0.264,0.386,0.444,0.527c0.359,0.285,0.707,0.616,1.236,0.459c0.335-0.098,0.764,0.031,0.478-0.676
			c-0.187-0.463-0.015-1.239,0.922-1.079c0.22,0.038,0.444-0.12,0.68-0.1c0.093,0.01,0.181,0.036,0.266,0.073
			c0.295,0.206,0.582,0.423,0.907,0.582c0.072,0.063,0.113,0.142,0.125,0.236c-0.014,0.093-0.046,0.178-0.097,0.256
			c-0.145,0.19-0.342,0.311-0.562,0.393c-0.338,0.129-0.403,0.405-0.19,0.623c0.571,0.586,0.841,1.383,1.435,1.943
			c0.084,0.034,0.166,0.072,0.249,0.105c0.137,0.038,0.275,0.058,0.417,0.067c0.496,0.12,1.153-0.263,1.454,0.463
			c-0.132,0-0.269-0.024-0.395,0.003c-0.918,0.201-1.735,0.075-2.634-0.317c-0.747-0.324-1.717-0.364-2.545,0.118
			C1288.173,196.021,1287.299,196.044,1286.553,196.461z"/>
		<path fill="#C4BFA7" d="M1303.264,190.915c-0.562-0.381-1.196-0.115-1.792-0.196c-0.06-0.072-0.133-0.132-0.199-0.199
			c-0.045-0.05-0.101-0.103-0.103-0.163c-0.034-1.248,1.756-2.972,3.003-2.899c0.191-0.045-0.087,0.462,0.268,0.227
			c0.163,0.012,0.33,0.094,0.487,0.041c0.372-0.125,0.594-0.817,1.057-0.457c0.596,0.465,1.405,0.649,1.753,1.483
			c0.276,0.661,0.175,1.117-0.29,1.574c-0.283,0.435-0.75,0.623-1.172,0.867c-0.134,0.077-0.362,0.161-0.463,0.101
			c-0.605-0.355-1.179-0.094-1.764,0.034C1303.715,191.323,1303.532,191.036,1303.264,190.915z"/>
		<path fill="#E4E2D6" d="M1303.226,183.377c0.791,0.683,1.69,1.244,2.316,2.109c0.435,0.604,0.837,1.225,1.143,1.905
			c-0.825,0.093-1.544-0.443-2.404-0.354c-0.415,0.043-0.611-0.596-0.514-1.035c0.122-0.554-0.329-0.747-0.546-1.086
			c-0.101-0.157-0.221-0.187-0.369,0.017c-0.163,0.227-0.28,1.608-0.105,1.845c0.432,0.59,0.136,1.383-0.578,1.557
			c-0.551,0.134-0.604-0.252-0.645-0.628c-0.036-0.328,0.048-0.664-0.081-0.983c-0.05-0.124-0.108-0.242-0.203-0.376
			c-0.407,0.755-1.306,0.637-1.886,1.091c-0.088,0.041-0.179,0.045-0.272,0.018l0,0c-0.498-1.091,0.446-1.738,0.906-2.539
			c-0.505-0.16-0.526,0.343-0.898,0.393c0.003-0.484-0.257-0.949,0.257-1.395c0.208-0.181,0.379-0.673,0.278-0.886
			c-0.268-0.57-0.039-0.53,0.366-0.42c0.109,0.03,0.211,0.045,0.208-0.1c-0.017-0.72,0.57-0.399,0.873-0.462
			c0.438-0.089,0.678,0.173,0.616,0.652c-0.015,0.108,0.045,0.226,0.161,0.163C1302.515,182.499,1302.733,183.298,1303.226,183.377z
			"/>
		<path fill="#E4E2D6" d="M1295.931,190.078c0.791,0.683,1.69,1.244,2.316,2.109c0.435,0.604,0.837,1.225,1.143,1.905
			c-0.825,0.093-1.544-0.443-2.404-0.354c-0.415,0.043-0.611-0.596-0.514-1.035c0.122-0.554-0.329-0.747-0.546-1.086
			c-0.101-0.157-0.221-0.187-0.369,0.017c-0.163,0.227-0.28,1.608-0.105,1.845c0.432,0.59,0.136,1.383-0.578,1.557
			c-0.551,0.134-0.604-0.252-0.645-0.628c-0.036-0.328,0.048-0.664-0.081-0.983c-0.05-0.124-0.108-0.242-0.203-0.376
			c-0.407,0.755-1.306,0.637-1.886,1.091c-0.088,0.041-0.179,0.045-0.272,0.018l0,0c-0.498-1.091,0.446-1.738,0.906-2.539
			c-0.505-0.16-0.526,0.343-0.898,0.393c0.003-0.484-0.257-0.949,0.257-1.395c0.208-0.181,0.379-0.673,0.278-0.886
			c-0.268-0.57-0.039-0.53,0.366-0.42c0.109,0.03,0.211,0.045,0.208-0.1c-0.017-0.721,0.57-0.399,0.873-0.462
			c0.438-0.089,0.678,0.173,0.616,0.652c-0.014,0.108,0.045,0.226,0.161,0.163C1295.218,189.2,1295.437,190,1295.931,190.078z"/>
		<path fill="#E4E2D6" d="M1285.222,190.597c0.791,0.683,1.69,1.244,2.316,2.109c0.435,0.604,0.837,1.225,1.143,1.905
			c-0.825,0.093-1.544-0.443-2.404-0.354c-0.415,0.043-0.611-0.596-0.514-1.035c0.122-0.554-0.329-0.747-0.546-1.086
			c-0.101-0.157-0.221-0.187-0.369,0.017c-0.163,0.227-0.28,1.608-0.105,1.845c0.432,0.59,0.136,1.383-0.578,1.557
			c-0.551,0.134-0.604-0.252-0.645-0.628c-0.036-0.328,0.048-0.664-0.081-0.983c-0.05-0.124-0.108-0.242-0.203-0.376
			c-0.407,0.755-1.306,0.637-1.886,1.091c-0.088,0.041-0.179,0.045-0.272,0.018l0,0c-0.498-1.091,0.445-1.738,0.906-2.539
			c-0.505-0.16-0.526,0.343-0.898,0.393c0.003-0.484-0.257-0.949,0.257-1.395c0.208-0.181,0.379-0.673,0.278-0.886
			c-0.268-0.57-0.039-0.53,0.366-0.42c0.109,0.03,0.211,0.045,0.208-0.1c-0.017-0.721,0.57-0.399,0.873-0.462
			c0.438-0.089,0.678,0.173,0.616,0.652c-0.015,0.108,0.045,0.226,0.161,0.163C1284.509,189.716,1284.729,190.518,1285.222,190.597z
			"/>
		<path fill="#DEDBCC" d="M1285.937,190.665c-0.309-0.129-0.489-0.4-0.49-0.693c-0.002-0.693-0.223-1.182-1.035-1.266
			c0.817-0.69,1.668-0.619,2.545-0.388c-0.1-0.659-0.1-0.659-0.705-1.282c-0.151-0.027-0.237,0.075-0.326,0.169
			c-0.549,0.593-0.57,0.62-1.182,0.157c-0.308-0.233-0.463-0.19-0.747,0.031c-0.206,0.161-0.474,0.088-0.275-0.293
			c0.024-0.045,0.043-0.122,0.021-0.157c-0.317-0.496-0.292-0.657,0.203-0.843c0.184-0.069,0.431-0.058,0.48-0.276
			c0.072-0.323,0.169-0.283,0.364-0.1c0.284,0.264,0.611,0.191,0.925,0.063c0.144-0.06,0.336-0.133,0.273-0.347
			c-0.261-0.894,0.387-1.463,0.747-2.135c0.065-0.002,0.13-0.003,0.196-0.005c0.067-0.065,0.134-0.132,0.203-0.196
			c0.503-0.121,0.943-0.399,1.476-0.486c0.546-0.088,0.956-0.021,1.337,0.351c0.07,0.067,0.133,0.154,0.216,0.194
			c0.175,0.084,0.515-0.139,0.518,0.256c0.002,0.297-0.215,0.542-0.458,0.587c-1.07,0.196-0.944,1.167-1.436,1.898
			c0.633,0.058,0.983-0.051,1.185-0.518c0.158-0.366,0.351-0.716,0.743-0.891c0.075,0.062,0.129,0.137,0.165,0.227
			c-0.03,1.476-1.1,2.279-2.514,1.88c-0.193-0.054-0.402-0.144-0.553,0.024c-0.206,0.228,0.043,0.341,0.177,0.465
			c0.239,0.223,0.157,0.456,0.079,0.722c-0.426,1.454-0.388,1.511,1.01,1.889c0.096,0.026,0.172,0.093,0.24,0.166
			c-0.561,0.388-1.193,0.124-1.788,0.201c-0.133-0.122-0.268-0.122-0.4,0c-0.065,0.002-0.132,0.002-0.197,0.003
			c-0.064,0.069-0.137,0.129-0.201,0.199l0,0c-0.196,0.191-0.57-0.026-0.705,0.305
			C1285.999,190.602,1285.969,190.634,1285.937,190.665z"/>
		<path fill="#D3D0BD" d="M1282.665,181.75c0.932-0.513,2.001-0.339,2.984-0.597c0.352,1.064,0.855,1.344,1.793,0.995
			c0.29-0.034,0.547,0.063,0.795,0.197c0.134,0.13,0.496,0.034,0.398,0.398c-0.402-0.098-0.757,0.426-0.987,0.296
			c-0.925-0.523-0.283,0.668-0.724,0.611c-0.03,0.36,0.333,0.242,0.477,0.391c0.091,0.096,0.212,0.191,0.134,0.333
			c-0.039,0.07-0.146,0.132-0.232,0.144c-0.448,0.067-0.918,0.033-1.316,0.314c-0.093,0.065-0.242,0.031-0.261-0.045
			c-0.139-0.563-1.117-0.236-1.081-1.071c0.01-0.227-0.561-0.447-0.94-0.343c-0.434,0.118-0.741,0.46-0.908,0.848
			c-0.077,0.181,0.182,0.283,0.417,0.247c0.353-0.054,0.444,0.112,0.224,0.384c-0.259,0.32-0.065,0.589,0.106,0.801
			c0.273,0.338,0.423,0.729,0.288,1.1c-0.187,0.515,0.12,0.717,0.423,0.968c-0.133,0-0.266,0-0.398,0.002
			c-0.149-0.073-0.269-0.175-0.347-0.328c-0.607-1.186-0.973-1.292-2.111-0.613c-0.053,0.031-0.088,0.093-0.133,0.141
			c-0.199,0.002-0.396,0.007-0.595,0.002c-0.91-0.024-1.354-0.619-1.125-1.508c0.041-0.158,0.103-0.312,0.148-0.47
			c0.077-0.281,0.695-0.712-0.236-0.71c-0.268,0-0.193-0.378-0.113-0.586c0.076-0.202,0.153-0.511,0.45-0.414
			c0.304,0.1,0.665,0.041,0.908,0.331c0.168,0.201,0.454,0.251,0.629,0.103C1281.942,183.151,1282.753,182.756,1282.665,181.75z"/>
		<path fill="#C9C4AE" d="M1293.501,188.113c-0.381-0.424-0.836-0.097-1.05,0.081c-0.871,0.72-1.683,1.524-1.935,2.705
			c-0.472-0.122-1.031-0.156-0.827-0.908c0.043-0.161-0.084-0.336-0.244-0.395c-0.717-0.259-0.828-0.885-0.971-1.554
			c0.439-0.125,0.894-0.215,1.244-0.526c0.859,0.685,1.622,0.414,2.154-0.378c0.665-0.989,1.754-0.875,2.669-1.221
			c0.142-0.054,0.278,0.03,0.345,0.134c0.203,0.316,0.342,0.367,0.664,0.067c0.28-0.26,0.741-0.29,1.129-0.295
			c1.23-0.01,1.475,0.227,1.661,1.448c0.021,0.133,0.07,0.341-0.021,0.371c-1.058,0.347-0.423,1.022-0.329,1.594
			c0.017,0.096-0.039,0.19-0.109,0.266c-0.546,0.223-0.613,0.839-0.986,1.2c-0.067,0-0.136,0-0.203,0
			c0.573-0.767,0.075-1.407-0.247-2.066c-0.06-0.124-0.181-0.251-0.305-0.202c-0.514,0.204-0.583-0.189-0.777-0.494
			c-0.194-0.307-0.553-0.272-0.74,0.009C1294.241,188.522,1294.051,188.549,1293.501,188.113z"/>
		<path fill="#CFCBB7" d="M1305.552,191.094c-0.041-0.63-0.549-1.088-0.633-1.713c0.284-0.189,0.659,0.043,0.944-0.211
			c0.064-0.423-0.665-0.716-0.221-1.229c0.079-0.091-0.101-0.233-0.239-0.214c-0.628,0.087-1.261-0.115-1.888,0.055
			c-0.087,0.024-0.153,0.017-0.227,0.1c-0.427,0.481-0.432,0.475-0.803-0.105c-0.078-0.122-0.272-0.218-0.306-0.103
			c-0.177,0.597-0.538,0.33-0.897,0.259c-0.384-0.076-0.74,0.11-0.978,0.378c-0.352,0.398-0.762,0.713-1.164,1.05
			c-0.633,0.535-0.923,0.582-1.52,0.06c-0.096-0.084-0.154-0.211-0.228-0.318l0.003-0.003c0.221-0.233,0.527-0.257,0.815-0.308
			c0.744-0.132,1.294-0.443,1.387-1.287c0.048-0.435,0.28-0.649,0.774-0.717c0.798-0.11,1.536-0.685,2.396-0.273
			c0.157,0.196,0.017,0.446,0.117,0.654c0.523-0.057,1.04-0.082,1.563-0.014c0.539,0.07,0.538,0.045,0.817-0.575
			c0.034-0.076,0.139-0.153,0.223-0.169c0.156-0.031,0.24,0.076,0.249,0.224c0.03,0.511,0.097,0.886,0.752,0.468
			c0.302-0.193,0.351-0.115,0.263,0.607c0.024,0.688-0.019,1.361-0.443,1.944c-0.233,0.321-0.127,0.688-0.161,1.034
			C1305.948,190.828,1305.749,190.961,1305.552,191.094z"/>
		<path fill="#D7D3C2" d="M1304.074,193.067c-0.348,0.039-0.734-0.113-1.019,0.227c-0.146,0.175-0.351,0.185-0.541,0.079
			c-0.439-0.248-0.722,0.399-1.165,0.196c-0.065-0.03-0.209,0.146-0.208,0.296c0.005,0.532-0.093,1.055-0.551,1.364
			c-0.559,0.375-1.222,0.446-1.889,0.424c0-0.066-0.002-0.132-0.002-0.197c-0.376-0.124-0.683-0.366-0.995-0.597
			c-0.133-0.133-0.266-0.266-0.398-0.398c0.426-0.252,0.203-0.69,0.245-1.038c0.381-0.036,0.49,0.177,0.59,0.438
			c0.075,0.194,0.271,0.321,0.469,0.272c0.284-0.072,0.136-0.302,0.115-0.484c-0.026-0.227,0.029-0.477-0.046-0.683
			c-0.197-0.547,0.223-0.474,0.529-0.625c0,0.324,0,0.575,0,0.808c0.136,0.085,0.209,0.022,0.264-0.063
			c0.122-0.184,0.239-0.371,0.366-0.571c0.335,0.189,0.424,0.453,0.453,0.753c0.444-0.247,0.731-0.666,1.095-1.001
			c0.148-0.136,0.271-0.293,0.285-0.506c0.017-0.245-0.019-0.49-0.275-0.583c-0.285-0.101-0.268,0.209-0.386,0.338
			c-0.038,0.041-0.113,0.042-0.175,0.063c-0.24-0.212-0.065-0.414,0.014-0.621c0.067-0.177,0.227-0.367,0.03-0.541
			c-0.182-0.161-0.388-0.278-0.094-0.526c0.242-0.204,0.734-0.347,0.78-0.224c0.263,0.689,0.789,0.19,1.189,0.228
			c-0.13,0.456-0.434,0.355-0.676,0.391c-0.165,0.024-0.354,0.036-0.312,0.275c0.024,0.137,0.133,0.242,0.284,0.212
			c0.456-0.089,0.81,0.199,1.209,0.314c0.292,0.085,0.714,0.744,0.7,1.061c-0.005,0.109-0.007,0.211,0.088,0.254
			c0.352,0.165,0.764-0.093,1.13,0.18c0.085,0.063,0.419-0.124,0.604-0.423c-0.678-0.144-1.061-0.755-1.874-0.801
			c0.746-0.867,1.342-1.69,2.552-1.472c0.063,0.146,0.154,0.288,0.181,0.443c0.055,0.317,0.235,0.221,0.415,0.154
			c0.197,0.318,0.525,0.597,0.227,1.045c0.399,0.024,0.722-0.158,1.033,0.043c-0.242,0.641-0.813,0.792-1.349,0.863
			c-0.448,0.06-0.69,0.224-0.911,0.604c-0.297,0.511-0.494,0.559-1.046,0.242C1304.701,193.1,1304.402,193.067,1304.074,193.067z"/>
		<path fill="#C4BFA7" d="M1288.623,182.237c-0.562-0.381-1.196-0.115-1.792-0.196c-0.06-0.072-0.133-0.132-0.199-0.199
			c-0.045-0.05-0.101-0.103-0.103-0.163c-0.034-1.248,1.756-2.972,3.003-2.899c0.191-0.045-0.087,0.462,0.268,0.227
			c0.163,0.012,0.33,0.094,0.487,0.041c0.372-0.125,0.594-0.817,1.057-0.457c0.596,0.465,1.405,0.649,1.753,1.483
			c0.276,0.661,0.175,1.117-0.29,1.574c-0.283,0.435-0.75,0.623-1.172,0.867c-0.134,0.077-0.362,0.161-0.463,0.101
			c-0.605-0.355-1.179-0.094-1.764,0.034C1289.074,182.646,1288.892,182.358,1288.623,182.237z"/>
		<g>
			<path fill="#FFFFFF" d="M1267.241,222.055c-0.786,0-1.626-0.03-2.471-0.097c-0.657,1.738-2.669,7.592,0.072,7.592
				c1.222,0,1.862,0,2.185,0c0.097,0,0.166,0,0.212,0c0.323,0,0.963,0,2.185,0c2.732,0,0.741-5.819,0.077-7.576
				C1268.728,222.03,1267.961,222.055,1267.241,222.055z"/>
			<path fill="#EEEBE5" d="M1269.537,221.973c-0.417,0.03-0.831,0.051-1.237,0.064v7.513c0.312,0,0.693,0,1.16,0
				C1272.19,229.55,1270.2,223.73,1269.537,221.973z"/>
			<path fill="#BAB7B1" d="M1276.36,218.121c-0.873-2.608-5.246-5.794-9.104-5.794h-0.014h-0.01c-3.863,0-8.234,3.186-9.107,5.794
				c-0.326,0.973-0.13,1.737,0.58,2.272c1.405,1.058,4.676,1.716,8.537,1.716s7.133-0.657,8.537-1.716
				C1276.49,219.857,1276.684,219.093,1276.36,218.121z M1259.867,218.811c0.03,0.22,0.134,0.359,0.345,0.383
				c0.526,0.058,0.41,0.825-0.084,0.693c-0.837-0.206-0.927-1.062-0.629-1.768c0.372-0.882,1.125-1.578,1.937-2.054
				C1260.708,216.662,1259.729,217.767,1259.867,218.811z"/>
			<path fill="#EEEBE5" d="M1276.36,217.757c-0.873-2.608-5.246-5.794-9.104-5.794h-0.014h-0.01c-3.863,0-8.234,3.186-9.107,5.794
				c-0.326,0.973-0.13,1.737,0.58,2.272c1.405,1.058,4.676,1.716,8.537,1.716s7.133-0.657,8.537-1.716
				C1276.49,219.494,1276.684,218.728,1276.36,217.757z M1259.867,218.446c0.03,0.22,0.134,0.359,0.345,0.383
				c0.526,0.058,0.41,0.825-0.084,0.693c-0.837-0.206-0.927-1.062-0.629-1.768c0.372-0.882,1.125-1.578,1.937-2.054
				C1260.708,216.298,1259.729,217.405,1259.867,218.446z"/>
		</g>
		<path fill="#E6E4D9" d="M1274.329,219.234c-0.154,0.165-0.357,0.109-0.535,0.097c-0.673-0.042-1.222,0.233-1.737,0.621
			c-0.038,0.031-0.067,0.069-0.101,0.105l0,0c-0.472,0.141-0.975,0.055-1.445,0.199c-0.069-0.033-0.136-0.066-0.204-0.098
			c-0.024-0.027-0.034-0.055-0.031-0.085c0.005-0.03,0.009-0.046,0.015-0.046c0.079-0.109,0.194-0.187,0.268-0.302
			c0.197-0.316,0.154-0.423-0.202-0.491c-0.486-0.096-0.55-0.304-0.223-0.723c0.369-0.285,0.81-0.248,1.176-0.105
			c0.542,0.212,1.082,0.227,1.638,0.202c0.189,0.045,0.343,0.158,0.51,0.249c0.151,0.124,0.335,0.117,0.514,0.145
			C1274.118,219.025,1274.329,218.977,1274.329,219.234z"/>
		<path fill="#EAE7DE" d="M1265.905,219.284c-0.033,0-0.065,0.002-0.098,0.002c-0.299,0.248-0.611,0.248-0.935,0.05
			c-0.435-0.268-0.444-0.36-0.097-0.697c0.069-0.066,0.079-0.187,0.175-0.256c-0.321-0.018-0.511-0.237-0.656-0.465
			c-0.161-0.254-0.272-0.522-0.511-0.741c-0.245-0.226,0.075-0.455,0.166-0.677l0,0c0.036-0.033,0.07-0.067,0.103-0.103l0,0
			c0.191-0.275,0.39-0.547,0.629-0.777c0.117-0.113,0.271-0.275,0.489-0.182c-0.012,0.357-0.157,0.671-0.415,0.897
			c-0.271,0.236-0.261,0.693,0.079,0.853c0.136,0.064,0.29,0.1,0.422,0.179c0.117,0.07,0.216,0.168,0.381,0.197
			c0.124-0.087-0.075-0.308,0.122-0.367c0.182-0.055,0.293,0.065,0.391,0.182c0.239,0.284,0.597,0.348,0.906,0.503
			c-0.076,0.248-0.295,0.297-0.492,0.275c-0.484-0.055-0.558,0.194-0.494,0.583c0.018,0.117,0.042,0.239-0.055,0.339l0,0
			C1265.947,219.133,1265.966,219.229,1265.905,219.284z"/>
		<path fill="#EBE8E0" d="M1268.167,215.006c0.061-0.084,0.133-0.097,0.216-0.034c0.082,0.062,0.161,0.149,0.269,0.13
			c0.383-0.07,0.589,0.252,0.882,0.381c0.06,0.026,0.133,0.061,0.101,0.146c-0.129,0.35,0.043,0.353,0.321,0.318
			c0.283-0.034,0.472-0.048,0.678-0.357c0.223-0.333,0.419-0.713,0.712-1.013c0.097-0.1,0.387-0.323,0.027-0.523
			c-0.109-0.062,0.014-0.144,0.065-0.196c0.125-0.121,0.288-0.082,0.439-0.089c0.012,0.018,0.022,0.036,0.034,0.054
			c-0.002,0.021-0.003,0.043-0.003,0.064c-0.014,0.041-0.031,0.079-0.052,0.118c-0.009,0.019-0.019,0.039-0.029,0.058
			c-0.045,0.103-0.055,0.215-0.082,0.324c-0.137,0.619-0.623,1.052-0.858,1.618c-0.019,0.046-0.061,0.096-0.109,0.105
			c-0.65,0.129-0.92,0.731-1.376,1.1c-0.343,0.054-0.534-0.175-0.726-0.398c-0.193-0.296-0.498-0.312-0.808-0.345
			c-0.273-0.029-0.604-0.018-0.632-0.429c0.407,0.115,0.804,0.239,1.242,0.212c0.272-0.017,0.49-0.084,0.695-0.326
			c-0.372-0.197-0.719-0.423-0.906-0.813C1268.235,215.076,1268.212,215.032,1268.167,215.006L1268.167,215.006z"/>
		<path fill="#EEEBE5" d="M1271.963,220.837c0.099,0.027,0.202,0.042,0.293,0.085c0.242,0.117,0.4,0.082,0.426-0.215
			c0.012-0.149,0.101-0.185,0.232-0.221c0.578-0.16,0.741-0.383,0.759-0.989c0.002-0.043,0.041-0.084,0.1-0.203
			c0.093,0.314,0.149,0.641,0.515,0.429c0.196,0.182-0.133,0.273-0.029,0.424c0.546-0.367,0.676-0.632,0.411-1.28
			c0.212,0.158,0.333,0.518,0.257,0.771c-0.227,0.753-0.722,1.215-1.502,1.335c-0.235,0.036-0.465,0.079-0.698,0.13
			C1272.435,221.166,1272.153,221.117,1271.963,220.837z"/>
		<path fill="#E1DED1" d="M1272.607,217.191c-0.153,0.501-0.033,0.589,0.664,0.436c-0.052,0.189,0.156,0.323,0.018,0.538
			c-0.127,0.197-0.173,0.454-0.474,0.469c-0.472,0.036-0.774-0.307-1.136-0.515l0,0c-0.061-0.055-0.039-0.153-0.105-0.204
			c-0.034-0.034-0.069-0.07-0.103-0.105c-0.066-0.043-0.124-0.093-0.139-0.177c0.009-0.052,0.033-0.097,0.067-0.137
			C1271.775,217.285,1272.156,217.101,1272.607,217.191z"/>
		<path fill="#E3E0D4" d="M1270.584,213.292c0.175,0.292,0.46,0.307,0.756,0.311c0.329,0.005,0.64,0.058,0.791,0.411
			c-0.122,0.069-0.232-0.002-0.343-0.034c-0.532-0.22-1.002-0.036-1.462,0.223c-0.173,0.145-0.266,0.353-0.4,0.527
			c-0.144,0.187-0.352,0.327-0.57,0.189c-0.189-0.121-0.076-0.335-0.014-0.513c0.12-0.336,0.318-0.597,0.7-0.726
			c-0.26-0.376-0.574-0.472-0.98-0.383c-0.197,0.043-0.374,0.179-0.589,0.139c-0.019-0.015-0.038-0.03-0.057-0.045
			c0.014-0.18,0.113-0.254,0.284-0.309c0.48-0.157,0.942-0.105,1.397,0.073C1270.257,213.218,1270.405,213.305,1270.584,213.292z"/>
		<path fill="#EAE7DE" d="M1270.832,217.889c-0.069,0-0.137,0.002-0.204,0.002c-0.007-0.019-0.015-0.039-0.022-0.06
			c0.039-0.115,0.153-0.139,0.239-0.196c0.036-0.026,0.073-0.048,0.11-0.07c0.039-0.026,0.079-0.045,0.121-0.062
			c0.045-0.017,0.089-0.026,0.134-0.033c0.07-0.01,0.142-0.017,0.212-0.018c0.26-0.029,0.534,0.058,0.776-0.098
			c0.772-0.455,1.047-0.362,1.451,0.49c0.015,0.055,0.003,0.105-0.033,0.146c-0.496,0.371-1.019,0.142-1.421-0.088
			c-0.465-0.268-0.836-0.276-1.264-0.033C1270.904,217.886,1270.867,217.883,1270.832,217.889z"/>
		<path fill="#DAD6C6" d="M1263.327,221.388c-0.364-0.064-0.592-0.345-0.922-0.468c-0.125-0.046-0.1-0.197-0.156-0.295
			c-0.084-0.149-0.146-0.318-0.402-0.254c-0.052,0.014-0.142-0.003-0.173-0.036c-0.314-0.338-0.793-0.33-1.205-0.465
			c-0.085-0.07-0.204,0.017-0.292-0.048c-0.034-0.026-0.069-0.05-0.105-0.072c-0.237-0.139-0.522-0.101-0.781-0.154
			c-0.196-0.006-0.338-0.046-0.427-0.242c-0.088-0.193-0.323-0.309-0.427-0.506c-0.101-0.271,0.031-0.494,0.193-0.713
			c0.097-0.081,0.067-0.181,0.061-0.278c-0.026-0.369,0.072-0.69,0.45-0.906c0.309-0.175,0.463-0.498,0.776-0.676
			c0.091-0.052,0.161-0.148,0.28-0.139c0.378,0.03,0.862-0.474,1.241-0.439c-0.196,0.196-0.317,0.697-0.562,0.701
			c-0.215,0.005-0.175,0.505-0.371,0.68c0.364,0.218,0.261-0.124,0.333,0.304c0.002,0.375,0.194,0.638,0.583,0.82
			c0.12-0.163,0.189-0.348,0.28-0.522c0.103-0.194,0.23-0.166,0.359-0.04c0.199,0.194,0.125,0.659-0.137,0.8
			c-0.328,0.175-0.398,0.451-0.445,0.756c-0.042,0.269-0.074,0.272-0.355,0.146c-0.012-0.005,0.019-0.033-0.017-0.027
			c0.066,0.121-0.19,0.261-0.026,0.342c0.145,0.072,0.369,0.07,0.446-0.125c0.12-0.304,0.342-0.314,0.592-0.202
			c0.22,0.098,0.427,0.224,0.553,0.429c0.012,0.039,0.009,0.077-0.01,0.115c-0.07,0.088-0.097,0.166,0.005,0.257
			c0.161,0.146,0.073,0.237-0.125,0.293c0.17,0.045,0.308-0.058,0.459-0.057c0.169,0.002,0.323,0.112,0.221,0.223
			c-0.29,0.314,0.145,0.263,0.201,0.396c0.046,0.122,0.017,0.239-0.042,0.354C1263.359,221.357,1263.342,221.372,1263.327,221.388z"
			/>
		<path fill="#CFCBB7" d="M1265.032,221.64c-0.034-0.034-0.07-0.067-0.105-0.101c-0.248-0.063-0.355-0.209-0.339-0.477
			c0.024-0.386-0.134-0.783-0.323-1.05c-0.233-0.331-0.151-0.472,0.072-0.671c0.256-0.228,0.525-0.214,0.795-0.019
			c0.1,0.072,0.137,0.201,0.23,0.273c0.185,0.148,0.366,0.318,0.641,0.237c0.173-0.051,0.396,0.017,0.248-0.35
			c-0.097-0.24-0.007-0.642,0.478-0.559c0.113,0.019,0.23-0.062,0.352-0.052c0.048,0.006,0.094,0.018,0.137,0.038
			c0.153,0.106,0.302,0.22,0.47,0.302c0.038,0.033,0.06,0.073,0.064,0.122c-0.006,0.048-0.024,0.093-0.051,0.133
			c-0.075,0.098-0.178,0.161-0.292,0.204c-0.175,0.066-0.209,0.209-0.099,0.323c0.296,0.304,0.436,0.717,0.743,1.007
			c0.043,0.018,0.087,0.038,0.13,0.054c0.07,0.019,0.142,0.03,0.216,0.034c0.257,0.062,0.598-0.136,0.753,0.239
			c-0.069,0-0.139-0.012-0.204,0.002c-0.475,0.103-0.899,0.039-1.366-0.165c-0.387-0.169-0.891-0.19-1.32,0.061
			C1265.873,221.412,1265.418,221.424,1265.032,221.64z"/>
		<path fill="#C4BFA7" d="M1273.693,218.766c-0.292-0.197-0.62-0.06-0.928-0.101c-0.031-0.038-0.069-0.069-0.103-0.103
			c-0.022-0.026-0.052-0.054-0.054-0.085c-0.018-0.647,0.91-1.541,1.556-1.502c0.1-0.024-0.045,0.239,0.139,0.118
			c0.085,0.006,0.172,0.048,0.252,0.021c0.193-0.064,0.308-0.424,0.547-0.237c0.309,0.24,0.728,0.336,0.908,0.768
			c0.144,0.342,0.091,0.578-0.149,0.816c-0.146,0.226-0.388,0.323-0.607,0.448c-0.07,0.041-0.187,0.084-0.24,0.052
			c-0.314-0.184-0.611-0.05-0.913,0.018C1273.925,218.978,1273.832,218.829,1273.693,218.766z"/>
		<path fill="#E4E2D6" d="M1273.673,214.86c0.41,0.354,0.875,0.644,1.2,1.093c0.226,0.312,0.434,0.635,0.592,0.988
			c-0.427,0.048-0.8-0.228-1.246-0.184c-0.215,0.022-0.317-0.309-0.266-0.537c0.063-0.287-0.17-0.387-0.283-0.563
			c-0.052-0.081-0.115-0.097-0.191,0.009c-0.085,0.118-0.145,0.832-0.053,0.956c0.224,0.307,0.07,0.717-0.299,0.807
			c-0.285,0.069-0.314-0.132-0.335-0.326c-0.019-0.169,0.026-0.343-0.042-0.51c-0.026-0.064-0.055-0.125-0.106-0.196
			c-0.211,0.391-0.677,0.33-0.978,0.565c-0.046,0.021-0.093,0.022-0.141,0.009l0,0c-0.257-0.565,0.23-0.899,0.469-1.316
			c-0.261-0.082-0.273,0.178-0.465,0.203c0.002-0.251-0.133-0.491,0.133-0.723c0.108-0.093,0.196-0.348,0.144-0.459
			c-0.139-0.295-0.019-0.275,0.19-0.218c0.057,0.015,0.109,0.022,0.108-0.052c-0.009-0.374,0.295-0.206,0.453-0.239
			c0.227-0.046,0.351,0.089,0.319,0.338c-0.007,0.055,0.022,0.117,0.084,0.084C1273.304,214.405,1273.417,214.819,1273.673,214.86z"
			/>
		<path fill="#E4E2D6" d="M1269.892,218.333c0.41,0.354,0.875,0.644,1.2,1.093c0.226,0.312,0.434,0.635,0.592,0.988
			c-0.427,0.048-0.8-0.228-1.246-0.184c-0.215,0.022-0.317-0.309-0.266-0.537c0.063-0.287-0.17-0.387-0.283-0.563
			c-0.052-0.081-0.115-0.097-0.191,0.009c-0.085,0.118-0.145,0.832-0.053,0.956c0.224,0.307,0.07,0.717-0.299,0.807
			c-0.285,0.069-0.314-0.132-0.335-0.326c-0.019-0.169,0.026-0.343-0.042-0.51c-0.026-0.064-0.055-0.125-0.106-0.196
			c-0.211,0.391-0.677,0.33-0.978,0.565c-0.046,0.021-0.093,0.022-0.141,0.009l0,0c-0.257-0.565,0.23-0.899,0.469-1.316
			c-0.261-0.082-0.273,0.178-0.465,0.203c0.002-0.251-0.133-0.491,0.133-0.723c0.108-0.093,0.196-0.348,0.144-0.459
			c-0.139-0.295-0.019-0.275,0.19-0.218c0.057,0.015,0.109,0.022,0.108-0.052c-0.009-0.374,0.295-0.206,0.453-0.239
			c0.227-0.046,0.351,0.089,0.319,0.338c-0.007,0.055,0.022,0.117,0.084,0.084C1269.523,217.877,1269.636,218.292,1269.892,218.333z
			"/>
		<path fill="#E4E2D6" d="M1264.342,218.601c0.41,0.354,0.875,0.644,1.2,1.093c0.226,0.312,0.434,0.635,0.592,0.988
			c-0.427,0.048-0.8-0.228-1.246-0.184c-0.215,0.022-0.317-0.309-0.266-0.537c0.063-0.287-0.17-0.387-0.283-0.563
			c-0.052-0.081-0.115-0.097-0.191,0.009c-0.085,0.118-0.145,0.832-0.054,0.956c0.224,0.307,0.07,0.717-0.299,0.807
			c-0.285,0.069-0.314-0.132-0.335-0.326c-0.019-0.169,0.026-0.343-0.042-0.51c-0.026-0.064-0.055-0.125-0.106-0.196
			c-0.211,0.391-0.677,0.33-0.978,0.565c-0.046,0.021-0.093,0.022-0.141,0.009l0,0c-0.257-0.565,0.23-0.899,0.469-1.316
			c-0.261-0.082-0.273,0.178-0.465,0.203c0.002-0.251-0.133-0.491,0.133-0.723c0.108-0.093,0.196-0.348,0.144-0.458
			c-0.139-0.295-0.019-0.275,0.19-0.218c0.057,0.015,0.109,0.022,0.108-0.052c-0.009-0.374,0.295-0.206,0.453-0.239
			c0.227-0.046,0.351,0.089,0.32,0.338c-0.007,0.055,0.022,0.117,0.084,0.084C1263.973,218.146,1264.086,218.561,1264.342,218.601z"
			/>
		<path fill="#DEDBCC" d="M1264.714,218.637c-0.16-0.065-0.254-0.208-0.254-0.359c-0.002-0.359-0.115-0.613-0.537-0.656
			c0.424-0.357,0.865-0.321,1.318-0.202c-0.052-0.342-0.052-0.342-0.366-0.665c-0.077-0.014-0.122,0.039-0.169,0.087
			c-0.284,0.308-0.295,0.321-0.613,0.081c-0.16-0.121-0.24-0.098-0.387,0.017c-0.108,0.084-0.245,0.046-0.144-0.153
			c0.012-0.024,0.022-0.064,0.01-0.082c-0.165-0.257-0.151-0.341,0.105-0.436c0.096-0.036,0.223-0.03,0.248-0.144
			c0.038-0.168,0.088-0.146,0.19-0.052c0.146,0.137,0.317,0.1,0.48,0.033c0.075-0.031,0.175-0.069,0.142-0.179
			c-0.136-0.463,0.201-0.758,0.387-1.106c0.034,0,0.067-0.002,0.101-0.002c0.034-0.034,0.07-0.067,0.105-0.101
			c0.261-0.063,0.489-0.206,0.765-0.252c0.283-0.046,0.496-0.01,0.693,0.182c0.036,0.036,0.069,0.079,0.112,0.1
			c0.091,0.043,0.268-0.072,0.269,0.133c0.002,0.154-0.112,0.281-0.237,0.305c-0.554,0.101-0.49,0.605-0.744,0.983
			c0.329,0.03,0.51-0.027,0.614-0.269c0.082-0.19,0.182-0.371,0.386-0.462c0.039,0.031,0.067,0.072,0.085,0.118
			c-0.015,0.765-0.57,1.181-1.303,0.975c-0.1-0.029-0.208-0.075-0.287,0.012c-0.108,0.118,0.022,0.177,0.091,0.24
			c0.124,0.115,0.082,0.236,0.041,0.374c-0.221,0.753-0.202,0.783,0.523,0.979c0.05,0.014,0.089,0.048,0.124,0.087
			c-0.29,0.202-0.619,0.064-0.927,0.103c-0.069-0.063-0.139-0.064-0.208,0c-0.034,0-0.069,0.002-0.101,0.002
			c-0.033,0.036-0.072,0.065-0.103,0.103l0,0c-0.101,0.098-0.295-0.014-0.366,0.158
			C1264.745,218.605,1264.729,218.621,1264.714,218.637z"/>
		<path fill="#D3D0BD" d="M1263.018,214.017c0.482-0.266,1.037-0.177,1.546-0.309c0.182,0.551,0.443,0.697,0.93,0.515
			c0.151-0.018,0.284,0.033,0.412,0.101c0.07,0.067,0.257,0.018,0.206,0.206c-0.208-0.051-0.393,0.221-0.511,0.154
			c-0.48-0.271-0.146,0.347-0.375,0.317c-0.015,0.187,0.172,0.125,0.247,0.203c0.048,0.05,0.11,0.098,0.07,0.172
			c-0.019,0.036-0.076,0.067-0.12,0.075c-0.232,0.036-0.475,0.018-0.683,0.163c-0.048,0.034-0.125,0.017-0.136-0.022
			c-0.072-0.293-0.58-0.122-0.561-0.556c0.006-0.118-0.29-0.232-0.487-0.178c-0.224,0.062-0.384,0.237-0.47,0.439
			c-0.041,0.094,0.094,0.146,0.216,0.129c0.184-0.029,0.23,0.058,0.117,0.199c-0.134,0.166-0.034,0.305,0.055,0.415
			c0.142,0.175,0.22,0.378,0.149,0.57c-0.097,0.268,0.063,0.372,0.22,0.502c-0.069,0-0.137,0-0.206,0
			c-0.077-0.038-0.139-0.089-0.179-0.169c-0.314-0.614-0.503-0.669-1.094-0.318c-0.027,0.017-0.046,0.048-0.069,0.073
			c-0.103,0-0.204,0.005-0.308,0.002c-0.47-0.012-0.701-0.321-0.583-0.781c0.021-0.082,0.054-0.161,0.076-0.244
			c0.041-0.145,0.36-0.369-0.122-0.367c-0.139,0-0.1-0.196-0.06-0.304c0.039-0.105,0.079-0.264,0.233-0.215
			c0.157,0.052,0.345,0.021,0.47,0.172c0.087,0.103,0.236,0.13,0.326,0.054C1262.643,214.743,1263.062,214.539,1263.018,214.017z"/>
		<path fill="#C9C4AE" d="M1268.632,217.315c-0.197-0.22-0.432-0.051-0.544,0.042c-0.451,0.374-0.871,0.791-1.003,1.402
			c-0.245-0.063-0.534-0.081-0.429-0.47c0.022-0.084-0.043-0.175-0.125-0.204c-0.372-0.134-0.429-0.459-0.503-0.805
			c0.228-0.064,0.463-0.11,0.644-0.272c0.446,0.354,0.84,0.215,1.117-0.196c0.345-0.513,0.908-0.455,1.382-0.632
			c0.073-0.029,0.144,0.015,0.179,0.07c0.106,0.163,0.178,0.191,0.343,0.036c0.145-0.134,0.384-0.151,0.584-0.153
			c0.638-0.006,0.764,0.118,0.861,0.75c0.01,0.069,0.036,0.177-0.01,0.193c-0.549,0.179-0.22,0.529-0.17,0.827
			c0.007,0.05-0.021,0.098-0.057,0.137c-0.283,0.115-0.317,0.434-0.511,0.621c-0.036,0-0.07,0-0.106,0
			c0.296-0.398,0.039-0.729-0.127-1.071c-0.031-0.064-0.094-0.13-0.158-0.105c-0.266,0.106-0.302-0.097-0.402-0.257
			c-0.1-0.158-0.287-0.141-0.383,0.005C1269.017,217.525,1268.918,217.541,1268.632,217.315z"/>
		<path fill="#CFCBB7" d="M1274.877,218.86c-0.021-0.327-0.284-0.563-0.329-0.887c0.148-0.097,0.342,0.022,0.49-0.109
			c0.033-0.22-0.345-0.371-0.115-0.637c0.041-0.048-0.052-0.121-0.124-0.11c-0.324,0.045-0.654-0.06-0.979,0.029
			c-0.045,0.012-0.079,0.009-0.118,0.052c-0.221,0.249-0.224,0.247-0.415-0.054c-0.041-0.063-0.141-0.113-0.158-0.054
			c-0.091,0.309-0.28,0.17-0.465,0.134c-0.199-0.039-0.383,0.057-0.506,0.196c-0.182,0.206-0.395,0.369-0.604,0.544
			c-0.329,0.276-0.478,0.302-0.788,0.031c-0.05-0.043-0.079-0.109-0.12-0.165l0.002-0.002c0.115-0.121,0.273-0.133,0.423-0.16
			c0.386-0.069,0.671-0.228,0.719-0.666c0.024-0.226,0.145-0.336,0.4-0.372c0.414-0.057,0.796-0.354,1.242-0.142
			c0.081,0.101,0.009,0.232,0.06,0.339c0.271-0.03,0.538-0.043,0.81-0.007c0.28,0.036,0.28,0.022,0.423-0.297
			c0.018-0.039,0.072-0.079,0.115-0.088c0.081-0.017,0.124,0.039,0.129,0.117c0.017,0.264,0.051,0.459,0.39,0.242
			c0.157-0.1,0.182-0.06,0.136,0.316c0.012,0.355-0.01,0.705-0.23,1.007c-0.121,0.168-0.065,0.355-0.084,0.537
			C1275.082,218.721,1274.98,218.79,1274.877,218.86z"/>
		<path fill="#D7D3C2" d="M1274.112,219.883c-0.181,0.019-0.379-0.06-0.529,0.118c-0.076,0.091-0.182,0.096-0.28,0.04
			c-0.227-0.129-0.374,0.206-0.604,0.101c-0.034-0.015-0.108,0.076-0.108,0.153c0.002,0.276-0.048,0.547-0.285,0.707
			c-0.29,0.194-0.633,0.23-0.979,0.22c0-0.034,0-0.069-0.002-0.101c-0.196-0.064-0.354-0.19-0.515-0.309
			c-0.069-0.069-0.137-0.137-0.206-0.206c0.221-0.13,0.105-0.357,0.127-0.538c0.197-0.019,0.254,0.091,0.306,0.227
			c0.039,0.1,0.141,0.166,0.244,0.141c0.146-0.038,0.07-0.156,0.06-0.251c-0.014-0.118,0.015-0.247-0.024-0.354
			c-0.103-0.284,0.115-0.245,0.275-0.324c0,0.169,0,0.297,0,0.419c0.07,0.043,0.108,0.012,0.137-0.033
			c0.064-0.096,0.124-0.193,0.19-0.296c0.173,0.098,0.22,0.235,0.235,0.39c0.23-0.129,0.379-0.345,0.568-0.518
			c0.076-0.07,0.141-0.151,0.148-0.263c0.007-0.127-0.01-0.254-0.142-0.302c-0.148-0.052-0.139,0.109-0.201,0.175
			c-0.019,0.021-0.058,0.022-0.091,0.033c-0.124-0.11-0.034-0.215,0.007-0.321c0.036-0.091,0.118-0.19,0.015-0.281
			c-0.094-0.084-0.202-0.144-0.05-0.272c0.125-0.106,0.379-0.179,0.405-0.117c0.136,0.357,0.41,0.098,0.617,0.118
			c-0.067,0.236-0.224,0.184-0.35,0.203c-0.085,0.012-0.184,0.018-0.161,0.142c0.012,0.072,0.069,0.125,0.146,0.11
			c0.236-0.046,0.42,0.103,0.626,0.163c0.151,0.043,0.371,0.386,0.363,0.55c-0.003,0.057-0.005,0.109,0.045,0.132
			c0.182,0.085,0.396-0.048,0.586,0.093c0.045,0.033,0.216-0.064,0.312-0.22c-0.352-0.075-0.55-0.391-0.971-0.415
			c0.386-0.45,0.695-0.875,1.323-0.764c0.033,0.076,0.081,0.149,0.094,0.228c0.029,0.165,0.121,0.115,0.215,0.081
			c0.101,0.166,0.272,0.309,0.118,0.541c0.206,0.012,0.374-0.082,0.535,0.022c-0.125,0.331-0.422,0.411-0.7,0.447
			c-0.232,0.031-0.359,0.117-0.472,0.312c-0.154,0.264-0.256,0.29-0.542,0.125C1274.436,219.899,1274.283,219.883,1274.112,219.883z
			"/>
		<path fill="#C4BFA7" d="M1266.105,214.27c-0.292-0.197-0.62-0.06-0.928-0.101c-0.031-0.038-0.069-0.069-0.103-0.103
			c-0.022-0.026-0.052-0.054-0.053-0.084c-0.018-0.647,0.91-1.541,1.556-1.502c0.099-0.024-0.045,0.239,0.139,0.118
			c0.085,0.006,0.172,0.048,0.252,0.021c0.193-0.064,0.308-0.424,0.547-0.237c0.309,0.24,0.728,0.336,0.908,0.768
			c0.144,0.342,0.091,0.578-0.149,0.816c-0.146,0.226-0.388,0.323-0.607,0.448c-0.07,0.04-0.187,0.084-0.24,0.052
			c-0.314-0.184-0.611-0.05-0.913,0.018C1266.338,214.481,1266.244,214.332,1266.105,214.27z"/>
	</g>
</g>
<g>
	<path fill="#494949" d="M1180.989,74.596c0,0-4.122-14.845,8.534-11.724c0,0,22.567,11.72,50.393-0.894
		c12.536-3.566,8.949,11.416,8.949,11.416c-6.807,22.238-33.577,20.917-33.577,20.917S1188.582,96.577,1180.989,74.596z"/>
	<circle fill="#494949" cx="1193.149" cy="36.662" r="8.085"/>
	<circle fill="#494949" cx="1237.446" cy="36.662" r="8.085"/>
</g>
</svg>
