<?xml version="1.0" encoding="utf-8"?>
<!-- Generator: Adobe Illustrator 17.0.0, SVG Export Plug-In . SVG Version: 6.00 Build 0)  -->
<!DOCTYPE svg PUBLIC "-//W3C//DTD SVG 1.1//EN" "http://www.w3.org/Graphics/SVG/1.1/DTD/svg11.dtd">
<svg version="1.1" id="Layer_1" xmlns="http://www.w3.org/2000/svg" xmlns:xlink="http://www.w3.org/1999/xlink" x="0px" y="0px"
	 width="60px" height="60px" viewBox="-297.5 420.5 60 60" enable-background="new -297.5 420.5 60 60" xml:space="preserve">
<g>
	<path fill="#FFFFFF" d="M-253.362,433.156c-4.626-4.01-10.77-6.218-17.3-6.218s-12.674,2.208-17.301,6.218
		c-4.655,4.035-7.218,9.409-7.218,15.132c0,0.354,0.01,0.712,0.03,1.066c0.171,3.022,1.774,5.614,4.288,6.935
		c2.243,1.178,4.765,1.101,6.921-0.212c1.061-0.647,2.174-1.209,3.329-1.688l-0.412,13.609c-0.096,2.1,0.651,4.095,2.103,5.616
		c1.453,1.522,3.412,2.361,5.518,2.361h5.484c2.105,0,4.065-0.839,5.519-2.362c1.452-1.522,2.199-3.515,2.103-5.616l-0.412-13.609
		c1.154,0.478,2.267,1.041,3.329,1.688c1.14,0.694,2.383,1.043,3.632,1.043c1.112,0,2.231-0.277,3.288-0.832
		c2.514-1.321,4.116-3.913,4.288-6.935c0.02-0.353,0.03-0.712,0.03-1.066C-246.143,442.565-248.707,437.191-253.362,433.156z
		 M-261.738,468.047c0,0.004,0,0.008,0.001,0.012c0.079,1.706-0.527,3.326-1.706,4.561c-1.18,1.236-2.769,1.916-4.477,1.916h-5.484
		c-1.708,0-3.298-0.68-4.477-1.916c-1.179-1.236-1.785-2.855-1.706-4.561c0-0.004,0-0.008,0.001-0.012l0.429-14.208
		c2.681-0.918,5.55-1.393,8.495-1.393s5.814,0.476,8.495,1.393L-261.738,468.047z M-247.611,449.272
		c-0.142,2.512-1.459,4.659-3.52,5.742c-1.784,0.937-3.79,0.876-5.502-0.167c-4.125-2.513-8.977-3.841-14.029-3.841
		s-9.904,1.328-14.029,3.841c-1.712,1.043-3.718,1.104-5.502,0.167c-2.062-1.083-3.378-3.229-3.52-5.741
		c-0.018-0.326-0.028-0.658-0.028-0.985c0-10.978,10.353-19.91,23.079-19.91c12.726,0,23.079,8.932,23.079,19.91
		C-247.583,448.615-247.593,448.947-247.611,449.272z"/>
	<path fill="#FFFFFF" d="M-290.412,442.905c0.093,0.041,0.191,0.06,0.286,0.06c0.278,0,0.543-0.162,0.661-0.434
		c0.215-0.496,0.462-0.989,0.733-1.467c0.196-0.346,0.075-0.785-0.271-0.981c-0.345-0.196-0.785-0.075-0.981,0.271
		c-0.296,0.522-0.565,1.061-0.801,1.604C-290.944,442.323-290.777,442.745-290.412,442.905z"/>
	<path fill="#FFFFFF" d="M-288.147,452.531c-1.164-0.289-2.39-1.462-2.501-3.433c-0.015-0.268-0.023-0.541-0.023-0.811
		c0-0.949,0.095-1.901,0.283-2.829c0.078-0.389-0.173-0.769-0.563-0.848c-0.389-0.078-0.769,0.173-0.848,0.563
		c-0.207,1.022-0.311,2.07-0.311,3.115c0,0.297,0.008,0.597,0.025,0.892c0.153,2.703,1.915,4.333,3.592,4.748
		c0.058,0.015,0.116,0.021,0.174,0.021c0.323,0,0.617-0.219,0.698-0.547C-287.526,453.017-287.762,452.626-288.147,452.531z"/>
	<path fill="#FFFFFF" d="M-276.52,468.201c0.001-0.021,0.001-0.041,0.002-0.06l0.132-4.378c0.012-0.397-0.301-0.729-0.698-0.741
		c-0.395-0.013-0.729,0.301-0.741,0.698l-0.132,4.38l-0.001,0.036c-0.058,1.256,0.387,2.449,1.256,3.359
		c0.142,0.149,0.331,0.223,0.521,0.223c0.179,0,0.357-0.066,0.497-0.199c0.287-0.275,0.298-0.73,0.024-1.018
		C-276.255,469.878-276.56,469.061-276.52,468.201z"/>
	<path fill="#FFFFFF" d="M-264.383,459.086c0.008,0,0.015,0,0.022,0c0.397-0.012,0.71-0.344,0.698-0.741l-0.046-1.535
		c-0.012-0.397-0.346-0.709-0.741-0.698c-0.397,0.012-0.71,0.344-0.698,0.741l0.046,1.535
		C-265.091,458.777-264.771,459.086-264.383,459.086z"/>
	<path fill="#FFFFFF" d="M-264.312,460.719c-0.397,0.012-0.71,0.344-0.698,0.741l0.202,6.681c0.012,0.39,0.331,0.698,0.719,0.698
		c0.008,0,0.015,0,0.022,0c0.397-0.012,0.71-0.344,0.698-0.741l-0.202-6.681C-263.583,461.018-263.912,460.707-264.312,460.719z"/>
	<g>
		<path fill="#FFFFFF" d="M-280.066,442.324c0.247,3.323,3.019,5.942,6.404,5.942c3.386,0,6.158-2.62,6.404-5.942H-280.066z"/>
		<path fill="#FFFFFF" d="M-280.066,442.324l0.288,1.167l0.47,1.072l0.657,0.962l0.808,0.825l0.933,0.663
			c0.348,0.157,0.685,0.331,1.032,0.475c0.368,0.089,0.73,0.194,1.095,0.273c0.377,0.02,0.749,0.041,1.12,0.075l1.15-0.134
			l1.024-0.323l0.983-0.509l0.876-0.679l0.733-0.83l0.572-0.947l0.391-1.035l0.194-1.091l0.48,0.517l-3.202-0.05
			c-1.067-0.019-2.135-0.069-3.202-0.101c-1.067-0.043-2.135-0.058-3.202-0.13C-277.932,442.461-278.999,442.414-280.066,442.324z
			 M-278.658,442.944c0.842-0.071,1.686-0.108,2.528-0.158c0.842-0.056,1.686-0.069,2.528-0.103c0.842-0.026,1.686-0.065,2.528-0.08
			l2.528-0.039l0.448-0.007l-0.069,0.415l-0.167,1.005c-0.107,0.321-0.231,0.639-0.35,0.958c-0.166,0.296-0.345,0.586-0.525,0.874
			l-0.684,0.756c-0.269,0.206-0.535,0.419-0.812,0.615c-0.304,0.152-0.6,0.317-0.913,0.451c-0.336,0.094-0.678,0.196-1.01,0.269
			l-0.977,0.076l-1-0.122c-0.322-0.091-0.639-0.205-0.954-0.309c-0.298-0.147-0.585-0.319-0.875-0.478
			c-0.263-0.201-0.512-0.419-0.766-0.628c-0.216-0.249-0.426-0.503-0.624-0.759l-0.457-0.862l-0.287-0.928L-278.658,442.944z"/>
	</g>
	<g>
		<circle fill="#FFFFFF" cx="-279.801" cy="435.128" r="2.122"/>
		<circle fill="#FFFFFF" cx="-268.295" cy="435.128" r="2.122"/>
	</g>
	<path fill="#FFFFFF" d="M-251.401,425.025c-6.397,0-11.583,3.65-11.583,8.153c0,2.683,1.849,5.055,4.689,6.541
		c-0.278,1.355-1.163,2.951-2.4,4.051c3.02-0.201,5.679-0.971,7.419-2.555c0.611,0.07,1.234,0.116,1.874,0.116
		c6.397,0,11.583-3.65,11.583-8.153C-239.818,428.676-245.004,425.025-251.401,425.025z"/>
</g>
</svg>
