<?xml version="1.0" encoding="utf-8"?>
<!-- Generator: Adobe Illustrator 17.0.0, SVG Export Plug-In . SVG Version: 6.00 Build 0)  -->
<!DOCTYPE svg PUBLIC "-//W3C//DTD SVG 1.1//EN" "http://www.w3.org/Graphics/SVG/1.1/DTD/svg11.dtd">
<svg version="1.1" id="Capa_1" xmlns="http://www.w3.org/2000/svg" xmlns:xlink="http://www.w3.org/1999/xlink" x="0px" y="0px"
	 width="60px" height="60px" viewBox="0 0 60 60" enable-background="new 0 0 60 60" xml:space="preserve">
<g>
	<g>
		<circle fill="#FFFFFF" cx="53.027" cy="23.799" r="0.886"/>
		<circle fill="#FFFFFF" cx="53.027" cy="29.113" r="0.886"/>
		<circle fill="#FFFFFF" cx="50.37" cy="31.77" r="0.886"/>
		<circle fill="#FFFFFF" cx="39.742" cy="31.77" r="0.886"/>
		<circle fill="#FFFFFF" cx="42.399" cy="29.113" r="0.886"/>
		<circle fill="#FFFFFF" cx="26.458" cy="39.741" r="0.886"/>
		<circle fill="#FFFFFF" cx="50.37" cy="37.084" r="0.886"/>
		<circle fill="#FFFFFF" cx="53.027" cy="34.427" r="0.886"/>
		<circle fill="#FFFFFF" cx="53.027" cy="39.741" r="0.886"/>
		<circle fill="#FFFFFF" cx="45.056" cy="37.084" r="0.886"/>
		<circle fill="#FFFFFF" cx="47.714" cy="34.427" r="0.886"/>
		<circle fill="#FFFFFF" cx="47.714" cy="39.741" r="0.886"/>
		<circle fill="#FFFFFF" cx="34.429" cy="37.084" r="0.886"/>
		<circle fill="#FFFFFF" cx="39.742" cy="37.084" r="0.886"/>
		<circle fill="#FFFFFF" cx="23.801" cy="42.398" r="0.886"/>
		<circle fill="#FFFFFF" cx="29.116" cy="42.398" r="0.886"/>
		<circle fill="#FFFFFF" cx="13.173" cy="42.398" r="0.886"/>
		<circle fill="#FFFFFF" cx="50.37" cy="42.398" r="0.886"/>
		<circle fill="#FFFFFF" cx="45.056" cy="42.398" r="0.886"/>
		<circle fill="#FFFFFF" cx="34.429" cy="42.398" r="0.886"/>
		<circle fill="#FFFFFF" cx="39.742" cy="42.398" r="0.886"/>
		<circle fill="#FFFFFF" cx="37.085" cy="34.427" r="0.886"/>
		<circle fill="#FFFFFF" cx="42.399" cy="34.427" r="0.886"/>
		<circle fill="#FFFFFF" cx="37.085" cy="39.741" r="0.886"/>
		<circle fill="#FFFFFF" cx="42.399" cy="39.741" r="0.886"/>
		<circle fill="#FFFFFF" cx="23.801" cy="47.711" r="0.886"/>
		<circle fill="#FFFFFF" cx="26.458" cy="45.055" r="0.886"/>
		<circle fill="#FFFFFF" cx="26.458" cy="50.368" r="0.886"/>
		<circle fill="#FFFFFF" cx="29.116" cy="47.711" r="0.886"/>
		<circle fill="#FFFFFF" cx="18.487" cy="47.711" r="0.886"/>
		<circle fill="#FFFFFF" cx="21.145" cy="50.368" r="0.886"/>
		<circle fill="#FFFFFF" cx="7.861" cy="47.711" r="0.886"/>
		<circle fill="#FFFFFF" cx="13.173" cy="47.711" r="0.886"/>
		<circle fill="#FFFFFF" cx="10.517" cy="45.055" r="0.886"/>
		<circle fill="#FFFFFF" cx="15.831" cy="45.055" r="0.886"/>
		<circle fill="#FFFFFF" cx="10.517" cy="50.368" r="0.886"/>
		<circle fill="#FFFFFF" cx="15.831" cy="50.368" r="0.886"/>
		<circle fill="#FFFFFF" cx="50.37" cy="47.711" r="0.886"/>
		<circle fill="#FFFFFF" cx="53.027" cy="45.055" r="0.886"/>
		<circle fill="#FFFFFF" cx="53.027" cy="50.368" r="0.886"/>
		<circle fill="#FFFFFF" cx="45.056" cy="47.711" r="0.886"/>
		<circle fill="#FFFFFF" cx="47.714" cy="45.055" r="0.886"/>
		<circle fill="#FFFFFF" cx="47.714" cy="50.368" r="0.886"/>
		<circle fill="#FFFFFF" cx="31.772" cy="45.055" r="0.886"/>
		<circle fill="#FFFFFF" cx="31.772" cy="50.368" r="0.886"/>
		<circle fill="#FFFFFF" cx="34.429" cy="47.711" r="0.886"/>
		<circle fill="#FFFFFF" cx="39.742" cy="47.711" r="0.886"/>
		<circle fill="#FFFFFF" cx="37.085" cy="45.055" r="0.886"/>
		<circle fill="#FFFFFF" cx="42.399" cy="45.055" r="0.886"/>
		<circle fill="#FFFFFF" cx="37.085" cy="50.368" r="0.886"/>
		<circle fill="#FFFFFF" cx="42.399" cy="50.368" r="0.886"/>
		<path fill="#FFFFFF" d="M9.631,29.113h1.771c0.49,0,0.886-0.396,0.886-0.886s-0.396-0.886-0.886-0.886H9.631
			c-0.49,0-0.886,0.396-0.886,0.886S9.141,29.113,9.631,29.113z"/>
		<path fill="#FFFFFF" d="M9.631,25.571h1.771c0.49,0,0.886-0.396,0.886-0.886s-0.396-0.886-0.886-0.886H9.631
			c-0.49,0-0.886,0.396-0.886,0.886C8.745,25.175,9.141,25.571,9.631,25.571z"/>
		<path fill="#FFFFFF" d="M9.631,22.028h1.771c0.49,0,0.886-0.396,0.886-0.886s-0.396-0.886-0.886-0.886H9.631
			c-0.49,0-0.886,0.396-0.886,0.886S9.141,22.028,9.631,22.028z"/>
		<path fill="#FFFFFF" d="M9.631,18.486h1.771c0.49,0,0.886-0.396,0.886-0.886s-0.396-0.886-0.886-0.886H9.631
			c-0.49,0-0.886,0.396-0.886,0.886S9.141,18.486,9.631,18.486z"/>
		<path fill="#FFFFFF" d="M9.631,14.943h1.771c0.49,0,0.886-0.396,0.886-0.886s-0.396-0.886-0.886-0.886H9.631
			c-0.49,0-0.886,0.396-0.886,0.886S9.141,14.943,9.631,14.943z"/>
		<path fill="#FFFFFF" d="M9.631,11.401h1.771c0.49,0,0.886-0.396,0.886-0.886s-0.396-0.886-0.886-0.886H9.631
			c-0.49,0-0.886,0.396-0.886,0.886S9.141,11.401,9.631,11.401z"/>
		<path fill="#FFFFFF" d="M9.631,7.858h1.771c0.49,0,0.886-0.396,0.886-0.886s-0.396-0.886-0.886-0.886H9.631
			c-0.49,0-0.886,0.396-0.886,0.886S9.141,7.858,9.631,7.858z"/>
		<path fill="#FFFFFF" d="M45.888,29.337l-5.314-7.085l-9.742,15.056l-5.439-7.251l-6.199,13.284l-5.039-6.72l-7.181,7.182V4.316
			c0-0.49-0.396-0.886-0.886-0.886S5.202,3.826,5.202,4.316v41.258v7.452H4.316c-0.49,0-0.886,0.396-0.886,0.886
			s0.396,0.886,0.886,0.886h0.886v0.886c0,0.49,0.396,0.886,0.886,0.886s0.886-0.396,0.886-0.886v-0.886h48.709h0.886V12.832
			L45.888,29.337z M51.255,53.025c0-0.489-0.397-0.886-0.886-0.886s-0.886,0.397-0.886,0.886h-3.543
			c0-0.489-0.397-0.886-0.886-0.886s-0.886,0.397-0.886,0.886h-3.543c0-0.489-0.397-0.886-0.886-0.886s-0.886,0.397-0.886,0.886
			h-3.543c0-0.489-0.397-0.886-0.886-0.886s-0.886,0.397-0.886,0.886h-3.543c0-0.489-0.397-0.886-0.886-0.886
			s-0.886,0.397-0.886,0.886h-3.543c0-0.489-0.397-0.886-0.886-0.886s-0.886,0.397-0.886,0.886h-3.543
			c0-0.489-0.397-0.886-0.886-0.886s-0.886,0.397-0.886,0.886h-3.542c0-0.489-0.397-0.886-0.886-0.886s-0.886,0.397-0.886,0.886
			H8.738c0-0.489-0.397-0.886-0.886-0.886s-0.886,0.397-0.886,0.886v-5.314v-1.405l6.989-6.989l5.588,7.45l0.735-1.576
			c0.068,0.422,0.417,0.748,0.857,0.748c0.489,0,0.886-0.397,0.886-0.886s-0.397-0.886-0.886-0.886
			c-0.166,0-0.312,0.058-0.444,0.136l5.05-10.821l5.189,6.919l0.112-0.174c0.159,0.233,0.415,0.397,0.72,0.397
			c0.489,0,0.886-0.397,0.886-0.886c0-0.436-0.321-0.782-0.736-0.855l8.761-13.539l4.183,5.577
			c-0.394,0.089-0.694,0.426-0.694,0.847c0,0.489,0.397,0.886,0.886,0.886c0.332,0,0.61-0.19,0.762-0.461l0.177,0.236l3.602-5.566
			c0.15,0.28,0.434,0.476,0.773,0.476c0.489,0,0.886-0.397,0.886-0.886c0-0.468-0.368-0.843-0.828-0.874l4.371-6.755v34.198h-3.535
			V53.025z"/>
	</g>
	<g>
		<g>
			<path fill="#FFFFFF" d="M24.687,6.43c0.28,0,0.507-0.227,0.507-0.507V3.937c0-0.28-0.227-0.507-0.507-0.507
				S24.18,3.657,24.18,3.937v1.986C24.18,6.203,24.408,6.43,24.687,6.43z"/>
			<path fill="#FFFFFF" d="M24.687,19.635c-0.28,0-0.507,0.227-0.507,0.507v1.985c0,0.28,0.227,0.507,0.507,0.507
				s0.507-0.227,0.507-0.507v-1.985C25.194,19.861,24.967,19.635,24.687,19.635z"/>
			<path fill="#FFFFFF" d="M19.303,8.363c0.099,0.099,0.228,0.148,0.358,0.148s0.259-0.05,0.358-0.148
				c0.198-0.198,0.198-0.518,0-0.716l-1.404-1.404c-0.197-0.198-0.518-0.198-0.716,0c-0.197,0.198-0.198,0.518,0,0.716L19.303,8.363
				z"/>
			<path fill="#FFFFFF" d="M30.072,17.7c-0.198-0.198-0.518-0.197-0.716,0c-0.198,0.198-0.198,0.518,0,0.716l1.404,1.405
				c0.099,0.099,0.229,0.148,0.358,0.148s0.259-0.05,0.358-0.148c0.198-0.198,0.198-0.518,0-0.716L30.072,17.7z"/>
			<path fill="#FFFFFF" d="M18.085,13.032c0-0.28-0.227-0.507-0.507-0.507h-1.985c-0.28,0-0.507,0.227-0.507,0.507
				s0.227,0.507,0.507,0.507h1.985C17.858,13.539,18.085,13.311,18.085,13.032z"/>
			<path fill="#FFFFFF" d="M33.781,12.525h-1.985c-0.28,0-0.507,0.227-0.507,0.507s0.227,0.507,0.507,0.507h1.985
				c0.28,0,0.507-0.227,0.507-0.507C34.288,12.752,34.061,12.525,33.781,12.525z"/>
			<path fill="#FFFFFF" d="M19.303,17.7l-1.404,1.405c-0.197,0.198-0.197,0.518,0,0.716c0.099,0.099,0.228,0.148,0.358,0.148
				s0.26-0.05,0.358-0.148l1.404-1.405c0.197-0.198,0.197-0.518,0-0.716C19.821,17.502,19.5,17.502,19.303,17.7z"/>
			<path fill="#FFFFFF" d="M29.714,8.512c0.13,0,0.259-0.05,0.358-0.148l1.404-1.404c0.198-0.198,0.198-0.518,0-0.716
				s-0.518-0.198-0.716,0l-1.404,1.404c-0.198,0.198-0.198,0.518,0,0.716C29.454,8.462,29.584,8.512,29.714,8.512z"/>
			<path fill="#FFFFFF" d="M24.687,7.37c-3.122,0-5.662,2.54-5.662,5.662c0,3.122,2.54,5.662,5.662,5.662s5.662-2.54,5.662-5.662
				C30.35,9.91,27.81,7.37,24.687,7.37z M24.687,17.681c-2.564,0-4.649-2.086-4.649-4.649s2.086-4.648,4.649-4.648
				s4.649,2.086,4.649,4.648C29.337,15.595,27.251,17.681,24.687,17.681z"/>
		</g>
	</g>
</g>
</svg>
