<?xml version="1.0" encoding="utf-8"?>
<!-- Generator: Adobe Illustrator 17.0.0, SVG Export Plug-In . SVG Version: 6.00 Build 0)  -->
<!DOCTYPE svg PUBLIC "-//W3C//DTD SVG 1.1//EN" "http://www.w3.org/Graphics/SVG/1.1/DTD/svg11.dtd">
<svg version="1.1" id="Capa_1" xmlns="http://www.w3.org/2000/svg" xmlns:xlink="http://www.w3.org/1999/xlink" x="0px" y="0px"
	 width="60px" height="60px" viewBox="0 0 60 60" enable-background="new 0 0 60 60" xml:space="preserve">
<g>
	<g>
		<circle fill="#FFFFFF" cx="53.027" cy="23.799" r="0.886"/>
		<circle fill="#FFFFFF" cx="53.027" cy="29.113" r="0.886"/>
		<circle fill="#FFFFFF" cx="50.37" cy="31.77" r="0.886"/>
		<circle fill="#FFFFFF" cx="39.742" cy="31.77" r="0.886"/>
		<circle fill="#FFFFFF" cx="42.399" cy="29.113" r="0.886"/>
		<circle fill="#FFFFFF" cx="26.458" cy="39.741" r="0.886"/>
		<circle fill="#FFFFFF" cx="50.37" cy="37.084" r="0.886"/>
		<circle fill="#FFFFFF" cx="53.027" cy="34.427" r="0.886"/>
		<circle fill="#FFFFFF" cx="53.027" cy="39.741" r="0.886"/>
		<circle fill="#FFFFFF" cx="45.056" cy="37.084" r="0.886"/>
		<circle fill="#FFFFFF" cx="47.714" cy="34.427" r="0.886"/>
		<circle fill="#FFFFFF" cx="47.714" cy="39.741" r="0.886"/>
		<circle fill="#FFFFFF" cx="34.429" cy="37.084" r="0.886"/>
		<circle fill="#FFFFFF" cx="39.742" cy="37.084" r="0.886"/>
		<circle fill="#FFFFFF" cx="23.801" cy="42.398" r="0.886"/>
		<circle fill="#FFFFFF" cx="29.116" cy="42.398" r="0.886"/>
		<circle fill="#FFFFFF" cx="13.173" cy="42.398" r="0.886"/>
		<circle fill="#FFFFFF" cx="50.37" cy="42.398" r="0.886"/>
		<circle fill="#FFFFFF" cx="45.056" cy="42.398" r="0.886"/>
		<circle fill="#FFFFFF" cx="34.429" cy="42.398" r="0.886"/>
		<circle fill="#FFFFFF" cx="39.742" cy="42.398" r="0.886"/>
		<circle fill="#FFFFFF" cx="37.085" cy="34.427" r="0.886"/>
		<circle fill="#FFFFFF" cx="42.399" cy="34.427" r="0.886"/>
		<circle fill="#FFFFFF" cx="37.085" cy="39.741" r="0.886"/>
		<circle fill="#FFFFFF" cx="42.399" cy="39.741" r="0.886"/>
		<circle fill="#FFFFFF" cx="23.801" cy="47.711" r="0.886"/>
		<circle fill="#FFFFFF" cx="26.458" cy="45.055" r="0.886"/>
		<circle fill="#FFFFFF" cx="26.458" cy="50.368" r="0.886"/>
		<circle fill="#FFFFFF" cx="29.116" cy="47.711" r="0.886"/>
		<circle fill="#FFFFFF" cx="18.487" cy="47.711" r="0.886"/>
		<circle fill="#FFFFFF" cx="21.145" cy="50.368" r="0.886"/>
		<circle fill="#FFFFFF" cx="7.861" cy="47.711" r="0.886"/>
		<circle fill="#FFFFFF" cx="13.173" cy="47.711" r="0.886"/>
		<circle fill="#FFFFFF" cx="10.517" cy="45.055" r="0.886"/>
		<circle fill="#FFFFFF" cx="15.831" cy="45.055" r="0.886"/>
		<circle fill="#FFFFFF" cx="10.517" cy="50.368" r="0.886"/>
		<circle fill="#FFFFFF" cx="15.831" cy="50.368" r="0.886"/>
		<circle fill="#FFFFFF" cx="50.37" cy="47.711" r="0.886"/>
		<circle fill="#FFFFFF" cx="53.027" cy="45.055" r="0.886"/>
		<circle fill="#FFFFFF" cx="53.027" cy="50.368" r="0.886"/>
		<circle fill="#FFFFFF" cx="45.056" cy="47.711" r="0.886"/>
		<circle fill="#FFFFFF" cx="47.714" cy="45.055" r="0.886"/>
		<circle fill="#FFFFFF" cx="47.714" cy="50.368" r="0.886"/>
		<circle fill="#FFFFFF" cx="31.772" cy="45.055" r="0.886"/>
		<circle fill="#FFFFFF" cx="31.772" cy="50.368" r="0.886"/>
		<circle fill="#FFFFFF" cx="34.429" cy="47.711" r="0.886"/>
		<circle fill="#FFFFFF" cx="39.742" cy="47.711" r="0.886"/>
		<circle fill="#FFFFFF" cx="37.085" cy="45.055" r="0.886"/>
		<circle fill="#FFFFFF" cx="42.399" cy="45.055" r="0.886"/>
		<circle fill="#FFFFFF" cx="37.085" cy="50.368" r="0.886"/>
		<circle fill="#FFFFFF" cx="42.399" cy="50.368" r="0.886"/>
		<path fill="#FFFFFF" d="M9.631,29.113h1.771c0.49,0,0.886-0.396,0.886-0.886s-0.396-0.886-0.886-0.886H9.631
			c-0.49,0-0.886,0.396-0.886,0.886S9.141,29.113,9.631,29.113z"/>
		<path fill="#FFFFFF" d="M9.631,25.571h1.771c0.49,0,0.886-0.396,0.886-0.886s-0.396-0.886-0.886-0.886H9.631
			c-0.49,0-0.886,0.396-0.886,0.886C8.745,25.175,9.141,25.571,9.631,25.571z"/>
		<path fill="#FFFFFF" d="M9.631,22.028h1.771c0.49,0,0.886-0.396,0.886-0.886s-0.396-0.886-0.886-0.886H9.631
			c-0.49,0-0.886,0.396-0.886,0.886S9.141,22.028,9.631,22.028z"/>
		<path fill="#FFFFFF" d="M9.631,18.486h1.771c0.49,0,0.886-0.396,0.886-0.886s-0.396-0.886-0.886-0.886H9.631
			c-0.49,0-0.886,0.396-0.886,0.886S9.141,18.486,9.631,18.486z"/>
		<path fill="#FFFFFF" d="M9.631,14.943h1.771c0.49,0,0.886-0.396,0.886-0.886s-0.396-0.886-0.886-0.886H9.631
			c-0.49,0-0.886,0.396-0.886,0.886S9.141,14.943,9.631,14.943z"/>
		<path fill="#FFFFFF" d="M9.631,11.401h1.771c0.49,0,0.886-0.396,0.886-0.886s-0.396-0.886-0.886-0.886H9.631
			c-0.49,0-0.886,0.396-0.886,0.886S9.141,11.401,9.631,11.401z"/>
		<path fill="#FFFFFF" d="M9.631,7.858h1.771c0.49,0,0.886-0.396,0.886-0.886s-0.396-0.886-0.886-0.886H9.631
			c-0.49,0-0.886,0.396-0.886,0.886S9.141,7.858,9.631,7.858z"/>
		<path fill="#FFFFFF" d="M45.888,29.337l-5.314-7.085l-9.742,15.056l-5.439-7.251l-6.199,13.284l-5.039-6.72l-7.181,7.182V4.316
			c0-0.49-0.396-0.886-0.886-0.886S5.202,3.826,5.202,4.316v41.258v7.452H4.316c-0.49,0-0.886,0.396-0.886,0.886
			s0.396,0.886,0.886,0.886h0.886v0.886c0,0.49,0.396,0.886,0.886,0.886s0.886-0.396,0.886-0.886v-0.886h48.709h0.886V12.832
			L45.888,29.337z M51.255,53.025c0-0.489-0.397-0.886-0.886-0.886s-0.886,0.397-0.886,0.886h-3.543
			c0-0.489-0.397-0.886-0.886-0.886s-0.886,0.397-0.886,0.886h-3.543c0-0.489-0.397-0.886-0.886-0.886s-0.886,0.397-0.886,0.886
			h-3.543c0-0.489-0.397-0.886-0.886-0.886s-0.886,0.397-0.886,0.886h-3.543c0-0.489-0.397-0.886-0.886-0.886
			s-0.886,0.397-0.886,0.886h-3.543c0-0.489-0.397-0.886-0.886-0.886s-0.886,0.397-0.886,0.886h-3.543
			c0-0.489-0.397-0.886-0.886-0.886s-0.886,0.397-0.886,0.886h-3.542c0-0.489-0.397-0.886-0.886-0.886s-0.886,0.397-0.886,0.886
			H8.738c0-0.489-0.397-0.886-0.886-0.886s-0.886,0.397-0.886,0.886v-5.314v-1.405l6.989-6.989l5.588,7.45l0.735-1.576
			c0.068,0.422,0.417,0.748,0.857,0.748c0.489,0,0.886-0.397,0.886-0.886s-0.397-0.886-0.886-0.886
			c-0.166,0-0.312,0.058-0.444,0.136l5.05-10.821l5.189,6.919l0.112-0.174c0.159,0.233,0.415,0.397,0.72,0.397
			c0.489,0,0.886-0.397,0.886-0.886c0-0.436-0.321-0.782-0.736-0.855l8.761-13.539l4.183,5.577
			c-0.394,0.089-0.694,0.426-0.694,0.847c0,0.489,0.397,0.886,0.886,0.886c0.332,0,0.61-0.19,0.762-0.461l0.177,0.236l3.602-5.566
			c0.15,0.28,0.434,0.476,0.773,0.476c0.489,0,0.886-0.397,0.886-0.886c0-0.468-0.368-0.843-0.828-0.874l4.371-6.755v34.198h-3.535
			V53.025z"/>
	</g>
	<g>
		<g>
			<g>
				<path fill="#FFFFFF" d="M22.684,17.968c0-0.065,0-0.065,0-0.13v-6.549c0-0.394-0.26-0.654-0.654-0.654
					c-0.394,0-0.654,0.329-0.654,0.654v6.546c0,0.065,0,0.065,0,0.13c-0.788,0.264-1.308,0.983-1.308,1.832
					c0,1.113,0.852,1.965,1.965,1.965c1.113,0,1.965-0.852,1.965-1.965C23.995,18.95,23.471,18.232,22.684,17.968z"/>
				<path fill="#FFFFFF" d="M23.995,17.184V5.395c0-1.113-0.852-1.965-1.965-1.965s-1.965,0.917-1.965,1.965V17.18
					c-0.788,0.589-1.308,1.572-1.308,2.62c0,1.832,1.441,3.273,3.273,3.273s3.273-1.441,3.273-3.273
					C25.303,18.752,24.779,17.773,23.995,17.184z M22.03,22.423c-1.441,0-2.62-1.178-2.619-2.619c0-0.983,0.524-1.832,1.308-2.29
					V5.396c0-0.719,0.589-1.308,1.308-1.308s1.308,0.589,1.308,1.308V17.51c0.788,0.459,1.308,1.308,1.308,2.29
					C24.649,21.241,23.471,22.423,22.03,22.423z"/>
			</g>
		</g>
	</g>
</g>
</svg>
