<?xml version="1.0" encoding="utf-8"?>
<!-- Generator: Adobe Illustrator 17.0.0, SVG Export Plug-In . SVG Version: 6.00 Build 0)  -->
<!DOCTYPE svg PUBLIC "-//W3C//DTD SVG 1.1//EN" "http://www.w3.org/Graphics/SVG/1.1/DTD/svg11.dtd">
<svg version="1.1" id="Capa_1" xmlns="http://www.w3.org/2000/svg" xmlns:xlink="http://www.w3.org/1999/xlink" x="0px" y="0px"
	 width="60px" height="60px" viewBox="0 0 60 60" enable-background="new 0 0 60 60" xml:space="preserve">
<g>
	<g>
		<circle fill="#FFFFFF" cx="53.027" cy="23.799" r="0.886"/>
		<circle fill="#FFFFFF" cx="53.027" cy="29.113" r="0.886"/>
		<circle fill="#FFFFFF" cx="50.37" cy="31.77" r="0.886"/>
		<circle fill="#FFFFFF" cx="39.742" cy="31.77" r="0.886"/>
		<circle fill="#FFFFFF" cx="42.399" cy="29.113" r="0.886"/>
		<circle fill="#FFFFFF" cx="26.458" cy="39.741" r="0.886"/>
		<circle fill="#FFFFFF" cx="50.37" cy="37.084" r="0.886"/>
		<circle fill="#FFFFFF" cx="53.027" cy="34.427" r="0.886"/>
		<circle fill="#FFFFFF" cx="53.027" cy="39.741" r="0.886"/>
		<circle fill="#FFFFFF" cx="45.056" cy="37.084" r="0.886"/>
		<circle fill="#FFFFFF" cx="47.714" cy="34.427" r="0.886"/>
		<circle fill="#FFFFFF" cx="47.714" cy="39.741" r="0.886"/>
		<circle fill="#FFFFFF" cx="34.429" cy="37.084" r="0.886"/>
		<circle fill="#FFFFFF" cx="39.742" cy="37.084" r="0.886"/>
		<circle fill="#FFFFFF" cx="23.801" cy="42.398" r="0.886"/>
		<circle fill="#FFFFFF" cx="29.116" cy="42.398" r="0.886"/>
		<circle fill="#FFFFFF" cx="13.173" cy="42.398" r="0.886"/>
		<circle fill="#FFFFFF" cx="50.37" cy="42.398" r="0.886"/>
		<circle fill="#FFFFFF" cx="45.056" cy="42.398" r="0.886"/>
		<circle fill="#FFFFFF" cx="34.429" cy="42.398" r="0.886"/>
		<circle fill="#FFFFFF" cx="39.742" cy="42.398" r="0.886"/>
		<circle fill="#FFFFFF" cx="37.085" cy="34.427" r="0.886"/>
		<circle fill="#FFFFFF" cx="42.399" cy="34.427" r="0.886"/>
		<circle fill="#FFFFFF" cx="37.085" cy="39.741" r="0.886"/>
		<circle fill="#FFFFFF" cx="42.399" cy="39.741" r="0.886"/>
		<circle fill="#FFFFFF" cx="23.801" cy="47.711" r="0.886"/>
		<circle fill="#FFFFFF" cx="26.458" cy="45.055" r="0.886"/>
		<circle fill="#FFFFFF" cx="26.458" cy="50.368" r="0.886"/>
		<circle fill="#FFFFFF" cx="29.116" cy="47.711" r="0.886"/>
		<circle fill="#FFFFFF" cx="18.487" cy="47.711" r="0.886"/>
		<circle fill="#FFFFFF" cx="21.145" cy="50.368" r="0.886"/>
		<circle fill="#FFFFFF" cx="7.861" cy="47.711" r="0.886"/>
		<circle fill="#FFFFFF" cx="13.173" cy="47.711" r="0.886"/>
		<circle fill="#FFFFFF" cx="10.517" cy="45.055" r="0.886"/>
		<circle fill="#FFFFFF" cx="15.831" cy="45.055" r="0.886"/>
		<circle fill="#FFFFFF" cx="10.517" cy="50.368" r="0.886"/>
		<circle fill="#FFFFFF" cx="15.831" cy="50.368" r="0.886"/>
		<circle fill="#FFFFFF" cx="50.37" cy="47.711" r="0.886"/>
		<circle fill="#FFFFFF" cx="53.027" cy="45.055" r="0.886"/>
		<circle fill="#FFFFFF" cx="53.027" cy="50.368" r="0.886"/>
		<circle fill="#FFFFFF" cx="45.056" cy="47.711" r="0.886"/>
		<circle fill="#FFFFFF" cx="47.714" cy="45.055" r="0.886"/>
		<circle fill="#FFFFFF" cx="47.714" cy="50.368" r="0.886"/>
		<circle fill="#FFFFFF" cx="31.772" cy="45.055" r="0.886"/>
		<circle fill="#FFFFFF" cx="31.772" cy="50.368" r="0.886"/>
		<circle fill="#FFFFFF" cx="34.429" cy="47.711" r="0.886"/>
		<circle fill="#FFFFFF" cx="39.742" cy="47.711" r="0.886"/>
		<circle fill="#FFFFFF" cx="37.085" cy="45.055" r="0.886"/>
		<circle fill="#FFFFFF" cx="42.399" cy="45.055" r="0.886"/>
		<circle fill="#FFFFFF" cx="37.085" cy="50.368" r="0.886"/>
		<circle fill="#FFFFFF" cx="42.399" cy="50.368" r="0.886"/>
		<path fill="#FFFFFF" d="M9.631,29.113h1.771c0.49,0,0.886-0.396,0.886-0.886s-0.396-0.886-0.886-0.886H9.631
			c-0.49,0-0.886,0.396-0.886,0.886S9.141,29.113,9.631,29.113z"/>
		<path fill="#FFFFFF" d="M9.631,25.571h1.771c0.49,0,0.886-0.396,0.886-0.886s-0.396-0.886-0.886-0.886H9.631
			c-0.49,0-0.886,0.396-0.886,0.886C8.745,25.175,9.141,25.571,9.631,25.571z"/>
		<path fill="#FFFFFF" d="M9.631,22.028h1.771c0.49,0,0.886-0.396,0.886-0.886s-0.396-0.886-0.886-0.886H9.631
			c-0.49,0-0.886,0.396-0.886,0.886S9.141,22.028,9.631,22.028z"/>
		<path fill="#FFFFFF" d="M9.631,18.486h1.771c0.49,0,0.886-0.396,0.886-0.886s-0.396-0.886-0.886-0.886H9.631
			c-0.49,0-0.886,0.396-0.886,0.886S9.141,18.486,9.631,18.486z"/>
		<path fill="#FFFFFF" d="M9.631,14.943h1.771c0.49,0,0.886-0.396,0.886-0.886s-0.396-0.886-0.886-0.886H9.631
			c-0.49,0-0.886,0.396-0.886,0.886S9.141,14.943,9.631,14.943z"/>
		<path fill="#FFFFFF" d="M9.631,11.401h1.771c0.49,0,0.886-0.396,0.886-0.886s-0.396-0.886-0.886-0.886H9.631
			c-0.49,0-0.886,0.396-0.886,0.886S9.141,11.401,9.631,11.401z"/>
		<path fill="#FFFFFF" d="M9.631,7.858h1.771c0.49,0,0.886-0.396,0.886-0.886s-0.396-0.886-0.886-0.886H9.631
			c-0.49,0-0.886,0.396-0.886,0.886S9.141,7.858,9.631,7.858z"/>
		<path fill="#FFFFFF" d="M45.888,29.337l-5.314-7.085l-9.742,15.056l-5.439-7.251l-6.199,13.284l-5.039-6.72l-7.181,7.182V4.316
			c0-0.49-0.396-0.886-0.886-0.886S5.202,3.826,5.202,4.316v41.258v7.452H4.316c-0.49,0-0.886,0.396-0.886,0.886
			s0.396,0.886,0.886,0.886h0.886v0.886c0,0.49,0.396,0.886,0.886,0.886s0.886-0.396,0.886-0.886v-0.886h48.709h0.886V12.832
			L45.888,29.337z M51.255,53.025c0-0.489-0.397-0.886-0.886-0.886s-0.886,0.397-0.886,0.886h-3.543
			c0-0.489-0.397-0.886-0.886-0.886s-0.886,0.397-0.886,0.886h-3.543c0-0.489-0.397-0.886-0.886-0.886s-0.886,0.397-0.886,0.886
			h-3.543c0-0.489-0.397-0.886-0.886-0.886s-0.886,0.397-0.886,0.886h-3.543c0-0.489-0.397-0.886-0.886-0.886
			s-0.886,0.397-0.886,0.886h-3.543c0-0.489-0.397-0.886-0.886-0.886s-0.886,0.397-0.886,0.886h-3.543
			c0-0.489-0.397-0.886-0.886-0.886s-0.886,0.397-0.886,0.886h-3.542c0-0.489-0.397-0.886-0.886-0.886s-0.886,0.397-0.886,0.886
			H8.738c0-0.489-0.397-0.886-0.886-0.886s-0.886,0.397-0.886,0.886v-5.314v-1.405l6.989-6.989l5.588,7.45l0.735-1.576
			c0.068,0.422,0.417,0.748,0.857,0.748c0.489,0,0.886-0.397,0.886-0.886s-0.397-0.886-0.886-0.886
			c-0.166,0-0.312,0.058-0.444,0.136l5.05-10.821l5.189,6.919l0.112-0.174c0.159,0.233,0.415,0.397,0.72,0.397
			c0.489,0,0.886-0.397,0.886-0.886c0-0.436-0.321-0.782-0.736-0.855l8.761-13.539l4.183,5.577
			c-0.394,0.089-0.694,0.426-0.694,0.847c0,0.489,0.397,0.886,0.886,0.886c0.332,0,0.61-0.19,0.762-0.461l0.177,0.236l3.602-5.566
			c0.15,0.28,0.434,0.476,0.773,0.476c0.489,0,0.886-0.397,0.886-0.886c0-0.468-0.368-0.843-0.828-0.874l4.371-6.755v34.198h-3.535
			V53.025z"/>
	</g>
	<g>
		<path fill="#FFFFFF" d="M30.506,8.595c-0.214,0-0.387,0.173-0.387,0.387c0,0.214,0.173,0.387,0.387,0.387
			c1.97,0,3.572,1.602,3.572,3.572v0.08c0,1.97-1.602,3.572-3.572,3.572h-0.784c-0.095,0-0.187,0.035-0.258,0.098l-2.273,2.032
			V16.98c0-0.214-0.173-0.387-0.387-0.387s-0.387,0.173-0.387,0.387v2.608c0,0.153,0.09,0.291,0.229,0.353
			c0.051,0.023,0.105,0.034,0.158,0.034c0.093,0,0.186-0.034,0.258-0.098l2.808-2.51h0.636c2.397-0.001,4.347-1.951,4.347-4.347
			v-0.08C34.852,10.545,32.902,8.595,30.506,8.595z"/>
		<path fill="#FFFFFF" d="M24.877,16.594h-4.7c-1.97,0-3.572-1.602-3.572-3.572v-0.08c0-1.97,1.602-3.572,3.572-3.572h1.191
			c0.121,0,0.236-0.057,0.309-0.154s0.097-0.223,0.063-0.34c-0.096-0.335-0.145-0.676-0.145-1.013c0-2.017,1.641-3.659,3.659-3.659
			c2.017,0,3.659,1.641,3.659,3.659c0,0.337-0.049,0.677-0.145,1.013c-0.059,0.205,0.06,0.42,0.265,0.479
			c0.205,0.059,0.42-0.06,0.479-0.265c0.116-0.405,0.175-0.818,0.175-1.227c0-2.444-1.988-4.433-4.433-4.433
			c-2.444,0-4.433,1.988-4.433,4.433c0,0.244,0.021,0.489,0.063,0.733h-0.707c-2.397,0-4.346,1.95-4.346,4.346v0.08
			c0,2.397,1.95,4.346,4.346,4.346h4.7c0.214,0,0.387-0.173,0.387-0.387C25.265,16.767,25.091,16.594,24.877,16.594z"/>
	</g>
</g>
</svg>
