<?xml version="1.0" encoding="utf-8"?>
<!-- Generator: Adobe Illustrator 17.0.0, SVG Export Plug-In . SVG Version: 6.00 Build 0)  -->
<!DOCTYPE svg PUBLIC "-//W3C//DTD SVG 1.1//EN" "http://www.w3.org/Graphics/SVG/1.1/DTD/svg11.dtd">
<svg version="1.1" id="Layer_1" xmlns="http://www.w3.org/2000/svg" xmlns:xlink="http://www.w3.org/1999/xlink" x="0px" y="0px"
	 width="50px" height="50px" viewBox="0 0 50 50" enable-background="new 0 0 50 50" xml:space="preserve">
<g>
	<path fill="#FFFFFF" d="M38.271,17.013c-0.549,0-0.995,0.445-0.995,0.995c0,0.549,0.445,0.995,0.995,0.995
		c5.062,0,9.18,4.118,9.18,9.18v0.206c0,5.062-4.118,9.18-9.18,9.18h-2.015c-0.245,0-0.481,0.09-0.663,0.253l-5.842,5.221v-4.479
		c0-0.549-0.445-0.995-0.995-0.995c-0.549,0-0.995,0.445-0.995,0.995v6.702c0,0.392,0.23,0.748,0.588,0.908
		c0.13,0.058,0.269,0.087,0.406,0.087c0.24,0,0.477-0.087,0.663-0.253l7.216-6.449h1.635c6.161-0.002,11.171-5.013,11.171-11.171
		v-0.206C49.44,22.023,44.429,17.013,38.271,17.013z"/>
	<path fill="#FFFFFF" d="M23.806,37.567H11.728c-5.062,0-9.18-4.118-9.18-9.18v-0.206c0-5.062,4.118-9.18,9.18-9.18h3.062
		c0.312,0,0.607-0.147,0.795-0.396c0.188-0.25,0.248-0.573,0.161-0.873c-0.248-0.861-0.373-1.737-0.373-2.602
		c0-5.184,4.218-9.402,9.402-9.402s9.402,4.218,9.402,9.402c0,0.865-0.126,1.741-0.373,2.602c-0.152,0.528,0.153,1.079,0.681,1.231
		c0.528,0.152,1.079-0.153,1.231-0.681c0.299-1.04,0.451-2.101,0.451-3.152c0-6.281-5.11-11.391-11.391-11.391
		S13.384,8.849,13.384,15.13c0,0.626,0.054,1.256,0.161,1.883h-1.816c-6.159,0-11.169,5.01-11.169,11.169v0.206
		c0,6.159,5.01,11.169,11.169,11.169h12.078c0.549,0,0.995-0.445,0.995-0.995C24.801,38.013,24.355,37.567,23.806,37.567z"/>
</g>
</svg>
