<?xml version="1.0" encoding="utf-8"?>
<!-- Generator: Adobe Illustrator 17.0.0, SVG Export Plug-In . SVG Version: 6.00 Build 0)  -->
<!DOCTYPE svg PUBLIC "-//W3C//DTD SVG 1.1//EN" "http://www.w3.org/Graphics/SVG/1.1/DTD/svg11.dtd">
<svg version="1.1" id="Capa_1" xmlns="http://www.w3.org/2000/svg" xmlns:xlink="http://www.w3.org/1999/xlink" x="0px" y="0px"
	 width="80px" height="80px" viewBox="216 216 80 80" enable-background="new 216 216 80 80" xml:space="preserve">
<g>
	<g>
		<g>
			<path fill="#FFFFFF" d="M249.546,282.725c-0.613,0-1.113-0.497-1.113-1.111s0.497-1.111,1.113-1.111h12.91
				c0.613,0,1.111,0.497,1.111,1.111s-0.497,1.111-1.111,1.111H249.546z"/>
			<path fill="#FFFFFF" d="M250.98,287.132c-0.613,0-1.111-0.497-1.111-1.111s0.5-1.111,1.111-1.111h10.041
				c0.613,0,1.111,0.497,1.111,1.111s-0.497,1.111-1.111,1.111H250.98z"/>
			<path fill="#FFFFFF" d="M254.955,271.779c0,0.611-0.495,1.106-1.106,1.106s-1.106-0.495-1.106-1.106
				c-0.005-4.676-0.139-8.169-0.784-11.404c-0.639-3.197-1.782-6.161-3.811-9.817c-0.296-0.534-0.104-1.208,0.428-1.504
				c0.535-0.296,1.208-0.104,1.506,0.428c2.154,3.882,3.373,7.043,4.053,10.46C254.81,263.316,254.951,266.939,254.955,271.779z"/>
			<path fill="#FFFFFF" d="M259.259,271.779c0,0.611-0.495,1.106-1.106,1.106c-0.611,0-1.106-0.495-1.106-1.106
				c0.005-4.84,0.146-8.461,0.819-11.836c0.68-3.417,1.9-6.578,4.054-10.46c0.296-0.534,0.972-0.726,1.504-0.428
				c0.534,0.296,0.724,0.972,0.428,1.504c-2.029,3.656-3.172,6.622-3.811,9.817C259.398,263.61,259.261,267.103,259.259,271.779z"/>
			<path fill="#FFFFFF" d="M248.778,251.074c-0.583-0.185-0.902-0.81-0.717-1.393c0.187-0.583,0.81-0.902,1.393-0.717
				c0.773,0.25,1.441,0.585,2.059,0.895l0.06,0.032c0.965,0.486,1.768,0.865,2.365,0.379l1.365-1.113
				c0.474-0.384,1.173-0.312,1.557,0.162c0.384,0.474,0.312,1.173-0.162,1.557l-1.365,1.113c-1.701,1.384-3.091,0.71-4.766-0.13
				l-0.051-0.023C249.974,251.565,249.386,251.271,248.778,251.074z"/>
			<path fill="#FFFFFF" d="M257.112,225.876c0,0.613-0.497,1.111-1.111,1.111c-0.613,0-1.111-0.497-1.111-1.111v-4.303
				c0-0.613,0.497-1.111,1.111-1.111c0.613,0,1.111,0.497,1.111,1.111V225.876z"/>
			<path fill="#FFFFFF" d="M262.549,248.964c0.583-0.187,1.208,0.134,1.393,0.717c0.187,0.583-0.134,1.208-0.717,1.393
				c-0.608,0.197-1.196,0.493-1.74,0.766l-0.051,0.023c-1.673,0.84-3.066,1.515-4.766,0.13l-1.365-1.113
				c-0.474-0.384-0.546-1.083-0.162-1.557c0.384-0.474,1.083-0.546,1.557-0.162l1.365,1.113c0.597,0.486,1.397,0.104,2.365-0.379
				l0.06-0.032C261.107,249.55,261.776,249.214,262.549,248.964z"/>
			<path fill="#FFFFFF" d="M269.973,237.725c3.575,3.575,5.789,8.517,5.789,13.972c0,2.133-0.342,4.195-0.972,6.127
				c-0.65,1.997-1.615,3.859-2.83,5.52c-2.038,2.788-3.692,4.618-4.977,6.041c-2.311,2.557-3.325,3.677-3.325,7.415
				c0,0.613-0.497,1.111-1.111,1.111h-0.028h-6.471h-6.501c-0.613,0-1.113-0.497-1.113-1.111c0-3.702-1.034-4.833-3.329-7.348
				l-0.002-0.002l-0.002,0.002c-1.298-1.421-2.968-3.251-5.058-6.108c-1.215-1.661-2.179-3.526-2.83-5.523
				c-0.629-1.93-0.972-3.993-0.972-6.124c0-2.67,0.535-5.224,1.502-7.556l0.021-0.044c1.004-2.406,2.466-4.572,4.269-6.372
				c1.814-1.814,3.991-3.281,6.416-4.285v-0.002c2.332-0.967,4.886-1.502,7.556-1.502c2.665,0,5.217,0.534,7.552,1.502
				C265.978,234.442,268.159,235.911,269.973,237.725L269.973,237.725z M273.539,251.697c0-4.842-1.964-9.227-5.136-12.401
				c-1.622-1.622-3.554-2.927-5.692-3.811c-2.059-0.854-4.327-1.326-6.71-1.326c-2.381,0-4.648,0.472-6.705,1.326v-0.002
				l-0.005,0.002c-2.138,0.884-4.067,2.189-5.689,3.811c-1.606,1.606-2.904,3.521-3.79,5.636l-0.023,0.06
				c-0.851,2.057-1.326,4.324-1.326,6.705c0,1.902,0.303,3.734,0.858,5.439c0.581,1.774,1.434,3.427,2.508,4.898
				c2.006,2.744,3.639,4.532,4.91,5.925l-0.002,0.002c2.471,2.7,3.699,4.051,3.892,7.73h5.416h5.416
				c0.19-3.704,1.395-5.041,3.878-7.785c1.24-1.372,2.834-3.137,4.831-5.867c1.073-1.469,1.927-3.121,2.506-4.896
				C273.236,255.431,273.539,253.601,273.539,251.697z"/>
			<path fill="#FFFFFF" d="M252.415,291.537c-0.613,0-1.111-0.497-1.111-1.111s0.497-1.111,1.111-1.111h7.172
				c0.613,0,1.111,0.497,1.111,1.111s-0.497,1.111-1.111,1.111H252.415z"/>
			<path fill="#FFFFFF" d="M269.626,229.821c-0.303,0.527-0.981,0.71-1.511,0.407c-0.527-0.303-0.71-0.981-0.407-1.511l2.152-3.727
				c0.303-0.527,0.981-0.71,1.511-0.407c0.53,0.303,0.71,0.981,0.407,1.511L269.626,229.821z"/>
			<path fill="#FFFFFF" d="M244.292,228.72c0.303,0.527,0.123,1.205-0.407,1.509c-0.527,0.303-1.205,0.12-1.508-0.407l-2.152-3.727
				c-0.303-0.527-0.12-1.205,0.407-1.508c0.53-0.303,1.208-0.12,1.511,0.407L244.292,228.72z"/>
			<path fill="#FFFFFF" d="M234.614,237.583c0.527,0.303,0.71,0.981,0.407,1.511c-0.303,0.527-0.981,0.71-1.509,0.407l-3.727-2.152
				c-0.53-0.303-0.713-0.981-0.409-1.508c0.303-0.53,0.981-0.71,1.511-0.407L234.614,237.583z"/>
			<path fill="#FFFFFF" d="M278.49,239.501c-0.53,0.303-1.208,0.12-1.511-0.407c-0.303-0.53-0.12-1.208,0.407-1.511l3.727-2.152
				c0.53-0.303,1.208-0.12,1.511,0.407c0.303,0.527,0.12,1.208-0.407,1.511L278.49,239.501z"/>
			<path fill="#FFFFFF" d="M244.463,256.086c0.236,0.562-0.028,1.212-0.59,1.448c-0.562,0.236-1.212-0.028-1.448-0.59
				c-0.377-0.893-0.671-1.835-0.865-2.806c-0.192-0.96-0.296-1.941-0.296-2.927c0-0.613,0.5-1.111,1.111-1.111
				c0.613,0,1.111,0.5,1.111,1.111c0,0.868,0.086,1.703,0.245,2.494C243.894,254.529,244.144,255.329,244.463,256.086
				L244.463,256.086z M244.463,246.334c-0.236,0.562-0.886,0.826-1.448,0.59s-0.826-0.886-0.59-1.448
				c0.372-0.882,0.828-1.717,1.349-2.492l0.002-0.002l-0.002-0.002c0.535-0.791,1.141-1.527,1.805-2.191
				c0.657-0.657,1.393-1.263,2.193-1.802v-0.002c0.768-0.518,1.608-0.974,2.496-1.349c0.891-0.377,1.83-0.671,2.804-0.865
				c0.96-0.194,1.946-0.296,2.929-0.296c0.613,0,1.111,0.497,1.111,1.111s-0.497,1.111-1.111,1.111c-0.87,0-1.707,0.086-2.496,0.243
				c-0.826,0.164-1.624,0.416-2.378,0.736c-0.733,0.31-1.441,0.696-2.115,1.15l0,0h-0.002c-0.655,0.44-1.279,0.958-1.858,1.536
				c-0.571,0.571-1.09,1.198-1.536,1.862l-0.002-0.002C245.162,244.888,244.775,245.596,244.463,246.334z"/>
		</g>
	</g>
</g>
</svg>
