<?xml version="1.0" encoding="utf-8"?>
<!-- Generator: Adobe Illustrator 17.0.0, SVG Export Plug-In . SVG Version: 6.00 Build 0)  -->
<!DOCTYPE svg PUBLIC "-//W3C//DTD SVG 1.1//EN" "http://www.w3.org/Graphics/SVG/1.1/DTD/svg11.dtd">
<svg version="1.1" id="Capa_1" xmlns="http://www.w3.org/2000/svg" xmlns:xlink="http://www.w3.org/1999/xlink" x="0px" y="0px"
	 width="50px" height="50px" viewBox="0 0 50 50" enable-background="new 0 0 50 50" xml:space="preserve">
<g>
	<g>
		<path fill="#FFFFFF" d="M24.999,8.751c0.688,0,1.247-0.559,1.247-1.247V2.616c0-0.688-0.559-1.247-1.247-1.247
			c-0.688,0-1.247,0.559-1.247,1.247v4.889C23.752,8.193,24.311,8.751,24.999,8.751z"/>
		<path fill="#FFFFFF" d="M24.999,41.253c-0.688,0-1.247,0.559-1.247,1.247v4.885c0,0.688,0.559,1.247,1.247,1.247
			s1.247-0.559,1.247-1.247v-4.885C26.246,41.81,25.688,41.253,24.999,41.253z"/>
		<path fill="#FFFFFF" d="M11.746,13.509c0.244,0.244,0.562,0.365,0.881,0.365c0.319,0,0.637-0.122,0.881-0.365
			c0.487-0.487,0.487-1.276,0-1.762l-3.455-3.455c-0.486-0.487-1.276-0.487-1.762,0s-0.487,1.276,0,1.762L11.746,13.509z"/>
		<path fill="#FFFFFF" d="M38.254,36.491c-0.487-0.487-1.276-0.486-1.763-0.001c-0.487,0.487-0.487,1.276-0.001,1.763l3.455,3.458
			c0.244,0.244,0.563,0.365,0.882,0.365s0.637-0.122,0.881-0.364c0.487-0.487,0.487-1.276,0.001-1.763L38.254,36.491z"/>
		<path fill="#FFFFFF" d="M8.749,25.001c0-0.688-0.559-1.247-1.247-1.247H2.616c-0.688,0-1.247,0.559-1.247,1.247
			s0.559,1.247,1.247,1.247h4.887C8.191,26.248,8.749,25.689,8.749,25.001z"/>
		<path fill="#FFFFFF" d="M47.384,23.754h-4.887c-0.688,0-1.247,0.559-1.247,1.247c0,0.688,0.559,1.247,1.247,1.247h4.887
			c0.688,0,1.247-0.559,1.247-1.247C48.631,24.312,48.073,23.754,47.384,23.754z"/>
		<path fill="#FFFFFF" d="M11.746,36.491L8.29,39.949c-0.486,0.487-0.486,1.276,0.001,1.763c0.244,0.244,0.562,0.364,0.881,0.364
			c0.319,0,0.639-0.122,0.882-0.365l3.455-3.458c0.486-0.487,0.486-1.276-0.001-1.763C13.021,36.003,12.232,36.005,11.746,36.491z"
			/>
		<path fill="#FFFFFF" d="M37.372,13.875c0.319,0,0.638-0.122,0.881-0.365l3.455-3.455c0.487-0.487,0.487-1.276,0-1.762
			c-0.487-0.487-1.276-0.487-1.762,0l-3.455,3.455c-0.487,0.487-0.487,1.276,0,1.762C36.733,13.753,37.053,13.875,37.372,13.875z"/>
		<path fill="#FFFFFF" d="M25,11.065c-7.685,0-13.937,6.251-13.937,13.936c0,7.685,6.252,13.937,13.937,13.937
			c7.685,0,13.937-6.252,13.937-13.937C38.937,17.316,32.685,11.065,25,11.065z M25,36.445c-6.311,0-11.444-5.134-11.444-11.444
			c0-6.309,5.134-11.441,11.444-11.441s11.444,5.134,11.444,11.441C36.444,31.311,31.31,36.445,25,36.445z"/>
	</g>
</g>
</svg>
