<?xml version="1.0" encoding="utf-8"?>
<!-- Generator: Adobe Illustrator 19.2.1, SVG Export Plug-In . SVG Version: 6.00 Build 0)  -->
<svg version="1.1" id="Layer_1" xmlns="http://www.w3.org/2000/svg" xmlns:xlink="http://www.w3.org/1999/xlink" x="0px" y="0px"
	 viewBox="0 0 50 50" style="enable-background:new 0 0 50 50;" xml:space="preserve">
<g>
	<g>
		<g>
			<path d="M17.7,34.7c0.1-0.1,0.1-0.1,0.2-0.2L30.5,22c0.8-0.8,0.8-1.7,0-2.5c-0.8-0.8-1.9-0.6-2.5,0L15.5,32
				c-0.1,0.1-0.1,0.1-0.2,0.2c-2-1-4.4-0.6-6,1c-2.1,2.1-2.1,5.4,0,7.5s5.4,2.1,7.5,0C18.4,39.1,18.7,36.7,17.7,34.7z"/>
			<path d="M21.8,35.7l22.6-22.6c2.1-2.1,2.1-5.4,0-7.5s-5.5-2-7.5,0L14.2,28.2c-2.6-0.4-5.5,0.5-7.5,2.5c-3.5,3.5-3.5,9,0,12.5
				s9,3.5,12.5,0C21.3,41.2,22.1,38.4,21.8,35.7z M8,42c-2.8-2.8-2.8-7.3,0-10c1.9-1.9,4.5-2.5,6.9-1.9L38,6.9c1.4-1.4,3.6-1.4,5,0
				s1.4,3.6,0,5L19.9,35.1c0.6,2.4,0,5-1.9,6.9C15.2,44.8,10.7,44.8,8,42z"/>
		</g>
	</g>
</g>
</svg>
