<?xml version="1.0" encoding="utf-8"?>
<!-- Generator: Adobe Illustrator 17.0.0, SVG Export Plug-In . SVG Version: 6.00 Build 0)  -->
<!DOCTYPE svg PUBLIC "-//W3C//DTD SVG 1.1//EN" "http://www.w3.org/Graphics/SVG/1.1/DTD/svg11.dtd">
<svg version="1.1" id="Capa_1" xmlns="http://www.w3.org/2000/svg" xmlns:xlink="http://www.w3.org/1999/xlink" x="0px" y="0px"
	 width="80px" height="80px" viewBox="216 216 80 80" enable-background="new 216 216 80 80" xml:space="preserve">
<g>
	<path fill="#FFFFFF" d="M278.266,243.09c-1.202,0-2.388,0.142-3.543,0.418l-0.165-4.213c-0.025-0.642-0.553-1.15-1.196-1.15
		h-14.958v-6.54c0-0.661-0.536-1.197-1.197-1.197c-6.16,0-11.834,3.097-15.18,8.284c-0.002,0.003-0.003,0.006-0.005,0.01
		c-0.109,0.172-0.177,0.374-0.185,0.592l-0.134,3.407h-7.661l-6.757-10.729l0.533-0.341c0.557-0.356,0.719-1.097,0.363-1.653
		c-0.356-0.556-1.096-0.719-1.653-0.363l-7.476,4.787c-0.557,0.356-0.719,1.097-0.363,1.653c0.229,0.357,0.615,0.552,1.009,0.552
		c0.221,0,0.444-0.061,0.644-0.189l0.448-0.287l19.738,36.535l-0.34,8.663c-0.013,0.325,0.108,0.642,0.333,0.876
		c0.226,0.235,0.537,0.367,0.863,0.367h33.626c0.326,0,0.637-0.133,0.863-0.367c0.226-0.235,0.346-0.551,0.333-0.876l-0.312-7.956
		c0.782,0.122,1.575,0.185,2.371,0.185c8.4,0,15.234-6.834,15.234-15.234C293.5,249.924,286.666,243.09,278.266,243.09z
		 M278.266,271.165c-0.832,0-1.658-0.08-2.467-0.237l-0.097-2.474c0.833,0.211,1.691,0.318,2.564,0.318
		c5.761,0,10.447-4.687,10.447-10.448c0-5.761-4.687-10.447-10.447-10.447c-1.142,0-2.275,0.19-3.35,0.553l-0.097-2.476
		c1.117-0.311,2.272-0.47,3.447-0.47c7.08,0,12.841,5.76,12.841,12.841C291.106,265.405,285.346,271.165,278.266,271.165z
		 M270.035,277.786h3.637l0.094,2.394h-31.137l0.094-2.394h22.526c0.661,0,1.197-0.536,1.197-1.197s-0.536-1.197-1.197-1.197
		h-22.432l0.391-9.963c0.026-0.66-0.488-1.217-1.149-1.243c-0.659-0.026-1.217,0.488-1.243,1.149l-0.103,2.636l-17.901-33.135
		l2.458-1.574l15.819,25.118l-0.085,2.172c-0.026,0.66,0.488,1.217,1.149,1.243c0.016,0.001,0.032,0.001,0.048,0.001
		c0.639,0,1.17-0.505,1.195-1.15l0.789-20.108h28.028l1.231,31.385c0,0.009,0.001,0.018,0.001,0.027l0.135,3.442h-3.543
		c-0.661,0-1.197,0.536-1.197,1.197S269.374,277.786,270.035,277.786z M256.01,232.847v5.298h-10.582
		C248.122,235.062,251.902,233.158,256.01,232.847z M275.015,250.96c1.019-0.451,2.129-0.69,3.25-0.69
		c4.441,0,8.054,3.613,8.054,8.054s-3.613,8.054-8.054,8.054c-0.917,0-1.81-0.154-2.663-0.454L275.015,250.96z M241.609,245.095
		l-0.355,9.058l-5.704-9.058H241.609L241.609,245.095z"/>
</g>
</svg>
