<?xml version="1.0" encoding="utf-8"?>
<!-- Generator: Adobe Illustrator 17.0.0, SVG Export Plug-In . SVG Version: 6.00 Build 0)  -->
<!DOCTYPE svg PUBLIC "-//W3C//DTD SVG 1.1//EN" "http://www.w3.org/Graphics/SVG/1.1/DTD/svg11.dtd">
<svg version="1.1" id="Layer_1" xmlns="http://www.w3.org/2000/svg" xmlns:xlink="http://www.w3.org/1999/xlink" x="0px" y="0px"
	 width="841.89px" height="595.28px" viewBox="0 0 841.89 595.28" enable-background="new 0 0 841.89 595.28" xml:space="preserve">
<g>
	<rect x="0" y="0.873" fill="#46B732" width="839.426" height="593.534"/>
	<polygon id="triangle36_635_" fill="#008621" points="564.537,529.967 471.753,573.66 462.237,516.523 	"/>
	<polygon id="triangle36_633_" fill="#00822A" points="355.179,69.514 240.984,100.603 264.775,51.869 	"/>
	<polygon id="triangle36_631_" fill="#429715" points="537.177,151.018 456.289,103.964 389.675,139.254 	"/>
	<polygon id="triangle36_629_" fill="#549D00" points="193.403,510.642 171.991,424.937 284.997,453.505 	"/>
	<polygon id="triangle36_627_" fill="#008A22" points="171.991,424.937 51.849,344.273 107.757,472.831 	"/>
	<polygon id="triangle36_625_" fill="#007F28" points="202.919,581.222 193.403,510.642 269.533,513.162 	"/>
	<polygon id="triangle36_619_" fill="#007136" points="690.627,54.39 563.347,5.656 560.968,84.638 	"/>
	<polygon id="triangle36_617_" fill="#007635" points="563.347,5.656 499.112,27.502 560.968,84.638 	"/>
	<polygon id="triangle36_615_" fill="#007C32" points="690.627,54.39 560.968,84.638 648.993,105.644 	"/>
	<polygon id="triangle36_613_" fill="#007733" points="690.627,54.39 648.993,105.644 748.914,160.26 	"/>
	<polygon id="triangle36_611_" fill="#008326" points="748.914,160.26 690.627,54.39 819.096,76.236 	"/>
	<polygon id="triangle36_609_" fill="#007733" points="786.979,42.626 690.627,54.39 819.096,76.236 	"/>
	<polygon id="triangle36_607_" fill="#529B0C" points="679.921,255.208 648.993,199.752 519.334,264.45 	"/>
	<polygon id="triangle36_605_" fill="#5BA003" points="648.993,199.752 508.629,211.515 519.334,264.45 	"/>
	<polygon id="triangle36_603_" fill="#66A500" points="679.921,255.208 519.334,264.45 612.118,338.392 	"/>
	<polygon id="triangle36_601_" fill="#4E9B0C" points="679.921,255.208 612.118,338.392 679.921,343.433 	"/>
	<polygon id="triangle36_599_" fill="#47990D" points="679.921,343.433 612.118,338.392 666.836,400.57 	"/>
	<polygon fill="#007532" points="760.48,240.855 760.48,318.364 756.526,280.417 	"/>
	<polygon fill="#007F29" points="760.48,318.364 760.48,399.48 756.526,381.246 756.526,280.417 	"/>
	<polygon id="triangle36_591_" fill="#007233" points="202.919,581.222 193.403,510.642 88.724,593.826 	"/>
	<polygon id="triangle36_589_" fill="#339020" points="560.968,84.638 537.177,151.018 456.289,103.964 	"/>
	<polygon id="triangle36_587_" fill="#007631" points="240.984,100.603 87.535,136.733 176.749,16.579 	"/>
	<polygon id="triangle36_575_" fill="#007931" points="240.984,100.603 176.749,16.579 264.775,51.869 	"/>
	<polygon id="triangle36_573_" fill="#00812C" points="560.968,84.638 499.112,27.502 463.426,70.354 	"/>
	<polygon id="triangle36_571_" fill="#188925" points="560.968,84.638 456.289,103.964 463.426,70.354 	"/>
	<polygon id="triangle36_569_" fill="#00822B" points="748.914,160.26 648.993,105.644 706.091,173.704 	"/>
	<polygon id="triangle36_567_" fill="#2D901D" points="679.921,255.208 648.993,199.752 706.091,173.704 	"/>
	<polygon id="triangle36_565_" fill="#00802C" points="748.914,160.26 706.091,173.704 765.567,245.965 	"/>
	<polygon id="triangle36_563_" fill="#1F8C22" points="706.091,173.704 679.921,255.208 765.567,245.965 	"/>
	<polygon id="triangle36_559_" fill="#008525" points="765.567,245.965 679.921,255.208 772.704,315.705 	"/>
	<polygon id="triangle36_557_" fill="#2B911B" points="679.921,343.433 679.921,255.208 772.704,315.705 	"/>
	<polygon id="triangle36_549_" fill="#128B20" points="750.103,455.186 666.836,400.57 676.352,450.144 	"/>
	<polygon id="triangle36_547_" fill="#2F9115" points="193.403,510.642 171.991,424.937 107.757,472.831 	"/>
	<polygon id="triangle36_545_" fill="#00782E" points="193.403,510.642 88.724,593.826 107.757,472.831 	"/>
	<polygon id="triangle36_537_" fill="#66A500" points="462.237,516.523 373.022,485.434 414.656,377.883 	"/>
	<polygon id="triangle36_535_" fill="#7DB100" points="612.118,338.392 519.334,264.45 489.596,313.185 	"/>
	<polygon id="triangle36_533_" fill="#7AB100" points="519.334,264.45 508.629,211.515 377.78,230 	"/>
	<polygon id="triangle36_531_" fill="#86B400" points="519.334,264.45 489.596,313.185 377.78,230 	"/>
	<polygon id="triangle36_529_" fill="#93BA00" points="489.596,313.185 414.656,377.883 377.78,230 	"/>
	<polygon id="triangle36_527_" fill="#87B400" points="414.656,377.883 275.48,322.427 377.78,230 	"/>
	<polygon id="triangle36_525_" fill="#75AB00" points="377.78,230 275.48,322.427 238.605,219.918 	"/>
	<polygon id="triangle36_523_" fill="#2C8D22" points="240.984,100.603 87.535,136.733 238.605,219.918 	"/>
	<polygon id="triangle36_521_" fill="#309020" points="110.136,237.563 87.535,136.733 238.605,219.918 	"/>
	<polygon id="triangle36_519_" fill="#68A900" points="275.48,322.427 238.605,219.918 192.213,308.143 	"/>
	<polygon id="triangle36_517_" fill="#66A500" points="275.48,322.427 171.991,424.937 192.213,308.143 	"/>
	<polygon id="triangle36_515_" fill="#539A0F" points="238.605,219.918 110.136,237.563 192.213,308.143 	"/>
	<polygon id="triangle36_513_" fill="#379317" points="171.991,424.937 51.849,344.273 192.213,308.143 	"/>
	<polygon id="triangle36_511_" fill="#2F8F1B" points="110.136,237.563 51.849,344.273 192.213,308.143 	"/>
	<polygon id="triangle36_509_" fill="#579E0A" points="537.177,151.018 508.629,211.515 389.675,139.254 	"/>
	<polygon id="triangle36_507_" fill="#6DA700" points="508.629,211.515 377.78,230 389.675,139.254 	"/>
	<polygon id="triangle36_505_" fill="#35931E" points="456.289,103.964 355.179,69.514 389.675,139.254 	"/>
	<polygon id="triangle36_503_" fill="#6CA700" points="377.78,230 238.605,219.918 389.675,139.254 	"/>
	<polygon id="triangle36_501_" fill="#2D8E22" points="355.179,69.514 240.984,100.603 389.675,139.254 	"/>
	<polygon id="triangle36_499_" fill="#469817" points="240.984,100.603 238.605,219.918 389.675,139.254 	"/>
	<polygon id="triangle36_497_" fill="#369416" points="676.352,450.144 666.836,400.57 562.157,410.653 	"/>
	<polygon id="triangle36_495_" fill="#529D04" points="666.836,400.57 612.118,338.392 562.157,410.653 	"/>
	<polygon id="triangle36_493_" fill="#73AB00" points="612.118,338.392 489.596,313.185 562.157,410.653 	"/>
	<polygon id="triangle36_491_" fill="#369213" points="564.537,529.967 462.237,516.523 562.157,410.653 	"/>
	<polygon id="triangle36_489_" fill="#82B100" points="489.596,313.185 414.656,377.883 562.157,410.653 	"/>
	<polygon id="triangle36_487_" fill="#66A700" points="462.237,516.523 414.656,377.883 562.157,410.653 	"/>
	<polygon id="triangle36_485_" fill="#008625" points="706.091,173.704 648.993,105.644 608.549,159.42 	"/>
	<polygon id="triangle36_483_" fill="#2A901E" points="706.091,173.704 648.993,199.752 608.549,159.42 	"/>
	<polygon id="triangle36_481_" fill="#008826" points="648.993,105.644 560.968,84.638 608.549,159.42 	"/>
	<polygon id="triangle36_479_" fill="#469812" points="648.993,199.752 508.629,211.515 608.549,159.42 	"/>
	<polygon id="triangle36_477_" fill="#2A901E" points="560.968,84.638 537.177,151.018 608.549,159.42 	"/>
	<polygon id="triangle36_475_" fill="#4D9C0E" points="537.177,151.018 508.629,211.515 608.549,159.42 	"/>
	<polygon id="triangle36_473_" fill="#69A800" points="414.656,377.883 373.022,485.434 284.997,453.505 	"/>
	<polygon id="triangle36_471_" fill="#7CAF00" points="414.656,377.883 275.48,322.427 284.997,453.505 	"/>
	<polygon id="triangle36_469_" fill="#42900D" points="373.022,485.434 269.533,513.162 284.997,453.505 	"/>
	<polygon id="triangle36_467_" fill="#5FA200" points="275.48,322.427 171.991,424.937 284.997,453.505 	"/>
	<polygon id="triangle36_465_" fill="#42951D" points="269.533,513.162 193.403,510.642 284.997,453.505 	"/>
	<polygon id="triangle36_463_" fill="#008525" points="750.103,455.186 676.352,450.144 635.908,491.316 	"/>
	<polygon id="triangle36_461_" fill="#309217" points="676.352,450.144 562.157,410.653 635.908,491.316 	"/>
	<polygon id="triangle36_457_" fill="#3D9516" points="564.537,529.967 562.157,410.653 635.908,491.316 	"/>
	<polygon id="triangle36_455_" fill="#007631" points="786.979,581.222 750.103,455.186 635.908,491.316 	"/>
	<polygon id="triangle36_451_" fill="#559E00" points="462.237,516.523 373.022,485.434 337.336,550.973 	"/>
	<polygon id="triangle36_449_" fill="#3E9611" points="373.022,485.434 269.533,513.162 337.336,550.973 	"/>
	<polygon id="triangle36_447_" fill="#1A8C19" points="269.533,513.162 202.919,581.222 337.336,550.973 	"/>
	<polygon id="triangle36_441_" fill="#008724" points="471.753,573.66 462.237,516.523 402.76,587.104 	"/>
	<polygon id="triangle36_439_" fill="#008621" points="462.237,516.523 337.336,550.973 402.76,587.104 	"/>
	<polygon id="triangle36_437_" fill="#007E27" points="337.336,550.973 202.919,581.222 402.76,587.104 	"/>
	<polygon id="triangle36_435_" fill="#007931" points="202.919,581.222 88.724,593.826 402.76,587.104 	"/>
	<polygon id="triangle36_433_" fill="#007F2F" points="499.112,27.502 463.426,70.354 407.518,56.07 	"/>
	<polygon id="triangle36_429_" fill="#0F8826" points="463.426,70.354 456.289,103.964 407.518,56.07 	"/>
	<polygon id="triangle36_427_" fill="#0A8925" points="456.289,103.964 355.179,69.514 407.518,56.07 	"/>
	<rect x="0" y="0.873" fill="none" width="839.426" height="593.534"/>
	<polygon fill="#007C2C" points="578.644,594.409 564.536,529.967 471.753,573.66 532.46,594.409 	"/>
	<polygon fill="#007E28" points="589.981,594.409 635.909,491.316 564.536,529.967 578.644,594.409 	"/>
	<polygon fill="#007038" points="697.784,594.409 786.979,581.222 635.909,491.316 589.981,594.409 	"/>
	<polygon fill="#00792B" points="532.46,594.409 471.753,573.66 402.76,587.104 456.61,594.409 	"/>
	<polygon fill="#007233" points="456.61,594.409 402.76,587.104 88.724,593.826 105.04,594.409 	"/>
	<polygon fill="#006A3B" points="176.749,16.579 0,53.736 0,74.902 87.535,136.733 	"/>
	<polygon fill="#00623F" points="105.04,594.409 88.724,593.826 0,514.662 0,594.409 	"/>
	<polygon fill="#007931" points="0,336.043 0,422.848 51.849,344.273 	"/>
	<polygon fill="#00822A" points="110.136,237.563 0,223.2 0,275.999 51.849,344.273 	"/>
	<polygon fill="#007733" points="0,275.999 0,336.043 51.849,344.273 	"/>
	<polygon fill="#007B32" points="0,189.111 0,223.2 110.136,237.563 	"/>
	<polygon fill="#007E2E" points="87.535,136.733 0,168.625 0,189.111 110.136,237.563 	"/>
	<polygon fill="#00633D" points="0,74.902 0,113.389 87.535,136.733 	"/>
	<polygon fill="#006B3B" points="0,113.389 0,168.625 87.535,136.733 	"/>
	<polygon fill="#00623F" points="81.587,8.176 0,0.972 0,53.736 176.749,16.579 	"/>
	<polygon fill="#006C3A" points="88.724,593.826 107.757,472.831 0,512.543 0,514.662 88.724,593.826 	"/>
	<polygon fill="#007F2C" points="51.849,344.273 0,422.848 0,446.713 107.757,472.831 	"/>
	<polygon fill="#006A37" points="0,446.713 0,512.543 107.757,472.831 	"/>
	<polygon fill="none" points="841.89,268.226 841.89,268.226 834.56,241.764 	"/>
	<polygon fill="#00623F" points="841.89,20.778 819.096,76.236 841.89,81.603 	"/>
	<polygon fill="#00633D" points="841.89,81.603 819.096,76.236 748.914,160.26 841.89,99.425 	"/>
	<polygon fill="#00653B" points="841.89,99.425 748.914,160.26 841.89,204.044 	"/>
	<polygon fill="#00653B" points="841.89,268.226 841.89,228.303 834.56,241.764 	"/>
	<polygon fill="#158C1F" points="841.89,380.472 679.921,343.433 666.836,400.57 841.89,381.61 	"/>
	<polygon fill="#006A37" points="841.89,383.867 750.104,455.186 841.89,470.559 	"/>
	<polygon fill="#00812A" points="666.836,400.57 750.103,455.186 841.89,383.867 841.89,381.61 	"/>
	<polygon fill="#007333" points="841.89,204.044 748.914,160.26 765.567,245.965 841.89,213.47 	"/>
	<polygon fill="#007234" points="841.89,228.303 841.89,213.47 765.567,245.965 834.56,241.764 	"/>
	<polygon fill="#007532" points="841.89,268.226 834.56,241.764 765.567,245.965 841.89,278.956 	"/>
	<polygon fill="#007D2C" points="841.89,278.956 765.567,245.965 772.705,315.705 841.89,282.057 	"/>
	<polygon fill="#007433" points="841.89,282.057 772.705,315.705 841.89,378.195 	"/>
	<polygon fill="#007F29" points="841.89,378.195 772.705,315.705 679.921,343.433 841.89,380.472 	"/>
	<polygon fill="#00663A" points="841.89,470.559 750.104,455.186 786.979,581.222 828.472,588.454 786.979,581.222 697.784,594.409 
		841.89,594.409 	"/>
	<polygon fill="none" points="736.733,0.871 736.733,0.871 756.646,17.419 	"/>
	<polygon fill="#00623F" points="756.646,17.419 736.733,0.871 721.343,0.871 690.627,54.39 786.979,42.626 786.979,42.626 	"/>
	<polygon fill="#00663A" points="621.343,0.871 563.347,5.655 690.627,54.39 721.343,0.871 	"/>
	<polygon fill="#00623E" points="499.484,0.871 563.347,5.655 621.343,0.871 	"/>
	<polygon fill="#007038" points="425.595,0.871 499.112,27.502 563.347,5.655 499.484,0.871 	"/>
	<polygon fill="#007C32" points="389.289,0.871 264.775,51.869 355.179,69.514 401.608,0.871 	"/>
	<polygon fill="#007038" points="335.704,0.871 176.749,16.579 176.749,16.579 176.749,16.579 264.775,51.869 389.289,0.871 	"/>
	<polygon fill="#007933" points="406.462,0.871 407.518,56.07 499.112,27.502 425.595,0.871 	"/>
	<polygon fill="#007D32" points="401.608,0.871 355.179,69.514 407.518,56.07 406.462,0.871 	"/>
	<polygon fill="#00623E" points="335.704,0.871 0,0.871 0,0.972 81.587,8.176 176.749,16.579 176.749,16.579 	"/>
	<polygon fill="#00623E" points="756.646,17.419 786.979,42.626 786.979,42.626 819.096,76.236 841.89,20.778 841.89,0.871 
		736.733,0.871 	"/>
</g>
</svg>
