<?xml version="1.0" encoding="utf-8"?>
<!-- Generator: Adobe Illustrator 17.0.0, SVG Export Plug-In . SVG Version: 6.00 Build 0)  -->
<!DOCTYPE svg PUBLIC "-//W3C//DTD SVG 1.1//EN" "http://www.w3.org/Graphics/SVG/1.1/DTD/svg11.dtd">
<svg version="1.1" id="Layer_1" xmlns="http://www.w3.org/2000/svg" xmlns:xlink="http://www.w3.org/1999/xlink" x="0px" y="0px"
	 width="70.9px" height="70px" viewBox="0 0 70.9 70" enable-background="new 0 0 70.9 70" xml:space="preserve">
<g>
	<g>
		<path fill="#FFFFFF" d="M60.145,8.876C53.542,3.152,44.772,0,35.45,0S17.358,3.152,10.755,8.876
			C4.11,14.636,0.45,22.307,0.45,30.476c0,0.505,0.014,1.017,0.043,1.522c0.244,4.314,2.532,8.014,6.121,9.899
			c3.202,1.682,6.802,1.571,9.879-0.302c1.515-0.923,3.104-1.726,4.752-2.409l-0.588,19.427c-0.137,2.998,0.929,5.845,3.002,8.017
			C25.733,68.803,28.531,70,31.536,70h7.828c3.005,0,5.803-1.197,7.878-3.371c2.073-2.172,3.139-5.018,3.002-8.017l-0.588-19.427
			c1.647,0.682,3.236,1.486,4.752,2.409c1.627,0.991,3.401,1.489,5.185,1.489c1.588,0,3.185-0.395,4.693-1.187
			c3.588-1.885,5.876-5.585,6.121-9.899c0.028-0.504,0.043-1.016,0.043-1.522C70.45,22.307,66.79,14.636,60.145,8.876z
			 M48.19,58.682c0,0.006,0,0.011,0.001,0.017c0.113,2.435-0.752,4.748-2.435,6.511c-1.684,1.764-3.953,2.735-6.391,2.735h-7.828
			c-2.438,0-4.708-0.971-6.391-2.735c-1.683-1.764-2.548-4.076-2.435-6.511c0-0.006,0-0.011,0.001-0.017L23.324,38.4
			c3.827-1.31,7.923-1.989,12.126-1.989S43.75,37.09,47.576,38.4L48.19,58.682z M68.356,31.881c-0.203,3.586-2.082,6.65-5.025,8.196
			c-2.547,1.338-5.41,1.251-7.854-0.238c-5.889-3.587-12.815-5.483-20.026-5.483s-14.137,1.896-20.026,5.483
			c-2.444,1.489-5.307,1.576-7.854,0.238c-2.943-1.546-4.822-4.609-5.025-8.195c-0.026-0.466-0.04-0.939-0.04-1.406
			c0-15.671,14.779-28.421,32.945-28.421s32.945,12.75,32.945,28.421C68.395,30.943,68.382,31.416,68.356,31.881z"/>
		<path fill="#FFFFFF" d="M7.258,22.791c0.133,0.058,0.272,0.085,0.408,0.085c0.397,0,0.775-0.231,0.943-0.619
			c0.307-0.708,0.659-1.412,1.046-2.094c0.28-0.494,0.107-1.121-0.387-1.401c-0.493-0.28-1.121-0.107-1.401,0.387
			c-0.422,0.745-0.807,1.515-1.143,2.289C6.499,21.96,6.737,22.565,7.258,22.791z"/>
		<path fill="#FFFFFF" d="M10.491,36.533c-1.662-0.412-3.411-2.087-3.57-4.9c-0.022-0.383-0.033-0.772-0.033-1.158
			c0-1.355,0.136-2.714,0.404-4.039c0.112-0.556-0.247-1.098-0.804-1.211c-0.556-0.112-1.098,0.247-1.211,0.804
			c-0.295,1.459-0.444,2.955-0.444,4.446c0,0.424,0.012,0.852,0.036,1.274c0.218,3.859,2.733,6.185,5.127,6.778
			c0.083,0.021,0.166,0.03,0.248,0.03c0.461,0,0.881-0.313,0.996-0.781C11.378,37.227,11.042,36.67,10.491,36.533z"/>
		<path fill="#FFFFFF" d="M27.089,58.901c0.001-0.03,0.002-0.059,0.003-0.086l0.189-6.25c0.017-0.567-0.429-1.041-0.996-1.058
			c-0.564-0.018-1.041,0.429-1.058,0.996l-0.189,6.252l-0.002,0.052c-0.083,1.793,0.553,3.496,1.793,4.795
			c0.202,0.212,0.472,0.318,0.743,0.318c0.255,0,0.51-0.094,0.709-0.284c0.41-0.392,0.425-1.042,0.034-1.453
			C27.467,61.295,27.032,60.13,27.089,58.901z"/>
		<path fill="#FFFFFF" d="M44.413,45.889c0.011,0,0.021,0,0.032,0c0.567-0.017,1.013-0.491,0.996-1.058l-0.066-2.191
			c-0.017-0.567-0.494-1.012-1.058-0.996c-0.567,0.017-1.013,0.491-0.996,1.058l0.066,2.191
			C43.404,45.45,43.86,45.889,44.413,45.889z"/>
		<path fill="#FFFFFF" d="M44.516,48.22c-0.567,0.017-1.013,0.491-0.996,1.058l0.288,9.537c0.017,0.557,0.473,0.996,1.026,0.996
			c0.011,0,0.021,0,0.032,0c0.567-0.017,1.013-0.491,0.996-1.058l-0.288-9.537C45.556,48.648,45.085,48.203,44.516,48.22z"/>
	</g>
	<path fill="#FFFFFF" d="M45.128,13.529c-2.551,0-4.625-2.074-4.625-4.625c0-0.425-0.345-0.771-0.771-0.771
		s-0.771,0.345-0.771,0.771c0,3.4,2.766,6.166,6.166,6.166c0.426,0,0.771-0.345,0.771-0.771S45.554,13.529,45.128,13.529z"/>
	<path fill="#FFFFFF" d="M31.254,8.904c0-0.425-0.345-0.771-0.771-0.771c-0.426,0-0.771,0.345-0.771,0.771
		c0,2.551-2.074,4.625-4.625,4.625c-0.426,0-0.771,0.345-0.771,0.771s0.345,0.771,0.771,0.771
		C28.487,15.07,31.254,12.304,31.254,8.904z"/>
	<path fill="#FFFFFF" d="M28.755,29.031c1.988,0.418,4.177-1.986,4.889-5.37c0.139-0.663,0.21-1.313,0.221-1.934
		c-0.844-0.483-1.428,0.321-2.485,0.098c-1.455-0.306-2.553,0.721-3.799,1.014c-0.175,0.47-0.92-0.377-1.03,0.147
		C25.839,26.37,26.767,28.613,28.755,29.031z"/>
	<path fill="#FFFFFF" d="M36.136,20.017c4.062,0.132,8.087,1.377,11.638,3.725l0.663,0.439c0.393,0.262,0.501,0.791,0.242,1.184
		c-0.259,0.393-0.789,0.501-1.184,0.24l-0.663-0.439c-6.561-4.339-14.876-4.61-21.703-0.701l-0.69,0.397
		c-0.409,0.233-0.933,0.093-1.166-0.317c-0.235-0.409-0.093-0.932,0.317-1.166l0.692-0.397
		C27.975,20.869,32.074,19.885,36.136,20.017z"/>
</g>
</svg>
