<?xml version="1.0" encoding="utf-8"?>
<!-- Generator: Adobe Illustrator 17.0.0, SVG Export Plug-In . SVG Version: 6.00 Build 0)  -->
<!DOCTYPE svg PUBLIC "-//W3C//DTD SVG 1.1//EN" "http://www.w3.org/Graphics/SVG/1.1/DTD/svg11.dtd">
<svg version="1.1" id="Layer_1" xmlns="http://www.w3.org/2000/svg" xmlns:xlink="http://www.w3.org/1999/xlink" x="0px" y="0px"
	 width="70.119px" height="70px" viewBox="0 0 70.119 70" enable-background="new 0 0 70.119 70" xml:space="preserve">
<g>
	<g>
		<g>
			<path fill="#FFFFFF" d="M58.938,10.898C52.553,5.364,44.073,2.316,35.06,2.316s-17.493,3.048-23.878,8.583
				c-6.425,5.57-9.964,12.987-9.964,20.885c0,0.489,0.014,0.984,0.042,1.471c0.236,4.171,2.449,7.749,5.918,9.571
				c3.096,1.626,6.577,1.519,9.552-0.292c1.465-0.892,3.002-1.669,4.595-2.329l-0.568,18.784c-0.133,2.899,0.898,5.652,2.902,7.752
				C25.664,68.842,28.369,70,31.275,70h7.569c2.906,0,5.611-1.158,7.617-3.259c2.004-2.1,3.035-4.852,2.902-7.752l-0.568-18.784
				c1.593,0.66,3.129,1.436,4.595,2.329c1.573,0.958,3.289,1.439,5.014,1.439c1.536,0,3.08-0.381,4.538-1.147
				c3.47-1.822,5.682-5.4,5.918-9.571c0.028-0.488,0.042-0.983,0.042-1.471C68.902,23.885,65.363,16.468,58.938,10.898z
				 M47.378,59.057c0,0.005,0,0.011,0.001,0.016c0.11,2.355-0.727,4.591-2.354,6.296c-1.628,1.705-3.823,2.644-6.18,2.644h-7.569
				c-2.357,0-4.552-0.939-6.18-2.644c-1.628-1.705-2.464-3.941-2.354-6.296c0-0.005,0-0.011,0.001-0.016l0.593-19.611
				c3.7-1.267,7.661-1.923,11.725-1.923c4.064,0,8.025,0.656,11.725,1.923L47.378,59.057z M66.876,33.142
				c-0.196,3.468-2.013,6.43-4.859,7.924c-2.463,1.294-5.231,1.21-7.595-0.23c-5.695-3.468-12.391-5.301-19.364-5.301
				s-13.669,1.833-19.364,5.301c-2.363,1.44-5.132,1.523-7.595,0.23c-2.846-1.495-4.662-4.457-4.858-7.924
				c-0.025-0.45-0.038-0.908-0.038-1.359c0-15.153,14.29-27.481,31.855-27.481S66.915,16.63,66.915,31.783
				C66.915,32.235,66.902,32.692,66.876,33.142z"/>
			<path fill="#FFFFFF" d="M7.8,24.353c0.129,0.056,0.263,0.082,0.395,0.082c0.384,0,0.749-0.224,0.912-0.598
				c0.297-0.684,0.637-1.366,1.011-2.025c0.271-0.477,0.103-1.083-0.374-1.354c-0.477-0.271-1.084-0.103-1.354,0.374
				c-0.408,0.72-0.78,1.465-1.105,2.214C7.066,23.55,7.297,24.135,7.8,24.353z"/>
			<path fill="#FFFFFF" d="M10.926,37.64c-1.607-0.398-3.298-2.018-3.452-4.738c-0.021-0.37-0.032-0.747-0.032-1.119
				c0-1.31,0.131-2.624,0.39-3.906c0.109-0.538-0.239-1.062-0.777-1.17c-0.538-0.108-1.062,0.239-1.17,0.777
				c-0.285,1.411-0.43,2.857-0.43,4.299c0,0.41,0.012,0.824,0.035,1.232c0.211,3.731,2.642,5.98,4.958,6.554
				c0.08,0.02,0.161,0.029,0.24,0.029c0.446,0,0.851-0.303,0.963-0.755C11.783,38.311,11.459,37.772,10.926,37.64z"/>
			<path fill="#FFFFFF" d="M26.975,59.268c0.001-0.029,0.002-0.057,0.003-0.084l0.183-6.043c0.017-0.548-0.414-1.006-0.963-1.023
				c-0.545-0.018-1.006,0.414-1.023,0.963l-0.183,6.045l-0.002,0.051c-0.081,1.734,0.535,3.381,1.734,4.637
				c0.195,0.205,0.457,0.307,0.719,0.307c0.246,0,0.493-0.091,0.686-0.275c0.397-0.379,0.411-1.008,0.033-1.405
				C27.341,61.583,26.92,60.456,26.975,59.268z"/>
			<path fill="#FFFFFF" d="M43.726,46.687c0.01,0,0.02,0,0.031,0c0.548-0.017,0.979-0.475,0.963-1.023l-0.064-2.118
				c-0.017-0.548-0.478-0.979-1.023-0.963c-0.548,0.017-0.98,0.475-0.963,1.023l0.064,2.118
				C42.75,46.262,43.192,46.687,43.726,46.687z"/>
			<path fill="#FFFFFF" d="M43.825,48.94c-0.548,0.017-0.979,0.475-0.963,1.023l0.279,9.222c0.016,0.538,0.458,0.963,0.992,0.963
				c0.01,0,0.02,0,0.031,0c0.548-0.017,0.979-0.475,0.963-1.023l-0.279-9.222C44.831,49.355,44.376,48.924,43.825,48.94z"/>
		</g>
		<path fill="#FFFFFF" d="M35.059,22.645c-4.932,0-8.943,4.012-8.943,8.943c0,0.411,0.333,0.745,0.745,0.745
			s0.745-0.334,0.745-0.745c0-4.11,3.343-7.453,7.453-7.453s7.453,3.343,7.453,7.453c0,0.411,0.333,0.745,0.745,0.745
			c0.412,0,0.745-0.334,0.745-0.745C44.003,26.657,39.991,22.645,35.059,22.645z"/>
	</g>
	<path fill="#FFFFFF" d="M14.687,4.768c-0.938,0.682-0.556,2.277-0.556,3.497c0,6.345,5.237,11.489,11.698,11.489
		c3.762,0,7.101-1.752,9.241-4.462c2.14,2.71,5.478,4.462,9.241,4.462c6.461,0,11.698-5.144,11.698-11.489
		c0-1.22,0.317-2.732-0.556-3.497C47.786-1.947,22.933-1.222,14.687,4.768z"/>
</g>
</svg>
