<?xml version="1.0" encoding="utf-8"?>
<!-- Generator: Adobe Illustrator 17.0.0, SVG Export Plug-In . SVG Version: 6.00 Build 0)  -->
<!DOCTYPE svg PUBLIC "-//W3C//DTD SVG 1.1//EN" "http://www.w3.org/Graphics/SVG/1.1/DTD/svg11.dtd">
<svg version="1.1" id="Layer_1" xmlns="http://www.w3.org/2000/svg" xmlns:xlink="http://www.w3.org/1999/xlink" x="0px" y="0px"
	 width="63.205px" height="70px" viewBox="0 0 63.205 70" enable-background="new 0 0 63.205 70" xml:space="preserve">
<g>
	<g>
		<path fill="#FFFFFF" d="M43.776,10.909c1.979,7.558,0.563,9.62,0.563,9.62S39.654,4.798,30.399,1.074
			C30,0.913,26.167-0.437,26.166,0.13c-0.039,14.481-10.479,21.739-10.479,21.739s-2.278-5.607-4.142-6.743
			C8.439,25.127,3.864,31.535,4.888,40.83c0.041,0.376,0.129,0.335,0.15,0.713c0.183,3.229,2.863,5.999,5.549,7.41
			c2.397,1.259,5.092,1.176,7.395-0.226c1.134-0.691,2.324-1.292,3.557-1.803L21.1,61.467c-0.103,2.245,0.695,4.376,2.247,6.002
			c1.553,1.627,3.648,2.524,5.897,2.524h5.86c2.25,0,4.344-0.896,5.897-2.523c1.552-1.626,2.35-3.757,2.247-6.002l-0.44-14.543
			c1.233,0.511,2.423,1.112,3.557,1.803c1.218,0.742,2.546,1.114,3.882,1.114c1.189,0,2.385-0.295,3.514-0.888
			c2.686-1.411,4.399-4.181,4.582-7.41c0.021-0.377,0.032-0.761,0.032-1.139C59.138,25.244,48.75,15.221,43.776,10.909z
			 M41.712,61.519c0,0.004,0,0.008,0.001,0.013c0.085,1.823-0.563,3.554-1.823,4.875c-1.26,1.32-2.96,2.047-4.785,2.047h-5.86
			c-1.825,0-3.524-0.727-4.785-2.047s-1.908-3.051-1.823-4.875c0-0.004,0-0.008,0.001-0.013l0.459-15.184
			c2.865-0.981,5.932-1.489,9.078-1.489c3.146,0,6.213,0.508,9.078,1.489L41.712,61.519z M56.808,41.455
			c-0.152,2.685-1.558,4.978-3.762,6.135c-1.907,1.002-4.05,0.936-5.88-0.178c-4.409-2.685-9.593-4.105-14.992-4.105
			s-10.583,1.419-14.992,4.105c-1.83,1.115-3.973,1.18-5.88,0.178c-2.203-1.157-3.61-3.451-3.762-6.135
			c-0.02-0.349-0.03-0.703-0.03-1.052c0-11.732,11.064-21.277,24.664-21.277s24.664,9.545,24.664,21.277
			C56.838,40.753,56.828,41.107,56.808,41.455z"/>
		<path fill="#FFFFFF" d="M11.069,34.65c0.1,0.043,0.204,0.064,0.306,0.064c0.297,0,0.58-0.173,0.706-0.463
			c0.23-0.53,0.493-1.057,0.783-1.567c0.21-0.369,0.08-0.839-0.29-1.048c-0.369-0.21-0.839-0.08-1.048,0.29
			c-0.316,0.558-0.604,1.134-0.856,1.714C10.501,34.028,10.68,34.481,11.069,34.65z"/>
		<path fill="#FFFFFF" d="M13.49,44.938c-1.244-0.308-2.553-1.562-2.673-3.668c-0.016-0.287-0.025-0.578-0.025-0.867
			c0-1.014,0.102-2.032,0.302-3.024c0.084-0.416-0.185-0.822-0.602-0.906c-0.417-0.084-0.822,0.185-0.906,0.602
			c-0.221,1.092-0.333,2.212-0.333,3.329c0,0.317,0.009,0.638,0.027,0.954c0.164,2.889,2.046,4.63,3.838,5.074
			c0.062,0.015,0.124,0.023,0.186,0.023c0.345,0,0.659-0.234,0.746-0.584C14.153,45.457,13.902,45.04,13.49,44.938z"/>
		<path fill="#FFFFFF" d="M25.915,61.683c0.001-0.022,0.002-0.044,0.002-0.065l0.142-4.679c0.013-0.425-0.321-0.779-0.746-0.792
			c-0.422-0.014-0.779,0.321-0.792,0.746l-0.142,4.68l-0.001,0.039c-0.062,1.343,0.414,2.618,1.342,3.59
			c0.151,0.158,0.354,0.238,0.556,0.238c0.191,0,0.382-0.071,0.531-0.213c0.307-0.293,0.319-0.78,0.025-1.087
			C26.199,63.475,25.872,62.603,25.915,61.683z"/>
		<path fill="#FFFFFF" d="M38.885,51.942c0.008,0,0.016,0,0.024,0c0.425-0.013,0.758-0.367,0.746-0.792l-0.05-1.64
			c-0.013-0.425-0.37-0.758-0.792-0.746c-0.425,0.013-0.758,0.367-0.746,0.792l0.05,1.64C38.129,51.613,38.471,51.942,38.885,51.942
			z"/>
		<path fill="#FFFFFF" d="M38.961,53.687c-0.425,0.013-0.758,0.367-0.746,0.792l0.216,7.14c0.013,0.417,0.354,0.746,0.768,0.746
			c0.008,0,0.016,0,0.024,0c0.425-0.013,0.758-0.367,0.746-0.792l-0.216-7.14C39.74,54.008,39.388,53.674,38.961,53.687z"/>
	</g>
	<path fill="#FFFFFF" d="M39.521,35.466c0,0,0.964,3.472-1.996,2.742c0,0-5.278-2.741-11.786,0.209
		c-2.932,0.834-2.093-2.67-2.093-2.67c1.592-5.201,7.853-4.892,7.853-4.892S37.745,30.325,39.521,35.466z"/>
	<circle fill="#FFFFFF" cx="26.529" cy="25.047" r="1.891"/>
	<circle fill="#FFFFFF" cx="36.889" cy="25.047" r="1.891"/>
</g>
</svg>
