<?xml version="1.0" encoding="utf-8"?>
<!-- Generator: Adobe Illustrator 17.0.0, SVG Export Plug-In . SVG Version: 6.00 Build 0)  -->
<!DOCTYPE svg PUBLIC "-//W3C//DTD SVG 1.1//EN" "http://www.w3.org/Graphics/SVG/1.1/DTD/svg11.dtd">
<svg version="1.1" id="Layer_1" xmlns="http://www.w3.org/2000/svg" xmlns:xlink="http://www.w3.org/1999/xlink" x="0px" y="0px"
	 width="87.29px" height="70px" viewBox="0 0 87.29 70" enable-background="new 0 0 87.29 70" xml:space="preserve">
<g>
	<g>
		<path fill="#FFFFFF" d="M81.479,6.344C75.127,0.838,60.789,2.67,51.823,2.67S27.145,1.13,20.793,6.635
			c-6.392,5.54-2.636,17.491-2.636,25.348c0,0.486,0.014,0.979,0.041,1.464c0.235,4.149,2.436,7.708,5.887,9.521
			c3.08,1.617,6.543,1.511,9.502-0.291c1.458-0.888,2.986-1.661,4.571-2.317l-0.565,18.686c-0.132,2.884,0.893,5.623,2.887,7.711
			C42.477,68.849,45.168,70,48.058,70h7.53c2.89,0,5.581-1.151,7.577-3.242c1.994-2.089,3.019-4.827,2.887-7.711l-0.565-18.686
			c1.585,0.656,3.113,1.429,4.571,2.317c1.565,0.953,3.271,1.432,4.987,1.432c1.528,0,3.064-0.379,4.514-1.141
			c3.451-1.813,5.652-5.372,5.887-9.521c0.027-0.485,0.041-0.977,0.041-1.464C85.488,24.126,87.87,11.885,81.479,6.344z
			 M64.077,59.114c0,0.005,0,0.011,0.001,0.016c0.109,2.342-0.723,4.567-2.342,6.263c-1.619,1.696-3.802,2.63-6.148,2.63h-7.53
			c-2.345,0-4.528-0.934-6.147-2.63c-1.619-1.696-2.451-3.921-2.342-6.263c0-0.005,0-0.011,0.001-0.016l0.59-19.509
			c3.681-1.26,7.621-1.913,11.664-1.913s7.983,0.653,11.664,1.913L64.077,59.114z M83.473,33.335
			c-0.195,3.449-2.002,6.396-4.833,7.883c-2.45,1.287-5.204,1.203-7.555-0.229c-5.665-3.45-12.326-5.274-19.263-5.274
			S38.225,37.54,32.56,40.99c-2.351,1.432-5.105,1.516-7.555,0.229c-2.831-1.487-4.638-4.434-4.833-7.883
			c-0.025-0.448-0.038-0.903-0.038-1.352C12.644-0.205,34.35,4.647,51.823,4.647s36.641-5.724,31.689,27.337
			C83.445,32.428,83.499,32.887,83.473,33.335z"/>
		<path fill="#FFFFFF" d="M24.706,24.592c0.128,0.056,0.262,0.082,0.393,0.082c0.382,0,0.745-0.223,0.907-0.595
			c0.296-0.681,0.634-1.358,1.006-2.014c0.269-0.475,0.103-1.078-0.372-1.347c-0.474-0.269-1.078-0.103-1.347,0.372
			c-0.406,0.716-0.776,1.457-1.1,2.202C23.976,23.793,24.206,24.375,24.706,24.592z"/>
		<path fill="#FFFFFF" d="M27.816,37.81c-1.599-0.396-3.28-2.007-3.434-4.713c-0.021-0.368-0.031-0.743-0.031-1.113
			c0-1.303,0.131-2.61,0.388-3.885c0.108-0.535-0.238-1.056-0.773-1.164c-0.535-0.108-1.056,0.238-1.164,0.773
			c-0.283,1.404-0.427,2.842-0.427,4.277c0,0.408,0.012,0.82,0.035,1.225c0.21,3.712,2.628,5.949,4.932,6.52
			c0.08,0.02,0.16,0.029,0.238,0.029c0.444,0,0.847-0.301,0.958-0.751C28.669,38.477,28.346,37.941,27.816,37.81z"/>
		<path fill="#FFFFFF" d="M43.78,59.325c0.001-0.028,0.002-0.057,0.003-0.083l0.182-6.011c0.016-0.545-0.412-1.001-0.958-1.018
			c-0.542-0.018-1.001,0.412-1.018,0.958l-0.182,6.013l-0.002,0.05c-0.08,1.725,0.532,3.363,1.725,4.612
			c0.194,0.203,0.454,0.306,0.715,0.306c0.245,0,0.491-0.091,0.682-0.273c0.395-0.377,0.409-1.002,0.033-1.397
			C44.145,61.627,43.726,60.506,43.78,59.325z"/>
		<path fill="#FFFFFF" d="M60.444,46.809c0.01,0,0.02,0,0.03,0c0.545-0.016,0.974-0.472,0.958-1.018l-0.064-2.107
			c-0.016-0.545-0.475-0.974-1.018-0.958c-0.546,0.016-0.975,0.472-0.958,1.018l0.064,2.107
			C59.473,46.386,59.912,46.809,60.444,46.809z"/>
		<path fill="#FFFFFF" d="M60.543,49.051c-0.546,0.016-0.974,0.472-0.958,1.018l0.277,9.173c0.016,0.535,0.455,0.958,0.987,0.958
			c0.01,0,0.02,0,0.03,0c0.546-0.016,0.974-0.472,0.958-1.018l-0.277-9.173C61.544,49.463,61.09,49.035,60.543,49.051z"/>
	</g>
	<circle fill="#FFFFFF" cx="59.903" cy="13.166" r="3.146"/>
	<circle fill="#FFFFFF" cx="42.458" cy="13.166" r="3.146"/>
	<path fill="#FFFFFF" d="M49.966,30.135c2.281-0.067,3.144-1.258,3.657-1.971c0.073-0.102,0.17-0.235,0.256-0.34
		c0.182,0.136,0.423,0.376,0.584,0.535c0.71,0.707,1.784,1.775,3.882,1.775c2.233,0,3.064-1.225,3.51-1.885
		c0.131-0.196,0.331-0.49,0.412-0.538c1.254-0.046,3.168,0.667,3.719,0.914c0.726,0.327,1.701,0.186,2.173-0.32
		c0.472-0.503,0.266-1.178-0.462-1.505c-0.301-0.136-3.053-1.322-5.534-1.264c-1.973,0.046-2.712,1.138-3.154,1.79
		c-0.427,0.631-0.502,0.631-0.663,0.631c-0.389,0-0.667-0.21-1.301-0.842c-0.64-0.639-1.518-1.513-3.154-1.556
		c-1.86-0.037-2.624,1.002-3.076,1.629c-0.495,0.683-0.634,0.76-0.977,0.77c-0.008,0-0.016,0-0.022,0
		c-0.069-0.119-0.146-0.337-0.194-0.479c-0.201-0.589-0.675-1.967-2.836-1.994c-0.022,0-0.043,0-0.064,0
		c-1.725,0-2.677,0.85-3.375,1.472c-0.587,0.523-0.884,0.752-1.269,0.757c-0.173,0.027-0.379-0.135-0.863-0.706
		c-0.571-0.675-1.434-1.695-3.335-1.719c-0.028-0.001-0.059-0.001-0.087-0.001c-2.638,0-4.969,1.517-5.228,1.691
		c-0.623,0.419-0.637,1.108-0.032,1.539c0.608,0.432,1.601,0.44,2.222,0.022c0.526-0.354,1.95-1.075,3.059-1.075
		c0.01,0,0.022,0,0.032,0c0.155,0.051,0.469,0.421,0.657,0.644c0.565,0.667,1.507,1.781,3.562,1.781c0.021,0,0.041,0,0.061,0
		c1.936-0.02,3-0.971,3.705-1.598c0.201-0.18,0.454-0.404,0.655-0.531c0.027,0.076,0.056,0.156,0.078,0.221
		c0.223,0.65,0.738,2.152,3.221,2.152C49.844,30.136,49.903,30.136,49.966,30.135z"/>
	<path fill="#FFFFFF" d="M6.15,19.02H2.819C1.265,19.02,0,17.755,0,16.201V12.87c0-1.555,1.265-2.819,2.819-2.819H6.15
		c1.555,0,2.819,1.265,2.819,2.819v3.331C8.968,17.755,7.704,19.02,6.15,19.02z M2.819,12.294c-0.318,0-0.577,0.258-0.577,0.577
		v3.331c0,0.318,0.258,0.577,0.577,0.577H6.15c0.318,0,0.577-0.258,0.577-0.577v-3.331c0-0.318-0.258-0.577-0.577-0.577H2.819z"/>
	<path fill="#FFFFFF" d="M13.025,10.344c-0.723,0-1.444-0.274-1.992-0.822L8.676,7.166C7.579,6.067,7.579,4.278,8.675,3.179
		l2.356-2.355c1.1-1.1,2.889-1.098,3.988,0l2.354,2.354c1.099,1.099,1.099,2.888,0,3.988l-2.354,2.355
		C14.47,10.068,13.747,10.344,13.025,10.344z M12.615,7.934c0.225,0.225,0.593,0.225,0.818,0l2.353-2.354
		c0.225-0.225,0.225-0.591,0-0.817l-2.354-2.354c-0.225-0.225-0.591-0.225-0.817,0L10.26,4.762
		c-0.224,0.224-0.224,0.592,0.001,0.817L12.615,7.934z"/>
	<path fill="#FFFFFF" d="M11.534,29.952c-0.723,0-1.444-0.274-1.992-0.822l-2.355-2.356c-1.099-1.099-1.099-2.888,0-3.988
		l2.354-2.354c1.099-1.099,2.888-1.099,3.988,0l2.355,2.354c1.098,1.099,1.098,2.888,0.001,3.986l-2.356,2.356
		C12.978,29.678,12.256,29.952,11.534,29.952z M11.126,27.542c0.225,0.225,0.592,0.225,0.817,0l2.354-2.354
		c0.224-0.224,0.224-0.592-0.001-0.817l-2.354-2.353c-0.225-0.225-0.591-0.225-0.817,0L8.77,24.372
		c-0.225,0.225-0.225,0.591,0,0.817L11.126,27.542z"/>
	<path fill="#FFFFFF" d="M77.458,66.732c-0.723,0-1.444-0.274-1.992-0.822l-2.356-2.356c-1.098-1.099-1.098-2.888-0.001-3.986
		l2.356-2.355c1.1-1.1,2.889-1.098,3.988,0l2.354,2.354c1.099,1.099,1.099,2.888,0,3.988l-2.354,2.355
		C78.903,66.456,78.18,66.732,77.458,66.732z M77.049,64.321c0.225,0.225,0.593,0.225,0.818,0l2.353-2.354
		c0.225-0.225,0.225-0.591,0-0.817l-2.354-2.354c-0.225-0.225-0.591-0.225-0.817,0l-2.355,2.354
		c-0.224,0.224-0.224,0.592,0.001,0.817L77.049,64.321z"/>
</g>
</svg>
