<?xml version="1.0" encoding="utf-8"?>
<!-- Generator: Adobe Illustrator 17.0.0, SVG Export Plug-In . SVG Version: 6.00 Build 0)  -->
<!DOCTYPE svg PUBLIC "-//W3C//DTD SVG 1.1//EN" "http://www.w3.org/Graphics/SVG/1.1/DTD/svg11.dtd">
<svg version="1.1" id="Layer_1" xmlns="http://www.w3.org/2000/svg" xmlns:xlink="http://www.w3.org/1999/xlink" x="0px" y="0px"
	 width="71.257px" height="70px" viewBox="0 0 71.257 70" enable-background="new 0 0 71.257 70" xml:space="preserve">
<g>
	<g>
		<path fill="#FFFFFF" d="M60.324,8.876C53.721,3.152,44.95,0,35.629,0S17.537,3.152,10.933,8.876
			C4.288,14.636,0.629,22.307,0.629,30.476c0,0.505,0.014,1.017,0.043,1.522c0.244,4.314,2.532,8.014,6.121,9.899
			c3.202,1.682,6.802,1.571,9.879-0.302c1.515-0.923,3.104-1.726,4.752-2.409l-0.588,19.427c-0.137,2.998,0.929,5.845,3.002,8.017
			C25.912,68.803,28.709,70,31.715,70h7.828c3.005,0,5.803-1.197,7.878-3.371c2.073-2.172,3.139-5.018,3.002-8.017l-0.588-19.427
			c1.647,0.682,3.236,1.486,4.752,2.409c1.627,0.991,3.401,1.489,5.185,1.489c1.588,0,3.185-0.395,4.693-1.187
			c3.588-1.885,5.876-5.585,6.121-9.899c0.028-0.504,0.043-1.016,0.043-1.522C70.629,22.307,66.969,14.636,60.324,8.876z
			 M48.368,58.682c0,0.006,0,0.011,0.001,0.017c0.113,2.435-0.752,4.748-2.435,6.511c-1.684,1.764-3.953,2.735-6.391,2.735h-7.828
			c-2.438,0-4.708-0.971-6.391-2.735c-1.683-1.764-2.548-4.076-2.435-6.511c0-0.006,0-0.011,0.001-0.017L23.503,38.4
			c3.827-1.31,7.923-1.989,12.126-1.989s8.299,0.679,12.126,1.989L48.368,58.682z M68.534,31.881
			c-0.203,3.586-2.082,6.65-5.025,8.196c-2.547,1.338-5.41,1.251-7.854-0.238c-5.889-3.587-12.815-5.483-20.026-5.483
			s-14.137,1.896-20.026,5.483c-2.444,1.489-5.307,1.576-7.854,0.238c-2.943-1.546-4.822-4.609-5.025-8.195
			c-0.026-0.466-0.04-0.939-0.04-1.406c0-15.671,14.779-28.421,32.945-28.421s32.945,12.75,32.945,28.421
			C68.574,30.943,68.56,31.416,68.534,31.881z"/>
		<path fill="#FFFFFF" d="M7.437,22.791c0.133,0.058,0.272,0.085,0.408,0.085c0.397,0,0.775-0.231,0.943-0.619
			c0.307-0.708,0.659-1.412,1.046-2.094c0.28-0.494,0.107-1.121-0.387-1.401c-0.493-0.28-1.121-0.107-1.401,0.387
			c-0.422,0.745-0.807,1.515-1.143,2.289C6.677,21.96,6.916,22.565,7.437,22.791z"/>
		<path fill="#FFFFFF" d="M10.67,36.533c-1.662-0.412-3.411-2.087-3.57-4.9c-0.022-0.383-0.033-0.772-0.033-1.158
			c0-1.355,0.136-2.714,0.404-4.039c0.112-0.556-0.247-1.098-0.804-1.211c-0.556-0.112-1.098,0.247-1.211,0.804
			c-0.295,1.459-0.444,2.955-0.444,4.446c0,0.424,0.012,0.852,0.036,1.274c0.218,3.859,2.733,6.185,5.127,6.778
			c0.083,0.021,0.166,0.03,0.248,0.03c0.461,0,0.881-0.313,0.996-0.781C11.556,37.227,11.22,36.67,10.67,36.533z"/>
		<path fill="#FFFFFF" d="M27.267,58.901c0.001-0.03,0.002-0.059,0.003-0.086l0.189-6.25c0.017-0.567-0.429-1.041-0.996-1.058
			c-0.564-0.018-1.041,0.429-1.058,0.996l-0.189,6.252l-0.002,0.052c-0.083,1.793,0.553,3.496,1.793,4.795
			c0.202,0.212,0.472,0.318,0.743,0.318c0.255,0,0.51-0.094,0.709-0.284c0.41-0.392,0.425-1.042,0.034-1.453
			C27.646,61.295,27.21,60.13,27.267,58.901z"/>
		<path fill="#FFFFFF" d="M44.592,45.889c0.011,0,0.021,0,0.032,0c0.567-0.017,1.013-0.491,0.996-1.058l-0.066-2.191
			c-0.017-0.567-0.494-1.012-1.058-0.996c-0.567,0.017-1.013,0.491-0.996,1.058l0.066,2.191
			C43.582,45.45,44.039,45.889,44.592,45.889z"/>
		<path fill="#FFFFFF" d="M44.694,48.22c-0.567,0.017-1.013,0.491-0.996,1.058l0.288,9.537c0.017,0.557,0.473,0.996,1.026,0.996
			c0.011,0,0.021,0,0.032,0c0.567-0.017,1.013-0.491,0.996-1.058l-0.288-9.537C45.735,48.648,45.264,48.203,44.694,48.22z"/>
	</g>
	<path fill="#FFFFFF" d="M35.628,26.759c-4.065,0-8.127-1.114-11.753-3.347l-0.677-0.417c-0.402-0.25-0.526-0.774-0.28-1.176
		c0.246-0.402,0.773-0.526,1.176-0.279l0.677,0.417c6.698,4.124,15.017,4.126,21.714-0.002l0.677-0.419
		c0.402-0.246,0.93-0.123,1.176,0.279c0.248,0.402,0.123,0.928-0.279,1.176l-0.679,0.419C43.757,25.643,39.692,26.759,35.628,26.759
		z"/>
	<g>
		<path fill="#FFFFFF" d="M31.583,13.343c-0.219,0-0.438-0.084-0.605-0.25l-3.364-3.364l-3.364,3.364
			c-0.333,0.333-0.875,0.333-1.208,0c-0.333-0.333-0.333-0.875,0-1.208l3.967-3.967c0.333-0.333,0.875-0.333,1.208,0l3.967,3.967
			c0.333,0.333,0.333,0.875,0,1.208C32.02,13.259,31.802,13.343,31.583,13.343z"/>
		<path fill="#FFFFFF" d="M47.614,13.343c-0.219,0-0.438-0.084-0.605-0.25l-3.364-3.364l-3.364,3.364
			c-0.333,0.333-0.875,0.333-1.208,0c-0.333-0.333-0.333-0.875,0-1.208l3.967-3.967c0.333-0.333,0.875-0.333,1.208,0l3.967,3.967
			c0.333,0.333,0.333,0.875,0,1.208C48.051,13.259,47.832,13.343,47.614,13.343z"/>
	</g>
</g>
</svg>
