<?xml version="1.0" encoding="utf-8"?>
<!-- Generator: Adobe Illustrator 19.2.1, SVG Export Plug-In . SVG Version: 6.00 Build 0)  -->
<svg version="1.1" id="Layer_1" xmlns="http://www.w3.org/2000/svg" xmlns:xlink="http://www.w3.org/1999/xlink" x="0px" y="0px"
	 viewBox="0 0 50 50" style="enable-background:new 0 0 50 50;" xml:space="preserve">
<g>
	<path d="M38.3,17c-0.5,0-1,0.4-1,1c0,0.5,0.4,1,1,1c5.1,0,9.2,4.1,9.2,9.2v0.2c0,5.1-4.1,9.2-9.2,9.2h-2c-0.2,0-0.5,0.1-0.7,0.3
		L29.8,43v-4.5c0-0.5-0.4-1-1-1c-0.5,0-1,0.4-1,1v6.7c0,0.4,0.2,0.7,0.6,0.9c0.1,0.1,0.3,0.1,0.4,0.1c0.2,0,0.5-0.1,0.7-0.3l7.2-6.4
		h1.6c6.2,0,11.2-5,11.2-11.2v-0.2C49.4,22,44.4,17,38.3,17z"/>
	<path d="M23.8,37.6H11.7c-5.1,0-9.2-4.1-9.2-9.2v-0.2c0-5.1,4.1-9.2,9.2-9.2h3.1c0.3,0,0.6-0.1,0.8-0.4c0.2-0.2,0.2-0.6,0.2-0.9
		c-0.2-0.9-0.4-1.7-0.4-2.6c0-5.2,4.2-9.4,9.4-9.4s9.4,4.2,9.4,9.4c0,0.9-0.1,1.7-0.4,2.6c-0.2,0.5,0.2,1.1,0.7,1.2
		c0.5,0.2,1.1-0.2,1.2-0.7c0.3-1,0.5-2.1,0.5-3.2c0-6.3-5.1-11.4-11.4-11.4S13.4,8.8,13.4,15.1c0,0.6,0.1,1.3,0.2,1.9h-1.8
		C5.6,17,0.6,22,0.6,28.2v0.2c0,6.2,5,11.2,11.2,11.2h12.1c0.5,0,1-0.4,1-1C24.8,38,24.4,37.6,23.8,37.6z"/>
</g>
</svg>
