<?xml version="1.0" encoding="utf-8"?>
<!-- Generator: Adobe Illustrator 17.0.0, SVG Export Plug-In . SVG Version: 6.00 Build 0)  -->
<!DOCTYPE svg PUBLIC "-//W3C//DTD SVG 1.1//EN" "http://www.w3.org/Graphics/SVG/1.1/DTD/svg11.dtd">
<svg version="1.1" id="Layer_1" xmlns="http://www.w3.org/2000/svg" xmlns:xlink="http://www.w3.org/1999/xlink" x="0px" y="0px"
	 width="502px" height="241.965px" viewBox="0 0 502 241.965" enable-background="new 0 0 502 241.965" xml:space="preserve">
<g>
	<g>
		<polyline fill="#3A300A" points="202.197,231.452 219.852,203.412 242.699,210.682 		"/>
		<polygon fill="#92843B" points="184.562,143.574 250.116,133.922 226.925,157.446 219.852,203.412 202.197,231.452 
			179.334,200.683 182.953,192.237 		"/>
		<polygon fill="#57481D" points="166.464,62.371 184.562,143.574 198.638,62.371 		"/>
		<polygon fill="#3A300A" points="198.638,62.371 278.268,62.371 250.116,133.922 		"/>
		<polygon fill="#746422" points="250.116,133.922 297.975,159.661 297.975,184.596 244.486,211.139 219.852,203.412 
			226.925,157.446 		"/>
		<polygon fill="#584A1B" points="297.975,159.661 317.681,145.183 335.779,67.966 278.268,62.371 250.116,133.922 		"/>
		<polygon fill="#4A3C17" points="297.975,184.596 297.975,235.269 244.486,211.139 		"/>
		<polygon fill="#3A310B" points="372.779,65.955 347.442,127.487 338.431,191.031 297.975,235.269 297.975,159.661 
			317.681,145.183 335.779,67.966 		"/>
		<polygon fill="#54480D" points="372.779,65.955 400.126,56.572 384.442,101.766 347.442,127.487 		"/>
		<polygon fill="#261900" points="454.017,51.075 406.159,106.777 338.431,191.031 347.442,127.487 384.442,101.766 400.126,56.572 
					"/>
		<polygon fill="#695E1B" points="108.552,57.424 142.334,129.498 166.464,62.371 		"/>
		<polygon fill="#786C27" points="120.215,133.922 143.541,131.509 182.953,192.237 179.334,200.683 		"/>
		<polygon fill="#998838" points="120.215,133.922 96.889,117.803 24.095,64.748 6.802,42.099 67.932,53.292 		"/>
		<polygon fill="#433C12" points="120.215,133.922 108.552,57.424 143.541,131.509 		"/>
		<polygon fill="#5A5016" points="108.552,57.424 67.932,53.292 120.215,133.922 		"/>
		<polygon fill="#7D6E31" points="166.464,62.371 142.334,129.498 182.953,192.237 184.562,143.574 		"/>
		<polygon fill="#7D6E2A" points="198.638,62.371 184.562,143.574 250.116,133.922 		"/>
		<polygon fill="#3C3217" points="494.235,41.028 480.047,62.371 407.409,105.321 454.017,51.075 		"/>
		<path fill="#261900" d="M12.444,24.97c-4.157,1.707-7.442,7.524-7.926,11.781c-0.705,6.206,10.826,12.114,44.664,18.052
			s14.502,4.005,45.44,4.005s21.917,0.427,40.996,2.113c20.025,1.769,34.415,4.15,55.684,3.919s35.772,2.165,68.643,0
			c32.871-2.165,40.606,5.966,57.042,6.251c16.436,0.285,52.311-2.522,60.046-5.137c7.734-2.615,7.841-4.948,25.203-5.822
			c16.912-0.851,17.233-6.433,35.603-5.329c18.369,1.104,12.94-3.792,29.376-5.695c16.436-1.903,58.69-8.865,0.681-24.334
			s-98.821-8.015-126.738-10.522c-28.292-2.54-96.681-4.269-132.453-4.511c-35.772-0.242-101.515,5.98-112.15,7.22
			S31.492,17.148,12.444,24.97z"/>
		<path fill="#3C3217" d="M12.444,21.93c-4.157,1.707-7.442,7.524-7.926,11.781c-0.705,6.206,10.826,12.114,44.664,18.052
			s14.502,4.005,45.44,4.005s21.917,0.427,40.996,2.113c20.025,1.769,34.415,4.15,55.684,3.919s35.772,2.165,68.643,0
			c32.871-2.165,40.606,5.966,57.042,6.251c16.436,0.285,52.311-2.522,60.046-5.137c7.734-2.615,7.841-4.948,25.203-5.822
			c16.912-0.851,17.233-6.433,35.603-5.329c18.369,1.104,12.94-3.792,29.376-5.695c16.436-1.903,58.69-8.865,0.681-24.334
			s-98.821-8.015-126.738-10.522c-28.292-2.54-96.681-4.269-132.453-4.511s-101.515,5.98-112.15,7.22S31.492,14.108,12.444,21.93z"
			/>
	</g>
</g>
</svg>
