<?xml version="1.0" encoding="utf-8"?>
<!-- Generator: Adobe Illustrator 19.2.1, SVG Export Plug-In . SVG Version: 6.00 Build 0)  -->
<svg version="1.1" id="Capa_1" xmlns="http://www.w3.org/2000/svg" xmlns:xlink="http://www.w3.org/1999/xlink" x="0px" y="0px"
	 viewBox="0 0 50 50" style="enable-background:new 0 0 50 50;" xml:space="preserve">
<g>
	<g>
		<path d="M25,8.8c0.7,0,1.2-0.6,1.2-1.2V2.6c0-0.7-0.6-1.2-1.2-1.2s-1.2,0.6-1.2,1.2v4.9C23.8,8.2,24.3,8.8,25,8.8z"/>
		<path d="M25,41.3c-0.7,0-1.2,0.6-1.2,1.2v4.9c0,0.7,0.6,1.2,1.2,1.2s1.2-0.6,1.2-1.2v-4.9C26.2,41.8,25.7,41.3,25,41.3z"/>
		<path d="M11.7,13.5c0.2,0.2,0.6,0.4,0.9,0.4c0.3,0,0.6-0.1,0.9-0.4c0.5-0.5,0.5-1.3,0-1.8l-3.5-3.5c-0.5-0.5-1.3-0.5-1.8,0
			s-0.5,1.3,0,1.8L11.7,13.5z"/>
		<path d="M38.3,36.5c-0.5-0.5-1.3-0.5-1.8,0c-0.5,0.5-0.5,1.3,0,1.8l3.5,3.5c0.2,0.2,0.6,0.4,0.9,0.4s0.6-0.1,0.9-0.4
			c0.5-0.5,0.5-1.3,0-1.8L38.3,36.5z"/>
		<path d="M8.7,25c0-0.7-0.6-1.2-1.2-1.2H2.6c-0.7,0-1.2,0.6-1.2,1.2s0.6,1.2,1.2,1.2h4.9C8.2,26.2,8.7,25.7,8.7,25z"/>
		<path d="M47.4,23.8h-4.9c-0.7,0-1.2,0.6-1.2,1.2s0.6,1.2,1.2,1.2h4.9c0.7,0,1.2-0.6,1.2-1.2C48.6,24.3,48.1,23.8,47.4,23.8z"/>
		<path d="M11.7,36.5l-3.5,3.5c-0.5,0.5-0.5,1.3,0,1.8c0.2,0.2,0.6,0.4,0.9,0.4c0.3,0,0.6-0.1,0.9-0.4l3.5-3.5
			c0.5-0.5,0.5-1.3,0-1.8C13,36,12.2,36,11.7,36.5z"/>
		<path d="M37.4,13.9c0.3,0,0.6-0.1,0.9-0.4l3.5-3.5c0.5-0.5,0.5-1.3,0-1.8c-0.5-0.5-1.3-0.5-1.8,0l-3.5,3.5c-0.5,0.5-0.5,1.3,0,1.8
			C36.7,13.8,37.1,13.9,37.4,13.9z"/>
		<path d="M25,11.1c-7.7,0-13.9,6.3-13.9,13.9S17.3,38.9,25,38.9S38.9,32.7,38.9,25S32.7,11.1,25,11.1z M25,36.4
			c-6.3,0-11.4-5.1-11.4-11.4c0-6.3,5.1-11.4,11.4-11.4S36.4,18.7,36.4,25C36.4,31.3,31.3,36.4,25,36.4z"/>
	</g>
</g>
</svg>
