<svg xmlns="http://www.w3.org/2000/svg" xmlns:xlink="http://www.w3.org/1999/xlink" version="1.1" width="80" height="80" enable-background="new 216 216 80 80" xml:space="preserve"><rect id="backgroundrect" width="100%" height="100%" x="0" y="0" fill="none" stroke="none"/>

<g class="currentLayer"><title>Layer 1</title><g id="svg_1" class="" fill="#000000" fill-opacity="1">
	<g id="svg_2" fill="#000000" fill-opacity="1">
		<g id="svg_3" fill="#000000" fill-opacity="1">
			<path fill="#000000" d="M33.63691186523437,62.27045593261721 c-0.6130000000000001,0 -1.113,-0.49700000000000005 -1.113,-1.111 s0.49700000000000005,-1.111 1.113,-1.111 h12.91 c0.6130000000000001,0 1.111,0.49700000000000005 1.111,1.111 s-0.49700000000000005,1.111 -1.111,1.111 H33.63691186523437 z" id="svg_4" fill-opacity="1"/>
			<path fill="#000000" d="M35.070911865234365,66.67745593261719 c-0.6130000000000001,0 -1.111,-0.49700000000000005 -1.111,-1.111 s0.5,-1.111 1.111,-1.111 h10.041 c0.6130000000000001,0 1.111,0.49700000000000005 1.111,1.111 s-0.49700000000000005,1.111 -1.111,1.111 H35.070911865234365 z" id="svg_5" fill-opacity="1"/>
			<path fill="#000000" d="M39.04591186523439,51.324455932617184 c0,0.6110000000000001 -0.49500000000000005,1.106 -1.106,1.106 s-1.106,-0.49500000000000005 -1.106,-1.106 c-0.005000000000000001,-4.676 -0.139,-8.169 -0.784,-11.404 c-0.6390000000000001,-3.197 -1.782,-6.161 -3.811,-9.817 c-0.29600000000000004,-0.534 -0.10400000000000001,-1.208 0.42800000000000005,-1.504 c0.535,-0.29600000000000004 1.208,-0.10400000000000001 1.506,0.42800000000000005 c2.154,3.882 3.373,7.043 4.053,10.46 C38.90091186523438,42.86145593261716 39.04191186523437,46.48445593261721 39.04591186523439,51.324455932617184 z" id="svg_6" fill-opacity="1"/>
			<path fill="#000000" d="M43.34991186523439,51.324455932617184 c0,0.6110000000000001 -0.49500000000000005,1.106 -1.106,1.106 c-0.6110000000000001,0 -1.106,-0.49500000000000005 -1.106,-1.106 c0.005000000000000001,-4.84 0.14600000000000002,-8.461 0.8190000000000001,-11.836 c0.6800000000000002,-3.417 1.9,-6.578 4.054,-10.46 c0.29600000000000004,-0.534 0.972,-0.7260000000000001 1.504,-0.42800000000000005 c0.534,0.29600000000000004 0.7240000000000001,0.972 0.42800000000000005,1.504 c-2.029,3.656 -3.172,6.622 -3.811,9.817 C43.4889118652344,43.1554559326172 43.3519118652344,46.648455932617196 43.34991186523439,51.324455932617184 z" id="svg_7" fill-opacity="1"/>
			<path fill="#000000" d="M32.86891186523437,30.6194559326172 c-0.5830000000000001,-0.18500000000000003 -0.902,-0.81 -0.7170000000000001,-1.393 c0.18700000000000003,-0.5830000000000001 0.81,-0.902 1.393,-0.7170000000000001 c0.773,0.25 1.441,0.5850000000000001 2.059,0.8950000000000001 l0.06000000000000001,0.03200000000000001 c0.9650000000000001,0.48600000000000004 1.7680000000000002,0.8650000000000001 2.365,0.37900000000000006 l1.365,-1.113 c0.47400000000000003,-0.38400000000000006 1.173,-0.31200000000000006 1.557,0.16200000000000003 c0.38400000000000006,0.47400000000000003 0.31200000000000006,1.173 -0.16200000000000003,1.557 l-1.365,1.113 c-1.701,1.3840000000000001 -3.091,0.7100000000000001 -4.766,-0.13 l-0.05100000000000001,-0.023000000000000007 C34.064911865234365,31.110455932617185 33.47691186523437,30.816455932617174 32.86891186523437,30.6194559326172 z" id="svg_8" fill-opacity="1"/>
			<path fill="#000000" d="M41.2029118652344,5.421455932617192 c0,0.6130000000000001 -0.49700000000000005,1.111 -1.111,1.111 c-0.6130000000000001,0 -1.111,-0.49700000000000005 -1.111,-1.111 v-4.303 c0,-0.6130000000000001 0.49700000000000005,-1.111 1.111,-1.111 c0.6130000000000001,0 1.111,0.49700000000000005 1.111,1.111 V5.421455932617192 z" id="svg_9" fill-opacity="1"/>
			<path fill="#000000" d="M46.63991186523435,28.509455932617186 c0.5830000000000001,-0.18700000000000003 1.208,0.134 1.393,0.7170000000000001 c0.18700000000000003,0.5830000000000001 -0.134,1.208 -0.7170000000000001,1.393 c-0.6080000000000001,0.19700000000000004 -1.196,0.49300000000000005 -1.7400000000000002,0.7660000000000001 l-0.05100000000000001,0.023000000000000007 c-1.673,0.8400000000000001 -3.066,1.5150000000000001 -4.766,0.13 l-1.365,-1.113 c-0.47400000000000003,-0.38400000000000006 -0.546,-1.083 -0.16200000000000003,-1.557 c0.38400000000000006,-0.47400000000000003 1.083,-0.546 1.557,-0.16200000000000003 l1.365,1.113 c0.5970000000000001,0.48600000000000004 1.397,0.10400000000000001 2.365,-0.37900000000000006 l0.06000000000000001,-0.03200000000000001 C45.1979118652344,29.0954559326172 45.866911865234385,28.759455932617186 46.63991186523435,28.509455932617186 z" id="svg_10" fill-opacity="1"/>
			<path fill="#000000" d="M54.06391186523439,17.270455932617182 c3.575,3.575 5.789,8.517 5.789,13.972 c0,2.133 -0.3420000000000001,4.195 -0.972,6.127 c-0.6500000000000001,1.9969999999999999 -1.6150000000000002,3.859 -2.83,5.52 c-2.038,2.7880000000000003 -3.692,4.618 -4.977,6.041 c-2.311,2.557 -3.325,3.677 -3.325,7.415 c0,0.6130000000000001 -0.49700000000000005,1.111 -1.111,1.111 h-0.028000000000000004 h-6.471 h-6.501 c-0.6130000000000001,0 -1.113,-0.49700000000000005 -1.113,-1.111 c0,-3.702 -1.034,-4.833 -3.329,-7.348 l-0.0020000000000000005,-0.0020000000000000005 l-0.0020000000000000005,0.0020000000000000005 c-1.298,-1.421 -2.968,-3.251 -5.058,-6.108 c-1.215,-1.661 -2.179,-3.526 -2.83,-5.523 c-0.6290000000000001,-1.9300000000000002 -0.972,-3.993 -0.972,-6.124 c0,-2.67 0.535,-5.224 1.502,-7.556 l0.021000000000000005,-0.04400000000000001 c1.004,-2.406 2.466,-4.572 4.269,-6.372 c1.814,-1.814 3.991,-3.281 6.416,-4.285 v-0.0020000000000000005 c2.332,-0.9670000000000001 4.886,-1.502 7.556,-1.502 c2.665,0 5.217,0.534 7.552,1.502 C50.068911865234384,13.987455932617195 52.24991186523437,15.456455932617189 54.06391186523439,17.270455932617182 L54.06391186523439,17.270455932617182 zM57.62991186523436,31.24245593261719 c0,-4.8420000000000005 -1.964,-9.227 -5.136,-12.401 c-1.622,-1.622 -3.5540000000000003,-2.927 -5.692,-3.811 c-2.059,-0.8540000000000001 -4.327,-1.326 -6.71,-1.326 c-2.3810000000000002,0 -4.648,0.47200000000000003 -6.705,1.326 v-0.0020000000000000005 l-0.005000000000000001,0.0020000000000000005 c-2.138,0.8840000000000001 -4.067,2.189 -5.689,3.811 c-1.606,1.606 -2.904,3.521 -3.79,5.636 l-0.023000000000000007,0.06000000000000001 c-0.8510000000000001,2.057 -1.326,4.324 -1.326,6.705 c0,1.9020000000000001 0.30300000000000005,3.734 0.8580000000000001,5.439 c0.5810000000000001,1.774 1.4340000000000002,3.427 2.508,4.898 c2.006,2.744 3.6390000000000002,4.532 4.91,5.925 l-0.0020000000000000005,0.0020000000000000005 c2.471,2.7 3.6990000000000003,4.051 3.8920000000000003,7.73 h5.416 h5.416 c0.19000000000000003,-3.704 1.395,-5.041 3.878,-7.785 c1.24,-1.372 2.834,-3.137 4.831,-5.867 c1.073,-1.469 1.927,-3.121 2.5060000000000002,-4.896 C57.326911865234365,34.9764559326172 57.62991186523436,33.14645593261719 57.62991186523436,31.24245593261719 z" id="svg_11" fill-opacity="1"/>
			<path fill="#000000" d="M36.50591186523437,71.08245593261717 c-0.6130000000000001,0 -1.111,-0.49700000000000005 -1.111,-1.111 s0.49700000000000005,-1.111 1.111,-1.111 h7.172 c0.6130000000000001,0 1.111,0.49700000000000005 1.111,1.111 s-0.49700000000000005,1.111 -1.111,1.111 H36.50591186523437 z" id="svg_12" fill-opacity="1"/>
			<path fill="#000000" d="M53.71691186523435,9.366455932617185 c-0.30300000000000005,0.527 -0.981,0.7100000000000001 -1.5110000000000001,0.40700000000000003 c-0.527,-0.30300000000000005 -0.7100000000000001,-0.981 -0.40700000000000003,-1.5110000000000001 l2.152,-3.7270000000000003 c0.30300000000000005,-0.527 0.981,-0.7100000000000001 1.5110000000000001,-0.40700000000000003 c0.53,0.30300000000000005 0.7100000000000001,0.981 0.40700000000000003,1.5110000000000001 L53.71691186523435,9.366455932617185 z" id="svg_13" fill-opacity="1"/>
			<path fill="#000000" d="M28.382911865234377,8.265455932617186 c0.30300000000000005,0.527 0.12300000000000001,1.205 -0.40700000000000003,1.509 c-0.527,0.30300000000000005 -1.205,0.12000000000000001 -1.508,-0.40700000000000003 l-2.152,-3.7270000000000003 c-0.30300000000000005,-0.527 -0.12000000000000001,-1.205 0.40700000000000003,-1.508 c0.53,-0.30300000000000005 1.208,-0.12000000000000001 1.5110000000000001,0.40700000000000003 L28.382911865234377,8.265455932617186 z" id="svg_14" fill-opacity="1"/>
			<path fill="#000000" d="M18.70491186523438,17.128455932617186 c0.527,0.30300000000000005 0.7100000000000001,0.981 0.40700000000000003,1.5110000000000001 c-0.30300000000000005,0.527 -0.981,0.7100000000000001 -1.509,0.40700000000000003 l-3.7270000000000003,-2.152 c-0.53,-0.30300000000000005 -0.7130000000000001,-0.981 -0.40900000000000003,-1.508 c0.30300000000000005,-0.53 0.981,-0.7100000000000001 1.5110000000000001,-0.40700000000000003 L18.70491186523438,17.128455932617186 z" id="svg_15" fill-opacity="1"/>
			<path fill="#000000" d="M62.580911865234384,19.046455932617192 c-0.53,0.30300000000000005 -1.208,0.12000000000000001 -1.5110000000000001,-0.40700000000000003 c-0.30300000000000005,-0.53 -0.12000000000000001,-1.208 0.40700000000000003,-1.5110000000000001 l3.7270000000000003,-2.152 c0.53,-0.30300000000000005 1.208,-0.12000000000000001 1.5110000000000001,0.40700000000000003 c0.30300000000000005,0.527 0.12000000000000001,1.208 -0.40700000000000003,1.5110000000000001 L62.580911865234384,19.046455932617192 z" id="svg_16" fill-opacity="1"/>
			<path fill="#000000" d="M28.55391186523437,35.6314559326172 c0.23600000000000002,0.562 -0.028000000000000004,1.212 -0.5900000000000001,1.448 c-0.562,0.23600000000000002 -1.212,-0.028000000000000004 -1.448,-0.5900000000000001 c-0.37700000000000006,-0.8930000000000001 -0.6710000000000002,-1.835 -0.8650000000000001,-2.806 c-0.19200000000000003,-0.9600000000000001 -0.29600000000000004,-1.941 -0.29600000000000004,-2.927 c0,-0.6130000000000001 0.5,-1.111 1.111,-1.111 c0.6130000000000001,0 1.111,0.5 1.111,1.111 c0,0.8680000000000001 0.08600000000000002,1.703 0.24500000000000002,2.494 C27.98491186523438,34.074455932617184 28.23491186523438,34.874455932617195 28.55391186523437,35.6314559326172 L28.55391186523437,35.6314559326172 zM28.55391186523437,25.87945593261719 c-0.23600000000000002,0.562 -0.8860000000000001,0.8260000000000001 -1.448,0.5900000000000001 s-0.8260000000000001,-0.8860000000000001 -0.5900000000000001,-1.448 c0.37200000000000005,-0.8820000000000001 0.8280000000000001,-1.717 1.3490000000000002,-2.492 l0.0020000000000000005,-0.0020000000000000005 l-0.0020000000000000005,-0.0020000000000000005 c0.535,-0.791 1.141,-1.5270000000000001 1.8050000000000002,-2.191 c0.6570000000000001,-0.6570000000000001 1.393,-1.263 2.193,-1.802 v-0.0020000000000000005 c0.7680000000000001,-0.518 1.608,-0.974 2.496,-1.3490000000000002 c0.8910000000000001,-0.37700000000000006 1.83,-0.6710000000000002 2.8040000000000003,-0.8650000000000001 c0.9600000000000001,-0.19400000000000003 1.9460000000000002,-0.29600000000000004 2.9290000000000003,-0.29600000000000004 c0.6130000000000001,0 1.111,0.49700000000000005 1.111,1.111 s-0.49700000000000005,1.111 -1.111,1.111 c-0.8700000000000001,0 -1.707,0.08600000000000002 -2.496,0.24300000000000002 c-0.8260000000000001,0.16400000000000003 -1.624,0.41600000000000004 -2.378,0.7360000000000001 c-0.7330000000000001,0.31000000000000005 -1.441,0.6960000000000002 -2.115,1.15 l0,0 h-0.0020000000000000005 c-0.6550000000000001,0.44000000000000006 -1.279,0.9580000000000001 -1.858,1.536 c-0.5710000000000001,0.5710000000000001 -1.09,1.198 -1.536,1.862 l-0.0020000000000000005,-0.0020000000000000005 C29.25291186523438,24.433455932617193 28.86591186523438,25.14145593261719 28.55391186523437,25.87945593261719 z" id="svg_17" fill-opacity="1"/>
		</g>
	</g>
</g></g></svg>