<?xml version="1.0" encoding="utf-8"?>
<!-- Generator: Adobe Illustrator 17.0.0, SVG Export Plug-In . SVG Version: 6.00 Build 0)  -->
<!DOCTYPE svg PUBLIC "-//W3C//DTD SVG 1.1//EN" "http://www.w3.org/Graphics/SVG/1.1/DTD/svg11.dtd">
<svg version="1.1" id="Capa_1" xmlns="http://www.w3.org/2000/svg" xmlns:xlink="http://www.w3.org/1999/xlink" x="0px" y="0px"
	 width="50px" height="50px" viewBox="231 231 50 50" enable-background="new 231 231 50 50" xml:space="preserve">
<g>
	<g>
		<path fill="#FFFFFF" d="M255.999,240.529c0.655,0,1.187-0.532,1.187-1.187v-4.655c0-0.655-0.532-1.187-1.187-1.187
			c-0.655,0-1.187,0.532-1.187,1.187v4.655C254.812,239.997,255.344,240.529,255.999,240.529z"/>
		<path fill="#FFFFFF" d="M255.999,271.475c-0.655,0-1.187,0.532-1.187,1.187v4.651c0,0.655,0.532,1.187,1.187,1.187
			c0.655,0,1.187-0.532,1.187-1.187v-4.651C257.186,272.006,256.655,271.475,255.999,271.475z"/>
		<path fill="#FFFFFF" d="M243.38,245.059c0.232,0.232,0.535,0.348,0.839,0.348c0.304,0,0.607-0.116,0.839-0.348
			c0.464-0.464,0.464-1.215,0-1.678l-3.29-3.29c-0.463-0.464-1.215-0.464-1.678,0s-0.464,1.215,0,1.678L243.38,245.059z"/>
		<path fill="#FFFFFF" d="M268.62,266.941c-0.464-0.464-1.215-0.463-1.679-0.001c-0.464,0.464-0.464,1.215-0.001,1.679l3.29,3.293
			c0.232,0.232,0.536,0.348,0.84,0.348c0.304,0,0.607-0.116,0.839-0.347c0.464-0.464,0.464-1.215,0.001-1.679L268.62,266.941z"/>
		<path fill="#FFFFFF" d="M240.527,256.001c0-0.655-0.532-1.187-1.187-1.187h-4.653c-0.655,0-1.187,0.532-1.187,1.187
			c0,0.655,0.532,1.187,1.187,1.187h4.653C239.995,257.188,240.527,256.656,240.527,256.001z"/>
		<path fill="#FFFFFF" d="M277.313,254.814h-4.653c-0.655,0-1.187,0.532-1.187,1.187c0,0.655,0.532,1.187,1.187,1.187h4.653
			c0.655,0,1.187-0.532,1.187-1.187C278.5,255.345,277.969,254.814,277.313,254.814z"/>
		<path fill="#FFFFFF" d="M243.38,266.941l-3.29,3.293c-0.463,0.464-0.463,1.215,0.001,1.679c0.232,0.232,0.535,0.347,0.839,0.347
			s0.608-0.116,0.84-0.348l3.29-3.293c0.463-0.464,0.463-1.215-0.001-1.679C244.594,266.477,243.843,266.478,243.38,266.941z"/>
		<path fill="#FFFFFF" d="M267.78,245.407c0.304,0,0.607-0.116,0.839-0.348l3.29-3.29c0.464-0.464,0.464-1.215,0-1.678
			c-0.464-0.464-1.215-0.464-1.678,0l-3.29,3.29c-0.464,0.464-0.464,1.215,0,1.678C267.172,245.291,267.476,245.407,267.78,245.407z
			"/>
		<path fill="#FFFFFF" d="M256,242.732c-7.317,0-13.27,5.952-13.27,13.269c0,7.317,5.953,13.27,13.27,13.27
			c7.317,0,13.27-5.953,13.27-13.27C269.27,248.684,263.317,242.732,256,242.732z M256,266.897c-6.009,0-10.896-4.888-10.896-10.896
			c0-6.007,4.888-10.894,10.896-10.894c6.008,0,10.896,4.888,10.896,10.894C266.896,262.009,262.008,266.897,256,266.897z"/>
	</g>
</g>
</svg>
