<?xml version="1.0" encoding="utf-8"?>
<!-- Generator: Adobe Illustrator 17.0.0, SVG Export Plug-In . SVG Version: 6.00 Build 0)  -->
<!DOCTYPE svg PUBLIC "-//W3C//DTD SVG 1.1//EN" "http://www.w3.org/Graphics/SVG/1.1/DTD/svg11.dtd">
<svg version="1.1" id="Layer_1" xmlns="http://www.w3.org/2000/svg" xmlns:xlink="http://www.w3.org/1999/xlink" x="0px" y="0px"
	 width="50px" height="50px" viewBox="0 0 50 50" enable-background="new 0 0 50 50" xml:space="preserve">
<g>
	<g>
		<g>
			<path fill="#FFFFFF" d="M44.33,35.209c0-0.141,0-0.141,0-0.282V20.75c0-0.852-0.563-1.416-1.416-1.416
				c-0.852,0-1.416,0.712-1.416,1.416V34.92c0,0.141,0,0.141,0,0.282c-1.705,0.571-2.831,2.127-2.831,3.965
				c0,2.409,1.845,4.254,4.254,4.254c2.409,0,4.254-1.845,4.254-4.254C47.169,37.336,46.035,35.78,44.33,35.209z"/>
			<path fill="#FFFFFF" d="M47.169,33.512V7.994c0-2.409-1.845-4.254-4.254-4.254s-4.254,1.986-4.254,4.254v25.51
				c-1.705,1.275-2.831,3.402-2.831,5.67c0,3.965,3.12,7.085,7.085,7.085S50,43.14,50,39.174C50,36.907,48.866,34.787,47.169,33.512
				z M42.915,44.852c-3.12,0-5.67-2.549-5.67-5.67c0-2.127,1.134-3.965,2.831-4.958V7.994c0-1.556,1.275-2.831,2.831-2.831
				s2.831,1.275,2.831,2.831v26.222c1.705,0.993,2.831,2.831,2.831,4.958C48.584,42.295,46.035,44.852,42.915,44.852z"/>
		</g>
	</g>
</g>
</svg>
