<?xml version="1.0" encoding="utf-8"?>
<!-- Generator: Adobe Illustrator 17.0.0, SVG Export Plug-In . SVG Version: 6.00 Build 0)  -->
<!DOCTYPE svg PUBLIC "-//W3C//DTD SVG 1.1//EN" "http://www.w3.org/Graphics/SVG/1.1/DTD/svg11.dtd">
<svg version="1.1" id="Layer_1" xmlns="http://www.w3.org/2000/svg" xmlns:xlink="http://www.w3.org/1999/xlink" x="0px" y="0px"
	 width="50px" height="50px" viewBox="0 0 50 50" enable-background="new 0 0 50 50" xml:space="preserve">
<g>
	<g>
		<g>
			<path fill="#FFFFFF" d="M17.742,34.737c0.125-0.125,0.125-0.125,0.249-0.249l12.532-12.532c0.753-0.753,0.754-1.749,0-2.503
				c-0.753-0.753-1.881-0.622-2.503,0L15.494,31.978c-0.125,0.125-0.125,0.125-0.249,0.249c-2.012-1.002-4.383-0.622-6.008,1.002
				c-2.13,2.13-2.13,5.391,0,7.521s5.391,2.13,7.521,0C18.371,39.127,18.744,36.749,17.742,34.737z"/>
			<path fill="#FFFFFF" d="M21.751,35.746l22.558-22.558c2.13-2.13,2.13-5.391,0-7.521s-5.516-2.005-7.521,0L14.237,28.218
				c-2.634-0.38-5.51,0.505-7.515,2.51c-3.505,3.505-3.505,9.021,0,12.526c3.505,3.505,9.02,3.506,12.526,0
				C21.253,41.25,22.124,38.374,21.751,35.746z M7.966,42.01c-2.758-2.758-2.759-7.266,0-10.024c1.88-1.88,4.507-2.503,6.885-1.88
				L38.039,6.919c1.375-1.375,3.63-1.375,5.005,0c1.375,1.375,1.375,3.63,0,5.005l-23.18,23.18c0.629,2.385,0,5.005-1.88,6.885
				C15.238,44.761,10.724,44.768,7.966,42.01z"/>
		</g>
	</g>
</g>
</svg>
